<svg width="19" height="19" viewBox="0 0 19 19" fill="none" xmlns="http://www.w3.org/2000/svg">
<path d="M2.41942 17.5717C3.88154 19.0338 6.26591 19.0285 7.73456 17.5598L16.672 8.62236C18.6302 6.66417 18.6373 3.485 16.6878 1.53551C14.7383 -0.413982 11.5592 -0.406901 9.60097 1.5513L0.663489 10.4888L1.54737 11.3727L10.4849 2.43518C11.9535 0.966532 14.3379 0.961221 15.8 2.42334C17.2621 3.88546 17.2568 6.26983 15.7882 7.73848L6.85067 16.676C5.87158 17.6551 4.282 17.6586 3.30725 16.6839C2.3325 15.7091 2.33604 14.1195 3.31514 13.1404L10.477 5.97861C10.9665 5.48906 11.7613 5.48729 12.2487 5.97466C12.7361 6.46203 12.7343 7.25682 12.2447 7.74637L5.08291 14.9082L5.96679 15.7921L13.1286 8.63026C14.1077 7.65116 14.1113 6.06158 13.1365 5.08683C12.1618 4.11208 10.5722 4.11562 9.59308 5.09472L2.43126 12.2565C0.96261 13.7252 0.957299 16.1096 2.41942 17.5717Z" fill="#323232"/>
</svg>
