<svg width="62" height="62" viewBox="0 0 62 62" fill="none" xmlns="http://www.w3.org/2000/svg">
<path fill-rule="evenodd" clip-rule="evenodd" d="M31 0C13.888 0 0 13.888 0 31C0 48.112 13.888 62 31 62C48.112 62 62 48.112 62 31C62 13.888 48.112 0 31 0ZM29.791 44.33H24.8V34.162C24.8 32.147 24.707 30.876 24.521 30.318C24.335 29.76 23.994 29.357 23.529 29.016C23.064 28.706 22.444 28.52 21.731 28.52C20.894 28.52 20.15 28.737 19.53 29.14C18.879 29.543 18.383 30.163 18.104 31C17.794 31.837 17.639 33.046 17.639 34.658V44.299H12.648V17.019H17.639V27.559C19.251 25.637 21.173 24.676 23.405 24.676C24.552 24.676 25.575 24.893 26.505 25.327C27.435 25.761 28.117 26.319 28.582 27.001C29.047 27.683 29.357 28.427 29.543 29.264C29.729 30.07 29.791 31.341 29.791 33.077V44.33ZM49.445 44.33H44.454V34.162C44.454 32.147 44.361 30.876 44.175 30.318C43.989 29.76 43.648 29.357 43.183 29.016C42.718 28.706 42.098 28.52 41.385 28.52C40.548 28.52 39.804 28.737 39.184 29.14C38.533 29.543 38.068 30.163 37.758 31C37.448 31.837 37.293 33.046 37.293 34.658V44.33H32.302V17.019H37.293V27.559C38.905 25.637 40.827 24.676 43.059 24.676C44.206 24.676 45.229 24.893 46.159 25.327C47.089 25.761 47.771 26.319 48.236 27.001C48.701 27.683 49.011 28.427 49.197 29.264C49.383 30.07 49.445 31.341 49.445 33.077V44.33Z" fill="#323232"/>
</svg>
