<svg width="37" height="19" viewBox="0 0 37 19" fill="none" xmlns="http://www.w3.org/2000/svg">
<rect x="0.5" y="0.5" width="36" height="18" rx="4.5" fill="white" stroke="#E5E5E5"/>
<path d="M18.5169 7.20093C17.3114 7.20093 16.334 8.17834 16.334 9.38382C16.334 10.5893 17.3114 11.5667 18.5169 11.5667C19.7223 11.5667 20.6998 10.5893 20.6998 9.38382C20.6998 8.17834 19.7223 7.20093 18.5169 7.20093Z" fill="#323232"/>
<path d="M20.7967 2.90039H16.2355C13.9222 2.90039 12 4.82264 12 7.13585V11.6645C12 14.0103 13.9222 15.9 16.2355 15.9H20.7641C23.1099 15.9 24.9996 13.9777 24.9996 11.6645V7.13585C25.0322 4.82264 23.1099 2.90039 20.7967 2.90039ZM18.5161 12.8048C16.659 12.8048 15.1277 11.3061 15.1277 9.41648C15.1277 7.52681 16.659 6.02811 18.5161 6.02811C20.3732 6.02811 21.9045 7.52681 21.9045 9.41648C21.9045 11.2736 20.4058 12.8048 18.5161 12.8048ZM21.8393 6.84262C21.3832 6.84262 21.0248 6.45166 21.0248 6.02811C21.0248 5.60457 21.4157 5.18102 21.8393 5.18102C22.2954 5.18102 22.6538 5.57199 22.6538 5.99553C22.6538 6.48424 22.2954 6.84262 21.8393 6.84262Z" fill="#323232"/>
</svg>
