<svg width="76" height="39" viewBox="0 0 76 39" fill="none" xmlns="http://www.w3.org/2000/svg">
<rect x="0.5" y="0.5" width="75" height="38" rx="4.5" fill="white" stroke="#E5E5E5"/>
<path d="M38 8C31.3736 8 26 13.3736 26 20C26 26.6264 31.3736 32 38 32C44.6264 32 50 26.6264 50 20C50 13.3736 44.6264 8 38 8ZM34.5129 26.1406H31.5904V17.3481H34.5129V26.1406ZM33.0518 16.1475H33.0327C32.052 16.1475 31.4177 15.4724 31.4177 14.6286C31.4177 13.7658 32.0714 13.1094 33.0712 13.1094C34.0709 13.1094 34.6862 13.7658 34.7052 14.6286C34.7052 15.4724 34.0709 16.1475 33.0518 16.1475ZM45.051 26.1406H42.1288V21.4368C42.1288 20.2547 41.7057 19.4485 40.6483 19.4485C39.8409 19.4485 39.3601 19.9923 39.1488 20.5173C39.0715 20.7051 39.0527 20.9677 39.0527 21.2305V26.1406H36.1303C36.1303 26.1406 36.1686 18.173 36.1303 17.3481H39.0527V18.593C39.441 17.9939 40.1359 17.1417 41.6865 17.1417C43.6093 17.1417 45.051 18.3984 45.051 21.099V26.1406Z" fill="#323232"/>
</svg>
