<svg width="53" height="63" viewBox="0 0 53 43" fill="none" xmlns="http://www.w3.org/2000/svg">
<path opacity="0.4" d="M50.0155 34.9703C50.9874 36.0135 51.6796 37.1317 52.0456 38.3023L51.5684 38.4515C51.7515 39.0372 51.8457 39.6343 51.8457 40.2407C51.8457 40.8471 51.7515 41.4442 51.5684 42.0299L52.0456 42.1791C51.6796 43.3497 50.9874 44.4679 50.0155 45.5111L49.6497 45.1703C48.8596 46.0184 47.8689 46.8229 46.7001 47.5673L46.9687 47.9891C45.9305 48.6502 44.7627 49.2605 43.4838 49.8107L43.2862 49.3514C42.1559 49.8377 40.935 50.2773 39.6363 50.6633L39.7787 51.1426C38.5666 51.5029 37.2897 51.8165 35.9585 52.0782L35.8621 51.5876C34.6243 51.831 33.3382 52.0293 32.0126 52.1781L32.0684 52.675C30.793 52.8181 29.482 52.9158 28.1429 52.9644L28.1248 52.4647C27.4805 52.4881 26.8295 52.5 26.1728 52.5C25.5161 52.5 24.8652 52.4881 24.2209 52.4647L24.2028 52.9644C22.8637 52.9158 21.5527 52.8181 20.2773 52.675L20.3331 52.1781C19.0074 52.0293 17.7214 51.831 16.4836 51.5876L16.3871 52.0782C15.0559 51.8165 13.779 51.5029 12.5669 51.1426L12.7094 50.6633C11.4107 50.2773 10.1898 49.8377 9.05952 49.3514L8.86192 49.8107C7.58296 49.2605 6.41514 48.6502 5.37701 47.9891L5.6456 47.5673C4.47674 46.8229 3.48612 46.0184 2.696 45.1703L2.33016 45.5111C1.35831 44.4679 0.666079 43.3497 0.300109 42.1791L0.777329 42.0299C0.594206 41.4442 0.5 40.8471 0.5 40.2407C0.5 39.6343 0.594206 39.0372 0.777328 38.4515L0.300108 38.3023C0.666078 37.1317 1.35831 36.0135 2.33016 34.9703L2.696 35.3111C3.48612 34.463 4.47673 33.6585 5.6456 32.9141L5.377 32.4923C6.41514 31.8312 7.58296 31.221 8.86192 30.6707L9.05952 31.13C10.1898 30.6438 11.4107 30.2041 12.7094 29.8181L12.5669 29.3388C13.779 28.9785 15.056 28.665 16.3871 28.4032L16.4836 28.8938C17.7214 28.6504 19.0075 28.4521 20.3331 28.3033L20.2773 27.8065C21.5527 27.6633 22.8637 27.5656 24.2028 27.517L24.2209 28.0167C24.8652 27.9933 25.5161 27.9814 26.1728 27.9814C26.8295 27.9814 27.4805 27.9933 28.1248 28.0167L28.1429 27.517C29.482 27.5656 30.793 27.6633 32.0684 27.8065L32.0126 28.3033C33.3382 28.4521 34.6243 28.6504 35.8621 28.8938L35.9585 28.4032C37.2897 28.665 38.5666 28.9785 39.7787 29.3388L39.6363 29.8181C40.935 30.2041 42.1559 30.6438 43.2862 31.13L43.4838 30.6707C44.7627 31.221 45.9305 31.8312 46.9687 32.4923L46.7001 32.9141C47.8689 33.6585 48.8596 34.463 49.6497 35.3111L50.0155 34.9703Z" stroke="#3700FF" stroke-dasharray="4 4"/>
<g opacity="0.67" filter="url(#filter0_f)">
<ellipse cx="26.5" cy="40.5" rx="14.5" ry="2.5" fill="#3700FF"/>
</g>
<path fill-rule="evenodd" clip-rule="evenodd" d="M33.3702 0H18.3208L5.23438 36.642H21.2109L26.4998 40.5679L31.7886 36.642H46.4566L33.3702 0Z" fill="#3700FF"/>
<defs>
<filter id="filter0_f" x="5" y="31" width="43" height="19" filterUnits="userSpaceOnUse" color-interpolation-filters="sRGB">
<feFlood flood-opacity="0" result="BackgroundImageFix"/>
<feBlend mode="normal" in="SourceGraphic" in2="BackgroundImageFix" result="shape"/>
<feGaussianBlur stdDeviation="3.5" result="effect1_foregroundBlur"/>
</filter>
</defs>
</svg>
