<svg width="53" height="63" viewBox="0 0 53 43" fill="none" xmlns="http://www.w3.org/2000/svg">
<path opacity="0.4" fill-rule="evenodd" clip-rule="evenodd" d="M52.0456 42.1791L51.0911 41.8807C51.2598 41.3414 51.3457 40.7946 51.3457 40.2407C51.3457 39.6868 51.2598 39.14 51.0911 38.6007L52.0456 38.3023C52.2432 38.9344 52.3457 39.5817 52.3457 40.2407C52.3457 40.8997 52.2432 41.5471 52.0456 42.1791ZM50.0155 34.9703L49.2838 35.6519C48.5277 34.8402 47.5715 34.0619 46.4315 33.3358L46.9687 32.4923C48.1664 33.2551 49.1915 34.0857 50.0155 34.9703ZM43.4838 30.6707L43.0886 31.5893C41.9777 31.1114 40.7753 30.6783 39.4938 30.2974L39.7787 29.3388C41.0946 29.73 42.3341 30.1761 43.4838 30.6707ZM35.9585 28.4032L35.7656 29.3844C34.5417 29.1437 33.2692 28.9475 31.9569 28.8002L32.0684 27.8065C33.4073 27.9567 34.7069 28.157 35.9585 28.4032ZM28.1429 27.517L28.1067 28.5164C27.4684 28.4932 26.8235 28.4814 26.1728 28.4814C25.5222 28.4814 24.8773 28.4932 24.239 28.5164L24.2028 27.517C24.8531 27.4935 25.5101 27.4814 26.1728 27.4814C26.8356 27.4814 27.4926 27.4935 28.1429 27.517ZM20.2773 27.8065L20.3888 28.8002C19.0765 28.9475 17.804 29.1437 16.5801 29.3844L16.3871 28.4032C17.6388 28.157 18.9384 27.9567 20.2773 27.8065ZM12.5669 29.3388L12.8519 30.2974C11.5704 30.6783 10.368 31.1114 9.25712 31.5893L8.86192 30.6707C10.0116 30.1761 11.2511 29.73 12.5669 29.3388ZM5.377 32.4923L5.91419 33.3358C4.77416 34.0619 3.81803 34.8402 3.06185 35.6519L2.33016 34.9703C3.15422 34.0857 4.17931 33.2551 5.377 32.4923ZM0.300108 38.3023C0.102485 38.9344 0 39.5817 0 40.2407C0 40.8997 0.102485 41.5471 0.300109 42.1791L1.25455 41.8807C1.08593 41.3414 1 40.7946 1 40.2407C1 39.6868 1.08593 39.14 1.25455 38.6007L0.300108 38.3023ZM2.33016 45.5111L3.06185 44.8295C3.81803 45.6412 4.77416 46.4195 5.91419 47.1456L5.377 47.9891C4.17931 47.2263 3.15422 46.3957 2.33016 45.5111ZM8.86192 49.8107L9.25712 48.8921C10.368 49.37 11.5704 49.8031 12.8519 50.184L12.5669 51.1426C11.2511 50.7515 10.0116 50.3053 8.86192 49.8107ZM16.3871 52.0782L16.5801 51.097C17.804 51.3377 19.0765 51.5339 20.3888 51.6812L20.2773 52.675C18.9384 52.5247 17.6388 52.3244 16.3871 52.0782ZM24.2028 52.9644L24.239 51.965C24.8773 51.9882 25.5222 52 26.1728 52C26.8235 52 27.4684 51.9882 28.1067 51.965L28.1429 52.9644C27.4926 52.988 26.8356 53 26.1728 53C25.5101 53 24.8531 52.988 24.2028 52.9644ZM32.0684 52.675L31.9569 51.6812C33.2692 51.5339 34.5416 51.3377 35.7656 51.097L35.9585 52.0782C34.7069 52.3244 33.4073 52.5247 32.0684 52.675ZM39.7787 51.1426L39.4938 50.184C40.7753 49.8031 41.9777 49.37 43.0886 48.8921L43.4838 49.8107C42.3341 50.3053 41.0946 50.7515 39.7787 51.1426ZM46.9687 47.9891L46.4315 47.1456C47.5715 46.4195 48.5277 45.6412 49.2838 44.8295L50.0155 45.5111C49.1915 46.3957 48.1664 47.2263 46.9687 47.9891Z" fill="#323232"/>
<g opacity="0.67" filter="url(#filter0_f)">
<path d="M41 40.5C41 41.8807 34.5081 43 26.5 43C18.4919 43 12 41.8807 12 40.5C12 39.1193 18.4919 38 26.5 38C34.5081 38 41 39.1193 41 40.5Z" fill="#323232"/>
</g>
<path d="M33.3702 0H18.3208L5.23438 36.642H21.2109L26.4998 40.5679L31.7886 36.642H46.4566L33.3702 0Z" fill="#323232"/>
<defs>
<filter id="filter0_f" x="5" y="31" width="43" height="19" filterUnits="userSpaceOnUse" color-interpolation-filters="sRGB">
<feFlood flood-opacity="0" result="BackgroundImageFix"/>
<feBlend mode="normal" in="SourceGraphic" in2="BackgroundImageFix" result="shape"/>
<feGaussianBlur stdDeviation="3.5" result="effect1_foregroundBlur"/>
</filter>
</defs>
</svg>
