<svg width="45" height="58" viewBox="0 0 45 58" fill="none" xmlns="http://www.w3.org/2000/svg">
<path d="M40.3356 4.74741L40.3356 4.74743L40.3415 4.75258L44 7.95377V57H1V1H36.1198L40.3356 4.74741Z" stroke="#fff" stroke-width="2"/>
<path d="M11.6692 40.5C13.0292 40.5 14.0992 40.825 14.8792 41.475C15.6592 42.125 16.0492 43.02 16.0492 44.16C16.0492 45.3 15.6592 46.195 14.8792 46.845C14.0992 47.495 13.0292 47.82 11.6692 47.82H9.07422V51H7.57422L7.57422 40.5H11.6692ZM11.6242 46.515C12.5742 46.515 13.2992 46.315 13.7992 45.915C14.2992 45.505 14.5492 44.92 14.5492 44.16C14.5492 43.4 14.2992 42.82 13.7992 42.42C13.2992 42.01 12.5742 41.805 11.6242 41.805H9.07422V46.515H11.6242Z" fill="#fff"/>
<path d="M18.2529 40.5H22.6779C23.7879 40.5 24.7729 40.72 25.6329 41.16C26.4929 41.6 27.1579 42.22 27.6279 43.02C28.1079 43.81 28.3479 44.72 28.3479 45.75C28.3479 46.78 28.1079 47.695 27.6279 48.495C27.1579 49.285 26.4929 49.9 25.6329 50.34C24.7729 50.78 23.7879 51 22.6779 51H18.2529V40.5ZM22.5879 49.695C23.4379 49.695 24.1829 49.53 24.8229 49.2C25.4729 48.87 25.9729 48.41 26.3229 47.82C26.6729 47.22 26.8479 46.53 26.8479 45.75C26.8479 44.97 26.6729 44.285 26.3229 43.695C25.9729 43.095 25.4729 42.63 24.8229 42.3C24.1829 41.97 23.4379 41.805 22.5879 41.805H19.7529V49.695H22.5879Z" fill="#fff"/>
<path d="M32.1455 41.805V45.465L37.4105 45.465V46.755L32.1455 46.755V51H30.6455V40.5H38.0555V41.805H32.1455Z" fill="#fff"/>
<path fill-rule="evenodd" clip-rule="evenodd" d="M7.42578 40.3501H11.6708C13.0539 40.3501 14.1619 40.6808 14.9768 41.3599C15.7955 42.0421 16.2008 42.9817 16.2008 44.1601C16.2008 45.3385 15.7955 46.2781 14.9768 46.9603C14.1619 47.6394 13.0539 47.9701 11.6708 47.9701H9.22578V51.1501H7.42578L7.42578 40.3501ZM7.72578 40.6501L7.72578 50.8501H8.92578V47.6701H11.6708C13.0077 47.6701 14.0397 47.3508 14.7848 46.7299C15.5261 46.1121 15.9008 45.2617 15.9008 44.1601C15.9008 43.0585 15.5261 42.2081 14.7848 41.5903C14.0397 40.9694 13.0077 40.6501 11.6708 40.6501H7.72578ZM18.1045 40.3501H22.6795C23.8097 40.3501 24.8187 40.5742 25.7028 41.0266C26.5868 41.4788 27.2733 42.118 27.7583 42.9432C28.2537 43.7591 28.4995 44.6963 28.4995 45.7501C28.4995 46.8044 28.2535 47.7466 27.7581 48.5723C27.2729 49.3876 26.5864 50.0215 25.7028 50.4736C24.8187 50.926 23.8097 51.1501 22.6795 51.1501H18.1045V40.3501ZM18.4045 40.6501V50.8501H22.6795C23.7693 50.8501 24.7303 50.6342 25.5662 50.2066C26.4024 49.7787 27.0458 49.1829 27.5006 48.4184C27.9652 47.6441 28.1995 46.7558 28.1995 45.7501C28.1995 44.7443 27.9655 43.8619 27.5013 43.098L27.5001 43.0961C27.0452 42.3217 26.4019 41.7212 25.5662 41.2936C24.7303 40.866 23.7693 40.6501 22.6795 40.6501H18.4045ZM30.4971 40.3501H38.2071V41.9551H32.2971V45.3151H37.5621V46.9051H32.2971V51.1501H30.4971V40.3501ZM30.7971 40.6501V50.8501H31.9971V46.6051L37.2621 46.6051V45.6151L31.9971 45.6151V41.6551H37.9071V40.6501H30.7971ZM8.92578 41.6551H11.6258C12.5943 41.6551 13.3583 41.8637 13.8952 42.3035C14.4371 42.7374 14.7008 43.3644 14.7008 44.1601C14.7008 44.9563 14.4369 45.5875 13.8959 46.0311L13.8945 46.0322C13.3577 46.4617 12.594 46.6651 11.6258 46.6651H8.92578L8.92578 41.6551ZM9.22578 41.9551V46.3651H11.6258C12.5571 46.3651 13.2431 46.1687 13.7063 45.7986C14.1649 45.4222 14.4008 44.8836 14.4008 44.1601C14.4008 43.4362 14.1647 42.9033 13.7071 42.5372L13.7057 42.5361C13.2426 42.1564 12.5569 41.9551 11.6258 41.9551H9.22578ZM19.6045 41.6551H22.5895C23.4589 41.6551 24.2281 41.8239 24.8928 42.1665C25.5668 42.5088 26.0886 42.9932 26.4538 43.619C26.8191 44.2351 26.9995 44.9471 26.9995 45.7501C26.9995 46.5533 26.819 47.27 26.4541 47.8957L26.4535 47.8966C26.0881 48.5125 25.5664 48.9916 24.8929 49.3336C24.2282 49.6763 23.4589 49.8451 22.5895 49.8451H19.6045V41.6551ZM19.9045 41.9551V49.5451H22.5895C23.4199 49.5451 24.1405 49.384 24.7558 49.0668C25.3819 48.7489 25.8607 48.3078 26.1952 47.744C26.5301 47.1698 26.6995 46.5067 26.6995 45.7501C26.6995 44.9933 26.5299 44.3354 26.1955 43.7716L26.1949 43.7707C25.8602 43.1969 25.3822 42.7515 24.7566 42.4338C24.1414 42.1166 23.4199 41.9551 22.5895 41.9551H19.9045Z" fill="#fff"/>
</svg>
