<svg width="76" height="39" viewBox="0 0 76 39" fill="none" xmlns="http://www.w3.org/2000/svg">
<rect x="0.5" y="0.5" width="74.9474" height="38" rx="4.5" fill="white" stroke="#E5E5E5"/>
<path d="M48.8608 12.714C46.7873 11.0798 42.1797 11 38 11C33.8203 11 29.2127 11.0798 27.1392 12.714C25.0658 14.3482 25 17.889 25 19.9999C25 22.1107 25.0658 25.6515 27.1392 27.2857C29.2127 28.9199 33.8203 29 38 29V28.9997C42.1797 28.9997 46.7873 28.9199 48.8608 27.2857C50.9342 25.6515 51 22.1107 51 19.9999C51 17.889 50.9342 14.3482 48.8608 12.714ZM42.1195 20.476L42.1202 20.4771L35.0572 24.3708C35.0193 24.3992 34.9779 24.4218 34.9334 24.4392L34.9248 24.4441L34.9242 24.4422C34.8671 24.4634 34.8063 24.4771 34.742 24.4771C34.4421 24.4771 34.1991 24.2254 34.1991 23.9154V16.0674C34.1991 15.7572 34.4424 15.5058 34.742 15.5058C34.8266 15.5058 34.9058 15.5276 34.9772 15.5633L34.9774 15.563L42.1202 19.5238L42.12 19.5243C42.274 19.6235 42.3775 19.7989 42.3775 20.0001C42.3772 20.2014 42.2735 20.3768 42.1195 20.476Z" fill="#3700FF"/>
</svg>
