<svg width="37" height="19" viewBox="0 0 37 19" fill="none" xmlns="http://www.w3.org/2000/svg">
<rect x="0.5" y="0.5" width="36" height="18" rx="4.5" fill="white" stroke="#E5E5E5"/>
<path d="M24.7658 4.95223C23.5696 4.04434 20.9114 4 18.5 4C16.0886 4 13.4304 4.04434 12.2342 4.95223C11.038 5.86012 11 7.82723 11 8.99992C11 10.1726 11.038 12.1397 12.2342 13.0476C13.4304 13.9555 16.0886 14 18.5 14V13.9998C20.9114 13.9998 23.5696 13.9555 24.7658 13.0476C25.962 12.1397 26 10.1726 26 8.99992C26 7.82723 25.962 5.86012 24.7658 4.95223ZM20.8766 9.26442L20.8771 9.26503L16.8022 11.4282C16.7804 11.444 16.7565 11.4565 16.7308 11.4662L16.7258 11.4689L16.7255 11.4679C16.6926 11.4797 16.6575 11.4873 16.6204 11.4873C16.4474 11.4873 16.3072 11.3474 16.3072 11.1752V6.81523C16.3072 6.64288 16.4475 6.50322 16.6204 6.50322C16.6692 6.50322 16.7149 6.51532 16.7561 6.53514L16.7562 6.53499L20.8771 8.73542L20.8769 8.73573C20.9658 8.79081 21.0255 8.88825 21.0255 9.00008C21.0253 9.1119 20.9655 9.20935 20.8766 9.26442Z" fill="#323232"/>
</svg>
