<svg width="67" height="35" viewBox="0 0 67 35" fill="none" xmlns="http://www.w3.org/2000/svg">
<path d="M7.89832 31.7441L7.35241 32.5821L7.36145 32.5878L7.89832 31.7441ZM3.21832 26.1641L2.311 26.5846L2.313 26.5889L3.21832 26.1641ZM3.21832 8.74914L4.12366 9.17387L4.12563 9.1696L3.21832 8.74914ZM7.89832 3.16914L8.43523 4.01285L8.4442 4.007L7.89832 3.16914ZM21.3983 3.16914L20.8524 4.007L20.8598 4.01178L20.8672 4.01643L21.3983 3.16914ZM26.1233 8.74914L25.216 9.16961L25.218 9.17386L26.1233 8.74914ZM26.1233 26.1641L27.0287 26.5889L27.0306 26.5846L26.1233 26.1641ZM21.3983 31.7441L21.9352 32.5878L21.9384 32.5857L21.3983 31.7441ZM19.9583 25.7591L19.1428 25.1804L19.1366 25.1892L19.9583 25.7591ZM19.9583 9.10914L19.1366 9.67908L19.1428 9.68789L19.9583 9.10914ZM9.33832 9.10914L8.52277 8.53036L8.51661 8.53924L9.33832 9.10914ZM9.33832 25.7591L8.51656 26.3291L8.52281 26.3379L9.33832 25.7591ZM14.6483 32.6341C12.3039 32.6341 10.2428 32.0508 8.4352 30.9005L7.36145 32.5878C9.51381 33.9575 11.9528 34.6341 14.6483 34.6341V32.6341ZM8.4442 30.9063C6.64048 29.7311 5.1956 28.0244 4.12364 25.7394L2.313 26.5889C3.52104 29.1639 5.19616 31.1772 7.35244 32.582L8.4442 30.9063ZM4.12563 25.7437C3.05949 23.4431 2.50832 20.6828 2.50832 17.4341H0.50832C0.50832 20.9055 1.09715 23.9652 2.31101 26.5846L4.12563 25.7437ZM2.50832 17.4341C2.50832 14.185 3.05965 11.4419 4.12365 9.17386L2.313 8.32442C1.09699 10.9164 0.50832 13.9633 0.50832 17.4341H2.50832ZM4.12563 9.1696C5.19796 6.85564 6.64047 5.1549 8.4352 4.0128L7.36144 2.32548C5.19617 3.70338 3.51869 5.72264 2.31101 8.32868L4.12563 9.1696ZM8.4442 4.007C10.2509 2.82994 12.3087 2.23414 14.6483 2.23414V0.234141C11.948 0.234141 9.50578 0.928344 7.35244 2.33128L8.4442 4.007ZM14.6483 2.23414C16.988 2.23414 19.0458 2.82994 20.8524 4.007L21.9442 2.33128C19.7909 0.928344 17.3487 0.234141 14.6483 0.234141V2.23414ZM20.8672 4.01643C22.6906 5.15945 24.1455 6.8595 25.216 9.1696L27.0306 8.32868C25.8212 5.71878 24.1261 3.69884 21.9295 2.32185L20.8672 4.01643ZM25.218 9.17386C26.282 11.4419 26.8333 14.185 26.8333 17.4341H28.8333C28.8333 13.9633 28.2446 10.9164 27.0286 8.32442L25.218 9.17386ZM26.8333 17.4341C26.8333 20.6828 26.2822 23.4431 25.216 25.7437L27.0306 26.5846C28.2445 23.9652 28.8333 20.9055 28.8333 17.4341H26.8333ZM25.218 25.7394C24.1478 28.0206 22.6906 29.7266 20.8582 30.9026L21.9384 32.5857C24.1261 31.1817 25.8188 29.1677 27.0286 26.5889L25.218 25.7394ZM20.8614 30.9005C19.0538 32.0508 16.9928 32.6341 14.6483 32.6341V34.6341C17.3439 34.6341 19.7828 33.9575 21.9352 32.5878L20.8614 30.9005ZM14.6483 29.5491C17.2285 29.5491 19.3045 28.4565 20.78 26.329L19.1366 25.1892C18.0321 26.7818 16.5681 27.5491 14.6483 27.5491V29.5491ZM20.7738 26.3379C22.2675 24.2332 22.9383 21.2142 22.9383 17.4341H20.9383C20.9383 21.0341 20.2892 23.565 19.1428 25.1804L20.7738 26.3379ZM22.9383 17.4341C22.9383 13.6541 22.2675 10.635 20.7738 8.5304L19.1428 9.68789C20.2892 11.3032 20.9383 13.8342 20.9383 17.4341H22.9383ZM20.78 8.53924C19.3045 6.41179 17.2285 5.31914 14.6483 5.31914V7.31914C16.5681 7.31914 18.0321 8.08649 19.1366 9.67904L20.78 8.53924ZM14.6483 5.31914C12.0939 5.31914 10.0242 6.41474 8.52281 8.5304L10.1538 9.68789C11.2924 8.08354 12.7628 7.31914 14.6483 7.31914V5.31914ZM8.51661 8.53924C7.05813 10.6422 6.40332 13.6574 6.40332 17.4341H8.40332C8.40332 13.8309 9.03851 11.2961 10.16 9.67904L8.51661 8.53924ZM6.40332 17.4341C6.40332 21.2109 7.05813 24.2261 8.51661 26.329L10.16 25.1892C9.03851 23.5722 8.40332 21.0374 8.40332 17.4341H6.40332ZM8.52281 26.3379C10.0242 28.4535 12.0939 29.5491 14.6483 29.5491V27.5491C12.7628 27.5491 11.2924 26.7847 10.1538 25.1804L8.52281 26.3379ZM54.3819 28.2341H55.3819V27.2341H54.3819V28.2341ZM54.3819 33.1841V34.1841H55.3819V33.1841H54.3819ZM31.1619 33.1841H30.1619V34.1841H31.1619V33.1841ZM31.1619 29.2691L30.4733 28.544L30.1619 28.8397V29.2691H31.1619ZM43.6719 17.3891L44.3605 18.1143L44.3635 18.1115L43.6719 17.3891ZM46.5069 13.8791L45.6124 13.4319L45.6071 13.4429L46.5069 13.8791ZM45.7869 7.48914L46.4058 6.70365H46.4058L45.7869 7.48914ZM34.0419 9.60414L33.4322 10.3968L34.2191 11.0021L34.8301 10.2196L34.0419 9.60414ZM29.9469 6.45414L29.1452 5.85648L28.5565 6.6462L29.3372 7.24677L29.9469 6.45414ZM34.8969 2.62914L35.2957 3.54623L35.3018 3.54349L34.8969 2.62914ZM50.1069 3.66414L49.485 4.44725L50.1069 3.66414ZM52.0869 15.0941L51.1854 14.6614L52.0869 15.0941ZM47.9469 20.2241L47.2615 19.4959L47.2575 19.4998L47.9469 20.2241ZM39.5319 28.2341L38.8425 27.5098L37.0309 29.2341H39.5319V28.2341ZM53.3819 28.2341V33.1841H55.3819V28.2341H53.3819ZM54.3819 32.1841H31.1619V34.1841H54.3819V32.1841ZM32.1619 33.1841V29.2691H30.1619V33.1841H32.1619ZM31.8505 29.9943L44.3605 18.1143L42.9833 16.664L30.4733 28.544L31.8505 29.9943ZM44.3635 18.1115C45.8035 16.7327 46.8494 15.4649 47.4067 14.3154L45.6071 13.4429C45.2044 14.2733 44.3603 15.3456 42.9803 16.6668L44.3635 18.1115ZM47.4013 14.3264C47.9702 13.1886 48.2719 12.0314 48.2719 10.8641H46.2719C46.2719 11.6769 46.0636 12.5296 45.6125 13.4319L47.4013 14.3264ZM48.2719 10.8641C48.2719 9.14504 47.6781 7.7061 46.4058 6.70365L45.168 8.27463C45.8757 8.83218 46.2719 9.64324 46.2719 10.8641H48.2719ZM46.4058 6.70365C45.1682 5.72856 43.4548 5.31914 41.4219 5.31914V7.31914C43.2291 7.31914 44.4257 7.68972 45.168 8.27463L46.4058 6.70365ZM41.4219 5.31914C37.958 5.31914 35.1842 6.5164 33.2537 8.98871L34.8301 10.2196C36.3197 8.31188 38.4658 7.31914 41.4219 7.31914V5.31914ZM34.6516 8.81152L30.5566 5.66152L29.3372 7.24677L33.4322 10.3968L34.6516 8.81152ZM30.7487 7.05181C31.8646 5.55486 33.3696 4.38361 35.2956 3.54621L34.4982 1.71207C32.2842 2.67467 30.4893 4.05342 29.1452 5.85648L30.7487 7.05181ZM35.3018 3.54349C37.2594 2.67655 39.4592 2.23414 41.9169 2.23414V0.234141C39.2147 0.234141 36.7344 0.721733 34.492 1.71479L35.3018 3.54349ZM41.9169 2.23414C45.1821 2.23414 47.6705 3.00628 49.485 4.44725L50.7288 2.88103C48.4634 1.082 45.4917 0.234141 41.9169 0.234141V2.23414ZM49.485 4.44725C51.2673 5.86257 52.1669 7.76925 52.1669 10.2791H54.1669C54.1669 7.20903 53.0266 4.70571 50.7288 2.88103L49.485 4.44725ZM52.1669 10.2791C52.1669 11.8436 51.8387 13.3003 51.1854 14.6614L52.9884 15.5269C53.7751 13.888 54.1669 12.1347 54.1669 10.2791H52.1669ZM51.1854 14.6614C50.5429 15.9999 49.2647 17.6106 47.2616 19.4959L48.6323 20.9523C50.7091 18.9976 52.1909 17.1884 52.9884 15.5269L51.1854 14.6614ZM47.2575 19.4998L38.8425 27.5098L40.2214 28.9585L48.6364 20.9485L47.2575 19.4998ZM39.5319 29.2341H54.3819V27.2341H39.5319V29.2341ZM59.0978 32.4641L58.3907 33.1712L58.3982 33.1788L58.4059 33.1861L59.0978 32.4641ZM59.0528 27.0641L58.3609 26.3422L58.3532 26.3495L58.3457 26.357L59.0528 27.0641ZM64.3178 27.0641L63.6107 27.7712L63.6182 27.7788L63.6259 27.7861L64.3178 27.0641ZM64.3178 32.4641L65.0097 33.1861L65.0174 33.1788L65.0249 33.1712L64.3178 32.4641ZM61.7078 32.4991C60.9391 32.4991 60.3188 32.2493 59.7897 31.7422L58.4059 33.1861C59.3167 34.059 60.4365 34.4991 61.7078 34.4991V32.4991ZM59.8049 31.757C59.2847 31.2368 59.0178 30.5968 59.0178 29.7641H57.0178C57.0178 31.0915 57.4709 32.2515 58.3907 33.1712L59.8049 31.757ZM59.0178 29.7641C59.0178 28.8797 59.2837 28.2474 59.7599 27.7712L58.3457 26.357C57.4418 27.2609 57.0178 28.4286 57.0178 29.7641H59.0178ZM59.7447 27.7861C60.2679 27.2847 60.9006 27.0291 61.7078 27.0291V25.0291C60.415 25.0291 59.2776 25.4636 58.3609 26.3422L59.7447 27.7861ZM61.7078 27.0291C62.5149 27.0291 63.1234 27.284 63.6107 27.7712L65.0249 26.357C64.1321 25.4643 63.0007 25.0291 61.7078 25.0291V27.0291ZM63.6259 27.7861C64.1258 28.2652 64.3978 28.8928 64.3978 29.7641H66.3978C66.3978 28.4155 65.9497 27.243 65.0097 26.3422L63.6259 27.7861ZM64.3978 29.7641C64.3978 30.5968 64.1309 31.2368 63.6107 31.757L65.0249 33.1712C65.9447 32.2515 66.3978 31.0915 66.3978 29.7641H64.3978ZM63.6259 31.7422C63.0967 32.2493 62.4765 32.4991 61.7078 32.4991V34.4991C62.9791 34.4991 64.0988 34.059 65.0097 33.1861L63.6259 31.7422Z" fill="white"/>
</svg>
