<svg width="135" height="66" viewBox="0 0 135 66" fill="none" xmlns="http://www.w3.org/2000/svg">
<path d="M20.918 20.85H14.222L12.836 24H10.982L16.688 11.4H18.47L24.194 24H22.304L20.918 20.85ZM20.288 19.41L17.57 13.236L14.852 19.41H20.288ZM26.0736 11.4H27.8736V22.434H34.6956V24H26.0736V11.4ZM38.5611 12.966V17.358H44.8791V18.906H38.5611V24H36.7611V11.4H45.6531V12.966H38.5611ZM55.6348 20.85H48.9388L47.5528 24H45.6988L51.4048 11.4H53.1868L58.9108 24H57.0208L55.6348 20.85ZM55.0048 19.41L52.2868 13.236L49.5688 19.41H55.0048Z" fill="white"/>
<path d="M56.89 41.4H62.2C63.532 41.4 64.714 41.664 65.746 42.192C66.778 42.72 67.576 43.464 68.14 44.424C68.716 45.372 69.004 46.464 69.004 47.7C69.004 48.936 68.716 50.034 68.14 50.994C67.576 51.942 66.778 52.68 65.746 53.208C64.714 53.736 63.532 54 62.2 54H56.89V41.4ZM62.092 52.434C63.112 52.434 64.006 52.236 64.774 51.84C65.554 51.444 66.154 50.892 66.574 50.184C66.994 49.464 67.204 48.636 67.204 47.7C67.204 46.764 66.994 45.942 66.574 45.234C66.154 44.514 65.554 43.956 64.774 43.56C64.006 43.164 63.112 42.966 62.092 42.966H58.69V52.434H62.092ZM71.7611 41.4H73.5611V54H71.7611V41.4ZM85.7574 54L83.0394 50.13C82.7034 50.154 82.4394 50.166 82.2474 50.166H79.1334V54H77.3334V41.4H82.2474C83.8794 41.4 85.1634 41.79 86.0994 42.57C87.0354 43.35 87.5034 44.424 87.5034 45.792C87.5034 46.764 87.2634 47.592 86.7834 48.276C86.3034 48.96 85.6194 49.458 84.7314 49.77L87.7194 54H85.7574ZM82.1934 48.636C83.3334 48.636 84.2034 48.39 84.8034 47.898C85.4034 47.406 85.7034 46.704 85.7034 45.792C85.7034 44.88 85.4034 44.184 84.8034 43.704C84.2034 43.212 83.3334 42.966 82.1934 42.966H79.1334V48.636H82.1934ZM99.5555 52.434V54H90.4115V41.4H99.3035V42.966H92.2115V46.836H98.5295V48.366H92.2115V52.434H99.5555ZM108.051 54.144C106.791 54.144 105.651 53.868 104.631 53.316C103.623 52.752 102.831 51.984 102.255 51.012C101.679 50.028 101.391 48.924 101.391 47.7C101.391 46.476 101.679 45.378 102.255 44.406C102.831 43.422 103.629 42.654 104.649 42.102C105.669 41.538 106.809 41.256 108.069 41.256C109.053 41.256 109.953 41.424 110.769 41.76C111.585 42.084 112.281 42.57 112.857 43.218L111.687 44.352C110.739 43.356 109.557 42.858 108.141 42.858C107.205 42.858 106.359 43.068 105.603 43.488C104.847 43.908 104.253 44.49 103.821 45.234C103.401 45.966 103.191 46.788 103.191 47.7C103.191 48.612 103.401 49.44 103.821 50.184C104.253 50.916 104.847 51.492 105.603 51.912C106.359 52.332 107.205 52.542 108.141 52.542C109.545 52.542 110.727 52.038 111.687 51.03L112.857 52.164C112.281 52.812 111.579 53.304 110.751 53.64C109.935 53.976 109.035 54.144 108.051 54.144ZM117.787 42.966H113.467V41.4H123.889V42.966H119.569V54H117.787V42.966Z" fill="white"/>
<rect x="1" y="1" width="133" height="64" stroke="white" stroke-width="2"/>
</svg>
