<svg width="290" height="36" viewBox="0 0 290 36" fill="none" xmlns="http://www.w3.org/2000/svg">
<path d="M98.239 25.4716H89.6855V10.2515H92.956V16.4779H98.239C100.755 16.4779 102.767 18.4905 102.767 21.0062C102.767 23.5219 100.692 25.4716 98.239 25.4716ZM92.8931 22.7043H97.673C98.6164 22.7043 99.434 21.9496 99.434 20.9433C99.434 19.9999 98.6793 19.1823 97.673 19.1823H92.8931V22.7043Z" fill="white"/>
<path d="M158.49 25.4716H155.22V10.2515H167.421V13.0188H158.49V25.4716Z" fill="white"/>
<path d="M178.616 25.4716H175.031C171.383 25.4716 168.49 22.5156 168.49 18.9307V16.7923C168.49 13.1445 171.446 10.2515 175.031 10.2515H178.616C182.264 10.2515 185.157 13.2074 185.157 16.7923V18.9307C185.157 22.5156 182.264 25.4716 178.616 25.4716ZM175.534 13.0188C173.459 13.0188 171.761 14.7169 171.761 16.7923V18.9307C171.761 21.0062 173.459 22.7043 175.534 22.7043H178.113C180.188 22.7043 181.886 21.0062 181.886 18.9307V16.7923C181.886 14.7169 180.188 13.0188 178.113 13.0188H175.534Z" fill="white"/>
<path d="M249.308 25.4716H245.724C242.076 25.4716 239.183 22.5156 239.183 18.9307V16.7923C239.183 13.1445 242.139 10.2515 245.724 10.2515H249.308C252.956 10.2515 255.849 13.2074 255.849 16.7923V18.9307C255.849 22.5156 252.956 25.4716 249.308 25.4716ZM246.227 13.0188C244.151 13.0188 242.453 14.7169 242.453 16.7923V18.9307C242.453 21.0062 244.151 22.7043 246.227 22.7043H248.805C250.881 22.7043 252.579 21.0062 252.579 18.9307V16.7923C252.579 14.7169 250.881 13.0188 248.805 13.0188H246.227Z" fill="white"/>
<path d="M191.636 25.4716H188.365V10.2515H196.982C200.063 10.2515 202.516 12.7672 202.516 15.7861C202.516 18.8049 200 21.3206 196.982 21.3206H191.636V25.4716ZM191.636 18.5534H196.478C197.988 18.5534 199.246 17.2955 199.246 15.7861C199.246 14.2766 197.988 13.0188 196.478 13.0188H191.636V18.5534Z" fill="white"/>
<path d="M210 25.4716H204.654V10.2515H207.925V22.7043H208.302L214.529 10.2515H219.874V25.4716H216.604V13.0188H216.227L210 25.4716Z" fill="white"/>
<path d="M235.283 17.4215C235.849 16.6668 236.163 15.7234 236.163 14.7171C236.163 12.2643 234.151 10.1888 231.635 10.1888H223.333V12.9561H231.132C232.075 12.9561 232.893 13.7109 232.893 14.7171C232.893 15.6605 232.138 16.4782 231.132 16.4782H226.666V19.2454H232.012C232.956 19.2454 233.773 20.0002 233.773 21.0065C233.773 21.9499 233.019 22.7675 232.012 22.7675H223.019V25.5348H232.515C235.031 25.5348 237.044 23.5222 237.044 21.0065C237.044 19.497 236.352 18.2392 235.283 17.4215Z" fill="white"/>
<path d="M271.006 10.2515V16.4779H262.327V10.2515H259.057V25.4716H262.327V19.2452H271.006V25.4716H274.277V10.2515H271.006Z" fill="white"/>
<path d="M290 10.2515H284.843H281.572H276.415V13.0188H281.572V25.4716H284.843V13.0188H290V10.2515Z" fill="white"/>
<path d="M120.189 10.2515H116.918H113.648H110.377C107.296 10.2515 104.843 12.7672 104.843 15.7861C104.843 18.8049 107.358 21.3206 110.377 21.3206H113.648V25.4716H116.918V21.3206H120.189C123.27 21.3206 125.723 18.8049 125.723 15.7861C125.723 12.7672 123.27 10.2515 120.189 10.2515ZM113.648 18.5534H110.881C109.371 18.5534 108.113 17.2955 108.113 15.7861C108.113 14.2766 109.371 13.0188 110.881 13.0188H113.648V18.5534ZM119.686 18.5534H116.918V13.0188H119.686C121.195 13.0188 122.453 14.2766 122.453 15.7861C122.453 17.2955 121.258 18.5534 119.686 18.5534Z" fill="white"/>
<path d="M63.5848 10.2515H63.2075H57.044H56.6666L51.5723 25.4716H51.9496H54.8427L56.2892 21.1949H63.8993L65.3459 25.4716H68.2389H68.6163L63.5848 10.2515ZM57.2955 18.4276L59.1194 13.0188H61.2578L63.0817 18.4276H57.2955Z" fill="white"/>
<path d="M138.742 10.2515H138.365H132.201H131.824L126.729 25.4716H127.107H130L131.446 21.1949H139.057L140.503 25.4716H143.396H143.774L138.742 10.2515ZM132.453 18.4276L134.277 13.0188H136.415L138.239 18.4276H132.453Z" fill="white"/>
<path d="M82.0757 10.2515H81.6983H75.5348H75.1574L70.126 25.4716H70.4404H73.3964L77.5474 13.0188H79.6857L83.8367 25.4716H86.7926H87.1071L82.0757 10.2515Z" fill="white"/>
<path d="M31.0063 7.98742L28.3648 0H11.6352L0 35.0315H10.3774L19.434 7.98742H31.0063Z" fill="white"/>
<path d="M35.4089 21.2577L34.1511 17.4841H24.0253L21.3838 25.4716H33.9624L30.8178 35.0313H40.0001L35.4089 21.2577Z" fill="white"/>
</svg>
