<svg width="135" height="136" viewBox="0 0 135 136" fill="none" xmlns="http://www.w3.org/2000/svg">
<path d="M67.5 135.772C30.2727 135.772 0 105.5 0 68.2725C0 31.0452 30.2727 0.772461 67.5 0.772461C104.727 0.772461 135 31.0452 135 68.2725C135 105.5 104.727 135.772 67.5 135.772ZM67.5 2.81792C31.3977 2.81792 2.04545 32.1702 2.04545 68.2725C2.04545 104.375 31.3977 133.727 67.5 133.727C103.602 133.727 132.955 104.375 132.955 68.2725C132.955 32.1702 103.602 2.81792 67.5 2.81792Z" fill="white"/>
<path d="M11.6582 54.4657L11.965 53.1361L18.9196 54.977L18.6128 56.3066L11.6582 54.4657Z" fill="white"/>
<path d="M14.9316 44.7496L21.5794 47.3064L21.1703 48.3292L15.3407 50.2724L19.8407 52.011L19.3294 53.2383L12.6816 50.6814L13.0907 49.6587L19.0226 47.7155L14.5226 45.9769L14.9316 44.7496Z" fill="white"/>
<path d="M17.8977 41.5793L16.7727 43.6247L15.75 43.1133L18.7159 37.7952L19.7386 38.3065L18.6136 40.352L23.9318 43.3179L23.3182 44.4429L17.8977 41.5793Z" fill="white"/>
<path d="M27.6127 35.6475L28.5332 36.2611L25.3627 40.6588L19.5332 36.4656L22.6014 32.2725L23.5218 32.8861L21.2718 36.0566L22.8059 37.1816L24.8514 34.4202L25.7718 35.0338L23.7264 37.7952L25.3627 38.9202L27.6127 35.6475Z" fill="white"/>
<path d="M24.2383 30.4316L25.1587 29.5111L29.5565 33.602L32.1133 30.8407L32.9315 31.6588L29.4542 35.3407L24.2383 30.4316Z" fill="white"/>
<path d="M28.9414 25.6247L29.9641 24.8065L33.8505 29.4088L36.7141 26.9542L37.43 27.7724L33.5437 31.0452L28.9414 25.6247Z" fill="white"/>
<path d="M42.0325 23.4769L42.6461 24.3974L38.1461 27.3633L34.2598 21.3292L38.6575 18.4656L39.2711 19.386L35.9984 21.5338L37.0211 23.0678L39.8848 21.2269L40.4984 22.1474L37.6348 23.9883L38.6575 25.6247L42.0325 23.4769Z" fill="white"/>
<path d="M44.7942 22.9655C44.1806 22.9655 43.5669 22.761 42.9533 22.3519C42.4419 21.9428 42.0328 21.4315 41.726 20.8178C41.4192 20.2042 41.3169 19.4883 41.4192 18.8746C41.5215 18.261 41.726 17.6474 42.1351 17.136C42.5442 16.6246 43.0556 16.2155 43.6692 15.9087C44.1806 15.7042 44.6919 15.4996 45.3056 15.4996C45.8169 15.4996 46.3283 15.6019 46.8397 15.8065L46.4306 16.9315C45.7147 16.6246 44.9988 16.6246 44.3851 16.9315C43.976 17.136 43.5669 17.4428 43.3624 17.7496C43.0556 18.1587 42.9533 18.4655 42.9533 18.9769C42.9533 19.4883 42.9533 19.8974 43.1578 20.3065C43.3624 20.7155 43.6692 21.1246 43.976 21.3292C44.2828 21.5337 44.6919 21.7383 45.2033 21.7383C45.6124 21.7383 46.1238 21.636 46.5328 21.4315C47.2488 21.1246 47.6578 20.6133 47.8624 19.8974L48.9874 20.3065C48.8851 20.8178 48.5783 21.2269 48.2715 21.636C47.9647 22.0451 47.4533 22.3519 46.9419 22.5564C46.1238 22.8633 45.5101 22.9655 44.7942 22.9655Z" fill="white"/>
<path d="M49.8068 14.7838L47.5568 15.4997L47.25 14.477L53.0796 12.6361L53.3864 13.6588L51.1364 14.3747L52.9773 20.102L51.75 20.5111L49.8068 14.7838Z" fill="white"/>
<path d="M56.4529 18.3633C55.8393 17.9542 55.4302 17.136 55.2257 16.1133L54.5098 12.1247L55.8393 11.9201L56.5552 15.8065C56.7598 17.2383 57.4757 17.7497 58.703 17.5451C59.9302 17.3406 60.3393 16.5224 60.1348 15.1928L59.4189 11.3065L60.7484 11.1019L61.362 15.0906C61.5666 16.1133 61.362 16.9315 60.9529 17.5451C60.5439 18.1587 59.8279 18.5678 58.8052 18.7724C57.8848 18.9769 57.0666 18.8747 56.4529 18.3633Z" fill="white"/>
<path d="M68.0098 16.3179H64.4302L63.7143 17.9542H62.3848L65.4529 10.6929H66.7825L70.1575 17.7497H68.7257L68.0098 16.3179ZM67.6007 15.2951L66.1689 12.227L64.9416 15.3974L67.6007 15.2951Z" fill="white"/>
<path d="M71.5909 10.8975L72.9204 10.9997L72.3068 17.0338L75.9886 17.4429L75.8863 18.5679L70.875 18.0566L71.5909 10.8975Z" fill="white"/>
<path d="M85.805 14.0679C86.2141 14.3747 86.4187 14.7838 86.5209 15.1929C86.6232 15.602 86.6232 16.1133 86.5209 16.6247C86.4187 17.136 86.1118 17.5451 85.805 17.852C85.4982 18.1588 84.9868 18.3633 84.5778 18.3633C84.0664 18.4656 83.555 18.3633 82.9414 18.1588L81.4073 17.6474L80.7937 19.5906L79.5664 19.1815L81.6119 12.3292L84.4755 13.1474C84.8846 13.5565 85.3959 13.761 85.805 14.0679ZM84.4755 17.136C84.8846 17.0338 85.0891 16.727 85.1914 16.2156C85.2937 15.8065 85.2937 15.3974 85.0891 15.0906C84.8846 14.7838 84.4755 14.477 83.9641 14.3747L82.43 13.9656L81.6119 16.727L83.1459 17.136C83.6573 17.2383 84.1687 17.3406 84.4755 17.136Z" fill="white"/>
<path d="M90.4087 23.4769L89.9996 20.9201C89.8974 20.9201 89.8974 20.8178 89.7951 20.8178L88.261 20.2042L87.3406 22.1474L86.1133 21.636L89.0792 15.0906L91.7383 16.3178C92.3519 16.6247 92.761 16.9315 93.0678 17.2383C93.3746 17.6474 93.5792 18.0565 93.6815 18.4656C93.7837 18.8747 93.6815 19.386 93.4769 19.8974C93.2724 20.4088 92.9656 20.7156 92.5565 21.0224C92.1474 21.2269 91.7383 21.3292 91.1246 21.3292L91.636 24.1928L90.4087 23.4769ZM92.3519 18.1588C92.1474 17.8519 91.8406 17.5451 91.3292 17.2383L89.8974 16.6247L88.6701 19.1815L90.1019 19.7951C90.6133 19.9997 91.1247 20.1019 91.4315 19.9997C91.8406 19.8974 92.0451 19.6928 92.2496 19.1815C92.5565 18.8747 92.5565 18.4656 92.3519 18.1588Z" fill="white"/>
<path d="M93.9872 25.0111C93.6804 24.3974 93.5781 23.7838 93.5781 23.1702C93.5781 22.5565 93.7827 21.9429 94.1918 21.3293C94.6009 20.7156 95.1122 20.3065 95.6236 19.9997C96.2372 19.6929 96.8509 19.5906 97.4645 19.6929C98.0781 19.7952 98.794 19.9997 99.4077 20.4088C100.021 20.8179 100.43 21.3293 100.737 21.9429C101.044 22.5565 101.146 23.1702 101.146 23.7838C101.146 24.3974 100.942 25.0111 100.533 25.6247C100.124 26.2383 99.6122 26.6474 99.1009 26.9543C98.4872 27.2611 97.8736 27.3633 97.2599 27.2611C96.6463 27.1588 95.9304 26.9543 95.3168 26.5452C94.8054 26.1361 94.3963 25.6247 93.9872 25.0111ZM97.3622 26.0338C97.7713 26.0338 98.1804 26.0338 98.5895 25.8293C98.9986 25.6247 99.3054 25.3179 99.6122 24.9088C99.919 24.4997 100.021 24.0906 100.021 23.6815C100.021 23.2724 100.021 22.8633 99.8168 22.4543C99.6122 22.0452 99.3054 21.7383 98.8963 21.4315C98.4872 21.1247 98.0781 21.0224 97.669 21.0224C97.2599 21.0224 96.8509 21.0224 96.4418 21.227C96.0327 21.4315 95.7259 21.7383 95.419 22.1474C95.1122 22.5565 95.0099 22.9656 95.0099 23.3747C95.0099 23.7838 95.0099 24.1929 95.2145 24.602C95.419 25.0111 95.7259 25.3179 96.1349 25.6247C96.4418 25.8293 96.8508 26.0338 97.3622 26.0338Z" fill="white"/>
<path d="M107.589 27.4657C107.794 27.977 107.896 28.3861 107.794 28.7952C107.692 29.2043 107.487 29.6134 107.18 30.0225C106.873 30.4316 106.464 30.6361 105.953 30.7384C105.544 30.8406 105.032 30.8407 104.623 30.6361C104.112 30.4316 103.703 30.227 103.192 29.7156L101.964 28.5907L100.532 30.1247L99.5098 29.2043L104.317 23.8861L106.464 25.8293C107.078 26.5452 107.385 26.9543 107.589 27.4657ZM105.032 29.6134C105.442 29.6134 105.748 29.5111 106.055 29.102C106.362 28.6929 106.464 28.3861 106.464 27.977C106.362 27.5679 106.157 27.1588 105.748 26.852L104.623 25.8293L102.68 27.8747L103.805 28.8975C104.317 29.4088 104.726 29.6134 105.032 29.6134Z" fill="white"/>
<path d="M109.021 37.6929L108.203 38.4088L104.828 34.3179L110.351 29.7156L113.726 33.7042L112.908 34.4201L110.453 31.4542L109.021 32.6815L111.271 35.3406L110.453 36.0565L108.203 33.3974L106.669 34.6247L109.021 37.6929Z" fill="white"/>
<path d="M111.271 43.4201L112.294 41.0678C112.294 41.0678 112.191 40.9655 112.089 40.8633L111.271 39.5337L109.532 40.6587L108.816 39.5337L114.953 35.7496L116.487 38.3065C116.794 38.8178 116.998 39.3292 117.1 39.8405C117.203 40.3519 117.1 40.761 116.896 41.1701C116.691 41.5792 116.385 41.886 115.975 42.1928C115.566 42.4996 115.055 42.6019 114.544 42.6019C114.032 42.6019 113.623 42.3974 113.214 42.0905L112.089 44.7496L111.271 43.4201ZM115.873 40.0451C115.873 39.636 115.771 39.2269 115.464 38.7155L114.646 37.386L112.191 38.9201L113.01 40.2496C113.316 40.761 113.623 41.0678 114.032 41.1701C114.441 41.2724 114.748 41.2724 115.157 40.9655C115.566 40.761 115.873 40.4542 115.873 40.0451Z" fill="white"/>
<path d="M118.635 44.4429L117.612 42.2952L118.635 41.7838L121.089 47.3065L120.067 47.8179L119.044 45.6702L113.521 48.1247L113.01 46.8974L118.635 44.4429Z" fill="white"/>
<path d="M118.123 53.2384L115.669 53.9543L115.26 52.727L117.612 52.0111L121.192 47.9202L121.601 49.2497L118.942 52.3179L122.93 53.3406L123.339 54.5679L118.123 53.2384Z" fill="white"/>
<path d="M122.931 83.5112L122.522 84.7384L115.67 82.7953L116.079 81.568L122.931 83.5112Z" fill="white"/>
<path d="M119.454 93.1248L112.807 90.3635L113.216 89.3407L119.25 87.4998L114.75 85.6589L115.261 84.4316L121.909 87.193L121.5 88.2157L115.466 90.0566L119.966 91.8975L119.454 93.1248Z" fill="white"/>
<path d="M116.489 96.1929L117.716 94.1475L118.739 94.7611L115.671 99.977L114.75 99.3634L115.978 97.3179L110.762 94.2498L111.478 93.1248L116.489 96.1929Z" fill="white"/>
<path d="M106.569 101.92L105.648 101.204L108.921 96.9088L114.648 101.307L111.478 105.5L110.558 104.784L112.91 101.716L111.478 100.591L109.33 103.352L108.512 102.738L110.66 99.977L109.126 98.7497L106.569 101.92Z" fill="white"/>
<path d="M109.943 107.238L109.023 108.159L104.727 103.966L102.068 106.625L101.25 105.807L104.83 102.227L109.943 107.238Z" fill="white"/>
<path d="M105.034 111.943L104.011 112.761L100.227 108.057L97.2608 110.409L96.5449 109.488L100.534 106.318L105.034 111.943Z" fill="white"/>
<path d="M91.9437 113.784L91.3301 112.863L95.9324 110.102L99.7165 116.238L95.2164 119L94.6028 118.079L97.9778 116.034L97.0574 114.398L94.0914 116.238L93.4778 115.318L96.4437 113.477L95.421 111.841L91.9437 113.784Z" fill="white"/>
<path d="M89.0792 114.193C89.6928 114.295 90.3065 114.5 90.8178 114.807C91.3292 115.216 91.7383 115.727 92.0451 116.341C92.3519 116.954 92.4542 117.67 92.3519 118.284C92.2497 118.898 92.0451 119.511 91.636 120.023C91.2269 120.534 90.7156 120.943 89.9997 121.25C89.4883 121.454 88.9769 121.557 88.3633 121.659C87.8519 121.659 87.3406 121.557 86.9315 121.352L87.4428 120.227C88.1587 120.534 88.8747 120.534 89.4883 120.227C89.8974 120.023 90.3065 119.716 90.6133 119.409C90.9201 119.102 91.0224 118.693 91.1247 118.182C91.1247 117.773 91.1247 117.261 90.9201 116.852C90.7156 116.443 90.4087 116.034 90.1019 115.829C89.7951 115.523 89.386 115.42 88.8747 115.42C88.4656 115.42 87.9542 115.42 87.5451 115.625C86.8292 115.932 86.4201 116.443 86.1133 117.159L84.9883 116.75C85.0906 116.238 85.3974 115.829 85.8065 115.42C86.2156 115.011 86.6246 114.704 87.136 114.5C87.8519 114.295 88.4656 114.193 89.0792 114.193Z" fill="white"/>
<path d="M83.8627 122.273L86.1127 121.557L86.4196 122.682L80.59 124.42L80.2832 123.295L82.5332 122.579L80.7946 116.75L82.0218 116.341L83.8627 122.273Z" fill="white"/>
<path d="M77.4197 118.488C78.0334 119 78.4425 119.716 78.647 120.738L79.2606 124.727L77.9311 124.932L77.3175 120.943C77.1129 119.511 76.397 119 75.1697 119.102C73.9425 119.307 73.5334 120.022 73.7379 121.454L74.3515 125.443L73.022 125.647L72.4084 121.659C72.2038 120.636 72.4084 119.818 72.8175 119.204C73.2265 118.591 74.0447 118.182 74.9652 118.079C75.9879 117.875 76.7038 118.079 77.4197 118.488Z" fill="white"/>
<path d="M65.761 120.329H69.3405L70.0565 118.693H71.386L68.2155 125.852H66.886L63.6133 118.693H65.0451L65.761 120.329ZM66.1701 121.352L67.4996 124.523L68.8292 121.352H66.1701Z" fill="white"/>
<path d="M62.0799 125.647L60.7504 125.443L61.5685 119.511L57.8867 119L57.989 117.875L63.0004 118.591L62.0799 125.647Z" fill="white"/>
<path d="M47.9667 122.068C47.5576 121.761 47.353 121.352 47.2508 120.943C47.1485 120.534 47.1485 120.022 47.353 119.511C47.5576 119 47.7621 118.591 48.1712 118.386C48.478 118.079 48.9894 117.977 49.5008 117.875C50.0121 117.875 50.5235 117.875 51.1371 118.079L52.6712 118.591L53.2849 116.647L54.5121 117.057L52.2621 123.909L49.5008 122.988C48.7849 122.682 48.3758 122.477 47.9667 122.068ZM49.2962 119.102C48.8871 119.204 48.6826 119.511 48.5803 119.92C48.478 120.329 48.478 120.738 48.6826 121.045C48.8871 121.352 49.2962 121.659 49.8076 121.761L51.2394 122.272L52.1599 119.613L50.728 119.102C50.1144 119 49.7053 119 49.2962 119.102Z" fill="white"/>
<path d="M43.5691 112.659L43.9782 115.216C44.0804 115.216 44.0804 115.318 44.1827 115.318L45.6145 116.034L46.535 114.193L47.7623 114.807L44.5918 121.25L41.9327 119.92C41.4213 119.613 40.91 119.307 40.6032 118.898C40.2963 118.488 40.0918 118.079 40.0918 117.67C40.0918 117.261 40.0918 116.75 40.3986 116.238C40.6032 115.727 40.91 115.42 41.3191 115.216C41.7282 115.011 42.2395 114.909 42.7509 114.909L42.3418 112.045L43.5691 112.659ZM41.5236 117.977C41.7282 118.284 42.035 118.591 42.5463 118.898L43.9782 119.613L45.2054 117.057L43.7736 116.341C43.2623 116.034 42.8532 116.034 42.4441 116.136C42.035 116.238 41.7282 116.443 41.5236 116.852C41.3191 117.261 41.3191 117.568 41.5236 117.977Z" fill="white"/>
<path d="M39.9879 111.022C40.2947 111.636 40.397 112.25 40.397 112.863C40.397 113.477 40.0902 114.091 39.6811 114.704C39.272 115.318 38.7607 115.727 38.147 115.932C37.5334 116.238 36.9197 116.341 36.3061 116.238C35.6925 116.136 34.9766 115.932 34.4652 115.522C33.8516 115.113 33.4425 114.602 33.1357 113.988C32.8288 113.375 32.7266 112.761 32.7266 112.147C32.7266 111.534 33.0334 110.92 33.4425 110.307C33.8516 109.693 34.3629 109.284 34.9766 109.079C35.5902 108.772 36.2038 108.67 36.8175 108.772C37.4311 108.875 38.147 109.079 38.6584 109.488C39.1697 109.897 39.6811 110.409 39.9879 111.022ZM36.7152 109.897C36.3061 109.897 35.897 109.897 35.4879 110.102C35.0788 110.307 34.772 110.613 34.4652 111.022C34.1584 111.432 34.0561 111.841 33.9538 112.25C33.9538 112.659 33.9538 113.068 34.1584 113.477C34.3629 113.886 34.6697 114.193 35.0788 114.5C35.4879 114.807 35.897 114.909 36.3061 115.011C36.7152 115.113 37.1243 115.011 37.5334 114.807C37.9425 114.602 38.2493 114.295 38.5561 113.886C38.8629 113.477 38.9652 113.068 39.0675 112.659C39.0675 112.25 39.0675 111.841 38.8629 111.432C38.6584 111.022 38.3516 110.716 37.9425 110.409C37.5334 110.102 37.1243 110 36.7152 109.897Z" fill="white"/>
<path d="M26.4878 108.261C26.2833 107.75 26.2833 107.341 26.3855 106.932C26.4878 106.523 26.6924 106.113 27.1014 105.704C27.5105 105.295 27.8174 105.091 28.3287 104.988C28.7378 104.886 29.2492 104.886 29.6583 105.091C30.1696 105.295 30.5787 105.602 30.9878 106.011L32.1128 107.136L33.5446 105.602L34.4651 106.523L29.4537 111.636L27.306 109.591C26.9992 109.182 26.6924 108.773 26.4878 108.261ZM29.0446 106.113C28.6355 106.113 28.3287 106.216 28.0219 106.523C27.7151 106.829 27.6128 107.238 27.6128 107.545C27.6128 107.954 27.9196 108.363 28.3287 108.773L29.4537 109.898L31.3969 107.852L30.2719 106.727C29.8628 106.42 29.4537 106.216 29.0446 106.113Z" fill="white"/>
<path d="M25.364 97.9316L26.2844 97.2157L29.6594 101.409L24.0344 105.807L20.7617 101.716L21.6822 101L24.1367 104.068L25.5685 102.943L23.4208 100.182L24.239 99.4657L26.3867 102.227L27.9208 101L25.364 97.9316Z" fill="white"/>
<path d="M23.1131 92.2043L22.0904 94.5566C22.0904 94.5566 22.1926 94.6589 22.1926 94.7611L23.0108 96.1929L24.8517 95.1702L25.5676 96.2952L19.4313 99.8748L17.8972 97.3179C17.5904 96.8066 17.3858 96.2952 17.3858 95.7839C17.2836 95.2725 17.3858 94.8634 17.5904 94.4543C17.7949 94.0452 18.1017 93.7384 18.6131 93.4316C19.1245 93.1248 19.5336 93.0225 20.0449 93.0225C20.5563 93.0225 20.9654 93.227 21.3745 93.5338L22.6017 90.8748L23.1131 92.2043ZM18.5108 95.477C18.4086 95.8861 18.6131 96.2952 18.8176 96.8066L19.6358 98.1361L22.0904 96.7043L21.2722 95.3748C20.9654 94.8634 20.6586 94.5566 20.2495 94.4543C19.8404 94.352 19.5336 94.352 19.1245 94.5566C18.7154 94.7611 18.5108 95.0679 18.5108 95.477Z" fill="white"/>
<path d="M15.853 90.977L16.7734 93.1247L15.7507 93.5338L13.3984 87.9088L14.4212 87.4997L15.3416 89.7497L20.8643 87.3975L21.3757 88.6247L15.853 90.977Z" fill="white"/>
<path d="M16.4659 82.2839L18.9205 81.568L19.3295 82.7952L16.875 83.5111L13.1932 87.4998L12.7841 86.1702L15.5455 83.2043L11.6591 82.1816L11.25 80.8521L16.4659 82.2839Z" fill="white"/>
<path d="M33.0339 61.0111C33.7498 61.3179 34.2612 61.727 34.6703 62.3407C35.0794 62.9543 35.1816 63.5679 35.1816 64.3861C35.1816 65.2043 34.9771 65.8179 34.6703 66.4316C34.2612 67.0452 33.7498 67.4543 33.0339 67.7611C32.318 68.0679 31.4998 68.2725 30.5794 68.2725H28.1248V71.3407H26.1816V60.4998H30.5794C31.4998 60.4998 32.318 60.7043 33.0339 61.0111ZM32.5225 65.9202C32.9316 65.5111 33.2385 64.9998 33.2385 64.3861C33.2385 63.6702 33.0339 63.1588 32.5225 62.852C32.1135 62.4429 31.3975 62.3407 30.5794 62.3407H28.2271V66.6361H30.5794C31.3975 66.4316 32.0112 66.3293 32.5225 65.9202Z" fill="white"/>
<path d="M43.568 68.7838H38.2498L37.2271 71.2384H35.1816L39.9885 60.4998H41.9316L46.7385 71.2384H44.693L43.568 68.7838ZM42.9544 67.2498L40.9089 62.5452L38.8635 67.2498H42.9544Z" fill="white"/>
<path d="M49.8061 62.2384H46.2266V60.6021H55.3288V62.2384H51.7493V71.3407H49.7038V62.2384H49.8061Z" fill="white"/>
<path d="M64.8413 69.602V71.2384H56.7617V60.4998H64.6367V62.1361H58.8072V64.8975H64.0231V66.5338H58.8072V69.4998H64.8413V69.602Z" fill="white"/>
<path d="M76.6012 60.4998V71.2384H74.9648L69.033 63.977V71.2384H67.0898V60.4998H68.7262L74.658 67.7611V60.4998H76.6012Z" fill="white"/>
<path d="M81.7163 62.2384H78.1367V60.6021H87.239V62.2384H83.6594V71.3407H81.614V62.2384H81.7163Z" fill="white"/>
<path d="M96.853 69.602V71.2384H88.7734V60.4998H96.6484V62.1361H90.8189V64.8975H96.0348V66.5338H90.8189V69.4998H96.853V69.602Z" fill="white"/>
<path d="M99 60.4998H103.705C104.83 60.4998 105.852 60.7043 106.773 61.2157C107.693 61.6248 108.307 62.3407 108.818 63.0566C109.33 63.8748 109.534 64.7952 109.534 65.9202C109.534 67.0452 109.33 67.9657 108.818 68.7838C108.307 69.602 107.591 70.2157 106.773 70.6248C105.852 71.0338 104.83 71.3407 103.705 71.3407H99V60.4998ZM103.602 69.602C104.42 69.602 105.034 69.4998 105.648 69.1929C106.261 68.8861 106.67 68.477 107.08 67.8634C107.386 67.352 107.591 66.6361 107.591 65.9202C107.591 65.2043 107.386 64.4884 107.08 63.977C106.773 63.4657 106.261 62.9543 105.648 62.6475C105.034 62.3407 104.318 62.2384 103.602 62.2384H100.943V69.602H103.602Z" fill="white"/>
<path d="M119.865 67.9656C120.429 67.9656 120.887 67.5077 120.887 66.9429C120.887 66.3781 120.429 65.9202 119.865 65.9202C119.3 65.9202 118.842 66.3781 118.842 66.9429C118.842 67.5077 119.3 67.9656 119.865 67.9656Z" fill="white"/>
<path d="M12.9895 67.9656C13.5544 67.9656 14.0123 67.5077 14.0123 66.9429C14.0123 66.3781 13.5544 65.9202 12.9895 65.9202C12.4247 65.9202 11.9668 66.3781 11.9668 66.9429C11.9668 67.5077 12.4247 67.9656 12.9895 67.9656Z" fill="white"/>
</svg>
