<svg width="141" height="49" viewBox="0 0 141 49" fill="none" xmlns="http://www.w3.org/2000/svg">
<path d="M13.616 8.72378V17.1238H12.08V10.0438H7.724V17.1238H6.188V8.72378H13.616ZM21.5526 15.1798H17.3526L16.5246 17.1238H14.9166L18.6966 8.72378H20.2326L24.0246 17.1238H22.3926L21.5526 15.1798ZM21.0366 13.9558L19.4526 10.2838L17.8806 13.9558H21.0366ZM28.7687 8.72378C29.4967 8.72378 30.1287 8.84378 30.6647 9.08378C31.2087 9.32378 31.6247 9.66778 31.9127 10.1158C32.2007 10.5638 32.3447 11.0958 32.3447 11.7118C32.3447 12.3198 32.2007 12.8518 31.9127 13.3078C31.6247 13.7558 31.2087 14.0998 30.6647 14.3398C30.1287 14.5798 29.4967 14.6998 28.7687 14.6998H26.8727V17.1238H25.3127V8.72378H28.7687ZM28.6967 13.3798C29.3767 13.3798 29.8927 13.2358 30.2447 12.9478C30.5967 12.6598 30.7727 12.2478 30.7727 11.7118C30.7727 11.1758 30.5967 10.7638 30.2447 10.4758C29.8927 10.1878 29.3767 10.0438 28.6967 10.0438H26.8727V13.3798H28.6967ZM39.6704 10.0438H36.8864V17.1238H35.3384V10.0438H32.5664V8.72378H39.6704V10.0438ZM48.4798 8.72378V17.1238H46.9198V13.5238H42.5758V17.1238H41.0158V8.72378H42.5758V12.1918H46.9198V8.72378H48.4798ZM57.1362 15.8158V17.1238H50.8362V8.72378H56.9682V10.0318H52.3962V12.2158H56.4522V13.4998H52.3962V15.8158H57.1362ZM62.3312 8.72378C63.0592 8.72378 63.6912 8.84378 64.2272 9.08378C64.7712 9.32378 65.1872 9.66778 65.4752 10.1158C65.7632 10.5638 65.9072 11.0958 65.9072 11.7118C65.9072 12.3198 65.7632 12.8518 65.4752 13.3078C65.1872 13.7558 64.7712 14.0998 64.2272 14.3398C63.6912 14.5798 63.0592 14.6998 62.3312 14.6998H60.4352V17.1238H58.8752V8.72378H62.3312ZM62.2592 13.3798C62.9392 13.3798 63.4552 13.2358 63.8072 12.9478C64.1592 12.6598 64.3352 12.2478 64.3352 11.7118C64.3352 11.1758 64.1592 10.7638 63.8072 10.4758C63.4552 10.1878 62.9392 10.0438 62.2592 10.0438H60.4352V13.3798H62.2592ZM71.3642 17.2438C70.5162 17.2438 69.7482 17.0598 69.0602 16.6918C68.3802 16.3158 67.8442 15.7998 67.4522 15.1438C67.0682 14.4878 66.8762 13.7478 66.8762 12.9238C66.8762 12.0998 67.0722 11.3598 67.4642 10.7038C67.8562 10.0478 68.3922 9.53578 69.0722 9.16778C69.7602 8.79178 70.5282 8.60378 71.3762 8.60378C72.0642 8.60378 72.6922 8.72378 73.2602 8.96378C73.8282 9.20378 74.3082 9.55178 74.7002 10.0078L73.6922 10.9558C73.0842 10.2998 72.3362 9.97178 71.4482 9.97178C70.8722 9.97178 70.3562 10.0998 69.9002 10.3558C69.4442 10.6038 69.0882 10.9518 68.8322 11.3998C68.5762 11.8478 68.4482 12.3558 68.4482 12.9238C68.4482 13.4918 68.5762 13.9998 68.8322 14.4478C69.0882 14.8958 69.4442 15.2478 69.9002 15.5038C70.3562 15.7518 70.8722 15.8758 71.4482 15.8758C72.3362 15.8758 73.0842 15.5438 73.6922 14.8798L74.7002 15.8398C74.3082 16.2958 73.8242 16.6438 73.2482 16.8838C72.6802 17.1238 72.0522 17.2438 71.3642 17.2438ZM79.2447 13.5838H77.6847V17.1238H76.1487V8.72378H77.6847V12.2398H79.2927L81.7047 8.72378H83.3607L80.4927 12.7918L83.4687 17.1238H81.7047L79.2447 13.5838ZM89.9549 15.1798H85.7549L84.9269 17.1238H83.3189L87.0989 8.72378H88.6349L92.4269 17.1238H90.7949L89.9549 15.1798ZM89.4389 13.9558L87.8549 10.2838L86.2829 13.9558H89.4389ZM99.7132 8.72378V17.1238H98.1772V14.7838H96.1012H95.9332L94.3732 17.1238H92.7292L94.5292 14.5318C93.9452 14.3158 93.4932 13.9758 93.1732 13.5118C92.8612 13.0398 92.7052 12.4718 92.7052 11.8078C92.7052 11.1678 92.8492 10.6158 93.1372 10.1518C93.4252 9.68778 93.8332 9.33578 94.3612 9.09578C94.8892 8.84778 95.5092 8.72378 96.2212 8.72378H99.7132ZM96.2692 10.0438C95.6292 10.0438 95.1372 10.1918 94.7932 10.4878C94.4572 10.7838 94.2892 11.2158 94.2892 11.7838C94.2892 12.3358 94.4532 12.7638 94.7812 13.0678C95.1092 13.3638 95.5852 13.5118 96.2092 13.5118H98.1772V10.0438H96.2692Z" fill="white"/>
<path d="M59.1746 31.7238V40.1238H57.6386V33.0438H53.2826V40.1238H51.7466V31.7238H59.1746ZM64.9992 31.7238C65.7272 31.7238 66.3592 31.8438 66.8952 32.0838C67.4392 32.3238 67.8552 32.6678 68.1432 33.1158C68.4312 33.5638 68.5752 34.0958 68.5752 34.7118C68.5752 35.3198 68.4312 35.8518 68.1432 36.3078C67.8552 36.7558 67.4392 37.0998 66.8952 37.3398C66.3592 37.5798 65.7272 37.6998 64.9992 37.6998H63.1032V40.1238H61.5432V31.7238H64.9992ZM64.9272 36.3798C65.6072 36.3798 66.1232 36.2358 66.4752 35.9478C66.8272 35.6598 67.0032 35.2478 67.0032 34.7118C67.0032 34.1758 66.8272 33.7638 66.4752 33.4758C66.1232 33.1878 65.6072 33.0438 64.9272 33.0438H63.1032V36.3798H64.9272ZM74.0562 40.2438C73.2002 40.2438 72.4282 40.0598 71.7402 39.6918C71.0522 39.3158 70.5122 38.7998 70.1202 38.1438C69.7282 37.4798 69.5322 36.7398 69.5322 35.9238C69.5322 35.1078 69.7282 34.3718 70.1202 33.7158C70.5122 33.0518 71.0522 32.5358 71.7402 32.1678C72.4282 31.7918 73.2002 31.6038 74.0562 31.6038C74.9122 31.6038 75.6842 31.7918 76.3722 32.1678C77.0602 32.5358 77.6002 33.0478 77.9922 33.7038C78.3842 34.3598 78.5802 35.0998 78.5802 35.9238C78.5802 36.7478 78.3842 37.4878 77.9922 38.1438C77.6002 38.7998 77.0602 39.3158 76.3722 39.6918C75.6842 40.0598 74.9122 40.2438 74.0562 40.2438ZM74.0562 38.8758C74.6162 38.8758 75.1202 38.7518 75.5682 38.5038C76.0162 38.2478 76.3682 37.8958 76.6242 37.4478C76.8802 36.9918 77.0082 36.4838 77.0082 35.9238C77.0082 35.3638 76.8802 34.8598 76.6242 34.4118C76.3682 33.9558 76.0162 33.6038 75.5682 33.3558C75.1202 33.0998 74.6162 32.9718 74.0562 32.9718C73.4962 32.9718 72.9922 33.0998 72.5442 33.3558C72.0962 33.6038 71.7442 33.9558 71.4882 34.4118C71.2322 34.8598 71.1042 35.3638 71.1042 35.9238C71.1042 36.4838 71.2322 36.9918 71.4882 37.4478C71.7442 37.8958 72.0962 38.2478 72.5442 38.5038C72.9922 38.7518 73.4962 38.8758 74.0562 38.8758ZM86.0049 33.0438H81.8409L81.8529 40.1238H80.3169V31.7238H86.0169L86.0049 33.0438ZM90.7804 31.7238C91.5084 31.7238 92.1404 31.8438 92.6764 32.0838C93.2204 32.3238 93.6364 32.6678 93.9244 33.1158C94.2124 33.5638 94.3564 34.0958 94.3564 34.7118C94.3564 35.3198 94.2124 35.8518 93.9244 36.3078C93.6364 36.7558 93.2204 37.0998 92.6764 37.3398C92.1404 37.5798 91.5084 37.6998 90.7804 37.6998H88.8844V40.1238H87.3244V31.7238H90.7804ZM90.7084 36.3798C91.3884 36.3798 91.9044 36.2358 92.2564 35.9478C92.6084 35.6598 92.7844 35.2478 92.7844 34.7118C92.7844 34.1758 92.6084 33.7638 92.2564 33.4758C91.9044 33.1878 91.3884 33.0438 90.7084 33.0438H88.8844V36.3798H90.7084ZM100.978 38.1798H96.7784L95.9504 40.1238H94.3424L98.1224 31.7238H99.6584L103.45 40.1238H101.818L100.978 38.1798ZM100.462 36.9558L98.8784 33.2838L97.3064 36.9558H100.462ZM112.455 40.1238L112.443 34.5558L109.683 39.1638H108.987L106.227 34.6278V40.1238H104.751V31.7238H106.035L109.359 37.2798L112.647 31.7238H113.919L113.943 40.1238H112.455ZM124.009 40.1238L123.997 34.5558L121.237 39.1638H120.541L117.781 34.6278V40.1238H116.305V31.7238H117.589L120.913 37.2798L124.201 31.7238H125.473L125.497 40.1238H124.009ZM133.416 38.1798H129.216L128.388 40.1238H126.78L130.56 31.7238H132.096L135.888 40.1238H134.256L133.416 38.1798ZM132.9 36.9558L131.316 33.2838L129.744 36.9558H132.9Z" fill="white"/>
<rect x="1" y="1.12378" width="139" height="46" stroke="white" stroke-width="2"/>
</svg>
