<svg width="58" height="35" viewBox="0 0 58 35" fill="none" xmlns="http://www.w3.org/2000/svg">
<path d="M8.18641 31.56L7.64049 32.3979L7.64953 32.4037L8.18641 31.56ZM3.50641 25.98L2.59909 26.4005L2.60108 26.4047L3.50641 25.98ZM3.50641 8.565L4.41174 8.98972L4.41372 8.98546L3.50641 8.565ZM8.18641 2.985L8.72331 3.82871L8.73229 3.82286L8.18641 2.985ZM21.6864 2.985L21.1405 3.82286L21.1479 3.82764L21.1553 3.83228L21.6864 2.985ZM26.4114 8.565L25.5041 8.98546L25.5061 8.98972L26.4114 8.565ZM26.4114 25.98L27.3167 26.4047L27.3187 26.4005L26.4114 25.98ZM21.6864 31.56L22.2233 32.4037L22.2265 32.4016L21.6864 31.56ZM20.2464 25.575L19.4309 24.9962L19.4247 25.0051L20.2464 25.575ZM20.2464 8.925L19.4246 9.49493L19.4309 9.50375L20.2464 8.925ZM9.62641 8.925L8.81085 8.34622L8.80469 8.3551L9.62641 8.925ZM9.62641 25.575L8.80464 26.1449L8.8109 26.1537L9.62641 25.575ZM14.9364 32.45C12.592 32.45 10.5309 31.8666 8.72328 30.7163L7.64953 32.4037C9.8019 33.7733 12.2409 34.45 14.9364 34.45V32.45ZM8.73229 30.7221C6.92857 29.547 5.48369 27.8402 4.41173 25.5553L2.60108 26.4047C3.80912 28.9798 5.48425 30.993 7.64053 32.3979L8.73229 30.7221ZM4.41372 25.5595C3.34757 23.2589 2.79641 20.4986 2.79641 17.25H0.796406C0.796406 20.7214 1.38524 23.7811 2.5991 26.4005L4.41372 25.5595ZM2.79641 17.25C2.79641 14.0009 3.34773 11.2577 4.41173 8.98972L2.60108 8.14028C1.38508 10.7323 0.796406 13.7791 0.796406 17.25H2.79641ZM4.41372 8.98546C5.48604 6.6715 6.92855 4.97076 8.72328 3.82866L7.64953 2.14134C5.48426 3.51924 3.80677 5.5385 2.5991 8.14454L4.41372 8.98546ZM8.73229 3.82286C10.5389 2.64579 12.5968 2.05 14.9364 2.05V0.0499983C12.2361 0.0499983 9.79387 0.744201 7.64053 2.14713L8.73229 3.82286ZM14.9364 2.05C17.2761 2.05 19.3339 2.64579 21.1405 3.82286L22.2323 2.14713C20.0789 0.744201 17.6368 0.0499983 14.9364 0.0499983V2.05ZM21.1553 3.83228C22.9787 4.97531 24.4336 6.67536 25.5041 8.98546L27.3187 8.14454C26.1093 5.53464 24.4142 3.51469 22.2175 2.13771L21.1553 3.83228ZM25.5061 8.98972C26.5701 11.2577 27.1214 14.0009 27.1214 17.25H29.1214C29.1214 13.7791 28.5327 10.7323 27.3167 8.14028L25.5061 8.98972ZM27.1214 17.25C27.1214 20.4986 26.5702 23.2589 25.5041 25.5595L27.3187 26.4005C28.5326 23.7811 29.1214 20.7214 29.1214 17.25H27.1214ZM25.5061 25.5553C24.4359 27.8364 22.9786 29.5424 21.1463 30.7184L22.2265 32.4016C24.4142 30.9976 26.1069 28.9836 27.3167 26.4047L25.5061 25.5553ZM21.1495 30.7163C19.3419 31.8666 17.2809 32.45 14.9364 32.45V34.45C17.632 34.45 20.0709 33.7733 22.2233 32.4037L21.1495 30.7163ZM14.9364 29.365C17.5166 29.365 19.5926 28.2724 21.0681 26.1449L19.4247 25.0051C18.3202 26.5976 16.8562 27.365 14.9364 27.365V29.365ZM21.0619 26.1537C22.5555 24.0491 23.2264 21.03 23.2264 17.25H21.2264C21.2264 20.85 20.5773 23.3809 19.4309 24.9963L21.0619 26.1537ZM23.2264 17.25C23.2264 13.47 22.5555 10.4509 21.0619 8.34625L19.4309 9.50375C20.5773 11.1191 21.2264 13.65 21.2264 17.25H23.2264ZM21.0681 8.3551C19.5926 6.22765 17.5166 5.135 14.9364 5.135V7.135C16.8562 7.135 18.3202 7.90235 19.4247 9.4949L21.0681 8.3551ZM14.9364 5.135C12.382 5.135 10.3123 6.2306 8.8109 8.34625L10.4419 9.50375C11.5805 7.8994 13.0508 7.135 14.9364 7.135V5.135ZM8.80469 8.3551C7.34622 10.458 6.69141 13.4732 6.69141 17.25H8.69141C8.69141 13.6468 9.3266 11.112 10.4481 9.4949L8.80469 8.3551ZM6.69141 17.25C6.69141 21.0268 7.34622 24.042 8.80469 26.1449L10.4481 25.0051C9.3266 23.388 8.69141 20.8532 8.69141 17.25H6.69141ZM8.8109 26.1537C10.3123 28.2694 12.382 29.365 14.9364 29.365V27.365C13.0508 27.365 11.5805 26.6006 10.4419 24.9963L8.8109 26.1537ZM42.745 1.5H43.745V0.499998H42.745V1.5ZM42.745 33V34H43.745V33H42.745ZM36.895 33H35.895V34H36.895V33ZM36.895 6.405H37.895V5.405H36.895V6.405ZM30.235 6.405H29.235V7.405H30.235V6.405ZM30.235 1.5V0.499998H29.235V1.5H30.235ZM41.745 1.5V33H43.745V1.5H41.745ZM42.745 32H36.895V34H42.745V32ZM37.895 33V6.405H35.895V33H37.895ZM36.895 5.405H30.235V7.405H36.895V5.405ZM31.235 6.405V1.5H29.235V6.405H31.235ZM30.235 2.5H42.745V0.499998H30.235V2.5ZM49.8937 32.28L49.1866 32.9871L49.1941 32.9946L49.2018 33.002L49.8937 32.28ZM49.8487 26.88L49.1568 26.158L49.1491 26.1654L49.1416 26.1729L49.8487 26.88ZM55.1137 26.88L54.4066 27.5871L54.4141 27.5946L54.4218 27.602L55.1137 26.88ZM55.1137 32.28L55.8056 33.002L55.8133 32.9946L55.8208 32.9871L55.1137 32.28ZM52.5037 32.315C51.735 32.315 51.1147 32.0651 50.5856 31.558L49.2018 33.002C50.1126 33.8749 51.2324 34.315 52.5037 34.315V32.315ZM50.6008 31.5729C50.0806 31.0527 49.8137 30.4126 49.8137 29.58H47.8137C47.8137 30.9074 48.2668 32.0673 49.1866 32.9871L50.6008 31.5729ZM49.8137 29.58C49.8137 28.6955 50.0796 28.0633 50.5558 27.5871L49.1416 26.1729C48.2377 27.0767 47.8137 28.2445 47.8137 29.58H49.8137ZM50.5406 27.602C51.0638 27.1006 51.6965 26.845 52.5037 26.845V24.845C51.2109 24.845 50.0735 25.2794 49.1568 26.158L50.5406 27.602ZM52.5037 26.845C53.3107 26.845 53.9193 27.0998 54.4066 27.5871L55.8208 26.1729C54.928 25.2802 53.7966 24.845 52.5037 24.845V26.845ZM54.4218 27.602C54.9217 28.0811 55.1937 28.7086 55.1937 29.58H57.1937C57.1937 28.2314 56.7456 27.0589 55.8056 26.158L54.4218 27.602ZM55.1937 29.58C55.1937 30.4126 54.9268 31.0527 54.4066 31.5729L55.8208 32.9871C56.7406 32.0673 57.1937 30.9074 57.1937 29.58H55.1937ZM54.4218 31.558C53.8926 32.0651 53.2724 32.315 52.5037 32.315V34.315C53.775 34.315 54.8947 33.8749 55.8056 33.002L54.4218 31.558Z" fill="white"/>
</svg>
