<svg width="67" height="36" viewBox="0 0 67 36" fill="none" xmlns="http://www.w3.org/2000/svg">
<path d="M8.17371 32.1838L7.6278 33.0217L7.63684 33.0274L8.17371 32.1838ZM3.49371 26.6038L2.58639 27.0242L2.58839 27.0285L3.49371 26.6038ZM3.49371 9.18878L4.39905 9.6135L4.40102 9.60924L3.49371 9.18878ZM8.17371 3.60878L8.71062 4.45249L8.71959 4.44664L8.17371 3.60878ZM21.6737 3.60878L21.1278 4.44664L21.1352 4.45142L21.1426 4.45606L21.6737 3.60878ZM26.3987 9.18878L25.4914 9.60924L25.4934 9.6135L26.3987 9.18878ZM26.3987 26.6038L27.304 27.0285L27.306 27.0242L26.3987 26.6038ZM21.6737 32.1838L22.2106 33.0274L22.2138 33.0254L21.6737 32.1838ZM20.2337 26.1988L19.4182 25.62L19.412 25.6289L20.2337 26.1988ZM20.2337 9.54878L19.4119 10.1187L19.4182 10.1275L20.2337 9.54878ZM9.61371 9.54878L8.79816 8.97L8.792 8.97888L9.61371 9.54878ZM9.61371 26.1988L8.79195 26.7687L8.7982 26.7775L9.61371 26.1988ZM14.9237 33.0738C12.5793 33.0738 10.5182 32.4904 8.71059 31.3401L7.63684 33.0274C9.7892 34.3971 12.2282 35.0738 14.9237 35.0738V33.0738ZM8.71959 31.3459C6.91587 30.1708 5.47099 28.464 4.39904 26.1791L2.58839 27.0285C3.79643 29.6035 5.47155 31.6168 7.62783 33.0216L8.71959 31.3459ZM4.40102 26.1833C3.33488 23.8827 2.78371 21.1224 2.78371 17.8738H0.783711C0.783711 21.3451 1.37254 24.4049 2.5864 27.0242L4.40102 26.1833ZM2.78371 17.8738C2.78371 14.6246 3.33504 11.8815 4.39904 9.6135L2.58839 8.76406C1.37239 11.3561 0.783711 14.4029 0.783711 17.8738H2.78371ZM4.40102 9.60924C5.47335 7.29527 6.91586 5.59454 8.71059 4.45244L7.63684 2.76512C5.47156 4.14302 3.79408 6.16228 2.5864 8.76832L4.40102 9.60924ZM8.71959 4.44664C10.5263 3.26957 12.5841 2.67378 14.9237 2.67378V0.673778C12.2234 0.673778 9.78117 1.36798 7.62783 2.77091L8.71959 4.44664ZM14.9237 2.67378C17.2634 2.67378 19.3212 3.26957 21.1278 4.44664L22.2196 2.77091C20.0663 1.36798 17.6241 0.673778 14.9237 0.673778V2.67378ZM21.1426 4.45606C22.966 5.59908 24.4209 7.29914 25.4914 9.60924L27.306 8.76832C26.0966 6.15842 24.4015 4.13847 22.2048 2.76149L21.1426 4.45606ZM25.4934 9.6135C26.5574 11.8815 27.1087 14.6246 27.1087 17.8738H29.1087C29.1087 14.4029 28.52 11.3561 27.304 8.76406L25.4934 9.6135ZM27.1087 17.8738C27.1087 21.1224 26.5575 23.8827 25.4914 26.1833L27.306 27.0242C28.5199 24.4049 29.1087 21.3451 29.1087 17.8738H27.1087ZM25.4934 26.1791C24.4232 28.4602 22.9659 30.1662 21.1336 31.3422L22.2138 33.0254C24.4015 31.6214 26.0942 29.6073 27.304 27.0285L25.4934 26.1791ZM21.1368 31.3401C19.3292 32.4904 17.2682 33.0738 14.9237 33.0738V35.0738C17.6193 35.0738 20.0582 34.3971 22.2106 33.0274L21.1368 31.3401ZM14.9237 29.9888C17.5039 29.9888 19.5799 28.8961 21.0554 26.7687L19.412 25.6289C18.3075 27.2214 16.8435 27.9888 14.9237 27.9888V29.9888ZM21.0492 26.7775C22.5428 24.6729 23.2137 21.6538 23.2137 17.8738H21.2137C21.2137 21.4738 20.5646 24.0047 19.4182 25.62L21.0492 26.7775ZM23.2137 17.8738C23.2137 14.0938 22.5428 11.0747 21.0492 8.97003L19.4182 10.1275C20.5646 11.7429 21.2137 14.2738 21.2137 17.8738H23.2137ZM21.0554 8.97888C19.5799 6.85143 17.5039 5.75878 14.9237 5.75878V7.75878C16.8435 7.75878 18.3075 8.52613 19.412 10.1187L21.0554 8.97888ZM14.9237 5.75878C12.3693 5.75878 10.2996 6.85438 8.7982 8.97003L10.4292 10.1275C11.5678 8.52318 13.0381 7.75878 14.9237 7.75878V5.75878ZM8.792 8.97888C7.33352 11.0818 6.67871 14.097 6.67871 17.8738H8.67871C8.67871 14.2706 9.3139 11.7358 10.4354 10.1187L8.792 8.97888ZM6.67871 17.8738C6.67871 21.6506 7.33352 24.6658 8.792 26.7687L10.4354 25.6289C9.3139 24.0118 8.67871 21.477 8.67871 17.8738H6.67871ZM8.7982 26.7775C10.2996 28.8932 12.3693 29.9888 14.9237 29.9888V27.9888C13.0381 27.9888 11.5678 27.2244 10.4292 25.62L8.7982 26.7775ZM45.0326 15.1288L44.2675 14.4849L43.0808 15.8949L44.9098 16.1212L45.0326 15.1288ZM51.6926 18.0988L52.4196 17.4122L51.6926 18.0988ZM52.5926 29.1688L53.4425 29.6957V29.6957L52.5926 29.1688ZM48.3626 32.7688L48.7863 33.6746L48.7925 33.6716L48.3626 32.7688ZM34.9976 33.1288L34.6938 34.0815L34.702 34.0841L34.7102 34.0866L34.9976 33.1288ZM29.6876 30.4288L28.813 29.9439L28.3973 30.6936L29.0748 31.219L29.6876 30.4288ZM32.2076 25.8838L32.8517 25.1189L31.9222 24.3362L31.333 25.3989L32.2076 25.8838ZM36.3476 28.1788L36.0157 29.1221L36.0261 29.1257L36.0365 29.1292L36.3476 28.1788ZM46.2926 27.7288L46.8758 28.5411L46.8795 28.5384L46.2926 27.7288ZM46.3826 20.7988L45.7791 21.5962L45.7911 21.6053L45.8034 21.614L46.3826 20.7988ZM38.3726 19.5388H37.3726V20.5388H38.3726V19.5388ZM38.3726 15.5338L37.6074 14.89L37.3726 15.1691V15.5338H38.3726ZM45.5276 7.02878L46.2928 7.67254L47.6757 6.02878H45.5276V7.02878ZM31.2176 7.02878H30.2176V8.02878H31.2176V7.02878ZM31.2176 2.12378V1.12378H30.2176V2.12378H31.2176ZM52.6826 2.12378H53.6826V1.12378H52.6826V2.12378ZM52.6826 6.03878L53.4477 6.68268L53.6826 6.40357V6.03878H52.6826ZM44.9098 16.1212C47.6626 16.4618 49.6397 17.3816 50.9656 18.7854L52.4196 17.4122C50.6854 15.576 48.2226 14.5158 45.1554 14.1363L44.9098 16.1212ZM50.9656 18.7854C52.3037 20.2022 52.9876 21.9739 52.9876 24.1738H54.9876C54.9876 21.5137 54.1415 19.2354 52.4196 17.4122L50.9656 18.7854ZM52.9876 24.1738C52.9876 25.8248 52.5708 27.3061 51.7427 28.6418L53.4425 29.6957C54.4743 28.0314 54.9876 26.1828 54.9876 24.1738H52.9876ZM51.7427 28.6418C50.9313 29.9506 49.6822 31.0328 47.9326 31.8659L48.7925 33.6716C50.823 32.7048 52.3939 31.387 53.4425 29.6957L51.7427 28.6418ZM47.9389 31.863C46.2464 32.6546 44.1203 33.0738 41.5226 33.0738V35.0738C44.3249 35.0738 46.7588 34.6229 48.7863 33.6746L47.9389 31.863ZM41.5226 33.0738C39.3673 33.0738 37.2893 32.7723 35.2849 32.171L34.7102 34.0866C36.9059 34.7453 39.1778 35.0738 41.5226 35.0738V33.0738ZM35.3014 32.176C33.3247 31.5458 31.6636 30.6957 30.3004 29.6386L29.0748 31.219C30.6516 32.4418 32.5305 33.3918 34.6938 34.0815L35.3014 32.176ZM30.5621 30.9137L33.0821 26.3687L31.333 25.3989L28.813 29.9439L30.5621 30.9137ZM31.5634 26.6487C32.8088 27.6974 34.2988 28.518 36.0157 29.1221L36.6795 27.2355C35.1564 26.6996 33.8863 25.9901 32.8517 25.1189L31.5634 26.6487ZM36.0365 29.1292C37.7872 29.7021 39.5872 29.9888 41.4326 29.9888V27.9888C39.798 27.9888 38.208 27.7354 36.6586 27.2284L36.0365 29.1292ZM41.4326 29.9888C43.6239 29.9888 45.4761 29.546 46.8758 28.5411L45.7094 26.9165C44.769 27.5916 43.3813 27.9888 41.4326 27.9888V29.9888ZM46.8795 28.5384C48.3364 27.4821 49.0926 26.0124 49.0926 24.2188H47.0926C47.0926 25.3652 46.6487 26.2354 45.7056 26.9192L46.8795 28.5384ZM49.0926 24.2188C49.0926 22.4445 48.3813 20.9922 46.9618 19.9836L45.8034 21.614C46.6638 22.2253 47.0926 23.0531 47.0926 24.2188H49.0926ZM46.986 20.0014C45.6208 18.9682 43.6493 18.5388 41.2526 18.5388V20.5388C43.4759 20.5388 44.9244 20.9493 45.7791 21.5962L46.986 20.0014ZM41.2526 18.5388H38.3726V20.5388H41.2526V18.5388ZM39.3726 19.5388V15.5338H37.3726V19.5388H39.3726ZM39.1378 16.1775L46.2928 7.67254L44.7624 6.38502L37.6074 14.89L39.1378 16.1775ZM45.5276 6.02878H31.2176V8.02878H45.5276V6.02878ZM32.2176 7.02878V2.12378H30.2176V7.02878H32.2176ZM31.2176 3.12378H52.6826V1.12378H31.2176V3.12378ZM51.6826 2.12378V6.03878H53.6826V2.12378H51.6826ZM51.9175 5.39488L44.2675 14.4849L45.7977 15.7727L53.4477 6.68268L51.9175 5.39488ZM58.714 32.9038L58.0069 33.6109L58.0144 33.6184L58.0221 33.6258L58.714 32.9038ZM58.669 27.5038L57.9771 26.7818L57.9694 26.7892L57.9619 26.7967L58.669 27.5038ZM63.934 27.5038L63.2269 28.2109L63.2344 28.2184L63.2421 28.2258L63.934 27.5038ZM63.934 32.9038L64.6259 33.6258L64.6336 33.6184L64.6411 33.6109L63.934 32.9038ZM61.324 32.9388C60.5553 32.9388 59.935 32.6889 59.4059 32.1818L58.0221 33.6258C58.9329 34.4987 60.0527 34.9388 61.324 34.9388V32.9388ZM59.4211 32.1967C58.9009 31.6765 58.634 31.0364 58.634 30.2038H56.634C56.634 31.5311 57.0871 32.6911 58.0069 33.6109L59.4211 32.1967ZM58.634 30.2038C58.634 29.3193 58.8999 28.687 59.3761 28.2109L57.9619 26.7967C57.058 27.7005 56.634 28.8682 56.634 30.2038H58.634ZM59.3609 28.2258C59.8841 27.7243 60.5168 27.4688 61.324 27.4688V25.4688C60.0312 25.4688 58.8938 25.9032 57.9771 26.7818L59.3609 28.2258ZM61.324 27.4688C62.1311 27.4688 62.7396 27.7236 63.2269 28.2109L64.6411 26.7967C63.7484 25.9039 62.6169 25.4688 61.324 25.4688V27.4688ZM63.2421 28.2258C63.742 28.7049 64.014 29.3324 64.014 30.2038H66.014C66.014 28.8552 65.566 27.6827 64.6259 26.7818L63.2421 28.2258ZM64.014 30.2038C64.014 31.0364 63.7471 31.6765 63.2269 32.1967L64.6411 33.6109C65.5609 32.6911 66.014 31.5311 66.014 30.2038H64.014ZM63.2421 32.1818C62.7129 32.6889 62.0927 32.9388 61.324 32.9388V34.9388C62.5953 34.9388 63.715 34.4987 64.6259 33.6258L63.2421 32.1818Z" fill="white"/>
</svg>
