<svg width="115" height="56" viewBox="0 0 115 56" fill="none" xmlns="http://www.w3.org/2000/svg">
<path d="M17.7484 17.6909H12.067L10.891 20.3636H9.31787L14.1593 9.67273H15.6713L20.5281 20.3636H18.9244L17.7484 17.6909ZM17.2139 16.4691L14.9077 11.2305L12.6015 16.4691H17.2139Z" fill="white"/>
<path d="M22.1229 9.67273H23.6501V19.0349H29.4385V20.3636H22.1229V9.67273Z" fill="white"/>
<path d="M32.7183 11.0015V14.728H38.079V16.0415H32.7183V20.3636H31.191V9.67273H38.7358V11.0015H32.7183Z" fill="white"/>
<path d="M47.2051 17.6909H41.5236L40.3476 20.3636H38.7745L43.616 9.67273H45.128L49.9847 20.3636H48.3811L47.2051 17.6909ZM46.6705 16.4691L44.3644 11.2305L42.0582 16.4691H46.6705Z" fill="white"/>
<path d="M75.4457 43.1455H69.7642L68.5882 45.8182H67.0151L71.8566 35.1273H73.3686L78.2253 45.8182H76.6217L75.4457 43.1455ZM74.9111 41.9237L72.605 36.6851L70.2988 41.9237H74.9111Z" fill="white"/>
<path d="M79.8201 35.1273H81.3474V45.8182H79.8201V35.1273Z" fill="white"/>
<path d="M89.3285 45.9404C88.2594 45.9404 87.2921 45.7062 86.4267 45.2379C85.5714 44.7593 84.8994 44.1077 84.4107 43.2829C83.9219 42.448 83.6776 41.5113 83.6776 40.4728C83.6776 39.4342 83.9219 38.5026 84.4107 37.6779C84.8994 36.8429 85.5765 36.1913 86.4419 35.7229C87.3074 35.2444 88.2747 35.0051 89.3437 35.0051C90.1787 35.0051 90.9423 35.1477 91.6347 35.4328C92.327 35.7077 92.9176 36.12 93.4063 36.6699L92.4136 37.632C91.6092 36.7869 90.6063 36.3644 89.4048 36.3644C88.6107 36.3644 87.8928 36.5426 87.2514 36.8989C86.6099 37.2553 86.1059 37.7491 85.7394 38.3804C85.383 39.0015 85.2048 39.6989 85.2048 40.4728C85.2048 41.2466 85.383 41.9491 85.7394 42.5804C86.1059 43.2015 86.6099 43.6902 87.2514 44.0466C87.8928 44.4029 88.6107 44.5811 89.4048 44.5811C90.5961 44.5811 91.599 44.1535 92.4136 43.2982L93.4063 44.2604C92.9176 44.8102 92.3219 45.2277 91.6194 45.5128C90.927 45.7979 90.1634 45.9404 89.3285 45.9404Z" fill="white"/>
<path d="M104.766 35.1273L100.078 45.8182H98.5657L93.8617 35.1273H95.5112L99.3599 43.9091L103.239 35.1273H104.766Z" fill="white"/>
<rect x="1" y="1" width="112.545" height="54" stroke="white" stroke-width="2"/>
</svg>
