<svg width="113" height="56" viewBox="0 0 113 56" fill="none" xmlns="http://www.w3.org/2000/svg">
<path d="M17.5193 18.9508H11.9551L10.8033 21.7295H9.2627L14.0043 10.6148H15.4851L20.2416 21.7295H18.6711L17.5193 18.9508ZM16.9958 17.6806L14.7372 12.2343L12.4786 17.6806H16.9958Z" fill="white"/>
<path d="M21.8035 10.6148H23.2993V20.3481H28.9682V21.7295H21.8035V10.6148Z" fill="white"/>
<path d="M32.1804 11.9962V15.8705H37.4305V17.236H32.1804V21.7295H30.6846V10.6148H38.0737V11.9962H32.1804Z" fill="white"/>
<path d="M46.3683 18.9508H40.804L39.6523 21.7295H38.1117L42.8532 10.6148H44.334L49.0906 21.7295H47.52L46.3683 18.9508ZM45.8448 17.6806L43.5862 12.2343L41.3276 17.6806H45.8448Z" fill="white"/>
<path d="M47.2373 35.7368H51.6418C52.7467 35.7368 53.7271 35.9455 54.5832 36.3629C55.4392 36.7803 56.1011 37.3685 56.5689 38.1274C57.0467 38.8768 57.2856 39.7401 57.2856 40.7172C57.2856 41.6943 57.0467 42.5623 56.5689 43.3213C56.1011 44.0707 55.4392 44.6541 54.5832 45.0715C53.7271 45.4889 52.7467 45.6976 51.6418 45.6976H47.2373V35.7368ZM51.5522 44.4597C52.3983 44.4597 53.1399 44.3031 53.7769 43.9901C54.4239 43.677 54.9216 43.2406 55.27 42.6809C55.6183 42.1117 55.7925 41.4572 55.7925 40.7172C55.7925 39.9773 55.6183 39.3274 55.27 38.7677C54.9216 38.1985 54.4239 37.7574 53.7769 37.4444C53.1399 37.1313 52.3983 36.9748 51.5522 36.9748H48.7304V44.4597H51.5522Z" fill="white"/>
<path d="M59.5725 35.7368H61.0656V45.6976H59.5725V35.7368Z" fill="white"/>
<path d="M71.1821 45.6976L68.9276 42.6382C68.6489 42.6572 68.4299 42.6667 68.2707 42.6667H65.6877V45.6976H64.1946V35.7368H68.2707C69.6244 35.7368 70.6894 36.0451 71.4658 36.6617C72.2422 37.2784 72.6304 38.1274 72.6304 39.2089C72.6304 39.9773 72.4313 40.6318 72.0332 41.1726C71.635 41.7133 71.0677 42.107 70.3311 42.3536L72.8096 45.6976H71.1821ZM68.2259 41.4572C69.1715 41.4572 69.8931 41.2627 70.3908 40.8737C70.8885 40.4848 71.1373 39.9298 71.1373 39.2089C71.1373 38.4879 70.8885 37.9377 70.3908 37.5582C69.8931 37.1693 69.1715 36.9748 68.2259 36.9748H65.6877V41.4572H68.2259Z" fill="white"/>
<path d="M82.6274 44.4597V45.6976H75.0426V35.7368H82.4183V36.9748H76.5357V40.0342H81.7763V41.2437H76.5357V44.4597H82.6274Z" fill="white"/>
<path d="M89.6745 45.8115C88.6293 45.8115 87.6837 45.5933 86.8377 45.1569C86.0016 44.711 85.3446 44.1039 84.8668 43.3355C84.3891 42.5576 84.1502 41.6848 84.1502 40.7172C84.1502 39.7496 84.3891 38.8816 84.8668 38.1132C85.3446 37.3353 86.0065 36.7281 86.8526 36.2918C87.6987 35.8459 88.6443 35.623 89.6894 35.623C90.5056 35.623 91.2521 35.7558 91.929 36.0214C92.6059 36.2775 93.1832 36.6617 93.661 37.174L92.6905 38.0705C91.9041 37.2831 90.9237 36.8894 89.7491 36.8894C88.9727 36.8894 88.271 37.0554 87.6439 37.3874C87.0168 37.7195 86.5241 38.1796 86.1658 38.7677C85.8174 39.3464 85.6432 39.9962 85.6432 40.7172C85.6432 41.4382 85.8174 42.0928 86.1658 42.6809C86.5241 43.2596 87.0168 43.715 87.6439 44.047C88.271 44.379 88.9727 44.545 89.7491 44.545C90.9137 44.545 91.8942 44.1466 92.6905 43.3497L93.661 44.2462C93.1832 44.7585 92.6009 45.1474 91.9141 45.413C91.2372 45.6787 90.4907 45.8115 89.6745 45.8115Z" fill="white"/>
<path d="M97.7496 36.9748H94.1663V35.7368H102.811V36.9748H99.2277V45.6976H97.7496V36.9748Z" fill="white"/>
<path fill-rule="evenodd" clip-rule="evenodd" d="M111.326 2.11029H1.67407V54.316H111.326V2.11029ZM0 0.426239V56H113V0.426239H0Z" fill="white"/>
</svg>
