<svg width="286" height="42" viewBox="0 0 286 42" fill="none" xmlns="http://www.w3.org/2000/svg">
  <path d="M279 30.1664H285.39V11.9781H281.483V26.8588H281.04L273.6 11.9781H267.202V30.1664H271.11V15.2858H271.552L279 30.1664Z" fill="white"/>
  <path d="M90.0209 11.9781H86.1133V30.1664H100.656V26.8588H90.0209V11.9781Z" fill="white"/>
  <path d="M187.886 30.1664H183.626C179.314 30.1664 175.796 26.6562 175.796 22.336V19.8009C175.796 15.4882 179.306 11.9706 183.626 11.9706H187.886C192.199 11.9706 195.717 15.4807 195.717 19.8009V22.336C195.709 26.6562 192.199 30.1664 187.886 30.1664ZM184.234 15.2857C181.744 15.2857 179.711 17.3108 179.711 19.8084V22.336C179.711 24.8261 181.736 26.8588 184.234 26.8588H187.286C189.777 26.8588 191.809 24.8336 191.809 22.336V19.8009C191.809 17.3108 189.784 15.2782 187.286 15.2782H184.234V15.2857Z" fill="white"/>
  <path d="M255.577 30.1664H251.317C247.004 30.1664 243.486 26.6562 243.486 22.336V19.8009C243.486 15.4882 246.997 11.9706 251.317 11.9706H255.577C259.89 11.9706 263.407 15.4807 263.407 19.8009V22.336C263.407 26.6562 259.89 30.1664 255.577 30.1664ZM251.924 15.2857C249.434 15.2857 247.401 17.3108 247.401 19.8084V22.336C247.401 24.8261 249.427 26.8588 251.924 26.8588H254.977C257.467 26.8588 259.5 24.8336 259.5 22.336V19.8009C259.5 17.3108 257.474 15.2782 254.977 15.2782H251.924V15.2857Z" fill="white"/>
  <path d="M168.093 11.9781V19.4185H157.712V11.9781H153.805V30.1664H157.712V22.7261H168.093V30.1664H171.993V11.9781H168.093Z" fill="white"/>
  <path d="M77.1517 11.978H76.7092H69.3814H68.9389L62.8936 30.1663H63.3136H66.7938L68.5039 25.0435H77.5642L79.2743 30.1663H82.7545H83.1745L77.1517 11.978ZM69.6214 21.7284L71.774 15.2781H74.3316L76.4841 21.7284H69.6214Z" fill="white"/>
  <path d="M134.184 11.9781H133.741H126.414H125.971L119.926 30.1664H120.346H123.826L125.536 25.0437H134.596L136.306 30.1664H139.787H140.207L134.184 11.9781ZM126.654 21.7286L128.806 15.2783H131.364L133.516 21.7286H126.654Z" fill="white"/>
  <path d="M215.802 17.3483C215.802 14.3857 213.395 11.9706 210.425 11.9706H199.512V30.1589H203.419V22.7186H207.635L210.41 30.1589H214.527L211.707 22.5535C214.055 21.991 215.802 19.8684 215.802 17.3483ZM209.832 19.4109H206.052H203.419V15.2782H209.832C210.972 15.2782 211.895 16.2083 211.895 17.3483C211.895 18.2183 211.362 18.9534 210.605 19.2534C210.365 19.3584 210.102 19.4109 209.832 19.4109Z" fill="white"/>
  <path d="M222.98 11.9781H219.072V30.1664H222.98V11.9781Z" fill="white"/>
  <path d="M226.324 11.9781V15.2858H235.955L226.324 26.8813V30.1889H240.867V26.8813H231.244L240.867 15.2858V11.9781H226.324Z" fill="white"/>
  <path d="M117.562 15.2858V11.9781H103.026V19.4185V22.7261V30.1664H106.927V22.7261H116.902V19.4185H106.927V15.2858H117.562Z" fill="white"/>
</svg>
