<svg width="290" height="36" viewBox="0 0 290 36" fill="none" xmlns="http://www.w3.org/2000/svg">
<path d="M98.239 25.4716H89.6855V10.2515H92.956V16.4779H98.239C100.755 16.4779 102.767 18.4905 102.767 21.0062C102.767 23.5219 100.692 25.4716 98.239 25.4716ZM92.8931 22.7043H97.673C98.6164 22.7043 99.434 21.9496 99.434 20.9433C99.434 19.9999 98.6793 19.1823 97.673 19.1823H92.8931V22.7043Z" fill="#3700FF"/>
<path d="M158.491 25.4716H155.22V10.2515H167.421V13.0188H158.491V25.4716Z" fill="#3700FF"/>
<path d="M178.616 25.4716H175.031C171.384 25.4716 168.491 22.5156 168.491 18.9307V16.7923C168.491 13.1445 171.447 10.2515 175.031 10.2515H178.616C182.264 10.2515 185.157 13.2074 185.157 16.7923V18.9307C185.157 22.5156 182.264 25.4716 178.616 25.4716ZM175.535 13.0188C173.459 13.0188 171.761 14.7169 171.761 16.7923V18.9307C171.761 21.0062 173.459 22.7043 175.535 22.7043H178.113C180.189 22.7043 181.887 21.0062 181.887 18.9307V16.7923C181.887 14.7169 180.189 13.0188 178.113 13.0188H175.535Z" fill="#3700FF"/>
<path d="M249.308 25.4716H245.723C242.076 25.4716 239.182 22.5156 239.182 18.9307V16.7923C239.182 13.1445 242.138 10.2515 245.723 10.2515H249.308C252.956 10.2515 255.849 13.2074 255.849 16.7923V18.9307C255.849 22.5156 252.956 25.4716 249.308 25.4716ZM246.227 13.0188C244.151 13.0188 242.453 14.7169 242.453 16.7923V18.9307C242.453 21.0062 244.151 22.7043 246.227 22.7043H248.805C250.881 22.7043 252.579 21.0062 252.579 18.9307V16.7923C252.579 14.7169 250.881 13.0188 248.805 13.0188H246.227Z" fill="#3700FF"/>
<path d="M191.635 25.4716H188.365V10.2515H196.981C200.063 10.2515 202.516 12.7672 202.516 15.7861C202.516 18.8049 200 21.3206 196.981 21.3206H191.635V25.4716ZM191.635 18.5534H196.478C197.987 18.5534 199.245 17.2955 199.245 15.7861C199.245 14.2766 197.987 13.0188 196.478 13.0188H191.635V18.5534Z" fill="#3700FF"/>
<path d="M210 25.4716H204.654V10.2515H207.925V22.7043H208.302L214.528 10.2515H219.874V25.4716H216.604V13.0188H216.226L210 25.4716Z" fill="#3700FF"/>
<path d="M235.283 17.4214C235.849 16.6667 236.164 15.7233 236.164 14.717C236.164 12.2642 234.151 10.1887 231.635 10.1887H223.333V12.956H231.132C232.075 12.956 232.893 13.7107 232.893 14.717C232.893 15.6604 232.138 16.478 231.132 16.478H226.667V19.2453H232.013C232.956 19.2453 233.774 20 233.774 21.0063C233.774 21.9497 233.019 22.7673 232.013 22.7673H223.019V25.5346H232.516C235.031 25.5346 237.044 23.5221 237.044 21.0063C237.044 19.4969 236.352 18.239 235.283 17.4214Z" fill="#3700FF"/>
<path d="M271.006 10.2515V16.4779H262.327V10.2515H259.057V25.4716H262.327V19.2452H271.006V25.4716H274.277V10.2515H271.006Z" fill="#3700FF"/>
<path d="M290 10.2515H284.843H281.572H276.415V13.0188H281.572V25.4716H284.843V13.0188H290V10.2515Z" fill="#3700FF"/>
<path d="M120.189 10.2515H116.918H113.648H110.377C107.296 10.2515 104.843 12.7672 104.843 15.7861C104.843 18.8049 107.359 21.3206 110.377 21.3206H113.648V25.4716H116.918V21.3206H120.189C123.271 21.3206 125.723 18.8049 125.723 15.7861C125.723 12.7672 123.271 10.2515 120.189 10.2515ZM113.648 18.5534H110.881C109.371 18.5534 108.113 17.2955 108.113 15.7861C108.113 14.2766 109.371 13.0188 110.881 13.0188H113.648V18.5534ZM119.686 18.5534H116.918V13.0188H119.686C121.195 13.0188 122.453 14.2766 122.453 15.7861C122.453 17.2955 121.258 18.5534 119.686 18.5534Z" fill="#3700FF"/>
<path d="M63.5849 10.2515H63.2075H57.044H56.6667L51.5723 25.4716H51.9497H54.8428L56.2893 21.1949H63.8994L65.3459 25.4716H68.239H68.6164L63.5849 10.2515ZM57.2956 18.4276L59.1195 13.0188H61.2579L63.0818 18.4276H57.2956Z" fill="#3700FF"/>
<path d="M138.742 10.2515H138.365H132.201H131.824L126.729 25.4716H127.107H130L131.446 21.1949H139.057L140.503 25.4716H143.396H143.774L138.742 10.2515ZM132.453 18.4276L134.277 13.0188H136.415L138.239 18.4276H132.453Z" fill="#3700FF"/>
<path d="M82.0756 10.2515H81.6982H75.5347H75.1574L70.1259 25.4716H70.4404H73.3964L77.5473 13.0188H79.6857L83.8366 25.4716H86.7926H87.107L82.0756 10.2515Z" fill="#3700FF"/>
<path d="M31.0063 7.98742L28.3648 0H11.6352L0 35.0315H10.3774L19.434 7.98742H31.0063Z" fill="#3700FF"/>
<path d="M35.4087 21.2577L34.1508 17.4841H24.0251L21.3835 25.4716H33.9622L30.8175 35.0313H39.9999L35.4087 21.2577Z" fill="#3700FF"/>
</svg>
