<svg width="147" height="121" viewBox="0 0 147 121" fill="none" xmlns="http://www.w3.org/2000/svg">
<path d="M28.8276 77.8348C35.6862 95.2648 53.2193 107.641 73.073 107.641C92.9782 107.641 109.996 95.2648 116.854 77.7317H130.623C123.249 102.536 100.301 120.688 73.073 120.688C45.8966 120.688 22.8457 102.639 15.4199 77.8348H28.8276Z" fill="#323232"/>
<path d="M28.7233 45.1912C35.1178 26.8845 52.5478 13.7347 73.0718 13.7347C93.5959 13.7347 111.026 26.8845 117.42 45.2428L131.034 45.1912C124.227 19.5619 100.867 0.687988 73.0718 0.687988C45.3282 0.687988 21.9679 19.5619 15.1094 45.1396L28.7233 45.1912Z" fill="#323232"/>
<path d="M146.198 46.3247H112.627V48.1812H146.198V46.3247Z" fill="#323232"/>
<path d="M146.196 49.2117H112.625V51.0681H146.196V49.2117Z" fill="#323232"/>
<path d="M146.196 52.0994H112.625V53.9558H146.196V52.0994Z" fill="#323232"/>
<path d="M146.196 54.9873H112.625V56.8438H146.196V54.9873Z" fill="#323232"/>
<path d="M146.196 57.9263H112.625V59.7827H146.196V57.9263Z" fill="#323232"/>
<path d="M146.196 60.814H112.625V62.6704H146.196V60.814Z" fill="#323232"/>
<path d="M146.196 63.7019H112.625V65.5584H146.196V63.7019Z" fill="#323232"/>
<path d="M146.196 66.5913H112.625V68.4478H146.196V66.5913Z" fill="#323232"/>
<path d="M146.196 69.4778H112.625V71.3342H146.196V69.4778Z" fill="#323232"/>
<path d="M146.196 72.4175H112.625V74.2739H146.196V72.4175Z" fill="#323232"/>
<path d="M146.196 75.3044H112.625V77.1609H146.196V75.3044Z" fill="#323232"/>
<path d="M33.5708 46.3269H0V48.1834H33.5708V46.3269Z" fill="#323232"/>
<path d="M33.5708 49.2134H0V51.0698H33.5708V49.2134Z" fill="#323232"/>
<path d="M33.5708 52.1006H0V53.957H33.5708V52.1006Z" fill="#323232"/>
<path d="M33.5708 54.9885H0V56.845H33.5708V54.9885Z" fill="#323232"/>
<path d="M33.5708 57.928H0V59.7844H33.5708V57.928Z" fill="#323232"/>
<path d="M33.5708 60.8159H0V62.6724H33.5708V60.8159Z" fill="#323232"/>
<path d="M33.5708 63.7031H0V65.5596H33.5708V63.7031Z" fill="#323232"/>
<path d="M33.5708 66.5928H0V68.4492H33.5708V66.5928Z" fill="#323232"/>
<path d="M33.5708 69.479H0V71.3355H33.5708V69.479Z" fill="#323232"/>
<path d="M33.5708 72.4185H0V74.2749H33.5708V72.4185Z" fill="#323232"/>
<path d="M33.5708 75.3064H0V77.1628H33.5708V75.3064Z" fill="#323232"/>
<path d="M94.8861 95.2115V93.2003L71.3711 76.5954V78.6066L94.8861 95.2115Z" fill="#323232"/>
<path d="M82.2512 87.3217L79.8275 85.6715H64.5633C61.263 85.6715 58.5299 82.9384 58.5299 79.5865V68.6025C58.5299 65.2506 61.2114 62.5175 64.5633 62.5175H81.3229C84.6233 62.5175 87.3048 65.2506 87.3048 68.6025V80.7726L88.955 81.9587V68.6025C88.955 64.3224 85.5515 60.8673 81.2714 60.8673H64.5118C60.2832 60.8673 56.8281 64.3224 56.8281 68.6025V79.5865C56.8281 83.8667 60.2316 87.3217 64.5118 87.3217H82.2512Z" fill="#323232"/>
<path d="M94.8861 92.1682V90.1571L71.3711 73.5006V75.5118L94.8861 92.1682Z" fill="#323232"/>
<path d="M84.623 70.5105V68.6541C84.623 66.7461 83.0759 65.2506 81.2195 65.2506H64.7177C62.8613 65.2506 61.3142 66.7976 61.3142 68.6541V79.4834C61.3142 81.3914 62.8097 82.8868 64.7177 82.8868H75.9596L78.3317 84.537H64.7177C61.9331 84.537 59.6641 82.268 59.6641 79.4834V68.6541C59.6641 65.8694 61.8815 63.6004 64.7177 63.6004H81.2195C84.0042 63.6004 86.2732 65.8694 86.2732 68.6541L86.2216 79.8959L84.5714 78.813V77.4206H81.1679L94.8335 87.0639V89.075L71.3184 72.4701V72.1607V70.5105H71.37H84.623ZM84.5714 74.8422H77.5066L78.8474 75.7705H84.5714V74.8422ZM84.623 72.1607H73.7421L75.186 73.1921H84.623V72.1607Z" fill="#323232"/>
<path d="M107.055 67.8281C107.055 70.4065 106.023 72.8302 104.218 74.6351C102.413 76.4399 100.041 77.4197 97.5145 77.4197H91.6873V83.7626L90.0371 82.6281V68.2406C90.0371 63.6511 86.3242 59.8866 81.7862 59.8866H64.1499C59.612 59.8866 55.8991 63.5995 55.8991 68.2406V79.9466C55.8991 84.5361 59.612 88.3006 64.1499 88.3006H83.4879L85.9117 89.9508H64.1499C58.6837 89.9508 54.2489 85.4643 54.2489 79.9466V77.4713H39.913H39.0879V76.6462V54.4204H40.7381V75.8211H54.2489V74.8413H42.5945H41.7694V74.0162V54.4204H43.4196V73.1912H54.2489V72.1082H45.3792H44.5541V71.2831V54.3688H46.2043V70.4581H54.2489V68.2406C54.2489 62.7229 58.6837 58.2364 64.1499 58.2364H65.7486V56.741C65.7486 55.8127 65.3876 54.9361 64.7172 54.3173C64.0984 53.6984 63.2217 53.3375 62.3451 53.3375H39.1395V51.6873H62.3966C63.7374 51.6873 64.975 52.203 65.9548 53.1828C66.9346 54.1626 67.4503 55.4518 67.4503 56.7925V58.288H68.5332V56.741C68.5332 55.0908 67.9144 53.5437 66.7283 52.4092C65.5938 51.2748 64.0984 50.6559 62.4998 50.6559H39.1395V49.0058H62.5513C64.5625 49.0058 66.4705 49.7793 67.9144 51.2232C69.3583 52.6671 70.1834 54.6267 70.1834 56.741V58.288H71.1632V56.3284C71.1632 54.0594 70.2865 51.9967 68.7395 50.3981C67.1925 48.8511 65.1297 47.9744 62.9639 47.9744H39.1395V46.3242H62.9639C65.5939 46.3242 68.0691 47.3556 69.9256 49.212C71.8336 51.12 72.8649 53.6469 72.8649 56.3284V58.288H73.9479C73.7932 57.566 73.69 56.7925 73.69 56.019C73.69 50.7075 77.9702 46.3242 83.2301 46.3242H107.003V47.9744H83.2301C81.1158 47.9744 79.1562 48.7995 77.6608 50.295C76.1653 51.7904 75.2886 53.8532 75.2886 56.019C75.2886 56.7925 75.3918 57.566 75.598 58.288H76.6294C76.4231 57.566 76.2684 56.8441 76.2684 56.0706C76.2684 52.203 79.4141 49.0058 83.2301 49.0058H106.9V50.6559H83.2301C81.8378 50.6559 80.497 51.2232 79.4657 52.203C78.4343 53.2343 77.867 54.5751 77.867 56.0706C77.867 56.8441 78.0217 57.566 78.3312 58.288H79.4657C79.0531 57.6176 78.8468 56.8441 78.8468 56.019C78.8468 53.6469 80.7548 51.7389 83.127 51.7389H106.9V53.389H83.127C82.4566 53.389 81.7862 53.6469 81.2705 54.1626C80.7549 54.6782 80.497 55.3486 80.497 56.0706C80.497 56.9988 80.9611 57.8755 81.7862 58.3396H97.4629C99.9897 58.3396 102.362 59.3194 104.167 61.1242C106.023 62.826 107.055 65.2497 107.055 67.8281ZM90.5528 63.5995H97.4629C98.5974 63.5995 99.6803 64.0636 100.454 64.8371C101.279 65.6622 101.691 66.7452 101.691 67.8797C101.691 69.0142 101.227 70.0971 100.454 70.9222C99.6287 71.6957 98.5974 72.1598 97.4629 72.1598H91.6357V73.2427H97.3598C100.299 73.2427 102.671 70.819 102.671 67.8797C102.671 66.4358 102.104 65.095 101.073 64.0636C100.041 63.0838 98.7521 62.5166 97.3082 62.5166H89.7793C90.1402 62.8776 90.3465 63.2385 90.5528 63.5995ZM91.6873 68.2406V70.4581H97.4629C98.9068 70.4581 100.093 69.272 100.093 67.8281C100.093 67.1061 99.835 66.4357 99.3193 65.9716C98.8037 65.5075 98.1848 65.1981 97.4629 65.1981H91.1716C91.5326 66.1779 91.6873 67.2093 91.6873 68.2406ZM105.404 67.8281C105.404 65.6622 104.579 63.6511 103.032 62.1556C101.537 60.6601 99.5772 59.835 97.4629 59.835H87.2009C87.665 60.1444 88.0775 60.4539 88.4385 60.8148H97.3598C99.2162 60.8148 100.97 61.5368 102.259 62.826C103.599 64.1668 104.321 65.9201 104.321 67.7765C104.321 69.6845 103.599 71.4378 102.259 72.727C100.97 74.0162 99.2162 74.7382 97.3598 74.7382H91.6357V75.6664H97.4629C101.846 75.8211 105.404 72.2114 105.404 67.8281Z" fill="#323232"/>
<path d="M35.6339 104.907C35.1183 104.494 35.1698 103.979 35.7371 103.257L39.45 98.7188C40.0172 97.9968 40.5329 97.8937 41.0486 98.3062C41.5643 98.7188 41.5127 99.2345 40.9455 99.9564L37.2326 104.494C36.6653 105.165 36.1496 105.319 35.6339 104.907Z" fill="white"/>
<path d="M39.9168 108.258C38.6276 107.382 38.0603 106.196 38.4213 105.629C38.6791 105.216 39.1948 105.113 39.6589 105.422C40.0715 105.68 40.3809 106.454 41.1028 106.918C41.5154 107.227 42.0826 107.124 42.3405 106.711C42.7015 106.144 42.392 105.68 41.7732 104.958C40.6903 103.669 40.4325 102.741 41.1544 101.658C41.9795 100.42 43.6297 100.111 45.1251 101.142C46.2596 101.916 46.6722 102.895 46.3112 103.463C46.0534 103.875 45.5893 103.978 45.1251 103.669C44.7642 103.411 44.4548 102.895 44.0422 102.586C43.5781 102.277 43.114 102.328 42.8562 102.638C42.4952 103.153 42.9593 103.514 43.5781 104.288C44.5579 105.577 44.7642 106.66 44.0422 107.691C43.2687 109.084 41.567 109.393 39.9168 108.258Z" fill="white"/>
<path d="M51.4681 104.804C53.6855 105.835 54.4075 108.156 53.273 110.579C52.1385 112.952 49.8695 113.828 47.6521 112.797C45.4346 111.714 44.7127 109.445 45.8472 107.021C47.0332 104.649 49.3022 103.772 51.4681 104.804ZM48.4771 111.147C49.5601 111.662 50.7461 111.147 51.4165 109.703C52.1385 108.207 51.8291 106.97 50.6946 106.454C49.6116 105.938 48.4256 106.454 47.7036 107.949C47.0332 109.393 47.3942 110.631 48.4771 111.147Z" fill="white"/>
<path d="M60.3337 113.828C58.9929 113.519 58.2194 112.178 58.5288 110.734C58.8898 109.084 60.4884 108.104 62.2417 108.517C63.8919 108.878 64.8201 110.373 64.4591 112.075C64.2013 113.209 63.2731 114.498 61.6229 115.788C60.5915 116.613 59.9212 117.025 59.4571 116.922C58.9929 116.819 58.632 116.303 58.7351 115.839C58.8898 115.272 59.818 114.911 60.9525 113.88C60.6431 113.88 60.4368 113.88 60.3337 113.828ZM61.726 110.218C61.1588 110.115 60.54 110.476 60.4368 111.095C60.2821 111.714 60.6431 112.333 61.2619 112.436C61.8292 112.539 62.448 112.178 62.5511 111.559C62.7058 110.94 62.3449 110.321 61.726 110.218Z" fill="white"/>
<path d="M68.9446 109.548C71.0073 109.703 72.2965 111.456 72.0387 114.241C71.7809 117.026 70.2854 118.521 68.1711 118.366C66.1084 118.212 64.8707 116.458 65.077 113.674C65.3349 110.889 66.8303 109.342 68.9446 109.548ZM67.0882 113.777C66.9335 115.479 67.4492 116.458 68.3774 116.562C69.3056 116.665 69.976 115.736 70.0791 114.035C70.2338 112.333 69.7181 111.353 68.7899 111.25C67.9133 111.199 67.1913 112.075 67.0882 113.777Z" fill="white"/>
<path d="M76.4265 109.6C78.4893 109.445 79.9847 111.044 80.191 113.777C80.3457 116.561 79.0565 118.263 76.9938 118.418C74.9311 118.572 73.4356 116.974 73.2293 114.241C73.0746 111.456 74.3638 109.754 76.4265 109.6ZM75.1889 114.086C75.2921 115.788 75.9624 116.716 76.8391 116.664C77.7158 116.613 78.283 115.633 78.1799 113.931C78.0767 112.23 77.4063 111.301 76.5297 111.353C75.653 111.405 75.0858 112.384 75.1889 114.086Z" fill="white"/>
<path d="M83.6964 117.49C83.026 117.593 82.665 117.232 82.5103 116.304L81.5821 111.044L81.4274 111.096C80.6023 111.25 80.1382 110.993 80.0351 110.425C79.9319 109.858 80.3445 109.497 81.2211 109.342L82.1493 109.188C82.9229 109.033 83.2838 109.394 83.4385 110.322L84.4183 115.943C84.573 116.871 84.3152 117.335 83.6964 117.49Z" fill="white"/>
<path d="M86.0161 111.198C86.5833 111.043 87.1506 111.404 87.3053 111.971C87.46 112.539 87.099 113.106 86.5317 113.261C85.9645 113.415 85.3973 113.054 85.2425 112.487C85.0878 111.868 85.3973 111.301 86.0161 111.198ZM86.8412 114.601C87.4084 114.447 87.9756 114.808 88.1304 115.375C88.2851 115.942 87.9241 116.509 87.3568 116.664C86.7896 116.819 86.2223 116.458 86.0676 115.89C85.9129 115.323 86.2739 114.756 86.8412 114.601Z" fill="white"/>
<path d="M94.6813 113.416C94.8876 113.983 94.5266 114.396 93.7015 114.705L90.5043 115.788C89.7824 116.046 89.3183 115.891 89.1636 115.324C89.0088 114.86 89.3698 114.189 89.9371 112.9C90.7106 111.044 91.1747 109.909 90.9684 109.291C90.8137 108.826 90.4012 108.62 90.0402 108.775C89.6792 108.878 89.473 109.239 89.473 109.858C89.473 110.528 89.3698 110.889 88.9057 111.044C88.39 111.199 87.8744 110.992 87.7197 110.425C87.5649 110.012 87.5649 109.342 87.7712 108.775C88.0806 107.95 88.6994 107.331 89.5245 107.022C91.0716 106.506 92.4123 107.176 92.8765 108.517C93.289 109.806 92.6702 111.25 91.5357 113.571L93.1859 113.003C93.9594 112.746 94.4751 112.849 94.6813 113.416Z" fill="white"/>
<path d="M95.6596 104.495C97.5161 103.567 99.5272 104.392 100.765 106.919C102.002 109.394 101.487 111.509 99.6303 112.437C97.7739 113.365 95.7627 112.489 94.5767 110.013C93.2875 107.486 93.8032 105.424 95.6596 104.495ZM96.2784 109.085C97.0519 110.632 97.9802 111.199 98.8053 110.787C99.6303 110.374 99.7335 109.291 98.96 107.744C98.1864 106.197 97.2582 105.63 96.4331 106.043C95.6596 106.455 95.5049 107.538 96.2784 109.085Z" fill="white"/>
<path d="M105.405 108.878C104.838 109.239 104.374 109.033 103.858 108.259L100.97 103.773L100.816 103.876C100.094 104.34 99.5781 104.34 99.2687 103.824C98.9593 103.309 99.1656 102.845 99.9391 102.329L100.713 101.813C101.383 101.401 101.847 101.555 102.363 102.381L105.457 107.176C105.973 107.95 105.973 108.517 105.405 108.878Z" fill="white"/>
<path d="M106.542 100.937C107.677 100.06 109.224 100.266 110.255 101.556C111.39 102.948 111.235 104.856 109.739 105.99C108.553 106.919 107.161 107.022 106.594 106.351C106.284 105.99 106.336 105.475 106.697 105.217C107.161 104.856 107.935 105.114 108.605 104.598C109.121 104.186 109.172 103.412 108.76 102.845C108.296 102.278 107.677 102.174 107.213 102.587C106.852 102.896 106.645 103.412 106.284 103.67C105.923 103.979 105.511 103.928 105.202 103.464C105.15 103.36 104.995 103.206 104.841 102.948L103.706 101.091C103.242 100.318 103.448 100.009 104.067 99.5444L105.872 98.1005C106.491 97.5848 107.006 97.5848 107.367 98.0489C107.728 98.4615 107.625 98.9771 107.006 99.4413L105.459 100.679L105.975 101.556C106.181 101.298 106.336 101.091 106.542 100.937Z" fill="white"/>
<path d="M36.1509 26.0622C34.7586 27.5061 32.7474 27.4545 31.1488 25.9075C29.5502 24.3605 29.4471 22.3493 30.8394 20.957C32.2318 19.5131 34.2429 19.5646 35.8415 21.1117C36.4603 21.6789 36.8213 22.4009 37.0276 23.1228L37.698 23.0713C38.0074 23.0713 38.2652 23.1744 38.4199 23.3291C38.6778 23.5869 38.6778 24.051 38.4715 24.2573C38.3168 24.412 38.0589 24.5152 37.7495 24.5152L37.0276 24.5667C36.8729 25.134 36.615 25.5981 36.1509 26.0622ZM34.5008 24.412C34.2429 24.1542 34.1913 23.7932 34.4492 23.5354C34.6555 23.3291 34.9133 23.3291 35.3258 23.2775C35.1711 22.9165 34.9133 22.6071 34.6555 22.3493C33.6757 21.3695 32.5927 21.3179 31.9224 22.0399C31.252 22.7618 31.3551 23.7932 32.3349 24.773C33.2631 25.7012 34.346 25.8044 35.068 25.0824C35.1711 24.9793 35.2743 24.8246 35.3258 24.6699C34.9649 24.6183 34.707 24.5667 34.5008 24.412Z" fill="white"/>
<path d="M36.1524 19.9766C35.6883 19.4093 35.6367 18.9452 36.0493 18.6358C36.4618 18.3264 36.8744 18.4295 37.3385 19.0484L38.4214 20.3891C38.8855 20.9564 39.2465 21.1626 39.7106 20.7501C40.1747 20.3376 40.0716 19.925 39.6075 19.4093L38.5245 18.0686C38.0604 17.5013 38.0088 17.0372 38.4214 16.7278C38.8339 16.4184 39.2465 16.5215 39.7106 17.1403L40.9998 18.7389C41.928 19.8734 41.7733 21.0079 40.6388 21.9362C39.5043 22.8644 38.3698 22.7612 37.4416 21.6268L36.1524 19.9766Z" fill="white"/>
<path d="M44.6595 18.8425C43.6281 19.5129 42.1327 19.152 41.256 17.8112C40.3793 16.522 40.6372 14.9234 41.7201 14.253C42.1327 13.9951 42.5968 13.892 43.0093 14.0467C42.9577 13.6857 43.1125 13.4279 43.3703 13.2216C43.7828 12.9638 44.1954 13.1185 44.6079 13.7373L46.3097 16.3157C46.7222 16.9345 46.7222 17.3986 46.3097 17.6565C46.0518 17.8628 45.7424 17.8112 45.433 17.6049C45.3814 18.1722 45.1236 18.5847 44.6595 18.8425ZM44.0922 17.5018C44.5564 17.1924 44.6079 16.5735 44.1954 15.9032C43.7828 15.2843 43.164 15.0781 42.6999 15.3875C42.2358 15.6969 42.1327 16.3157 42.5452 16.9345C43.0093 17.6049 43.6281 17.8112 44.0922 17.5018Z" fill="white"/>
<path d="M44.7637 9.97316C45.2278 9.71532 45.5888 9.92159 45.9498 10.592L48.4766 15.2331C48.8376 15.9035 48.8376 16.316 48.3735 16.5739C47.9094 16.8317 47.5484 16.6254 47.1874 15.955L44.6606 11.3139C44.248 10.6435 44.2996 10.231 44.7637 9.97316Z" fill="white"/>
<path d="M47.1863 8.68419C47.5989 8.47792 48.1145 8.68419 48.3724 9.09674C48.5787 9.56085 48.424 10.0765 48.0114 10.2828C47.5473 10.4891 47.0316 10.3344 46.8253 9.87026C46.6191 9.45771 46.7738 8.89047 47.1863 8.68419ZM50.5382 15.4912C50.0741 15.6974 49.7132 15.4912 49.3522 14.8208L47.9598 11.9845C47.6504 11.3142 47.702 10.85 48.1661 10.6438C48.6302 10.4375 48.9912 10.6438 49.3522 11.3142L50.6929 14.0988C51.0539 14.8208 51.0024 15.2333 50.5382 15.4912Z" fill="white"/>
<path d="M50.7441 11.1064C50.2284 11.3127 49.8674 11.2095 49.7127 10.8486C49.558 10.436 49.7127 10.1266 50.28 9.86876L50.0222 9.24995C49.7127 8.57956 49.8159 8.11545 50.28 7.90918C50.7441 7.70291 51.1051 7.96075 51.4145 8.63113L51.6723 9.24995L51.7755 9.19838C52.3427 8.94054 52.7553 9.09524 52.91 9.45622C53.0647 9.86876 52.8584 10.1782 52.2911 10.436L52.188 10.4876L53.2709 13.0144C53.5803 13.6848 53.4772 14.1489 53.0131 14.3552C52.549 14.5615 52.188 14.3036 51.8786 13.6332L50.7957 11.1064H50.7441Z" fill="white"/>
<path d="M56.6228 7.29209C57.0354 7.13738 57.4479 7.34365 57.551 7.7562C57.6026 7.9109 57.6026 8.11718 57.6026 8.32345L57.2416 14.3569C57.1901 14.7695 57.1385 15.0789 56.8291 15.182C56.365 15.3367 56.004 15.1304 55.9009 14.7179C55.8493 14.5632 55.8493 14.3569 55.8493 14.1506L56.004 12.6552L53.4256 9.71578C53.3225 9.61265 53.2709 9.45794 53.2193 9.35481C53.0646 8.94226 53.2709 8.52972 53.6834 8.37502C54.096 8.22031 54.3538 8.42658 54.6632 8.83913L56.2103 10.7987L56.3134 8.16874C56.2103 7.65306 56.365 7.39522 56.6228 7.29209Z" fill="white"/>
<path d="M61.727 5.2795C61.727 4.55754 61.9848 4.145 62.6036 4.04186C63.1709 3.93873 63.5834 4.19657 63.7897 4.81538L65.4399 8.78612L65.8008 4.50598C65.8524 3.88716 66.1618 3.52618 66.7291 3.42305C67.3994 3.31991 67.7604 3.62932 67.9667 4.40284L69.4106 9.04396C69.4622 9.19867 69.5137 9.35337 69.5137 9.40494C69.5653 9.92062 69.3075 10.2816 68.8434 10.3332C68.4308 10.3847 68.1214 10.1269 67.9667 9.50807L66.8838 5.4342C66.6775 8.32201 66.4712 9.97219 66.3165 10.3847C66.2134 10.6426 66.0071 10.6941 65.6977 10.7457C65.182 10.7973 64.9242 10.6426 64.6663 10.0753L63.0677 5.94988L63.1193 10.0753C63.1193 10.7973 62.913 11.1067 62.4489 11.2098C62.0364 11.2614 61.6754 11.0035 61.5723 10.4879C61.5723 10.3847 61.5723 10.1785 61.5723 10.0238L61.727 5.2795Z" fill="white"/>
<path d="M72.1467 10.2819C70.9091 10.2819 69.8262 9.19896 69.8262 7.60035C69.8262 6.05331 70.8575 4.86724 72.1467 4.81567C72.6624 4.81567 73.075 4.97038 73.3844 5.33135C73.5391 5.02195 73.7969 4.81567 74.1063 4.81567C74.622 4.81567 74.8798 5.17665 74.8798 5.8986L74.9314 8.99268C74.9314 9.7662 74.7251 10.1272 74.2095 10.1272C73.8485 10.1272 73.6422 9.97248 73.4875 9.6115C73.075 10.0756 72.6624 10.2819 72.1467 10.2819ZM72.353 8.83798C72.9203 8.83798 73.3328 8.3223 73.2812 7.54878C73.2812 6.77526 72.8171 6.31115 72.3014 6.31115C71.7342 6.31115 71.3216 6.77526 71.3216 7.54878C71.3732 8.37387 71.7858 8.83798 72.353 8.83798Z" fill="white"/>
<path d="M76.0112 6.05394C76.0628 5.28042 76.3722 4.97101 76.8879 5.02258C77.1973 5.07415 77.4036 5.22885 77.5583 5.58983C77.9193 5.22885 78.3318 5.12571 78.9506 5.17728C80.1367 5.28042 80.7039 6.05394 80.6008 7.39471L80.3945 9.61213C80.343 10.3857 80.0335 10.6951 79.5179 10.6435C79.0022 10.5919 78.7959 10.1794 78.8475 9.45743L79.0022 7.70412C79.0538 6.87903 78.8991 6.51805 78.2802 6.41492C77.713 6.36335 77.4551 6.72432 77.352 7.49784L77.1973 9.25116C77.1457 10.0247 76.8363 10.3341 76.3206 10.2825C75.805 10.2309 75.5987 9.8184 75.6503 9.09645L76.0112 6.05394Z" fill="white"/>
<path d="M82.9731 11.2098C81.7355 10.9519 80.9619 9.66273 81.2714 8.11569C81.5808 6.56865 82.87 5.64043 84.1076 5.89827C84.6233 6.0014 84.9327 6.25924 85.1905 6.67179C85.3968 6.41395 85.7062 6.25924 86.0156 6.31081C86.5313 6.41395 86.686 6.82649 86.5313 7.54844L85.9125 10.591C85.7578 11.3129 85.4484 11.6739 84.9327 11.5707C84.6233 11.5192 84.417 11.3129 84.3139 10.9004C83.9529 11.2098 83.4888 11.3129 82.9731 11.2098ZM83.4888 9.81744C84.056 9.92057 84.5201 9.50803 84.6748 8.78608C84.8295 8.06412 84.5201 7.49687 83.9529 7.39374C83.4372 7.2906 82.9215 7.65158 82.7668 8.4251C82.6121 9.14705 82.9215 9.7143 83.4888 9.81744Z" fill="white"/>
<path d="M88.2325 12.4475C87.098 12.0865 86.4792 10.7458 86.9433 9.25029C87.4074 7.75482 88.7997 6.9813 89.9858 7.34227C90.5015 7.49698 90.8109 7.75482 90.9656 8.21893C91.2234 7.96109 91.5328 7.85795 91.7391 7.96109C92.2548 8.11579 92.3579 8.52834 92.1517 9.25029L91.2234 12.1897C90.9656 13.0663 90.6562 13.7367 90.2436 14.0977C89.5733 14.6649 88.7482 14.8196 87.7168 14.5102C86.376 14.0977 85.7572 13.3757 85.9119 12.7569C86.0151 12.3959 86.376 12.1897 86.737 12.2928C87.098 12.3959 87.4074 12.9116 88.1809 13.1695C88.9029 13.3757 89.4701 13.0663 89.6764 12.2928C89.6764 12.2412 89.728 12.1897 89.728 12.0865C89.3154 12.5506 88.7997 12.6538 88.2325 12.4475ZM89.006 11.2614C89.5217 11.4161 90.0889 11.0552 90.3468 10.3332C90.553 9.61127 90.2952 8.99245 89.7795 8.83775C89.2639 8.68304 88.6966 8.99245 88.4388 9.76597C88.1809 10.4879 88.4388 11.1067 89.006 11.2614Z" fill="white"/>
<path d="M94.3707 13.323C95.0926 13.6324 95.7114 13.3745 96.0208 13.4777C96.3818 13.6324 96.485 13.9418 96.3303 14.2512C96.0724 14.8184 94.9379 15.0763 93.7518 14.5606C92.3595 13.9934 91.7923 12.4463 92.4111 11.0024C93.0299 9.5585 94.5254 8.88812 95.8661 9.45537C97.2069 10.0226 97.671 11.5181 97.1038 12.8073C96.8975 13.2714 96.6397 13.2714 96.1755 13.0651L93.7003 11.9822C93.494 12.601 93.7518 13.0651 94.3707 13.323ZM95.9177 11.8791C96.0724 11.3634 95.8661 10.8477 95.402 10.6414C94.9379 10.4352 94.4222 10.5899 94.1128 11.1055L95.9177 11.8791Z" fill="white"/>
<path d="M98.5495 11.9317C98.9105 11.2613 99.323 11.1066 99.7871 11.3645C100.045 11.5192 100.148 11.777 100.148 12.138C100.612 11.9833 101.025 12.0349 101.437 12.2927C102.005 12.6021 102.314 13.0662 102.366 13.685C103.036 13.4788 103.5 13.5303 104.067 13.8397C104.944 14.3554 105.202 15.3352 104.48 16.4697L103.345 18.3777C102.984 19.0481 102.572 19.2028 102.108 18.945C101.644 18.6871 101.644 18.223 102.056 17.6042L102.933 16.1087C103.345 15.4383 103.345 14.9742 102.933 14.768C102.469 14.5101 102.056 14.7164 101.695 15.3868L100.818 16.8822C100.458 17.5526 100.045 17.7073 99.5809 17.4495C99.1168 17.1917 99.1168 16.7275 99.5293 16.1087L100.406 14.6133C100.818 13.9429 100.818 13.5303 100.406 13.2725C99.9418 13.0146 99.5293 13.2209 99.1683 13.8913L98.2917 15.3868C97.9307 16.0572 97.5181 16.2119 97.054 15.954C96.5899 15.6962 96.5899 15.2321 97.0025 14.6133L98.5495 11.9317Z" fill="white"/>
<path d="M106.022 20.2851C106.641 20.7492 107.311 20.646 107.569 20.8523C107.879 21.0586 107.879 21.4195 107.672 21.6774C107.311 22.1415 106.125 22.0899 105.094 21.3164C103.908 20.3882 103.753 18.7896 104.733 17.5519C105.713 16.3143 107.311 16.0565 108.446 16.9331C109.58 17.8098 109.684 19.3568 108.807 20.4913C108.498 20.9039 108.24 20.8523 107.827 20.5429L105.713 18.8927C105.352 19.3568 105.507 19.8725 106.022 20.2851ZM107.879 19.3053C108.188 18.8411 108.085 18.2739 107.672 17.9645C107.26 17.6551 106.744 17.6551 106.28 18.0676L107.879 19.3053Z" fill="white"/>
<path d="M110.309 20.0287C110.825 19.4615 111.237 19.4099 111.65 19.7709C111.856 19.9772 111.907 20.235 111.804 20.6475C112.32 20.596 112.681 20.8022 113.145 21.2148C114.022 22.0399 113.97 23.0197 113.042 23.9479L111.495 25.5465C110.979 26.1138 110.567 26.2169 110.154 25.8559C109.793 25.4949 109.845 25.0824 110.412 24.5151L111.598 23.2775C112.165 22.7103 112.268 22.2977 111.856 21.8336C111.443 21.4211 110.979 21.5758 110.464 22.143L109.226 23.4322C108.71 23.9995 108.298 24.1026 107.885 23.7416C107.524 23.3806 107.576 22.9681 108.143 22.4009L110.309 20.0287Z" fill="white"/>
<path d="M114.275 24.5142C113.914 24.1016 113.914 23.6891 114.224 23.4312C114.533 23.1734 114.894 23.225 115.358 23.6375L115.874 23.1734C116.441 22.6577 116.854 22.6061 117.215 23.0187C117.576 23.3797 117.421 23.8438 116.854 24.3079L116.338 24.772L116.441 24.8751C116.854 25.3392 116.854 25.7518 116.544 26.0612C116.235 26.3706 115.822 26.2675 115.41 25.8034L115.307 25.7002L113.244 27.5051C112.677 28.0208 112.264 28.0723 111.903 27.7114C111.542 27.2988 111.697 26.8863 112.264 26.4222L114.275 24.5142Z" fill="white"/>
</svg>
