<svg width="147" height="120" viewBox="0 0 147 120" fill="none" xmlns="http://www.w3.org/2000/svg">
<path d="M28.8257 77.1468C35.6843 94.5769 53.2174 106.953 73.0712 106.953C92.9765 106.953 109.994 94.5769 116.853 77.0437H130.621C123.247 101.848 100.299 120 73.0712 120C45.8948 120 22.8438 101.951 15.418 77.1468H28.8257Z" fill="#323232"/>
<path d="M28.7273 44.5034C35.1217 26.1966 52.5518 13.0468 73.0759 13.0468C93.6001 13.0468 111.03 26.1966 117.425 44.5549L131.039 44.5034C124.232 18.874 100.871 0 73.0759 0C45.3322 0 21.9718 18.874 15.1133 44.4518L28.7273 44.5034Z" fill="#323232"/>
<path d="M146.198 45.6379H112.627V47.4944H146.198V45.6379Z" fill="#323232"/>
<path d="M146.196 48.5259H112.625V50.3823H146.196V48.5259Z" fill="#323232"/>
<path d="M146.196 51.4141H112.625V53.2705H146.196V51.4141Z" fill="#323232"/>
<path d="M146.196 54.3018H112.625V56.1582H146.196V54.3018Z" fill="#323232"/>
<path d="M146.196 57.241H112.625V59.0974H146.196V57.241Z" fill="#323232"/>
<path d="M146.196 60.1292H112.625V61.9856H146.196V60.1292Z" fill="#323232"/>
<path d="M146.196 63.0161H112.625V64.8726H146.196V63.0161Z" fill="#323232"/>
<path d="M146.196 65.9043H112.625V67.7607H146.196V65.9043Z" fill="#323232"/>
<path d="M146.196 68.7913H112.625V70.6477H146.196V68.7913Z" fill="#323232"/>
<path d="M146.196 71.7314H112.625V73.5879H146.196V71.7314Z" fill="#323232"/>
<path d="M146.196 74.6204H112.625V76.4768H146.196V74.6204Z" fill="#323232"/>
<path d="M33.5748 45.6392H0.00390625V47.4956H33.5748V45.6392Z" fill="#323232"/>
<path d="M33.5709 48.5254H0V50.3818H33.5709V48.5254Z" fill="#323232"/>
<path d="M33.5709 51.4148H0V53.2713H33.5709V51.4148Z" fill="#323232"/>
<path d="M33.5709 54.3013H0V56.1577H33.5709V54.3013Z" fill="#323232"/>
<path d="M33.5709 57.2405H0V59.0969H33.5709V57.2405Z" fill="#323232"/>
<path d="M33.5709 60.1287H0V61.9851H33.5709V60.1287Z" fill="#323232"/>
<path d="M33.5709 63.0166H0V64.8731H33.5709V63.0166Z" fill="#323232"/>
<path d="M33.5709 65.9038H0V67.7603H33.5709V65.9038Z" fill="#323232"/>
<path d="M33.5709 68.7927H0V70.6492H33.5709V68.7927Z" fill="#323232"/>
<path d="M33.5709 71.7307H0V73.5872H33.5709V71.7307Z" fill="#323232"/>
<path d="M33.5709 74.6199H0V76.4763H33.5709V74.6199Z" fill="#323232"/>
<path d="M94.8862 94.5252V92.514L71.3711 75.9091V77.9202L94.8862 94.5252Z" fill="#323232"/>
<path d="M82.2512 86.6345L79.8275 84.9843H64.5634C61.263 84.9843 58.5299 82.2512 58.5299 78.8993V67.9153C58.5299 64.5633 61.2114 61.8302 64.5634 61.8302H81.323C84.6234 61.8302 87.3049 64.5633 87.3049 67.9153V80.0853L88.9551 81.2714V67.9153C88.9551 63.6351 85.5516 60.18 81.2715 60.18H64.5118C60.2832 60.18 56.8281 63.6351 56.8281 67.9153V78.8993C56.8281 83.1794 60.2316 86.6345 64.5118 86.6345H82.2512Z" fill="#323232"/>
<path d="M94.8862 91.4818V89.4707L71.3711 72.8141V74.8253L94.8862 91.4818Z" fill="#323232"/>
<path d="M84.625 69.8231V67.9667C84.625 66.0587 83.078 64.5632 81.2215 64.5632H64.7197C62.8632 64.5632 61.3162 66.1102 61.3162 67.9667V78.796C61.3162 80.704 62.8117 82.1995 64.7197 82.1995H75.9616L78.3337 83.8497H64.7197C61.935 83.8497 59.666 81.5807 59.666 78.796V67.9667C59.666 65.182 61.8834 62.913 64.7197 62.913H81.2215C84.0062 62.913 86.2752 65.182 86.2752 67.9667L86.2236 79.2086L84.5734 78.1256V76.7333H81.1699L94.8355 86.3765V88.3877L71.3204 71.7827V71.4733V69.8231H71.372H84.625ZM84.5734 74.1549H77.5086L78.8494 75.0831H84.5734V74.1549ZM84.625 71.4733H73.7441L75.188 72.5047H84.625V71.4733Z" fill="#323232"/>
<path d="M107.057 67.1418C107.057 69.7202 106.025 72.1439 104.22 73.9488C102.416 75.7537 100.043 76.7335 97.5166 76.7335H91.6894V83.0764L90.0392 81.9418V67.5543C90.0392 62.9648 86.3263 59.2003 81.7883 59.2003H64.152C59.614 59.2003 55.9011 62.9132 55.9011 67.5543V79.2603C55.9011 83.8499 59.614 87.6143 64.152 87.6143H83.49L85.9138 89.2645H64.152C58.6858 89.2645 54.2509 84.7781 54.2509 79.2603V76.785H39.9149H39.0898V75.9599V53.7341H40.74V75.1348H54.2509V74.1551H42.5965H41.7714V73.33V53.7341H43.4216V72.5049H54.2509V71.4219H45.3812H44.5561V70.5968V53.6825H46.2063V69.7718H54.2509V67.5543C54.2509 62.0365 58.6858 57.5501 64.152 57.5501H65.7506V56.0546C65.7506 55.1264 65.3896 54.2497 64.7192 53.6309C64.1004 53.0121 63.2238 52.6511 62.3471 52.6511H39.1414V51.0009H62.3987C63.7394 51.0009 64.9771 51.5166 65.9569 52.4964C66.9367 53.4762 67.4523 54.7654 67.4523 56.1062V57.6017H68.5353V56.0546C68.5353 54.4044 67.9165 52.8574 66.7304 51.7229C65.5959 50.5884 64.1004 49.9696 62.5018 49.9696H39.1414V48.3194H62.5534C64.5645 48.3194 66.4725 49.0929 67.9165 50.5368C69.3604 51.9807 70.1855 53.9403 70.1855 56.0546V57.6017H71.1652V55.6421C71.1652 53.3731 70.2886 51.3103 68.7415 49.7117C67.1945 48.1647 65.1318 47.288 62.9659 47.288H39.1414V45.6378H62.9659C65.5959 45.6378 68.0712 46.6692 69.9276 48.5257C71.8356 50.4337 72.867 52.9605 72.867 55.6421V57.6017H73.9499C73.7952 56.8797 73.6921 56.1062 73.6921 55.3327C73.6921 50.0211 77.9722 45.6378 83.2322 45.6378H107.005V47.288H83.2322C81.1179 47.288 79.1583 48.1131 77.6628 49.6086C76.1674 51.1041 75.2907 53.1668 75.2907 55.3327C75.2907 56.1062 75.3938 56.8797 75.6001 57.6017H76.6315C76.4252 56.8797 76.2705 56.1578 76.2705 55.3842C76.2705 51.5166 79.4162 48.3194 83.2322 48.3194H106.902V49.9696H83.2322C81.8399 49.9696 80.4991 50.5368 79.4677 51.5166C78.4364 52.548 77.8691 53.8888 77.8691 55.3842C77.8691 56.1578 78.0238 56.8797 78.3332 57.6017H79.4677C79.0552 56.9313 78.8489 56.1578 78.8489 55.3327C78.8489 52.9605 80.7569 51.0525 83.1291 51.0525H106.902V52.7027H83.1291C82.4587 52.7027 81.7883 52.9605 81.2726 53.4762C80.7569 53.9919 80.4991 54.6623 80.4991 55.3842C80.4991 56.3125 80.9632 57.1891 81.7883 57.6532H97.465C99.9919 57.6532 102.364 58.633 104.169 60.4379C106.025 62.1397 107.057 64.5634 107.057 67.1418ZM90.5549 62.9132H97.465C98.5995 62.9132 99.6825 63.3773 100.456 64.1508C101.281 64.9759 101.694 66.0589 101.694 67.1934C101.694 68.3279 101.229 69.4108 100.456 70.2359C99.6309 71.0094 98.5995 71.4735 97.465 71.4735H91.6378V72.5564H97.3619C100.301 72.5564 102.673 70.1327 102.673 67.1934C102.673 65.7494 102.106 64.4087 101.075 63.3773C100.043 62.3975 98.7542 61.8303 97.3103 61.8303H89.7814C90.1423 62.1912 90.3486 62.5522 90.5549 62.9132ZM91.6894 67.5543V69.7718H97.465C98.9089 69.7718 100.095 68.5857 100.095 67.1418C100.095 66.4198 99.8372 65.7494 99.3215 65.2853C98.8058 64.8212 98.187 64.5118 97.465 64.5118H91.1737C91.5347 65.4916 91.6894 66.523 91.6894 67.5543ZM105.407 67.1418C105.407 64.9759 104.581 62.9648 103.034 61.4693C101.539 59.9738 99.5793 59.1487 97.465 59.1487H87.203C87.6671 59.4581 88.0796 59.7675 88.4406 60.1285H97.3619C99.2183 60.1285 100.972 60.8505 102.261 62.1397C103.602 63.4804 104.324 65.2338 104.324 67.0902C104.324 68.9982 103.602 70.7516 102.261 72.0408C100.972 73.33 99.2183 74.0519 97.3619 74.0519H91.6378V74.9801H97.465C101.848 75.1348 105.407 71.5251 105.407 67.1418Z" fill="#323232"/>
<path d="M45.9984 110.923C45.4312 110.614 45.3796 110.098 45.7921 109.325L48.4221 104.323C48.8347 103.549 49.2988 103.291 49.8145 103.601C50.3817 103.91 50.4333 104.426 50.0207 105.199L47.3908 110.201C47.0298 110.975 46.5657 111.233 45.9984 110.923Z" fill="white"/>
<path d="M50.6369 113.193C49.2446 112.625 48.471 111.594 48.7289 111.027C48.9351 110.563 49.3477 110.408 49.8634 110.614C50.3275 110.82 50.7916 111.439 51.5136 111.749C51.9777 111.955 52.4933 111.749 52.6481 111.336C52.9059 110.717 52.4933 110.356 51.7714 109.789C50.5338 108.758 50.0696 107.984 50.5338 106.798C51.101 105.457 52.5449 104.89 54.1951 105.56C55.4327 106.076 56.0516 106.901 55.7937 107.52C55.639 107.984 55.2265 108.139 54.7108 107.933C54.2982 107.778 53.9373 107.314 53.4731 107.107C52.9575 106.901 52.5449 107.056 52.3902 107.417C52.1839 107.933 52.6481 108.242 53.37 108.861C54.5561 109.892 54.9686 110.872 54.5045 111.955C53.9888 113.347 52.4418 113.966 50.6369 113.193Z" fill="white"/>
<path d="M60.8999 107.675C63.1689 108.242 64.355 110.305 63.7362 112.78C63.1174 115.255 61.1578 116.544 58.8372 115.977C56.5166 115.41 55.4337 113.347 56.0525 110.872C56.6713 108.345 58.6309 107.107 60.8999 107.675ZM59.2498 114.224C60.3843 114.482 61.3641 113.76 61.7766 112.264C62.1891 110.717 61.6219 109.583 60.4874 109.325C59.3529 109.067 58.3731 109.789 57.9606 111.336C57.5996 112.831 58.1153 113.966 59.2498 114.224Z" fill="white"/>
<path d="M73.9491 116.594C73.9491 117.213 73.5881 117.574 73.0208 117.574C72.5052 117.574 72.2473 117.213 72.2473 116.491V115.718L69.4111 115.666C68.6891 115.666 68.3281 115.408 68.3281 114.944C68.3281 114.532 68.586 114.222 68.7922 113.913L71.2675 110.148C71.6801 109.53 72.041 109.272 72.6599 109.323C73.4849 109.323 74.1038 109.994 74.0522 111.231L74.0006 114.171C74.1038 114.171 74.2069 114.171 74.2585 114.171C74.8773 114.171 75.2383 114.532 75.2383 114.996C75.2383 115.563 74.8773 115.821 74.1038 115.821H73.9491V116.594ZM72.3504 114.119L72.402 111.025L70.4424 114.068L72.3504 114.119Z" fill="white"/>
<path d="M78.8977 111.645C80.2385 111.49 81.4246 112.522 81.5793 114.069C81.734 115.77 80.651 117.266 78.8462 117.421C77.4022 117.575 76.2162 116.905 76.113 116.08C76.0615 115.616 76.3709 115.255 76.7834 115.203C77.3507 115.152 77.8148 115.77 78.6399 115.719C79.2587 115.667 79.7228 115.048 79.6712 114.378C79.6197 113.656 79.1556 113.295 78.5367 113.347C78.0726 113.398 77.6601 113.708 77.2475 113.759C76.7834 113.811 76.5256 113.553 76.474 113.037C76.474 112.934 76.474 112.728 76.474 112.418L76.5256 110.304C76.5256 109.427 76.8866 109.273 77.6085 109.221L79.826 109.015C80.5995 108.912 81.012 109.17 81.0636 109.737C81.1152 110.253 80.7542 110.614 80.0322 110.665L78.1242 110.871V111.851C78.382 111.748 78.6399 111.696 78.8977 111.645Z" fill="white"/>
<path d="M84.7784 107.88C86.738 107.416 88.4398 108.653 89.007 111.283C89.6258 113.913 88.646 115.77 86.6865 116.182C84.7269 116.647 83.0767 115.409 82.4579 112.779C81.839 110.149 82.8188 108.292 84.7784 107.88ZM84.3143 112.315C84.6753 113.913 85.4488 114.687 86.3255 114.481C87.1506 114.274 87.5115 113.243 87.1506 111.644C86.7896 110.046 86.0161 109.272 85.1394 109.479C84.2627 109.685 83.9533 110.716 84.3143 112.315Z" fill="white"/>
<path d="M91.687 105.714C93.5435 104.992 95.3999 105.972 96.3797 108.447C97.3595 110.923 96.6891 112.934 94.7811 113.656C92.8731 114.378 91.0682 113.398 90.0884 110.923C89.1086 108.396 89.779 106.436 91.687 105.714ZM91.8933 110.201C92.5121 111.748 93.3888 112.366 94.1623 112.057C94.9358 111.748 95.1936 110.665 94.5748 109.118C93.956 107.571 93.0793 106.952 92.3058 107.261C91.5323 107.571 91.2745 108.654 91.8933 110.201Z" fill="white"/>
<path d="M100.659 110.82C100.091 111.129 99.6273 110.872 99.2147 110.098L96.8426 105.56L96.6879 105.663C95.9659 106.024 95.4502 105.973 95.1924 105.457C94.9346 104.941 95.1924 104.529 95.9659 104.116L96.791 103.704C97.4614 103.343 97.9255 103.549 98.338 104.374L100.916 109.273C101.277 109.995 101.226 110.511 100.659 110.82Z" fill="white"/>
<path d="M20.0607 39.0897C20.5764 37.852 21.9172 37.4395 23.4127 38.1099C24.9081 38.7287 25.5785 39.9663 25.0628 41.204C24.5472 42.4416 23.2064 42.8542 21.7109 42.1838C20.2154 41.5134 19.5451 40.2757 20.0607 39.0897ZM24.0315 40.7399C24.2893 40.121 23.8768 39.5022 23.0001 39.1412C22.0719 38.7287 21.3499 38.935 21.0921 39.5538C20.8343 40.1726 21.2468 40.7914 22.175 41.204C23.0517 41.5134 23.7736 41.3071 24.0315 40.7399Z" fill="white"/>
<path d="M23.1549 35.6346C23.4643 35.0158 23.9284 34.7579 24.2894 34.9642C24.5472 35.0674 24.6504 35.3252 24.5472 35.5315C24.4441 35.6862 24.1863 35.8409 24.0831 36.0987C23.8768 36.4597 24.0831 36.8722 24.6504 37.1301C25.1661 37.3879 25.6302 37.3364 25.8364 36.9238C25.9911 36.666 25.9396 36.3566 25.9911 36.2534C26.0943 36.0472 26.3521 35.9956 26.61 36.1503C26.9709 36.305 27.0741 36.9238 26.7647 37.5426C26.3006 38.4193 25.3208 38.6771 24.2378 38.1099C23.1033 37.5426 22.6392 36.5628 23.1549 35.6346Z" fill="white"/>
<path d="M24.5978 32.953C24.9588 32.3858 25.4229 32.128 25.7839 32.3342C26.0417 32.4889 26.0933 32.7468 25.9902 32.953C25.887 33.1078 25.6292 33.2109 25.4745 33.4687C25.2682 33.8297 25.4745 34.2423 25.9386 34.5517C26.4543 34.8611 26.9184 34.8095 27.1247 34.397C27.2794 34.1391 27.2278 33.8813 27.3309 33.7266C27.4341 33.5203 27.7435 33.5203 27.9497 33.6234C28.3107 33.8297 28.3623 34.397 28.0013 35.0158C27.5372 35.8409 26.4543 36.0471 25.4229 35.4283C24.4431 34.8611 24.0821 33.8813 24.5978 32.953Z" fill="white"/>
<path d="M26.0959 32.1286C25.6318 31.8192 25.4771 31.5613 25.6834 31.2519C25.8897 30.9941 26.1991 30.9941 26.6632 31.3035L27.7461 32.0254C28.2102 32.3348 28.5196 32.3864 28.7259 32.077C28.9322 31.7676 28.7775 31.5098 28.3134 31.2003L27.1789 30.4268C26.7148 30.1174 26.5601 29.8596 26.7663 29.5502C26.9726 29.2408 27.282 29.2923 27.7461 29.6017L29.0353 30.4268C29.9636 31.0456 30.1183 31.8192 29.6026 32.5927C29.0869 33.4178 28.3134 33.5209 27.3851 32.9537L26.0959 32.1286Z" fill="white"/>
<path d="M32.1272 31.5088C31.9209 31.7667 31.6115 31.7667 31.1474 31.4057L28.1049 29.0851C27.6407 28.7241 27.5376 28.4663 27.7439 28.2085C27.847 28.0538 28.0533 28.0022 28.3111 28.0538C28.208 27.7443 28.3111 27.4349 28.5174 27.1771C29.0331 26.5067 30.116 26.4551 31.0442 27.1771C31.9725 27.8475 32.2303 28.982 31.7662 29.6524C31.5599 29.9102 31.3537 30.0133 31.0442 30.0649L31.8178 30.6322C32.2303 30.9416 32.3334 31.1994 32.1272 31.5088ZM30.7864 29.0851C30.9927 28.7757 30.8895 28.3116 30.4254 27.9506C29.9613 27.5896 29.4972 27.5896 29.2909 27.899C29.0847 28.2085 29.1878 28.621 29.6519 28.982C30.116 29.343 30.5801 29.343 30.7864 29.0851Z" fill="white"/>
<path d="M33.677 27.1264C33.1613 27.7452 32.0784 27.7452 31.1502 26.9717C30.2735 26.1982 30.1188 25.1152 30.6345 24.4964C30.8408 24.2386 31.1502 24.1354 31.4596 24.1354C31.3564 23.8776 31.3564 23.6713 31.5111 23.5166C31.7174 23.2588 32.0268 23.3103 32.4394 23.6713L34.1411 25.1668C34.5537 25.5278 34.6568 25.8372 34.4505 26.095C34.2958 26.2497 34.1411 26.3013 33.8317 26.1982C33.9864 26.5591 33.9348 26.8686 33.677 27.1264ZM33.0066 26.3013C33.2645 26.0435 33.1613 25.5793 32.7488 25.2184C32.3362 24.8574 31.8721 24.8058 31.6658 25.1152C31.408 25.3731 31.5111 25.8372 31.9237 26.1982C32.2847 26.5591 32.7488 26.5591 33.0066 26.3013Z" fill="white"/>
<path d="M33.3153 23.3094C33.0574 23.5673 32.7996 23.5673 32.5933 23.361C32.387 23.1547 32.387 22.8969 32.6449 22.5875L32.2839 22.2265C31.8713 21.8139 31.8198 21.5561 32.0261 21.2983C32.2839 21.0404 32.5417 21.1436 32.9543 21.5045L33.3153 21.8655L33.3668 21.8139C33.6247 21.5045 33.9341 21.5045 34.1919 21.7108C34.3982 21.9171 34.3982 22.2265 34.0888 22.4843L34.0372 22.5359L35.4811 23.9282C35.8937 24.3408 35.9452 24.5986 35.739 24.8565C35.5327 25.1143 35.1717 25.0112 34.8107 24.6502L33.3153 23.3094Z" fill="white"/>
<path d="M33.1097 19.5978C33.316 19.3915 33.7286 19.3915 33.9864 19.6493C34.2442 19.9072 34.2442 20.3197 34.038 20.526C33.7801 20.7323 33.4191 20.7323 33.1613 20.4744C32.9035 20.2166 32.9035 19.8556 33.1097 19.5978ZM36.9773 23.6201C36.7195 23.8779 36.4101 23.7748 36.0491 23.3622L34.4505 21.7121C34.0895 21.2995 33.9864 20.9901 34.2442 20.7838C34.5021 20.526 34.8115 20.6291 35.1725 21.0417L36.7711 22.6919C37.1321 23.0528 37.2352 23.3622 36.9773 23.6201Z" fill="white"/>
<path d="M36.1504 18.9262C36.8724 18.2558 38.0069 18.4621 38.7804 19.3387C39.5539 20.2154 39.6055 21.3499 38.832 21.9687C38.11 22.6391 36.9755 22.4328 36.202 21.5561C35.4285 20.6795 35.4285 19.5966 36.1504 18.9262ZM38.11 21.1952C38.4194 20.9373 38.3679 20.4732 37.9553 20.0091C37.5943 19.5966 37.1302 19.4934 36.8208 19.7513C36.5114 20.0091 36.563 20.4732 36.9755 20.8858C37.3881 21.3499 37.8522 21.453 38.11 21.1952Z" fill="white"/>
<path d="M38.3692 18.2034C38.0083 17.7393 38.0083 17.4299 38.2661 17.2236C38.4208 17.1205 38.6271 17.1205 38.8849 17.2236C38.8849 16.8626 39.0396 16.6048 39.349 16.3985C39.9678 15.9344 40.6382 16.0891 41.2055 16.8626L42.1853 18.1518C42.5463 18.6159 42.5463 18.9254 42.2884 19.1316C42.0306 19.3379 41.7212 19.2348 41.3602 18.7707L40.5867 17.7393C40.2257 17.2752 39.9678 17.1205 39.6069 17.3783C39.2975 17.5846 39.349 17.9456 39.71 18.4097L40.4835 19.441C40.8445 19.9052 40.8445 20.2146 40.5867 20.4208C40.3288 20.6271 40.0194 20.524 39.6584 20.0599L38.3692 18.2034Z" fill="white"/>
<path d="M44.1964 17.8432C43.526 18.3073 42.4947 17.9979 41.8243 17.0181C41.2055 16.0383 41.3086 14.9553 42.0306 14.4912C42.34 14.285 42.5978 14.285 42.9072 14.3881C42.8557 14.1303 42.9588 13.924 43.1135 13.8208C43.4229 13.6146 43.6808 13.7693 43.9902 14.2334L45.2278 16.1414C45.5372 16.6055 45.5372 16.9149 45.2794 17.1212C45.0731 17.2243 44.9184 17.2243 44.6605 17.0696C44.6605 17.379 44.5058 17.6369 44.1964 17.8432ZM43.7323 16.8118C44.0417 16.6055 44.0417 16.1414 43.7323 15.6773C43.4229 15.2132 43.0104 15.0585 42.701 15.2648C42.3915 15.471 42.34 15.9351 42.6494 16.3993C43.0104 16.9149 43.4229 17.0181 43.7323 16.8118Z" fill="white"/>
<path d="M43.7311 11.5512C44.0405 11.3965 44.2984 11.5512 44.5562 12.0153L46.5674 15.3672C46.8768 15.8313 46.8768 16.1407 46.5674 16.347C46.258 16.5017 46.0001 16.347 45.6907 15.8829L43.6796 12.531C43.4217 12.0153 43.4217 11.7059 43.7311 11.5512Z" fill="white"/>
<path d="M49.7146 13.666C49.9724 14.1817 49.9209 14.4911 49.6114 14.6458C49.302 14.8005 49.0442 14.5942 48.7864 14.1301L47.2393 10.8813C46.9815 10.3656 47.033 10.0562 47.3424 9.90152C47.6519 9.74681 47.9097 9.95309 48.1675 10.4172L48.6832 11.5001L50.385 10.675L49.8693 9.59211C49.6114 9.07643 49.663 8.76702 49.9724 8.61231C50.2818 8.45761 50.5397 8.66388 50.7975 9.128L52.3446 12.3768C52.6024 12.8925 52.5508 13.2019 52.2414 13.3566C51.932 13.5113 51.6742 13.305 51.4163 12.8409L50.8491 11.6548L49.1473 12.4799L49.7146 13.666Z" fill="white"/>
<path d="M54.3025 11.5013C54.7666 11.3466 54.9213 10.8825 55.1792 10.7793C55.3855 10.6762 55.5917 10.7793 55.6949 11.0372C55.8496 11.4497 55.437 12.1717 54.6119 12.4811C53.6837 12.8421 52.7039 12.3264 52.2914 11.2434C51.8788 10.1605 52.2398 9.07758 53.1165 8.7166C53.9931 8.35562 54.9729 8.92287 55.3339 9.90267C55.4886 10.2636 55.3339 10.3668 55.0245 10.5215L53.3743 11.1403C53.5806 11.5013 53.89 11.656 54.3025 11.5013ZM54.3025 9.95424C54.1478 9.59326 53.7868 9.43855 53.4774 9.54169C53.168 9.64483 53.0133 10.0058 53.1165 10.4183L54.3025 9.95424Z" fill="white"/>
<path d="M57.5993 11.3989C56.8258 11.6567 55.8976 11.0894 55.5366 9.90338C55.1756 8.82044 55.6397 7.78908 56.4133 7.53124C56.7227 7.4281 57.0321 7.47967 57.2899 7.68594C57.3415 7.4281 57.4446 7.2734 57.6509 7.22183C57.9603 7.11869 58.2181 7.32497 58.3728 7.84065L59.0432 10.0065C59.1979 10.5222 59.1464 10.8316 58.837 10.9347C58.6307 10.9863 58.4244 10.9347 58.2697 10.6769C58.1666 11.0894 57.9603 11.2957 57.5993 11.3989ZM57.4446 10.3159C57.8056 10.2128 57.9603 9.80024 57.8056 9.23299C57.6509 8.71731 57.2899 8.45947 56.9289 8.5626C56.568 8.66574 56.4133 9.07828 56.568 9.64553C56.7227 10.1612 57.0836 10.4191 57.4446 10.3159Z" fill="white"/>
<path d="M58.9397 5.26045C59.2491 5.15731 59.5069 5.41515 59.6101 5.93083L60.5899 9.69531C60.7446 10.211 60.6414 10.5204 60.332 10.6235C60.0226 10.7267 59.7648 10.4688 59.6616 9.95315L58.6818 6.18868C58.5271 5.62143 58.5787 5.31202 58.9397 5.26045Z" fill="white"/>
<path d="M60.85 7.5807C60.489 7.63227 60.2312 7.52913 60.1796 7.21972C60.128 6.91031 60.2827 6.70404 60.6437 6.6009L60.5406 6.13679C60.4374 5.56954 60.5406 5.3117 60.85 5.20856C61.1594 5.15699 61.4172 5.36327 61.5204 5.93052L61.6235 6.39463H61.7266C62.1392 6.29149 62.397 6.4462 62.4486 6.75561C62.5002 7.06502 62.3455 7.27129 61.9329 7.37443H61.8298L62.2423 9.33402C62.3455 9.90127 62.2939 10.1591 61.9329 10.2622C61.5719 10.3138 61.3657 10.1075 61.2625 9.54029L60.85 7.5807Z" fill="white"/>
<path d="M64.4077 5.72426C65.1812 5.62112 65.6969 6.03367 65.8516 7.01346L66.1094 8.61208C66.2125 9.17933 66.1094 9.43717 65.7484 9.48874C65.3874 9.5403 65.2327 9.28246 65.1296 8.76678L64.9233 7.47758C64.8202 6.91033 64.6655 6.65248 64.2529 6.70405C63.892 6.75562 63.7888 7.06503 63.8404 7.63228L64.0467 8.92149C64.1498 9.48874 64.0467 9.74658 63.6857 9.79815C63.3247 9.84971 63.17 9.59187 63.0669 9.07619L62.4481 5.20858C62.3449 4.64133 62.4481 4.38348 62.809 4.33192C63.1185 4.28035 63.3247 4.53819 63.4279 5.05387L63.6341 6.18837C63.7888 5.93053 64.0467 5.77583 64.4077 5.72426Z" fill="white"/>
<path d="M69.8778 9.18058C69.0527 9.23214 68.3307 8.45862 68.2276 7.27255C68.176 6.13805 68.7949 5.20983 69.6715 5.15826C70.0325 5.15826 70.2903 5.26139 70.4966 5.51924C70.5997 5.26139 70.7545 5.15826 70.9607 5.10669C71.3217 5.10669 71.4764 5.36453 71.528 5.88021L71.6827 8.14921C71.7342 8.71646 71.5795 8.9743 71.2186 9.02587C71.0123 9.02587 70.8576 8.92273 70.7029 8.66489C70.4966 8.9743 70.2388 9.12901 69.8778 9.18058ZM69.9809 8.04608C70.3419 8.04608 70.5997 7.63353 70.5482 7.06628C70.4966 6.49903 70.2388 6.18962 69.8778 6.18962C69.5168 6.18962 69.259 6.5506 69.259 7.11785C69.3105 7.73667 69.6199 8.09764 69.9809 8.04608Z" fill="white"/>
<path d="M72.196 5.87905C72.196 5.3118 72.3507 5.05396 72.7117 5.05396C72.918 5.05396 73.0727 5.15709 73.1758 5.41493C73.3821 5.15709 73.6915 5.05396 74.0525 5.05396C74.826 5.05396 75.2385 5.56964 75.2385 6.54943L75.187 8.19961C75.187 8.76686 75.0323 9.02471 74.6713 9.02471C74.3103 9.02471 74.1556 8.76686 74.2072 8.19961V6.91041C74.2072 6.29159 74.104 6.03375 73.6915 6.03375C73.3305 6.03375 73.1758 6.34316 73.1242 6.91041V8.19961C73.1242 8.76686 72.9695 9.02471 72.6086 9.02471C72.2476 9.02471 72.0929 8.76686 72.1444 8.19961L72.196 5.87905Z" fill="white"/>
<path d="M76.9907 9.18C76.1656 9.12844 75.4953 8.20021 75.5984 7.01414C75.7015 5.87964 76.475 5.05455 77.3001 5.10612C77.6095 5.10612 77.8674 5.26082 78.0737 5.46709L78.1768 4.43573C78.2284 3.86848 78.3831 3.61064 78.7441 3.66221C79.105 3.66221 79.2082 3.97162 79.1566 4.53887L78.8472 8.40648C78.7956 8.97373 78.6409 9.23157 78.2799 9.18C78.0737 9.18 77.919 9.0253 77.8158 8.76746C77.6095 9.07687 77.3517 9.18 76.9907 9.18ZM77.2486 8.14864C77.6096 8.20021 77.919 7.83923 77.9705 7.27198C78.0221 6.65316 77.7643 6.29219 77.4033 6.24062C77.0423 6.18905 76.7329 6.55003 76.6813 7.16884C76.6298 7.68453 76.836 8.09707 77.2486 8.14864Z" fill="white"/>
<path d="M82.356 9.9018C81.5309 9.74709 80.9636 9.23141 81.0668 8.81887C81.1184 8.50946 81.3246 8.35475 81.6856 8.40632C81.9434 8.45789 82.2528 8.7673 82.717 8.87044C82.9748 8.922 83.2327 8.71573 83.3358 8.45789C83.3874 8.04534 83.1295 7.89064 82.6654 7.6328C81.8403 7.16868 81.5309 6.75614 81.6856 5.98262C81.8403 5.05439 82.6138 4.48714 83.5936 4.69341C84.3156 4.84812 84.7281 5.26066 84.6766 5.67321C84.625 5.98262 84.4187 6.13732 84.1093 6.08575C83.8515 6.03418 83.5936 5.82791 83.3358 5.77634C83.0264 5.72478 82.8201 5.87948 82.7685 6.13732C82.717 6.4983 82.9748 6.60143 83.4905 6.85928C84.264 7.32339 84.5734 7.83907 84.4187 8.61259C84.2124 9.48925 83.4389 10.1081 82.356 9.9018Z" fill="white"/>
<path d="M85.6569 10.5715C84.8834 10.3652 84.3677 9.43702 84.6771 8.25095C84.935 7.11645 85.8632 6.44606 86.6883 6.65234C86.9977 6.75547 87.2555 6.91018 87.3587 7.21959C87.5134 7.01331 87.7196 6.91018 87.9259 6.96175C88.2353 7.06488 88.3385 7.32272 88.1838 7.88997L87.6165 10.1074C87.4618 10.6231 87.2555 10.8809 86.9461 10.7778C86.7398 10.7262 86.6367 10.5715 86.5851 10.2621C86.3273 10.5715 86.0179 10.6231 85.6569 10.5715ZM86.0695 9.54015C86.4304 9.64329 86.7914 9.33388 86.8945 8.8182C87.0493 8.30252 86.843 7.88997 86.482 7.78684C86.121 7.6837 85.7601 7.94154 85.6569 8.50879C85.5538 9.02447 85.7085 9.43702 86.0695 9.54015Z" fill="white"/>
<path d="M90.3506 7.83798C90.7116 7.94112 90.9179 8.19896 90.8147 8.50837C90.7116 8.81778 90.4537 8.92091 90.0412 8.76621L89.8865 8.71464L89.2677 10.6227C89.113 11.1383 88.8551 11.3962 88.5457 11.293C88.2363 11.1899 88.1332 10.8805 88.2879 10.3648L88.9067 8.4568H88.8551C88.4941 8.35366 88.391 8.09582 88.4426 7.83798C88.5457 7.52857 88.8036 7.42543 89.1645 7.52857C89.1645 7.477 89.2161 7.42543 89.2161 7.3223C89.5255 6.39407 90.0412 5.98153 90.66 6.1878C91.0726 6.29093 91.2273 6.60034 91.1241 6.90975C91.021 7.21916 90.8147 7.27073 90.5569 7.21916C90.3506 7.16759 90.299 7.27073 90.1959 7.58014L90.1443 7.83798H90.3506Z" fill="white"/>
<path d="M91.6882 11.3456C92.1523 11.5003 92.5648 11.294 92.8227 11.3456C93.029 11.4487 93.1321 11.655 93.029 11.9129C92.8743 12.3254 92.1007 12.5832 91.2756 12.2738C90.3474 11.9129 89.9349 10.8815 90.3474 9.79856C90.76 8.71562 91.7398 8.14837 92.6164 8.45778C93.4931 8.76719 93.8541 9.85012 93.4931 10.7784C93.3384 11.1393 93.1837 11.1393 92.8743 11.0362L91.1725 10.4174C91.0694 10.8815 91.2756 11.1909 91.6882 11.3456ZM92.668 10.2111C92.7711 9.85012 92.6164 9.48915 92.307 9.33444C91.9976 9.23131 91.6366 9.38601 91.4303 9.74699L92.668 10.2111Z" fill="white"/>
<path d="M94.2668 10.365C93.9574 10.2103 93.8027 9.95246 93.9574 9.69462C94.0605 9.38521 94.3184 9.33364 94.7309 9.48835L94.9372 9.02423C95.1435 8.50855 95.4013 8.30228 95.7107 8.45698C96.0201 8.61169 96.0717 8.9211 95.8654 9.43678L95.6591 9.90089L95.7623 9.95246C96.1233 10.1072 96.278 10.365 96.1233 10.6744C96.0201 10.9838 95.7623 11.0354 95.3497 10.8807L95.2982 10.8291L94.5246 12.6856C94.3184 13.2013 94.0605 13.4075 93.7511 13.2528C93.4417 13.0981 93.3901 12.7887 93.5964 12.273L94.2668 10.365Z" fill="white"/>
<path d="M98.754 11.19C99.0118 11.3448 99.115 11.6026 98.9603 11.912C98.9087 12.0151 98.8056 12.1183 98.7024 12.2214L95.5052 15.2639C95.2989 15.4702 95.0927 15.5733 94.8864 15.4702C94.6285 15.3155 94.5254 15.0577 94.6801 14.7483C94.7317 14.6451 94.8348 14.542 94.938 14.4388L95.763 13.7169L96.0209 10.8806C96.0209 10.7775 96.0724 10.6744 96.124 10.5712C96.2787 10.2618 96.5881 10.1587 96.7944 10.2618C97.0522 10.365 97.0522 10.6228 97.0007 10.9838L96.7428 12.7887L98.0836 11.4479C98.393 11.19 98.5477 11.0869 98.754 11.19Z" fill="white"/>
<path d="M101.85 12.3261C102.211 11.9136 102.521 11.8104 102.882 12.0167C103.191 12.223 103.294 12.5324 103.139 12.9965L102.056 15.9359L104.274 13.6669C104.583 13.3575 104.944 13.2543 105.254 13.4606C105.615 13.7185 105.666 14.0279 105.408 14.5436L103.913 17.7923C103.861 17.8955 103.81 17.9986 103.758 18.0502C103.552 18.3596 103.243 18.4627 102.985 18.308C102.727 18.1533 102.727 17.8439 102.933 17.4314L104.325 14.6467C102.83 16.1937 102.005 17.0188 101.696 17.1735C101.541 17.2767 101.386 17.2251 101.231 17.122C100.922 16.9157 100.87 16.7094 101.025 16.2969L102.16 13.2543L100.252 15.5749C99.9422 15.9875 99.6844 16.0906 99.3749 15.9359C99.1171 15.7812 99.0655 15.4718 99.2718 15.1624C99.3234 15.1108 99.3749 15.0077 99.4781 14.9045L101.85 12.3261Z" fill="white"/>
<path d="M104.684 19.5965C104.014 19.0808 103.962 18.0494 104.684 17.0696C105.406 16.1414 106.489 15.8836 107.16 16.3992C107.418 16.6055 107.572 16.8634 107.572 17.2243C107.779 17.1212 107.985 17.1212 108.191 17.2243C108.449 17.4306 108.397 17.74 108.088 18.2041L106.696 20.009C106.335 20.4731 106.077 20.5763 105.819 20.37C105.664 20.2153 105.613 20.0606 105.664 19.7512C105.252 19.8543 104.942 19.8027 104.684 19.5965ZM105.458 18.823C105.767 19.0292 106.18 18.9261 106.541 18.462C106.902 17.9979 106.85 17.5853 106.592 17.3275C106.283 17.1212 105.87 17.2243 105.51 17.6369C105.149 18.1526 105.149 18.6167 105.458 18.823Z" fill="white"/>
<path d="M108.549 18.6162C108.91 18.2036 109.22 18.1005 109.477 18.3067C109.632 18.4615 109.684 18.6162 109.581 18.874C109.942 18.8224 110.199 18.9256 110.509 19.1834C111.076 19.6991 111.076 20.3695 110.457 21.0914L109.374 22.3291C109.013 22.7416 108.704 22.8448 108.446 22.6385C108.188 22.4322 108.24 22.1228 108.601 21.6587L109.426 20.6789C109.838 20.2148 109.89 19.9054 109.581 19.6475C109.271 19.3897 108.962 19.4928 108.601 19.9569L107.724 20.9367C107.363 21.3493 107.054 21.4524 106.796 21.2461C106.538 21.0399 106.59 20.7305 106.951 20.2663L108.549 18.6162Z" fill="white"/>
<path d="M109.997 24.2889C109.43 23.7217 109.481 22.6388 110.358 21.8137C111.183 20.9886 112.266 20.8854 112.885 21.5043C113.143 21.7621 113.194 22.0199 113.143 22.3809C113.401 22.2778 113.607 22.3293 113.71 22.4841C113.968 22.7419 113.865 22.9997 113.452 23.4123L111.854 25.0109C111.441 25.4234 111.132 25.475 110.925 25.2687C110.771 25.114 110.771 24.9078 110.874 24.6499C110.564 24.5983 110.255 24.4952 109.997 24.2889ZM110.925 23.6186C111.183 23.8764 111.647 23.8248 112.06 23.4123C112.472 22.9997 112.524 22.5872 112.266 22.3293C112.008 22.0715 111.544 22.1231 111.183 22.5356C110.719 22.8966 110.667 23.3607 110.925 23.6186Z" fill="white"/>
<path d="M112.471 26.8162C111.955 26.1974 112.161 25.1661 113.038 24.4441C113.915 23.6706 114.998 23.6706 115.565 24.2894C115.771 24.5472 115.874 24.8051 115.771 25.1661C116.029 25.1145 116.235 25.1661 116.338 25.2692C116.545 25.527 116.442 25.8365 116.029 26.1974L114.276 27.6929C113.76 28.157 113.347 28.4664 112.935 28.5696C112.316 28.7243 111.749 28.518 111.285 27.9507C110.666 27.2804 110.614 26.61 110.975 26.3006C111.182 26.0943 111.491 26.0943 111.646 26.3006C111.8 26.5068 111.749 26.9194 112.11 27.3319C112.419 27.6929 112.883 27.6929 113.347 27.2804C113.399 27.2288 113.399 27.2288 113.451 27.1772C113.038 27.2288 112.729 27.1257 112.471 26.8162ZM113.399 26.3521C113.657 26.61 114.121 26.61 114.534 26.249C114.946 25.888 115.049 25.4239 114.791 25.1145C114.534 24.8567 114.069 24.8567 113.657 25.2176C113.244 25.6302 113.141 26.0427 113.399 26.3521Z" fill="white"/>
<path d="M115.719 29.2399C116.028 29.6525 116.493 29.6525 116.647 29.8587C116.802 30.065 116.75 30.2713 116.544 30.426C116.183 30.6838 115.41 30.4775 114.894 29.8072C114.275 29.0336 114.533 27.8991 115.461 27.2288C116.389 26.5068 117.524 26.5584 118.091 27.3319C118.658 28.1054 118.401 29.1368 117.575 29.7556C117.266 30.0134 117.111 29.9103 116.905 29.6525L115.822 28.2085C115.461 28.5695 115.461 28.9305 115.719 29.2399ZM117.163 28.8274C117.472 28.5695 117.524 28.157 117.318 27.8991C117.111 27.6413 116.75 27.5897 116.389 27.796L117.163 28.8274Z" fill="white"/>
<path d="M118.658 29.6012C119.122 29.2918 119.431 29.2918 119.638 29.6012C119.741 29.7559 119.741 29.9622 119.586 30.22C119.896 30.2716 120.153 30.4263 120.308 30.6841C120.514 31.0451 120.566 31.4061 120.411 31.8186C120.875 31.8702 121.185 32.0249 121.391 32.3859C121.752 32.9531 121.546 33.6235 120.721 34.1392L119.328 35.0159C118.864 35.3253 118.555 35.3253 118.348 35.0159C118.142 34.7064 118.297 34.4486 118.761 34.1392L119.844 33.4688C120.308 33.1594 120.514 32.9016 120.308 32.6437C120.102 32.3343 119.792 32.3859 119.328 32.6953L118.245 33.3657C117.781 33.6751 117.472 33.6751 117.266 33.3657C117.059 33.0563 117.214 32.7984 117.678 32.489L118.761 31.8186C119.225 31.5092 119.431 31.2514 119.277 30.9935C119.07 30.6841 118.761 30.7357 118.297 31.0451L117.214 31.7155C116.75 32.0249 116.44 32.0249 116.234 31.7155C116.028 31.4061 116.183 31.1482 116.647 30.8388L118.658 29.6012Z" fill="white"/>
<path d="M120.467 36.7687C120.725 37.2328 121.189 37.3359 121.292 37.5422C121.395 37.7485 121.292 38.0063 121.086 38.1094C120.673 38.3157 119.952 38.0063 119.539 37.2328C119.075 36.3561 119.487 35.3248 120.519 34.7575C121.55 34.1903 122.633 34.4481 123.097 35.3248C123.561 36.1499 123.097 37.1812 122.169 37.6453C121.808 37.8516 121.705 37.6969 121.55 37.4391L120.725 35.8404C120.364 36.0467 120.261 36.4077 120.467 36.7687ZM121.963 36.614C122.324 36.4077 122.427 36.0467 122.272 35.7373C122.117 35.4279 121.756 35.3248 121.344 35.4795L121.963 36.614Z" fill="white"/>
<path d="M123.247 37.542C123.763 37.3357 124.073 37.3357 124.227 37.6451C124.33 37.7998 124.279 38.0061 124.073 38.2123C124.433 38.3155 124.64 38.5217 124.794 38.8827C125.104 39.6047 124.794 40.2235 123.918 40.5845L122.422 41.2549C121.907 41.4611 121.597 41.4611 121.443 41.1517C121.288 40.8423 121.494 40.5845 122.01 40.3782L123.196 39.8625C123.763 39.6047 123.969 39.3984 123.763 39.0374C123.608 38.6765 123.299 38.6765 122.732 38.8827L121.546 39.3984C121.03 39.6047 120.721 39.6047 120.566 39.2953C120.411 38.9859 120.617 38.728 121.133 38.5217L123.247 37.542Z" fill="white"/>
<path d="M124.485 41.2052C124.382 40.8958 124.485 40.5864 124.743 40.4832C125.053 40.3801 125.259 40.4832 125.414 40.8442L125.878 40.6895C126.393 40.4832 126.703 40.5348 126.858 40.8442C126.961 41.1536 126.754 41.4114 126.239 41.6177L125.775 41.7724L125.826 41.8756C125.981 42.2365 125.878 42.5459 125.568 42.6491C125.259 42.7522 125.053 42.6491 124.898 42.2365L124.846 42.185L122.938 42.9069C122.423 43.1132 122.113 43.0616 122.01 42.7522C121.907 42.4428 122.113 42.185 122.629 41.9787L124.485 41.2052Z" fill="white"/>
</svg>
