<svg width="147" height="120" viewBox="0 0 147 120" fill="none" xmlns="http://www.w3.org/2000/svg">
<g clip-path="url(#clip0)">
<path d="M28.8258 77.1464C35.6844 94.5766 53.2177 106.953 73.0716 106.953C92.9771 106.953 109.995 94.5766 116.853 77.0433H130.622C123.248 101.848 100.3 120 73.0716 120C45.895 120 22.8438 101.951 15.418 77.1464H28.8258Z" fill="#323232"/>
<path d="M28.7235 44.5037C35.118 26.1968 52.5481 13.0468 73.0724 13.0468C93.5967 13.0468 111.027 26.1968 117.421 44.5552L131.035 44.5037C124.228 18.8741 100.868 0 73.0724 0C45.3285 0 21.968 18.8741 15.1094 44.4521L28.7235 44.5037Z" fill="#323232"/>
<path d="M146.198 45.6378H112.627V47.4943H146.198V45.6378Z" fill="#323232"/>
<path d="M146.198 48.5257H112.627V50.3821H146.198V48.5257Z" fill="#323232"/>
<path d="M146.198 51.4134H112.627V53.2699H146.198V51.4134Z" fill="#323232"/>
<path d="M146.198 54.3012H112.627V56.1577H146.198V54.3012Z" fill="#323232"/>
<path d="M146.198 57.2411H112.627V59.0976H146.198V57.2411Z" fill="#323232"/>
<path d="M146.198 60.1284H112.627V61.9849H146.198V60.1284Z" fill="#323232"/>
<path d="M146.198 63.0166H112.627V64.8731H146.198V63.0166Z" fill="#323232"/>
<path d="M146.198 65.904H112.627V67.7604H146.198V65.904Z" fill="#323232"/>
<path d="M146.198 68.7922H112.627V70.6487H146.198V68.7922Z" fill="#323232"/>
<path d="M146.198 71.7317H112.627V73.5882H146.198V71.7317Z" fill="#323232"/>
<path d="M146.198 74.6196H112.627V76.4761H146.198V74.6196Z" fill="#323232"/>
<path d="M33.5711 45.6378H0V47.4943H33.5711V45.6378Z" fill="#323232"/>
<path d="M33.5711 48.5257H0V50.3821H33.5711V48.5257Z" fill="#323232"/>
<path d="M33.5711 51.4134H0V53.2699H33.5711V51.4134Z" fill="#323232"/>
<path d="M33.5711 54.3012H0V56.1577H33.5711V54.3012Z" fill="#323232"/>
<path d="M33.5711 57.2411H0V59.0976H33.5711V57.2411Z" fill="#323232"/>
<path d="M33.5711 60.1284H0V61.9849H33.5711V60.1284Z" fill="#323232"/>
<path d="M33.5711 63.0166H0V64.8731H33.5711V63.0166Z" fill="#323232"/>
<path d="M33.5711 65.904H0V67.7604H33.5711V65.904Z" fill="#323232"/>
<path d="M33.5711 68.7922H0V70.6487H33.5711V68.7922Z" fill="#323232"/>
<path d="M33.5711 71.7317H0V73.5882H33.5711V71.7317Z" fill="#323232"/>
<path d="M33.5711 74.6196H0V76.4761H33.5711V74.6196Z" fill="#323232"/>
<path d="M94.8864 94.525V92.5139L71.3711 75.9088V77.92L94.8864 94.525Z" fill="#323232"/>
<path d="M82.2514 86.6353L79.8277 84.9851H64.5634C61.263 84.9851 58.5299 82.252 58.5299 78.9V67.9159C58.5299 64.564 61.2115 61.8308 64.5634 61.8308H81.3232C84.6236 61.8308 87.3051 64.564 87.3051 67.9159V80.0861L88.9553 81.2722V67.9159C88.9553 63.6357 85.5518 60.1806 81.2716 60.1806H64.5118C60.2832 60.1806 56.8281 63.6357 56.8281 67.9159V78.9C56.8281 83.1802 60.2316 86.6353 64.5118 86.6353H82.2514Z" fill="#323232"/>
<path d="M94.8864 91.4827V89.4715L71.3711 72.8149V74.8261L94.8864 91.4827Z" fill="#323232"/>
<path d="M84.6233 69.8238V67.9673C84.6233 66.0593 83.0762 64.5638 81.2197 64.5638H64.7178C62.8613 64.5638 61.3143 66.1109 61.3143 67.9673V78.7967C61.3143 80.7048 62.8097 82.2002 64.7178 82.2002H75.9597L78.3319 83.8504H64.7178C61.9331 83.8504 59.6641 81.5814 59.6641 78.7967V67.9673C59.6641 65.1826 61.8815 62.9136 64.7178 62.9136H81.2197C84.0044 62.9136 86.2734 65.1826 86.2734 67.9673L86.2219 79.2093L84.5717 78.1263V76.734H81.1682L94.8338 86.3773V88.3885L71.3186 71.7834V71.474V69.8238H71.3701H84.6233ZM84.5717 74.1556H77.5068L78.8476 75.0838H84.5717V74.1556ZM84.6233 71.474H73.7423L75.1862 72.5054H84.6233V71.474Z" fill="#323232"/>
<path d="M107.057 67.1419C107.057 69.7204 106.026 72.1441 104.221 73.949C102.416 75.7539 100.044 76.7337 97.517 76.7337H91.6898V83.0766L90.0396 81.9421V67.5545C90.0396 62.9649 86.3266 59.2004 81.7886 59.2004H64.1522C59.6141 59.2004 55.9012 62.9133 55.9012 67.5545V79.2605C55.9012 83.8501 59.6141 87.6146 64.1522 87.6146H83.4903L85.9141 89.2648H64.1522C58.6859 89.2648 54.251 84.7784 54.251 79.2605V76.7852H39.9149H39.0898V75.9601V53.7341H40.74V75.135H54.251V74.1553H42.5965H41.7714V73.3302V53.7341H43.4216V72.5051H54.251V71.4221H45.3812H44.5561V70.597V53.6825H46.2063V69.7719H54.251V67.5545C54.251 62.0366 58.6859 57.5502 64.1522 57.5502H65.7508V56.0547C65.7508 55.1265 65.3898 54.2498 64.7194 53.631C64.1006 53.0121 63.2239 52.6512 62.3473 52.6512H39.1414V51.001H62.3988C63.7396 51.001 64.9772 51.5167 65.9571 52.4965C66.9369 53.4763 67.4525 54.7655 67.4525 56.1063V57.6017H68.5355V56.0547C68.5355 54.4045 67.9167 52.8574 66.7306 51.7229C65.5961 50.5884 64.1006 49.9696 62.502 49.9696H39.1414V48.3194H62.5535C64.5647 48.3194 66.4727 49.0929 67.9167 50.5369C69.3606 51.9808 70.1857 53.9404 70.1857 56.0547V57.6017H71.1655V55.6421C71.1655 53.3731 70.2888 51.3104 68.7418 49.7118C67.1947 48.1647 65.132 47.288 62.9661 47.288H39.1414V45.6378H62.9661C65.5961 45.6378 68.0714 46.6692 69.9278 48.5257C71.8359 50.4337 72.8672 52.9606 72.8672 55.6421V57.6017H73.9502C73.7955 56.8798 73.6923 56.1063 73.6923 55.3327C73.6923 50.0212 77.9725 45.6378 83.2325 45.6378H107.006V47.288H83.2325C81.1182 47.288 79.1586 48.1131 77.6631 49.6086C76.1676 51.1041 75.291 53.1669 75.291 55.3327C75.291 56.1063 75.3941 56.8798 75.6004 57.6017H76.6317C76.4255 56.8798 76.2708 56.1578 76.2708 55.3843C76.2708 51.5167 79.4164 48.3194 83.2325 48.3194H106.902V49.9696H83.2325C81.8402 49.9696 80.4994 50.5369 79.468 51.5167C78.4366 52.548 77.8694 53.8888 77.8694 55.3843C77.8694 56.1578 78.0241 56.8798 78.3335 57.6017H79.468C79.0555 56.9314 78.8492 56.1578 78.8492 55.3327C78.8492 52.9606 80.7572 51.0525 83.1294 51.0525H106.902V52.7027H83.1294C82.459 52.7027 81.7886 52.9606 81.2729 53.4763C80.7572 53.9919 80.4994 54.6623 80.4994 55.3843C80.4994 56.3125 80.9635 57.1892 81.7886 57.6533H97.4654C99.9923 57.6533 102.364 58.6331 104.169 60.438C106.026 62.1398 107.057 64.5635 107.057 67.1419ZM90.5552 62.9133H97.4654C98.5999 62.9133 99.6829 63.3774 100.456 64.151C101.282 64.9761 101.694 66.059 101.694 67.1935C101.694 68.328 101.23 69.4109 100.456 70.236C99.6313 71.0096 98.5999 71.4737 97.4654 71.4737H91.6382V72.5566H97.3623C100.302 72.5566 102.674 70.1329 102.674 67.1935C102.674 65.7496 102.107 64.4088 101.075 63.3774C100.044 62.3976 98.7546 61.8304 97.3107 61.8304H89.7817C90.1427 62.1913 90.349 62.5523 90.5552 62.9133ZM91.6898 67.5545V69.7719H97.4654C98.9093 69.7719 100.095 68.5858 100.095 67.1419C100.095 66.42 99.8376 65.7496 99.3219 65.2855C98.8062 64.8213 98.1874 64.5119 97.4654 64.5119H91.1741C91.535 65.4917 91.6898 66.5231 91.6898 67.5545ZM105.407 67.1419C105.407 64.976 104.582 62.9649 103.035 61.4694C101.539 59.9739 99.5797 59.1488 97.4654 59.1488H87.2033C87.6674 59.4582 88.08 59.7676 88.4409 60.1286H97.3623C99.2188 60.1286 100.972 60.8506 102.261 62.1398C103.602 63.4806 104.324 65.2339 104.324 67.0904C104.324 68.9984 103.602 70.7517 102.261 72.0409C100.972 73.3302 99.2188 74.0521 97.3623 74.0521H91.6382V74.9803H97.4654C101.849 75.135 105.407 71.5253 105.407 67.1419Z" fill="#323232"/>
<path d="M33.5705 102.467C33.1063 102.054 33.1579 101.487 33.7767 100.817L37.6959 96.4848C38.3148 95.8144 38.8305 95.7113 39.2946 96.1238C39.7587 96.5364 39.7071 97.1037 39.0883 97.774L35.1691 102.106C34.6018 102.776 34.0346 102.879 33.5705 102.467Z" fill="white"/>
<path d="M37.6447 105.973C36.4071 105.045 35.8914 103.807 36.3039 103.292C36.6133 102.879 37.0775 102.828 37.5931 103.189C38.0057 103.498 38.3151 104.22 38.9855 104.736C39.398 105.045 39.9653 104.994 40.2747 104.633C40.6873 104.117 40.3778 103.601 39.8106 102.828C38.8308 101.487 38.5729 100.559 39.3465 99.5273C40.2231 98.3412 41.8733 98.1349 43.3688 99.2179C44.5033 100.043 44.8643 101.023 44.4518 101.59C44.1423 102.003 43.7298 102.054 43.2657 101.745C42.9047 101.487 42.6469 100.92 42.2343 100.61C41.7702 100.249 41.3061 100.301 41.0482 100.61C40.6873 101.074 41.0998 101.487 41.6671 102.312C42.5953 103.653 42.75 104.736 41.9765 105.716C40.9967 106.953 39.2433 107.159 37.6447 105.973Z" fill="white"/>
<path d="M49.4018 103.086C51.5677 104.22 52.1865 106.592 50.9488 108.913C49.7112 111.233 47.3906 112.007 45.2247 110.872C43.0588 109.686 42.44 107.366 43.6777 105.045C44.9669 102.673 47.2875 101.951 49.4018 103.086ZM46.1014 109.274C47.1328 109.841 48.3704 109.377 49.0924 107.985C49.8659 106.541 49.608 105.303 48.5251 104.684C47.4422 104.117 46.2561 104.581 45.4826 106.025C44.7606 107.417 45.0184 108.707 46.1014 109.274Z" fill="white"/>
<path d="M56.4163 115.255C55.7974 115.049 55.6427 114.533 55.9006 113.708L57.4476 108.603L57.2929 108.552C56.5194 108.294 56.1584 107.881 56.3131 107.365C56.4678 106.798 56.9835 106.643 57.8602 106.901L58.7884 107.159C59.5619 107.365 59.7167 107.881 59.4588 108.758L57.8086 114.224C57.4992 115.101 57.0351 115.462 56.4163 115.255Z" fill="white"/>
<path d="M64.7699 116.132C64.6667 116.803 64.2542 117.061 63.6869 116.957C63.1197 116.854 62.965 116.442 63.0681 115.771L63.2228 114.946L60.335 114.431C59.5615 114.276 59.252 114.018 59.3552 113.502C59.4583 113.09 59.7162 112.832 59.974 112.523L63.1197 109.119C63.6354 108.552 64.0479 108.397 64.6667 108.5C65.5434 108.655 66.0075 109.377 65.8012 110.666L65.234 113.657C65.3371 113.657 65.4403 113.657 65.4918 113.709C66.1622 113.812 66.4201 114.224 66.3685 114.688C66.2654 115.256 65.8528 115.462 65.0793 115.359L64.9246 115.307L64.7699 116.132ZM63.5322 113.296L64.0995 110.15L61.5726 112.935L63.5322 113.296Z" fill="white"/>
<path d="M71.2665 109.016C73.3293 109.119 74.6701 110.769 74.5669 113.554C74.4638 116.338 72.9683 117.937 70.9056 117.834C68.8428 117.731 67.502 116.081 67.6052 113.296C67.7083 110.511 69.1522 108.913 71.2665 109.016ZM69.6163 113.347C69.5648 115.049 70.132 116.029 71.0087 116.081C71.9369 116.132 72.5558 115.204 72.6073 113.451C72.6589 111.749 72.0916 110.769 71.215 110.717C70.2867 110.717 69.6679 111.646 69.6163 113.347Z" fill="white"/>
<path d="M78.7452 108.758C80.8079 108.552 82.4066 109.996 82.6644 112.78C82.9738 115.513 81.7362 117.318 79.6734 117.525C77.6107 117.731 76.0636 116.287 75.7542 113.502C75.4448 110.769 76.6824 108.964 78.7452 108.758ZM77.7138 113.296C77.9201 114.998 78.5905 115.874 79.5187 115.771C80.3954 115.668 80.9111 114.688 80.7048 112.987C80.4985 111.285 79.8281 110.408 78.9515 110.511C78.0748 110.563 77.5591 111.594 77.7138 113.296Z" fill="white"/>
<path d="M86.3777 116.236C85.7589 116.39 85.3463 116.029 85.14 115.153L84.0055 109.944L83.8508 109.996C83.0257 110.202 82.51 109.996 82.4069 109.429C82.2522 108.861 82.6648 108.449 83.5414 108.294L84.4697 108.088C85.2432 107.933 85.6042 108.243 85.8104 109.171L87.0481 114.74C87.2028 115.617 86.9965 116.081 86.3777 116.236Z" fill="white"/>
<path d="M88.3889 109.841C88.9561 109.686 89.5234 109.996 89.6781 110.563C89.8328 111.13 89.5234 111.698 88.9562 111.904C88.3889 112.058 87.8216 111.749 87.6154 111.182C87.5122 110.615 87.8216 109.996 88.3889 109.841ZM89.3687 113.245C89.936 113.09 90.5032 113.399 90.6579 113.967C90.8126 114.534 90.5032 115.101 89.936 115.307C89.3687 115.462 88.8014 115.153 88.5952 114.585C88.492 114.018 88.8014 113.399 89.3687 113.245Z" fill="white"/>
<path d="M97.1545 111.698C97.3608 112.265 97.0514 112.677 96.2263 112.987L93.0806 114.224C92.3586 114.482 91.8945 114.379 91.6882 113.812C91.5335 113.399 91.8429 112.626 92.3586 111.337C93.0806 109.48 93.4416 108.294 93.1837 107.727C93.029 107.263 92.6165 107.108 92.2039 107.263C91.8429 107.417 91.6882 107.778 91.6882 108.397C91.6882 109.068 91.6367 109.429 91.1725 109.635C90.6568 109.841 90.1412 109.635 89.9349 109.068C89.7802 108.655 89.7286 107.985 89.9349 107.417C90.1927 106.541 90.8115 105.922 91.6366 105.613C93.1321 104.994 94.5245 105.613 95.0402 106.953C95.5559 108.191 94.9886 109.686 93.9572 112.059L95.6074 111.44C96.4325 111.027 96.9482 111.13 97.1545 111.698Z" fill="white"/>
<path d="M97.7218 102.724C99.5267 101.693 101.589 102.467 102.93 104.89C104.271 107.314 103.858 109.428 102.054 110.46C100.249 111.491 98.2375 110.718 96.8451 108.294C95.5044 105.819 95.9169 103.704 97.7218 102.724ZM98.5469 107.262C99.372 108.758 100.352 109.325 101.177 108.861C101.95 108.397 102.002 107.314 101.177 105.819C100.352 104.323 99.372 103.807 98.5469 104.22C97.825 104.684 97.7218 105.767 98.5469 107.262Z" fill="white"/>
<path d="M107.675 106.644C107.159 107.005 106.644 106.85 106.128 106.128L103.034 101.796L102.879 101.899C102.209 102.363 101.642 102.415 101.332 101.951C100.971 101.487 101.177 100.971 101.899 100.455L102.673 99.8882C103.343 99.4241 103.807 99.5788 104.323 100.352L107.675 104.993C108.191 105.715 108.191 106.283 107.675 106.644Z" fill="white"/>
<path d="M108.447 98.6506C109.53 97.7224 111.077 97.8771 112.16 99.0631C113.346 100.404 113.295 102.312 111.902 103.55C110.768 104.529 109.376 104.684 108.808 104.065C108.499 103.704 108.499 103.189 108.86 102.931C109.272 102.57 110.098 102.776 110.716 102.26C111.18 101.848 111.232 101.074 110.768 100.507C110.304 99.9398 109.685 99.8882 109.221 100.301C108.86 100.61 108.705 101.126 108.344 101.435C107.983 101.745 107.622 101.693 107.261 101.281C107.21 101.177 107.055 101.023 106.9 100.765L105.663 98.96C105.147 98.238 105.353 97.8771 105.92 97.3614L107.674 95.8143C108.293 95.2986 108.808 95.2471 109.169 95.6596C109.53 96.0722 109.427 96.5878 108.86 97.052L107.364 98.3412L107.932 99.1663C108.086 99.0116 108.241 98.8053 108.447 98.6506Z" fill="white"/>
<path d="M24.6482 30.013C25.0607 30.2708 25.1123 30.6833 24.7513 31.3022L24.1325 32.3335L25.2154 32.9524L25.7311 32.0241C26.0921 31.4053 26.4531 31.2506 26.9172 31.4569C27.3297 31.7147 27.3813 32.1273 27.0203 32.7461L26.5047 33.6743L27.6392 34.3447L28.258 33.2618C28.619 32.6429 28.9799 32.4882 29.4441 32.6945C29.8566 32.9524 29.9082 33.3649 29.5472 33.9837L28.619 35.5824C28.2064 36.2527 27.897 36.3559 27.2266 35.9433L23.0496 33.468C22.3792 33.0555 22.1729 32.7461 22.5854 32.0241L23.4105 30.5802C23.8231 29.9614 24.2356 29.7551 24.6482 30.013Z" fill="white"/>
<path d="M26.8141 30.4254C26.1953 30.0129 26.0406 29.6003 26.35 29.1878C26.5047 28.9299 26.7626 28.8784 27.1751 28.9299C27.072 28.4658 27.1751 28.0533 27.4845 27.5891C28.1549 26.6609 29.0832 26.5578 30.1661 27.3313L31.971 28.6205C32.5898 29.0331 32.7445 29.4456 32.4867 29.8582C32.1773 30.2707 31.7647 30.2191 31.1459 29.8066L29.702 28.7752C29.0316 28.3111 28.619 28.2595 28.2581 28.7237C27.9486 29.1878 28.1549 29.6003 28.7737 30.0129L30.2177 31.0442C30.8365 31.4568 30.9912 31.8693 30.7333 32.2819C30.4239 32.6944 30.0114 32.6429 29.3926 32.2303L26.8141 30.4254Z" fill="white"/>
<path d="M29.7542 26.5058C29.5995 26.4542 29.4448 26.3511 29.3932 26.2995C29.0838 26.0417 29.0322 25.5775 29.2901 25.2681C29.5479 24.9587 29.8573 24.9587 30.373 25.165L32.9515 26.2995L31.3528 23.8758C31.095 23.5148 31.095 23.2054 31.3013 22.9475C31.5591 22.6381 31.9717 22.6381 32.3326 22.896C32.4358 22.9991 32.5389 23.1023 32.642 23.3085L34.3954 26.4026C34.6532 26.8668 34.7564 27.1762 34.4469 27.5372C34.1375 27.8981 33.8281 27.8981 33.2609 27.6919L29.7542 26.5058Z" fill="white"/>
<path d="M30.8368 20.163C31.1462 19.8536 31.7135 19.8536 32.0744 20.163C32.4354 20.524 32.487 21.0397 32.126 21.4007C31.8166 21.7616 31.2493 21.7616 30.8884 21.4007C30.5789 21.0397 30.5274 20.4724 30.8368 20.163ZM36.3031 25.3714C35.9421 25.7324 35.5295 25.6293 34.9623 25.1136L32.6933 22.9477C32.126 22.432 32.0229 22.0195 32.3838 21.6585C32.7448 21.2975 33.1574 21.4007 33.6731 21.9163L35.9421 24.0822C36.5609 24.5979 36.664 25.0105 36.3031 25.3714Z" fill="white"/>
<path d="M34.3446 21.2979C33.8289 20.7307 33.7258 20.3181 34.0868 20.0087C34.293 19.8024 34.5509 19.7508 34.9118 19.9056C34.9118 19.4414 35.015 19.0805 35.2728 18.8742C35.5822 18.5648 36.0979 18.5648 36.3558 18.8742C36.7683 19.3383 36.3558 19.8024 36.0979 20.4212C35.9432 20.8338 36.0464 21.0401 36.4073 21.401L37.4903 22.5871C38.006 23.1544 38.1091 23.5669 37.7481 23.9279C37.3871 24.2889 36.9746 24.1342 36.4589 23.6185L34.3446 21.2979Z" fill="white"/>
<path d="M37.7977 16.6567C38.9322 15.7285 40.4276 16.0379 41.459 17.2755C42.4904 18.5132 42.3873 20.0602 41.3043 20.9884C40.1698 21.8651 38.6743 21.6588 37.6429 20.3696C36.6116 19.0804 36.6631 17.5334 37.7977 16.6567ZM40.3245 19.8024C40.7371 19.4414 40.7371 18.8226 40.2214 18.1522C39.7057 17.5334 39.0869 17.4302 38.6743 17.7396C38.2618 18.1006 38.2102 18.7194 38.7259 19.3383C39.2416 20.0086 39.912 20.1634 40.3245 19.8024Z" fill="white"/>
<path d="M40.995 15.6255C40.5824 15.0067 40.5824 14.5426 40.995 14.2847C41.2528 14.13 41.5106 14.13 41.82 14.3363C41.8716 13.8722 42.1295 13.5112 42.5936 13.2018C43.5218 12.583 44.45 12.7893 45.172 13.9238L46.4096 15.7802C46.8222 16.3991 46.8222 16.8632 46.4096 17.121C45.9971 17.3789 45.5845 17.2242 45.172 16.6053L44.1922 15.1614C43.7281 14.491 43.3671 14.2847 42.903 14.5942C42.4389 14.9036 42.4904 15.3677 42.903 15.9865L43.8828 17.482C44.2953 18.1008 44.2953 18.5649 43.8828 18.8228C43.4702 19.0806 43.0577 18.9259 42.6451 18.3071L40.995 15.6255Z" fill="white"/>
<path d="M45.5848 12.5827C45.2754 11.9123 45.2754 11.4997 45.7395 11.2419C45.9973 11.1387 46.2552 11.1388 46.5646 11.3966C46.6677 10.9325 46.9256 10.6231 47.3897 10.4168C47.9569 10.1589 48.4726 10.1589 48.9883 10.4168C49.143 9.7464 49.4524 9.38542 49.9681 9.12758C50.8448 8.66346 51.773 9.02444 52.3403 10.2105L53.3201 12.1701C53.6295 12.8405 53.6295 13.3046 53.1654 13.5109C52.7012 13.7172 52.3403 13.5109 52.0308 12.8405L51.2573 11.2935C50.8963 10.5715 50.5869 10.3137 50.1228 10.5199C49.6587 10.7778 49.6587 11.1903 49.9681 11.8607L50.7416 13.4593C51.051 14.1297 51.051 14.5938 50.5869 14.8001C50.1228 15.0064 49.7618 14.8001 49.4524 14.1297L48.6789 12.5827C48.3179 11.8607 48.0085 11.6029 47.596 11.8091C47.1318 12.067 47.1318 12.4795 47.4412 13.1499L48.2148 14.7485C48.5242 15.4189 48.5242 15.8831 48.0601 16.0893C47.596 16.2956 47.235 16.0893 46.9256 15.4189L45.5848 12.5827Z" fill="white"/>
<path d="M56.1046 11.0871C56.7749 10.8292 57.0844 10.2104 57.3938 10.1073C57.7032 10.0041 58.0126 10.1588 58.1157 10.4683C58.322 11.0355 57.6516 12.0153 56.4655 12.4279C55.1247 12.892 53.6808 12.17 53.1651 10.6745C52.6495 9.17904 53.2167 7.73513 54.5575 7.27101C55.8467 6.80689 57.1875 7.58042 57.6516 8.9212C57.8063 9.43689 57.6516 9.59159 57.1875 9.7463L54.7122 10.623C55.0216 11.0871 55.5373 11.2934 56.1046 11.0871ZM56.2077 9.02434C56.0014 8.50865 55.4857 8.30238 55.0216 8.45708C54.5575 8.61179 54.2996 9.07591 54.4028 9.64316L56.2077 9.02434Z" fill="white"/>
<path d="M57.9097 7.42578C57.755 6.70382 57.8581 6.29127 58.3738 6.18813C58.6316 6.13656 58.8895 6.2397 59.1473 6.49754C59.3536 6.085 59.7146 5.82715 60.2818 5.67245C61.3648 5.4146 62.1899 5.93029 62.4993 7.2195L63.015 9.38538C63.1697 10.1073 63.0665 10.5199 62.5508 10.6746C62.0867 10.7777 61.7773 10.4683 61.571 9.74636L61.1585 8.0446C60.9522 7.27107 60.6944 6.91009 60.1271 7.0648C59.6114 7.2195 59.4567 7.63205 59.663 8.40558L60.0755 10.1073C60.2303 10.8293 60.1271 11.2418 59.6114 11.3966C59.1473 11.4997 58.8379 11.1903 58.6316 10.4683L57.9097 7.42578Z" fill="white"/>
<path d="M63.4269 6.5494C62.9112 6.65254 62.5502 6.44626 62.4986 6.03372C62.4471 5.62117 62.7049 5.36332 63.2722 5.20862L63.169 4.53823C63.0659 3.81627 63.2206 3.40372 63.6847 3.30058C64.1488 3.19745 64.4582 3.55843 64.5614 4.28039L64.6645 4.95078H64.7676C65.3349 4.84764 65.6959 5.05391 65.799 5.46646C65.8506 5.87901 65.5927 6.18842 64.9739 6.29156H64.8708L65.3349 8.97312C65.438 9.69508 65.2833 10.1076 64.8192 10.2108C64.3035 10.3139 64.0457 9.95293 63.891 9.23097L63.4269 6.5494Z" fill="white"/>
<path d="M68.4308 9.79781C67.2447 9.90094 66.1618 8.86957 66.0071 7.27095C65.8524 5.72389 66.7806 4.43468 68.0183 4.33154C68.534 4.27997 68.8949 4.43468 69.2043 4.79566C69.359 4.48625 69.5653 4.27997 69.8747 4.2284C70.3904 4.17684 70.6483 4.53782 70.6998 5.25977L70.9577 8.35389C71.0092 9.12742 70.803 9.4884 70.3388 9.53996C70.0294 9.59153 69.7716 9.43683 69.6169 9.07585C69.3075 9.53996 68.9465 9.79781 68.4308 9.79781ZM68.534 8.30232C69.0496 8.25075 69.4106 7.73507 69.359 6.96154C69.3075 6.18801 68.8434 5.77546 68.3277 5.82703C67.812 5.8786 67.451 6.39428 67.5026 7.11624C67.5542 7.94134 68.0183 8.35389 68.534 8.30232Z" fill="white"/>
<path d="M72.2962 2.01117C72.7603 2.01117 73.0181 2.37215 73.0181 3.14568L73.1213 8.45724C73.1213 9.23077 72.915 9.59175 72.3993 9.59175C71.8836 9.59175 71.6774 9.23077 71.6774 8.45724L71.5742 3.14568C71.5742 2.42372 71.7805 2.01117 72.2962 2.01117Z" fill="white"/>
<path d="M77.7626 3.60979C77.9689 2.88783 78.2783 2.57842 78.8971 2.68155C79.4643 2.73312 79.7222 3.0941 79.8253 3.76449L80.2894 8.04468L81.7849 4.02234C81.9912 3.40351 82.4037 3.14567 82.9194 3.24881C83.5898 3.35195 83.7961 3.76449 83.7961 4.53802L83.8992 9.38546C83.8992 9.54017 83.8992 9.69487 83.8992 9.74644C83.8477 10.2621 83.4867 10.52 83.0226 10.4684C82.61 10.4168 82.4037 10.0559 82.4037 9.43703L82.5069 5.25998C81.5271 7.99311 80.9598 9.54017 80.6504 9.84958C80.4957 10.0559 80.2894 10.1074 79.98 10.0559C79.5159 10.0043 79.2581 9.74644 79.2065 9.12762L78.7939 4.7443L77.7626 8.71507C77.5563 9.38546 77.2985 9.69488 76.8343 9.64331C76.4218 9.59174 76.164 9.23076 76.2155 8.71507C76.2155 8.61194 76.2671 8.45723 76.3187 8.25096L77.7626 3.60979Z" fill="white"/>
<path d="M85.8092 11.1907C84.6747 10.8813 83.9528 9.54053 84.3653 7.99347C84.7779 6.49798 86.0671 5.62131 87.2532 5.93072C87.7173 6.03386 88.0267 6.34327 88.233 6.75582C88.4908 6.49798 88.7486 6.39484 89.0065 6.44641C89.4706 6.54955 89.6253 6.9621 89.419 7.73563L88.6455 10.7266C88.4392 11.4486 88.1298 11.758 87.6657 11.6548C87.3563 11.5517 87.2016 11.3454 87.15 10.9329C86.7375 11.2423 86.2734 11.2939 85.8092 11.1907ZM86.4281 9.79837C86.9437 9.95307 87.4594 9.54053 87.6657 8.81857C87.872 8.09661 87.5626 7.52935 87.0984 7.37464C86.5828 7.21994 86.0671 7.58092 85.8608 8.30288C85.6545 9.12798 85.9124 9.69523 86.4281 9.79837Z" fill="white"/>
<path d="M90.3996 7.99342C90.6574 7.27146 91.0184 7.01362 91.4825 7.2199C91.7404 7.32303 91.8951 7.52931 91.9467 7.94186C92.3592 7.68401 92.8233 7.68401 93.339 7.89029C94.422 8.30284 94.7314 9.1795 94.2673 10.4171L93.4937 12.4799C93.2359 13.2018 92.8749 13.4597 92.4108 13.305C91.9467 13.1503 91.8435 12.6862 92.1014 12.0158L92.7202 10.3656C93.0296 9.59205 92.978 9.1795 92.4108 8.97323C91.8951 8.76695 91.5341 9.07636 91.2763 9.79832L90.6574 11.4485C90.3996 12.1705 90.0386 12.4283 89.5745 12.2736C89.1104 12.1189 89.0072 11.6548 89.2651 10.9844L90.3996 7.99342Z" fill="white"/>
<path d="M95.2968 14.6455C94.2139 14.1299 93.8014 12.6859 94.5233 11.242C95.1937 9.84967 96.6376 9.23085 97.7721 9.79811C98.2363 10.0044 98.4941 10.3138 98.5972 10.8295C98.9066 10.6232 99.1645 10.5716 99.4223 10.6748C99.8864 10.881 99.8865 11.2936 99.577 12.0156L98.1847 14.8003C97.8753 15.4706 97.4627 15.7285 97.0502 15.4706C96.7408 15.3159 96.6376 15.1097 96.6892 14.6971C96.2251 14.8518 95.761 14.8518 95.2968 14.6455ZM96.1735 13.4079C96.6376 13.6657 97.2049 13.3563 97.5659 12.6859C97.8753 12.0156 97.7721 11.3967 97.2565 11.1905C96.7923 10.9326 96.2251 11.1905 95.8641 11.8608C95.5031 12.5828 95.6578 13.2016 96.1735 13.4079Z" fill="white"/>
<path d="M99.731 17.018C98.7512 16.3992 98.5449 14.9552 99.37 13.6145C100.195 12.2737 101.691 11.8611 102.722 12.48C103.134 12.7378 103.341 13.0988 103.444 13.5629C103.753 13.3566 104.063 13.3566 104.269 13.5113C104.682 13.7692 104.682 14.1817 104.321 14.8521L102.67 17.4821C102.155 18.2556 101.742 18.8229 101.226 19.1323C100.453 19.5448 99.6278 19.4933 98.7512 18.926C97.6167 18.2041 97.2041 17.379 97.5135 16.8633C97.7198 16.5539 98.0808 16.4507 98.3902 16.6054C98.6996 16.8117 98.8543 17.379 99.4731 17.7915C100.092 18.1525 100.659 17.9978 101.123 17.2758C101.175 17.2243 101.175 17.1727 101.226 17.1211C100.711 17.3274 100.195 17.3274 99.731 17.018ZM100.762 16.0382C101.226 16.3476 101.845 16.0898 102.258 15.4709C102.67 14.8005 102.567 14.1817 102.103 13.8723C101.639 13.6145 101.02 13.7692 100.608 14.4396C100.195 15.11 100.298 15.7288 100.762 16.0382Z" fill="white"/>
<path d="M105.146 19.1318C105.714 19.5959 106.384 19.4412 106.642 19.6475C106.9 19.8538 106.951 20.2148 106.745 20.4726C106.384 20.9367 105.249 20.9367 104.218 20.1632C103.084 19.2865 102.929 17.6879 103.857 16.4502C104.837 15.2126 106.384 14.9032 107.467 15.7283C108.55 16.5534 108.653 18.1004 107.776 19.1834C107.467 19.5959 107.209 19.5444 106.848 19.235L104.785 17.6363C104.527 18.2036 104.631 18.7708 105.146 19.1318ZM106.951 18.1004C107.261 17.6363 107.157 17.0691 106.745 16.8112C106.332 16.5018 105.817 16.5534 105.404 16.9659L106.951 18.1004Z" fill="white"/>
<path d="M109.272 18.6165C109.788 18.1008 110.2 17.9976 110.561 18.307C110.768 18.5133 110.819 18.7712 110.716 19.1321C111.18 19.0806 111.541 19.2353 111.902 19.5963C112.366 20.0604 112.521 20.5245 112.418 21.1433C113.088 21.0917 113.552 21.2464 113.965 21.659C114.687 22.381 114.635 23.3092 113.707 24.2374L112.16 25.8361C111.644 26.3517 111.232 26.4549 110.871 26.1455C110.51 25.8361 110.613 25.3719 111.129 24.8563L112.366 23.6186C112.934 23.0513 113.037 22.6388 112.727 22.3294C112.366 21.9684 111.954 22.1231 111.386 22.6388L110.149 23.8764C109.633 24.3921 109.221 24.4953 108.86 24.1859C108.499 23.8249 108.602 23.4123 109.117 22.8966L110.355 21.659C110.922 21.0917 111.026 20.6792 110.716 20.3698C110.355 20.0088 109.943 20.1635 109.375 20.6792L108.138 21.9168C107.622 22.4325 107.209 22.5357 106.848 22.2263C106.487 21.8653 106.591 21.4527 107.106 20.8855L109.272 18.6165Z" fill="white"/>
<path d="M114.172 28.0019C114.636 28.5692 115.307 28.6208 115.513 28.8786C115.719 29.1365 115.668 29.4974 115.41 29.7037C114.946 30.0647 113.811 29.8069 113.038 28.827C112.161 27.6925 112.367 26.1455 113.605 25.1657C114.843 24.1859 116.441 24.2374 117.266 25.3204C118.143 26.4033 117.834 27.8988 116.751 28.7755C116.338 29.0849 116.132 28.9818 115.822 28.6208L114.172 26.6096C113.76 27.0221 113.76 27.5378 114.172 28.0019ZM116.183 27.4347C116.596 27.0737 116.596 26.5065 116.287 26.1455C115.977 25.7845 115.461 25.6814 114.946 25.9392L116.183 27.4347Z" fill="white"/>
<path d="M118.194 28.4658C118.812 28.0533 119.276 28.0533 119.534 28.4658C119.689 28.7236 119.689 28.9815 119.483 29.2909C119.947 29.3425 120.308 29.6003 120.617 30.0644C121.236 30.9927 121.03 31.9209 119.895 32.6428L118.039 33.8805C117.42 34.293 116.956 34.293 116.698 33.8805C116.44 33.4679 116.595 33.0554 117.214 32.6428L118.658 31.663C119.328 31.1989 119.534 30.8379 119.225 30.3738C118.915 29.9097 118.451 29.9613 117.833 30.3738L116.337 31.3536C115.718 31.7662 115.254 31.7662 114.996 31.3536C114.738 30.9411 114.893 30.5285 115.512 30.116L118.194 28.4658Z" fill="white"/>
<path d="M120.875 33.365C120.617 32.9009 120.72 32.5399 121.081 32.3337C121.442 32.1274 121.803 32.2821 122.113 32.7462L122.68 32.4368C123.35 32.0758 123.763 32.0758 124.021 32.5399C124.279 32.9525 124.021 33.365 123.402 33.726L122.835 34.0354L122.886 34.1386C123.144 34.6542 123.092 35.0668 122.731 35.2731C122.37 35.4793 122.009 35.3246 121.7 34.809L121.649 34.7058L119.276 36.0466C118.606 36.4076 118.193 36.4076 117.936 35.9435C117.678 35.5309 117.884 35.1184 118.554 34.7574L120.875 33.365Z" fill="white"/>
</g>
<defs>
<clipPath id="clip0">
<rect width="146.197" height="120" fill="white"/>
</clipPath>
</defs>
</svg>
