<svg width="171" height="171" viewBox="0 0 171 171" fill="none" xmlns="http://www.w3.org/2000/svg">
<path d="M20.5063 48.5745L21.3129 47.2668L30.2778 52.263L29.4711 53.5708L20.5063 48.5745Z" fill="#323232"/>
<path d="M31.875 49.1068C31.2187 49.5731 30.6455 49.836 30.0599 49.9392L29.4625 48.8354C29.9803 48.7081 30.5535 48.4453 31.0866 48.0906C31.6674 47.7141 32.1603 47.2676 32.5453 46.7053C33.1012 46.0096 33.3504 45.3993 33.4086 44.8766C33.419 44.3759 33.2384 43.9627 32.8867 43.6831C32.623 43.4734 32.3039 43.3993 31.9972 43.4848C31.6704 43.5244 31.3361 43.6777 31.0418 43.9228C30.7275 44.1221 30.3579 44.4569 29.8449 44.8575C29.2087 45.3697 28.6479 45.7921 28.2104 46.103C27.7528 46.3679 27.255 46.541 26.7649 46.6005C26.227 46.6818 25.6843 46.4898 25.1769 46.1162C24.7574 45.8126 24.4134 45.4193 24.2404 44.8924C24.0673 44.3655 24.0577 43.8189 24.1913 43.2065C24.325 42.5941 24.6975 41.8722 25.2534 41.1764C25.6106 40.682 26.0558 40.2574 26.5687 39.8569C27.0817 39.4563 27.5393 39.1914 28.0848 38.9963L28.7299 40.0782C28.2322 40.2514 27.7746 40.5163 27.3572 40.8731C26.9196 41.1839 26.57 41.5647 26.2682 41.9235C25.76 42.5974 25.463 43.2296 25.4526 43.7303C25.4422 44.2311 25.6228 44.6442 26.0222 44.902C26.286 45.1117 26.6051 45.1858 26.9118 45.1003C27.2185 45.0148 27.5729 44.9073 27.8671 44.6622C28.1814 44.463 28.5989 44.1062 29.0641 43.7276C29.7003 43.2154 30.2611 42.7929 30.6508 42.504C31.1084 42.239 31.6061 42.0659 32.0963 42.0065C32.6342 41.9252 33.109 42.0932 33.6843 42.4907C34.1038 42.7944 34.4478 43.1877 34.6208 43.7146C34.7939 44.2414 34.8035 44.7881 34.6221 45.4224C34.4407 46.0566 34.116 46.7566 33.5601 47.4524C33.0997 48.1044 32.5313 48.6406 31.875 49.1068Z" fill="#323232"/>
<path d="M37.8253 41.0905C36.8598 41.3684 35.9571 41.3975 35.0496 41.1537C34.1421 40.91 33.3175 40.4631 32.6235 39.7914C31.9295 39.1196 31.5013 38.2709 31.2838 37.3805C31.0663 36.4901 31.1272 35.5821 31.4187 34.6782C31.7102 33.7744 32.2524 32.9205 33.0177 32.1844C33.783 31.4482 34.6484 30.9412 35.5662 30.6851C36.5318 30.4072 37.4344 30.3781 38.3219 30.5761C39.2294 30.8198 40.054 31.2667 40.7004 31.9603C41.3944 32.632 41.8702 33.4589 42.04 34.3711C42.2575 35.2615 42.1967 36.1696 41.9052 37.0734C41.6137 37.9773 41.0715 38.8311 40.3062 39.5673C39.5886 40.2816 38.7432 40.8344 37.8253 41.0905ZM40.604 36.8452C40.8327 36.1902 40.8307 35.5311 40.6933 34.824C40.5559 34.1169 40.2002 33.5649 39.6816 33.0327C39.163 32.5006 38.5614 32.1714 37.9047 31.9777C37.2002 31.8058 36.5282 31.839 35.8486 31.9858C35.169 32.1325 34.5419 32.5303 33.9748 33.0655C33.4078 33.6007 33.0438 34.2077 32.8352 34.9085C32.6265 35.6093 32.5809 36.2904 32.7459 36.9298C32.931 37.615 33.239 38.1888 33.7576 38.721C34.2762 39.2532 34.8778 39.5823 35.5345 39.7761C36.239 39.948 36.911 39.9147 37.5706 39.7221C38.2778 39.5077 38.9249 39.1558 39.4443 38.6425C39.9637 38.1291 40.423 37.4783 40.604 36.8452Z" fill="#323232"/>
<path d="M49.1321 21.5973C50.2475 21.914 51.2567 22.776 52.0918 24.1593C52.6778 25.1048 53.0322 26.0462 53.087 26.9593C53.1417 27.8724 52.9724 28.6674 52.5035 29.4342C52.0824 30.179 51.4372 30.8058 50.5882 31.3605C50.1296 31.6258 49.719 31.8692 49.2681 32.0206C48.8172 32.1721 48.3941 32.2556 47.9987 32.2712L47.8989 30.9925C48.526 30.981 49.1683 30.7418 49.8939 30.299C50.8387 29.7004 51.3957 29.0036 51.5727 28.0947C51.7496 27.1858 51.511 26.2466 50.8646 25.1631L50.676 24.8633C50.6177 25.3867 50.4435 25.908 50.1334 26.3812C49.7755 26.8764 49.3294 27.3016 48.7752 27.6107C48.1932 27.9878 47.5987 28.2051 46.9918 28.2625C46.3848 28.3199 45.8334 28.2415 45.3374 28.0272C44.8214 27.7671 44.4288 27.3951 44.0917 26.8873C43.7345 26.3336 43.609 25.784 43.6271 25.1687C43.6653 24.5993 43.8193 24.032 44.1571 23.4909C44.495 22.9498 44.9889 22.5027 45.5709 22.1256C46.8431 21.4874 48.0167 21.2806 49.1321 21.5973ZM49.3483 25.6373C49.6029 25.2999 49.7215 24.9144 49.7444 24.5728C49.7673 24.2311 49.6744 23.8874 49.4656 23.5416C49.277 23.2417 49.0127 23.0317 48.7006 22.8436C48.3607 22.7234 47.9931 22.6712 47.5977 22.6868C47.1544 22.7244 46.7237 22.9218 46.2651 23.1871C45.6831 23.5642 45.3051 24.0134 45.0831 24.5566C44.9089 25.0779 44.9665 25.6034 45.3036 26.1112C45.6406 26.619 46.061 26.923 46.6124 27.0014C47.1639 27.0799 47.7785 26.9086 48.4083 26.5096C48.819 26.2662 49.1415 25.9528 49.3483 25.6373Z" fill="#323232"/>
<path d="M57.2582 26.8638C56.5234 26.7593 55.7838 26.3812 55.1475 25.8454C54.491 25.2637 53.9857 24.5023 53.5435 23.4914C53.1214 22.5265 52.9308 21.5657 53.012 20.701C53.0252 19.8124 53.2824 19.0877 53.7435 18.435C54.2045 17.7824 54.7938 17.2916 55.5591 16.9408C56.3244 16.59 57.0946 16.5128 57.8294 16.6173C58.5642 16.7218 59.3038 17.0999 59.9402 17.6357C60.5966 18.2174 61.1019 18.9788 61.5441 19.9897C61.9662 20.9546 62.1568 21.9154 62.0756 22.7801C62.0624 23.6688 61.8052 24.3935 61.3442 25.0461C60.8831 25.6987 60.2939 26.1895 59.5285 26.5403C58.7632 26.8911 58.0131 27.0142 57.2582 26.8638ZM60.5374 23.5955C60.7544 22.7789 60.6116 21.7962 60.1369 20.5796C59.6344 19.4308 59.041 18.5995 58.3014 18.2214C57.5617 17.8433 56.847 17.7847 56.0138 18.1115C55.2484 18.4623 54.6994 19.045 54.4824 19.8616C54.2653 20.6782 54.4081 21.6609 54.8828 22.8775C55.3854 24.0263 55.9787 24.8576 56.7183 25.2357C57.458 25.6138 58.2205 25.6504 59.0059 25.3456C59.8392 25.0188 60.3203 24.4121 60.5374 23.5955Z" fill="#323232"/>
<path d="M66.166 23.3626C65.439 23.1443 64.7951 22.7224 64.2143 22.0509C63.6336 21.3795 63.2718 20.5525 62.9732 19.4759C62.6946 18.4453 62.6676 17.4649 62.8167 16.6244C62.9658 15.7838 63.3186 15.0154 63.8676 14.4328C64.4165 13.8502 65.0459 13.4514 65.8513 13.1926C66.6567 12.9337 67.4191 12.9703 68.1461 13.1886C68.8732 13.4069 69.5171 13.8288 70.0978 14.5002C70.6786 15.1717 71.0404 15.9987 71.339 17.0752C71.6176 18.1058 71.6446 19.0863 71.4955 19.9268C71.3464 20.7673 70.9936 21.5358 70.4446 22.1184C69.8957 22.701 69.2663 23.0998 68.4609 23.3586C67.7033 23.5956 66.8931 23.5809 66.166 23.3626ZM69.8771 20.5584C70.2098 19.744 70.1828 18.7635 69.8717 17.5272C69.5606 16.2909 69.063 15.4159 68.3789 14.9021C67.6949 14.3883 67.008 14.2619 66.1347 14.4967C65.3293 14.7556 64.7401 15.2463 64.4074 16.0607C64.0747 16.8751 64.1016 17.8555 64.4128 19.0918C64.7239 20.3281 65.2215 21.2032 65.9055 21.717C66.5896 22.2308 67.3243 22.3353 68.1498 22.1223C69.003 21.8415 69.5242 21.3268 69.8771 20.5584Z" fill="#323232"/>
<path d="M75.4261 11.2851L76.8483 21.5242L75.3282 21.772L74.1039 12.7759L71.7268 13.1918L71.5774 11.9268L75.4261 11.2851Z" fill="#323232"/>
<path d="M79.1476 21.0766C78.9499 20.8899 78.8005 20.6811 78.7956 20.4062C78.7907 20.1314 78.8543 19.8807 79.0549 19.6783C79.2554 19.4758 79.4762 19.3196 79.7577 19.3018C80.0393 19.284 80.2929 19.3344 80.4906 19.5211C80.6883 19.7079 80.7896 19.9387 80.8426 20.1915C80.8957 20.4443 80.7839 20.7171 80.6036 20.9657C80.4031 21.1681 80.1823 21.3244 79.9007 21.3422C79.5989 21.3138 79.3935 21.2414 79.1476 21.0766ZM78.7311 15.116C78.5335 14.9292 78.384 14.7204 78.3791 14.4456C78.3742 14.1707 78.4378 13.92 78.6384 13.7176C78.8389 13.5152 79.0597 13.3589 79.3412 13.3411C79.6228 13.3233 79.8764 13.3737 80.0741 13.5605C80.2718 13.7472 80.3731 13.978 80.4261 14.2308C80.4792 14.4837 80.3674 14.7564 80.1871 15.005C79.9866 15.2074 79.7658 15.3637 79.4843 15.3815C79.2307 15.3311 78.9771 15.2807 78.7311 15.116Z" fill="#323232"/>
<path d="M89.4041 19.5159L89.3881 20.7915L81.8246 20.9505L81.8455 19.9484L86.225 15.79C86.746 15.2755 87.1236 14.8266 87.31 14.4655C87.4964 14.1043 87.6149 13.7192 87.59 13.3997C87.5803 12.8527 87.3995 12.4394 87.0476 12.1596C86.6956 11.8798 86.1248 11.7555 85.3828 11.7648C84.2459 11.7898 83.3175 12.1602 82.6856 12.9462L81.6776 12.0849C82.0829 11.5682 82.6642 11.1915 83.3335 10.8846C84.0028 10.5778 84.7524 10.4547 85.59 10.4016C86.6791 10.3985 87.5694 10.597 88.2053 11.1325C88.8212 11.6221 89.1426 12.3571 89.1093 13.1995C89.119 13.7464 88.9451 14.2673 88.7032 14.7642C88.4614 15.261 87.9605 15.8215 87.2683 16.4697L83.9787 19.577L89.4041 19.5159Z" fill="#323232"/>
<path d="M92.2494 20.7334C91.6821 20.2224 91.2858 19.578 91.0402 18.7542C90.7947 17.9304 90.7678 16.9513 90.9318 15.8846C91.0958 14.8179 91.4356 13.891 91.951 13.1038C92.4187 12.3385 93.0545 11.8266 93.7505 11.4523C94.4665 11.1239 95.215 11.0009 96.0438 11.0615C96.8248 11.144 97.5228 11.4297 98.1378 11.9188C98.705 12.4298 99.1014 13.0743 99.3469 13.898C99.5925 14.7218 99.6194 15.7009 99.4554 16.7676C99.2913 17.8343 98.9516 18.7613 98.4362 19.5485C97.9685 20.3138 97.3327 20.8257 96.6367 21.2C95.9207 21.5283 95.1722 21.6513 94.3434 21.5908C93.5146 21.5302 92.7966 21.1985 92.2494 20.7334ZM96.7032 19.517C97.2989 18.9133 97.7341 17.9426 97.9134 16.6486C98.0926 15.3546 98.018 14.3974 97.6292 13.6393C97.2605 12.9271 96.6179 12.5057 95.7691 12.3993C94.9202 12.2928 94.1842 12.5754 93.5885 13.179C92.9928 13.7827 92.5576 14.7534 92.3783 16.0474C92.1991 17.3414 92.2737 18.2987 92.6625 19.0568C93.0312 19.769 93.6738 20.1903 94.5226 20.2968C95.3715 20.4032 96.1076 20.1207 96.7032 19.517Z" fill="#323232"/>
<path d="M105.511 13.0831L102.676 23.1625L101.212 22.8393L103.683 14.0311L101.395 13.5332L101.759 12.2621L105.511 13.0831Z" fill="#323232"/>
<path d="M112.551 20.6421C112.986 21.3768 113.069 22.2186 112.662 23.1197C112.461 23.7066 112.085 24.154 111.621 24.5317C111.158 24.9094 110.614 25.1039 109.962 25.1829C109.311 25.2619 108.58 25.1578 107.768 24.8705C107.092 24.6311 106.443 24.324 105.898 23.8599C105.324 23.4633 104.941 22.9794 104.654 22.4518L105.751 21.5633C105.952 22.0212 106.294 22.4135 106.733 22.7621C107.171 23.1108 107.704 23.4157 108.245 23.6073C108.989 23.8706 109.633 23.905 110.129 23.7323C110.673 23.5378 111.041 23.2038 111.262 22.6628C111.51 22.054 111.453 21.5306 111.09 21.0925C110.727 20.6544 110.086 20.2339 109.004 19.8509L106.793 19.1066L109.317 14.1558L114.822 16.0274L114.325 17.2448L109.969 15.7802L108.642 18.368L109.724 18.751C111.144 19.2538 112.096 19.8616 112.551 20.6421Z" fill="#323232"/>
<path d="M126.009 34.5307C126.004 34.2577 126.067 34.0087 126.245 33.7618C126.423 33.5149 126.662 33.4055 126.94 33.3879C127.219 33.3702 127.47 33.4203 127.665 33.6058C127.861 33.7913 128.009 33.9987 128.013 34.2717C128.018 34.5447 127.955 34.7938 127.757 34.9948C127.579 35.2417 127.34 35.3511 127.082 35.4146C126.824 35.4781 126.553 35.3822 126.377 35.2425C126.161 35.0111 126.061 34.7819 126.009 34.5307Z" fill="#323232"/>
<path d="M147.726 42.616L148.535 43.8176L139.834 49.7472L139.025 48.5456L147.726 42.616Z" fill="#323232"/>
<path d="M142.074 52.745C141.965 51.9729 141.983 51.3617 142.135 50.7982L143.407 50.7081C143.282 51.2041 143.264 51.8153 143.313 52.4504C143.41 53.0638 143.575 53.701 143.881 54.2728C144.268 55.0273 144.697 55.4882 145.142 55.7227C145.586 55.9573 146.026 55.92 146.501 55.7022C146.813 55.504 147.01 55.3038 147.101 54.9883C147.191 54.6728 147.213 54.3335 147.169 53.9703C147.124 53.6071 147.039 53.1525 146.875 52.5153C146.698 51.7193 146.554 51.1278 146.497 50.6058C146.44 50.0838 146.518 49.6095 146.71 49.1374C146.903 48.6652 147.298 48.2647 147.895 47.9358C148.398 47.6505 148.912 47.524 149.439 47.5562C149.966 47.5885 150.506 47.7795 151.01 48.1511C151.514 48.5227 151.983 49.0748 152.37 49.8293C152.657 50.3555 152.849 50.9253 152.993 51.5168C153.138 52.1084 153.147 52.6521 153.089 53.1721L151.79 53.3296C151.848 52.8097 151.811 52.3334 151.706 51.8331C151.602 51.3329 151.47 50.9002 151.223 50.4653C150.856 49.7565 150.427 49.2957 149.935 49.0828C149.443 48.87 149.004 48.9073 148.576 49.1034C148.264 49.3016 148.066 49.5018 147.976 49.8173C147.886 50.1328 147.863 50.4721 147.908 50.8353C147.953 51.1985 148.057 51.6988 148.182 52.2446C148.358 53.0406 148.503 53.6322 148.56 54.1542C148.617 54.6762 148.539 55.1504 148.346 55.6225C148.154 56.0947 147.759 56.4952 147.162 56.8241C146.659 57.1094 146.145 57.2359 145.618 57.2037C145.091 57.1714 144.551 56.9804 144.027 56.5632C143.523 56.1916 143.034 55.5938 142.647 54.8393C142.435 54.2238 142.183 53.5171 142.074 52.745Z" fill="#323232"/>
<path d="M146.796 61.5788C146.952 60.6264 147.399 59.8158 148.002 59.099C148.653 58.3603 149.451 57.829 150.377 57.4592C151.323 57.1352 152.302 57.0165 153.218 57.1468C154.154 57.323 154.959 57.7243 155.681 58.3287C156.403 58.9331 156.927 59.7386 157.232 60.6994C157.538 61.6601 157.613 62.6167 157.456 63.569C157.3 64.5214 156.853 65.332 156.25 66.0489C155.647 66.7657 154.801 67.3189 153.855 67.6429C152.861 67.9887 151.93 68.0855 151.014 67.9552C150.079 67.779 149.293 67.4236 148.551 66.7733C147.829 66.1689 147.305 65.3634 147 64.4026C146.694 63.4419 146.62 62.4853 146.796 61.5788ZM149.455 65.6981C149.982 66.117 150.584 66.4463 151.296 66.5047C152.009 66.5632 152.682 66.5299 153.437 66.2934C154.172 66.0111 154.752 65.635 155.252 65.0755C155.704 64.5379 156.021 63.9524 156.162 63.2271C156.323 62.5478 156.253 61.8642 156 61.1546C155.747 60.445 155.371 59.8469 154.845 59.4279C154.298 58.9631 153.716 58.6797 152.983 58.5754C152.298 58.4492 151.598 58.5502 150.843 58.7867C150.107 59.069 149.528 59.4451 149.028 60.0046C148.576 60.5422 148.279 61.1736 148.118 61.853C147.957 62.5323 148.047 63.2617 148.28 63.9255C148.553 64.681 148.909 65.2333 149.455 65.6981Z" fill="#323232"/>
<path d="M160.686 75.9261L150.406 77.6453L150.228 76.2053L159.239 74.6873L158.934 72.4369L160.204 72.2357L160.686 75.9261Z" fill="#323232"/>
<path d="M153.479 88.4767L153.473 86.501L150.903 86.636L150.907 85.2054L153.477 85.0705L153.443 79.3702L154.508 79.3214L161.4 84.238L161.408 85.8277L154.732 81.1421L154.744 85.0935L157.036 84.9762L157.06 86.3391L154.768 86.4564L154.774 88.4321L153.479 88.4767Z" fill="#323232"/>
<path d="M151.326 91.2838C151.825 90.7252 152.527 90.2383 153.376 89.9586C154.225 89.6788 155.202 89.5603 156.279 89.6707C157.356 89.7811 158.33 90.0486 159.038 90.4929C159.747 90.9373 160.332 91.4929 160.68 92.1577C161.028 92.8226 161.117 93.5508 161.017 94.3665C160.916 95.1821 160.592 95.8802 160.093 96.4388C159.595 96.9974 158.893 97.4842 158.044 97.764C157.194 98.0438 156.218 98.1623 155.141 98.0518C154.064 97.9414 153.09 97.674 152.381 97.2296C151.625 96.8072 151.087 96.2297 150.739 95.5649C150.392 94.9 150.302 94.1717 150.403 93.3561C150.476 92.6081 150.8 91.91 151.326 91.2838ZM152.468 95.5963C153.053 96.1519 154.047 96.4652 155.307 96.6016C156.614 96.7162 157.639 96.5758 158.36 96.1348C159.082 95.6938 159.561 95.0894 159.662 94.2737C159.763 93.4581 159.51 92.7496 158.924 92.1939C158.339 91.6383 157.345 91.325 156.085 91.1886C154.778 91.074 153.753 91.2144 153.031 91.6554C152.31 92.0964 151.831 92.7008 151.73 93.5165C151.582 94.3539 151.814 95.0167 152.468 95.5963Z" fill="#323232"/>
<path d="M149.843 100.769C150.429 100.28 151.172 99.8842 152.034 99.7635C152.924 99.5751 153.867 99.6377 154.957 99.9075C156.047 100.177 156.899 100.556 157.553 101.136C158.235 101.649 158.698 102.316 158.883 103.001C159.068 103.686 159.13 104.483 158.894 105.251C158.658 106.02 158.266 106.694 157.679 107.184C157.092 107.673 156.35 108.068 155.488 108.189C154.625 108.31 153.655 108.315 152.565 108.045C151.474 107.775 150.622 107.396 149.968 106.816C149.287 106.304 148.824 105.636 148.639 104.951C148.454 104.266 148.412 103.516 148.628 102.701C148.864 101.933 149.276 101.304 149.843 100.769ZM150.353 105.21C150.864 105.855 151.756 106.326 153.029 106.622C154.303 106.918 155.321 106.891 156.103 106.587C156.933 106.261 157.432 105.702 157.648 104.888C157.864 104.074 157.727 103.367 157.216 102.721C156.705 102.075 155.813 101.605 154.54 101.309C153.267 101.013 152.249 101.04 151.467 101.344C150.637 101.67 150.137 102.229 149.921 103.043C149.657 103.879 149.795 104.586 150.353 105.21Z" fill="#323232"/>
<path d="M155.65 114.39L146 110.857L146.599 109.484L155.033 112.587L155.963 110.403L157.179 110.834L155.65 114.39Z" fill="#323232"/>
<path d="M145.268 113.063C145.506 112.954 145.805 112.982 146.077 113.078C146.348 113.174 146.496 113.382 146.596 113.611C146.697 113.841 146.654 114.136 146.523 114.361C146.412 114.632 146.193 114.787 145.955 114.897C145.716 115.006 145.417 114.978 145.194 114.86C144.922 114.764 144.774 114.557 144.654 114.281C144.554 114.052 144.596 113.757 144.727 113.532C144.83 113.374 145.029 113.173 145.268 113.063ZM150.682 115.484C150.921 115.374 151.22 115.402 151.491 115.498C151.762 115.594 151.91 115.802 152.011 116.031C152.111 116.261 152.068 116.556 151.937 116.781C151.827 117.052 151.608 117.208 151.369 117.317C151.131 117.427 150.832 117.398 150.608 117.28C150.337 117.184 150.189 116.977 150.068 116.702C149.968 116.472 150.011 116.177 150.142 115.952C150.245 115.794 150.443 115.593 150.682 115.484Z" fill="#323232"/>
<path d="M141.265 122.626L140.13 121.992L144.099 115.494L144.944 115.987L146.207 121.625C146.344 122.332 146.544 122.79 146.752 123.135C146.96 123.48 147.243 123.735 147.534 123.877C148 124.158 148.462 124.166 148.958 123.993C149.387 123.797 149.852 123.419 150.216 122.811C150.813 121.822 150.97 120.87 150.637 119.978L151.916 119.501C152.109 120.072 152.179 120.756 152.085 121.459C151.992 122.162 151.716 122.839 151.296 123.581C150.726 124.503 150.036 125.15 149.253 125.454C148.471 125.758 147.711 125.721 146.934 125.253C146.467 124.971 146.096 124.646 145.781 124.186C145.465 123.725 145.232 123.062 145.035 122.217L144.095 117.972L141.265 122.626Z" fill="#323232"/>
<path d="M139.034 124.609C139.77 124.327 140.559 124.295 141.449 124.494C142.338 124.692 143.144 125.094 144.003 125.747C144.862 126.4 145.51 127.095 145.851 127.875C146.192 128.655 146.398 129.388 146.324 130.138C146.251 130.888 145.926 131.588 145.418 132.261C144.89 132.889 144.282 133.334 143.545 133.616C142.809 133.899 142.02 133.93 141.13 133.732C140.241 133.533 139.435 133.132 138.576 132.479C137.717 131.826 137.069 131.131 136.728 130.35C136.339 129.592 136.181 128.838 136.254 128.088C136.328 127.338 136.652 126.638 137.161 125.964C137.669 125.29 138.277 124.846 139.034 124.609ZM137.676 128.979C137.902 129.757 138.494 130.587 139.509 131.334C140.523 132.081 141.445 132.485 142.302 132.478C143.159 132.471 143.828 132.164 144.384 131.468C144.939 130.773 145.081 130.047 144.855 129.269C144.629 128.49 144.037 127.66 143.022 126.913C142.008 126.166 141.086 125.762 140.229 125.769C139.372 125.777 138.656 126.105 138.148 126.779C137.619 127.407 137.478 128.133 137.676 128.979Z" fill="#323232"/>
<path d="M138.848 139.512L131.497 132.442L132.589 131.389L139.046 137.599L140.764 135.873L141.678 136.78L138.848 139.512Z" fill="#323232"/>
<path d="M128.692 141.955C127.784 141.984 126.996 141.627 126.394 140.909C126.009 140.423 125.787 139.917 125.73 139.391C125.652 138.819 125.758 138.274 126.056 137.64C126.374 137.053 126.856 136.446 127.542 135.91C128.132 135.419 128.783 135.066 129.453 134.759C130.124 134.451 130.779 134.372 131.407 134.361L131.595 135.71C131.111 135.656 130.592 135.783 129.997 136.001C129.45 136.196 128.895 136.505 128.381 136.907C127.742 137.42 127.384 137.915 127.23 138.483C127.104 138.983 127.209 139.487 127.574 139.927C127.96 140.413 128.436 140.581 129.043 140.524C129.651 140.466 130.377 140.023 131.282 139.332L133.149 137.815L136.125 142.249L131.459 146.043L130.641 145.093L134.325 142.08L132.787 139.747L131.854 140.506C130.633 141.397 129.599 141.926 128.692 141.955Z" fill="#323232"/>
<path d="M110.05 146.556C110.321 146.652 110.469 146.859 110.589 147.134C110.709 147.41 110.647 147.659 110.536 147.929C110.426 148.2 110.207 148.355 109.969 148.465C109.731 148.574 109.452 148.592 109.229 148.474C109.006 148.356 108.81 148.171 108.71 147.942C108.59 147.666 108.605 147.439 108.715 147.168C108.826 146.898 109.044 146.742 109.283 146.633C109.481 146.432 109.779 146.46 110.05 146.556Z" fill="#323232"/>
<path d="M91.9885 161.069L90.4829 161.202L89.9883 150.84L91.4938 150.707L91.9885 161.069Z" fill="#323232"/>
<path d="M86.3879 151.204C87.1128 151.422 87.6669 151.773 88.058 152.144L87.425 153.315C87.0339 152.944 86.5675 152.663 85.958 152.447C85.3486 152.232 84.7115 152.084 84.0391 152.117C83.1837 152.124 82.5037 152.271 82.0469 152.535C81.5901 152.8 81.3566 153.182 81.3462 153.682C81.3233 154.023 81.3959 154.32 81.6591 154.529C81.8747 154.761 82.1656 154.902 82.5042 155.022C82.8428 155.142 83.3168 155.31 83.9339 155.412C84.7064 155.608 85.3635 155.802 85.7899 155.991C86.2639 156.159 86.6826 156.462 86.9784 156.877C87.3218 157.27 87.4468 157.818 87.3811 158.453C87.3431 159.021 87.1495 159.495 86.8406 159.967C86.5117 160.393 86.0473 160.771 85.4551 160.988C84.8353 161.272 84.0876 161.395 83.2121 161.356C82.5874 161.368 81.9703 161.266 81.3809 161.096C80.7915 160.926 80.2974 160.712 79.8787 160.409L80.444 159.214C80.8628 159.517 81.3368 159.685 81.8108 159.853C82.2848 160.021 82.7665 160.075 83.2757 160.061C84.1312 160.054 84.7635 159.929 85.2002 159.619C85.6369 159.308 85.8705 158.926 85.901 158.472C85.9238 158.131 85.8036 157.856 85.588 157.625C85.3724 157.394 85.0615 157.206 84.7229 157.086C84.3843 156.966 83.9103 156.799 83.2932 156.696C82.5207 156.501 81.8635 156.307 81.4372 156.117C80.9632 155.949 80.5921 155.624 80.2487 155.231C79.9053 154.839 79.8003 154.336 79.7983 153.677C79.8363 153.109 80.0299 152.635 80.3588 152.209C80.6878 151.783 81.1521 151.405 81.792 151.166C82.4319 150.928 83.1796 150.805 84.0351 150.798C84.9106 150.836 85.6631 150.987 86.3879 151.204Z" fill="#323232"/>
<path d="M76.3825 150.797C77.1043 151.401 77.6354 152.092 77.9206 153.007C78.2335 153.853 78.2603 154.831 78.0365 155.759C77.8326 156.733 77.4057 157.589 76.7357 158.281C76.0857 159.02 75.2678 159.505 74.3699 159.807C73.4243 160.131 72.4739 160.182 71.4233 160.003C70.3727 159.825 69.5204 159.446 68.7987 158.842C68.0769 158.238 67.5458 157.546 67.2606 156.632C66.9954 155.763 66.9409 154.853 67.1447 153.879C67.3485 152.906 67.7755 152.05 68.4455 151.357C69.0955 150.619 69.8657 150.155 70.8113 149.832C71.7569 149.508 72.7073 149.457 73.7579 149.635C74.7608 149.835 75.6808 150.238 76.3825 150.797ZM71.3244 151.137C70.6371 151.397 70.0576 151.773 69.6058 152.31C69.1541 152.847 68.8101 153.5 68.6691 154.225C68.5282 154.95 68.5502 155.655 68.7353 156.34C68.968 157.004 69.3237 157.556 69.85 157.975C70.3763 158.393 71.0255 158.701 71.7577 158.805C72.5099 158.955 73.2296 158.9 73.9169 158.639C74.6041 158.379 75.1837 158.003 75.6555 157.512C76.1072 156.974 76.4512 156.321 76.5922 155.597C76.7332 154.872 76.7111 154.167 76.526 153.481C76.341 152.796 75.9376 152.266 75.4113 151.847C74.865 151.383 74.2358 151.121 73.4836 150.971C72.7314 150.821 72.0117 150.876 71.3244 151.137Z" fill="#323232"/>
<path d="M56.5007 155.457L60.713 145.81L62.0901 146.336L58.4242 154.741L60.6155 155.555L60.0968 156.73L56.5007 155.457Z" fill="#323232"/>
<path d="M49.606 143.096L51.3167 144.01L52.6176 141.769L53.8638 142.403L52.5629 144.645L57.5877 147.274L57.0674 148.17L49.0023 151.762L47.6013 151.034L55.314 147.549L51.8451 145.742L50.7218 147.738L49.4755 147.103L50.5988 145.107L48.8881 144.193L49.606 143.096Z" fill="#323232"/>
<path d="M48.4531 139.596C48.7054 140.304 48.6999 141.076 48.5039 141.935C48.308 142.794 47.8341 143.671 47.1299 144.543C46.4257 145.416 45.689 146.083 44.9 146.5C44.111 146.917 43.3371 147.108 42.5509 147.139C41.7923 147.102 41.0688 146.885 40.4357 146.351C39.775 145.885 39.3523 145.31 39.0999 144.602C38.8476 143.893 38.8531 143.121 39.0491 142.262C39.245 141.403 39.7189 140.526 40.4231 139.654C41.1273 138.781 41.864 138.114 42.633 137.651C43.422 137.234 44.1958 137.044 44.9821 137.013C45.7407 137.049 46.4642 137.266 47.0773 137.754C47.758 138.266 48.2007 138.887 48.4531 139.596ZM44.0495 138.539C43.2481 138.797 42.3963 139.463 41.5893 140.492C40.7823 141.522 40.3484 142.49 40.3152 143.33C40.2821 144.169 40.582 144.855 41.2427 145.322C41.9034 145.788 42.6544 145.937 43.4559 145.68C44.2573 145.422 45.1091 144.756 45.9161 143.727C46.7231 142.697 47.157 141.729 47.1902 140.889C47.2233 140.05 46.8758 139.385 46.2627 138.897C45.6296 138.364 44.8985 138.26 44.0495 138.539Z" fill="#323232"/>
<path d="M40.9809 133.513C41.138 134.265 41.0173 135.034 40.6864 135.845C40.3555 136.656 39.7944 137.463 39.003 138.265C38.1916 139.022 37.3679 139.619 36.5193 139.899C35.6908 140.224 34.8774 140.323 34.1268 140.173C33.3762 140.023 32.7083 139.671 32.1707 139.094C31.5855 138.539 31.2382 137.874 31.1486 137.147C31.0591 136.419 31.1122 135.626 31.4431 134.815C31.774 134.004 32.3352 133.197 33.1266 132.395C33.9179 131.592 34.7617 131.041 35.6102 130.761C36.4388 130.436 37.2521 130.337 38.0027 130.487C38.7534 130.637 39.4213 130.989 39.9589 131.566C40.4965 132.143 40.8714 132.74 40.9809 133.513ZM36.8281 131.85C35.9871 132.016 35.0759 132.544 34.1618 133.457C33.2001 134.393 32.659 135.245 32.5107 136.082C32.3625 136.919 32.5471 137.603 33.1523 138.204C33.7375 138.759 34.4605 138.977 35.2739 138.878C36.1148 138.712 37.0261 138.184 37.9402 137.27C38.9018 136.335 39.443 135.482 39.5912 134.645C39.7395 133.808 39.5548 133.124 38.9497 132.523C38.3921 131.901 37.669 131.683 36.8281 131.85Z" fill="#323232"/>
<path d="M25.9378 131.756L34.2895 125.247L35.1778 126.37L27.843 132.084L29.2389 133.849L28.222 134.643L25.9378 131.756Z" fill="#323232"/>
<path d="M27.5828 126.831C27.5206 127.077 27.3915 127.299 27.1285 127.474C26.8655 127.649 26.6572 127.69 26.3621 127.662C26.1142 127.612 25.8936 127.496 25.7277 127.246C25.5815 127.041 25.5296 126.793 25.5918 126.547C25.654 126.301 25.7831 126.079 26.0461 125.905C26.3091 125.73 26.5646 125.667 26.8125 125.717C27.0604 125.766 27.281 125.883 27.4272 126.087C27.5733 126.292 27.6252 126.54 27.5828 126.831ZM32.5871 123.399C32.5249 123.645 32.3958 123.867 32.1328 124.041C31.8698 124.216 31.6615 124.257 31.3664 124.229C31.1185 124.18 30.8979 124.064 30.7319 123.813C30.5858 123.609 30.5339 123.361 30.5961 123.115C30.6583 122.869 30.7874 122.647 31.0504 122.472C31.3134 122.297 31.5688 122.235 31.8168 122.284C32.0647 122.334 32.2853 122.45 32.4314 122.655C32.6445 122.883 32.6964 123.131 32.5871 123.399Z" fill="#323232"/>
<path d="M26.4756 115.267L27.6235 114.631L31.1361 120.974L30.2257 121.502L24.5947 119.971C23.8923 119.799 23.3924 119.7 22.9524 119.737C22.5599 119.753 22.1598 119.881 21.8472 120.08C21.3445 120.365 21.0918 120.701 20.9664 121.197C20.8886 121.672 21.0132 122.218 21.3402 122.836C21.8744 123.798 22.6415 124.378 23.6213 124.532L23.3278 125.819C22.713 125.717 22.0857 125.456 21.561 125.039C20.9888 124.643 20.5193 124.09 20.1523 123.381C19.638 122.465 19.4887 121.601 19.6368 120.765C19.8049 119.974 20.2629 119.325 21.0506 118.909C21.5533 118.623 22.0484 118.451 22.6034 118.416C23.1584 118.381 23.8883 118.485 24.7256 118.704L28.952 119.892L26.4756 115.267Z" fill="#323232"/>
<path d="M25.8615 112.038C25.6734 112.783 25.2829 113.456 24.6623 114.125C24.0218 114.748 23.1788 115.3 22.161 115.712C21.1431 116.124 20.1603 116.356 19.2878 116.317C18.4153 116.278 17.6454 116.083 17.0531 115.642C16.4134 115.222 15.9913 114.647 15.7194 113.894C15.4474 113.141 15.3579 112.414 15.546 111.669C15.7341 110.925 16.1246 110.252 16.7452 109.583C17.3857 108.96 18.2286 108.408 19.2465 107.996C20.2644 107.584 21.2471 107.352 22.1197 107.391C22.9922 107.429 23.7621 107.625 24.3543 108.066C24.9941 108.486 25.4162 109.061 25.6881 109.814C26.0076 110.545 26.0495 111.294 25.8615 112.038ZM22.8261 108.877C22.0087 108.704 20.986 108.844 19.778 109.343C18.5701 109.843 17.6996 110.462 17.214 111.178C16.7284 111.895 16.6554 112.642 16.9273 113.395C17.1993 114.148 17.7639 114.657 18.5814 114.831C19.3988 115.004 20.4215 114.864 21.6294 114.365C22.8374 113.865 23.7079 113.246 24.1935 112.53C24.679 111.813 24.7521 111.066 24.4802 110.313C24.1882 109.514 23.6435 109.051 22.8261 108.877Z" fill="#323232"/>
<path d="M12.8599 104.633L22.9154 101.768L23.2339 103.142L14.3882 105.671L14.9488 107.857L13.6919 108.215L12.8599 104.633Z" fill="#323232"/>
<path d="M16.0711 94.6171C16.5371 93.854 17.2382 93.3676 18.2419 93.1816C18.8726 93.0569 19.4206 93.135 19.961 93.3263C20.5015 93.5177 20.9392 93.866 21.2941 94.4171C21.6491 94.9681 21.8813 95.6304 22.0109 96.4496C22.1004 97.1774 22.1224 97.8812 21.9618 98.559C21.8211 99.2826 21.6204 99.8689 21.2647 100.362L19.9812 99.9072C20.2618 99.5038 20.5024 99.009 20.5879 98.4206C20.741 97.8561 20.759 97.2437 20.6618 96.6293C20.5523 95.8558 20.3125 95.3069 19.9223 94.9367C19.5322 94.5666 19.0317 94.4667 18.4961 94.5477C17.8654 94.6724 17.4297 94.9822 17.1891 95.477C16.9485 95.9718 16.8677 96.8326 17.0496 97.9024L17.3783 100.223L11.8622 100.667L11.0706 94.9346L12.3521 94.731L12.997 99.2129L15.8701 98.9929L15.7158 97.8555C15.4615 96.4894 15.605 95.3801 16.0711 94.6171Z" fill="#323232"/>
<path d="M21.4891 76.0163C21.2708 76.1714 21.0125 76.2349 20.7141 76.2067C20.4156 76.1785 20.2402 76.0389 20.0723 75.7857C19.9245 75.5784 19.872 75.3273 19.9148 75.0326C19.9576 74.7378 20.1082 74.5586 20.3264 74.4035C20.5447 74.2483 20.803 74.1848 21.1015 74.213C21.3999 74.2412 21.623 74.359 21.7908 74.6122C21.9387 74.8195 21.9912 75.0705 21.9283 75.3195C21.8379 75.6361 21.7073 75.8611 21.4891 76.0163Z" fill="#323232"/>
<path fill-rule="evenodd" clip-rule="evenodd" d="M51.8401 10.334C10.0838 29.1669 -8.49928 78.284 10.3336 120.04C29.1664 161.797 78.2836 180.38 120.04 161.547C161.796 142.714 180.379 93.5968 161.546 51.8405C142.714 10.0843 93.5964 -8.49885 51.8401 10.334ZM8.51042 120.863C-10.7766 78.0994 8.25466 27.7978 51.0178 8.51085C93.781 -10.7761 144.083 8.25509 163.37 51.0183C182.657 93.7814 163.625 144.083 120.862 163.37C78.099 182.657 27.7974 163.626 8.51042 120.863Z" fill="#323232"/>
</svg>
