<svg width="752" height="174" viewBox="0 0 752 174" fill="none" xmlns="http://www.w3.org/2000/svg">
<path d="M735.399 55.9559L735.952 57.2779L726.409 61.2959L725.855 59.974L735.399 55.9559Z" fill="#323232"/>
<path d="M728.499 66.0738C728.528 65.3791 728.73 64.6903 728.925 64.1752L730.134 64.3903C729.939 64.9054 729.743 65.4205 729.715 66.1153C729.686 66.81 729.748 67.4208 729.984 68.0376C730.212 68.828 730.538 69.3609 730.954 69.8099C731.378 70.0852 731.809 70.1869 732.246 70.1148C732.601 69.953 732.865 69.875 733.053 69.5336C733.15 69.276 733.338 68.9346 733.353 68.5872C733.367 68.2399 733.388 67.7188 733.327 67.108C733.272 66.3235 733.3 65.6287 733.322 65.1077C733.343 64.5867 733.538 64.0715 733.817 63.6462C734.095 63.2209 734.54 62.9752 735.159 62.7354C735.687 62.5795 736.208 62.5972 736.722 62.7887C737.236 62.9801 737.659 63.2554 738.075 63.7044C738.492 64.1534 738.811 64.86 739.039 65.6504C739.191 66.1774 739.253 66.7882 739.315 67.3991C739.377 68.0099 739.265 68.6148 739.07 69.13L737.771 68.9987C737.966 68.4836 737.987 67.9625 738.009 67.4415C738.03 66.9205 737.961 66.4833 737.809 65.9563C737.581 65.1659 737.255 64.633 736.922 64.2738C736.588 63.9146 736.067 63.8969 735.63 63.9689C735.275 64.1307 735.011 64.2087 734.823 64.5501C734.635 64.8916 734.538 65.1491 734.523 65.4965C734.509 65.8439 734.488 66.3649 734.549 66.9757C734.604 67.7603 734.576 68.455 734.554 68.976C734.533 69.4971 734.338 70.0122 734.059 70.4375C733.781 70.8628 733.336 71.1085 732.717 71.3483C732.189 71.5043 731.668 71.4865 731.154 71.2951C730.64 71.1036 730.217 70.8283 729.717 70.2895C729.301 69.8405 728.982 69.1339 728.754 68.3435C728.525 67.5531 728.38 66.8524 728.499 66.0738Z" fill="#323232"/>
<path d="M731.312 77.2231C731.695 76.3665 732.245 75.6896 733.051 75.1083C733.858 74.5271 734.741 74.2093 735.699 74.155C736.658 74.1007 737.61 74.2201 738.464 74.5971C739.318 74.9741 739.992 75.5188 740.477 76.405C741.053 77.2073 741.364 78.0875 741.405 79.2194C741.536 80.2675 741.409 81.2198 741.026 82.0763C740.643 82.9329 740.094 83.6099 739.287 84.1911C738.481 84.7724 737.688 85.0063 736.639 85.1444C735.68 85.1987 734.729 85.0793 733.874 84.7023C733.02 84.3254 732.347 83.7806 731.862 82.8945C731.286 82.0922 730.974 81.2119 730.927 80.2537C730.803 79.032 730.929 78.0797 731.312 77.2231ZM732.947 81.8879C733.356 82.5106 733.863 82.8757 734.46 83.157C735.057 83.4382 735.835 83.5517 736.446 83.4856C737.232 83.4254 737.85 83.1856 738.476 82.7721C739.102 82.3586 739.47 81.8494 739.756 81.2504C740.041 80.6514 740.16 79.8727 740.015 79.1721C739.961 78.3876 739.725 77.7708 739.316 77.1481C738.907 76.5254 738.4 76.1603 737.803 75.879C737.205 75.5978 736.427 75.4843 735.816 75.5504C735.031 75.6106 734.412 75.8504 733.786 76.2639C733.161 76.6774 732.792 77.1866 732.506 77.7856C732.221 78.3846 732.102 79.1632 732.157 79.9478C732.302 80.6484 732.447 81.3491 732.947 81.8879Z" fill="#323232"/>
<path d="M731.913 102.634L732.256 100.645L729.754 100.125L729.985 98.7408L732.487 99.2611L733.501 93.6407L734.537 93.85L740.279 100.223L740.041 101.78L734.549 95.6774L733.78 99.5661L736.025 99.9906L735.794 101.375L733.549 100.95L733.206 102.94L731.913 102.634Z" fill="#323232"/>
<path d="M731.748 111.839C731.032 112.337 730.163 112.307 729.301 112.104C728.787 111.912 728.28 111.547 727.947 111.188C727.531 110.739 727.378 110.212 727.316 109.601C727.254 108.99 727.373 108.211 727.666 107.438C727.869 106.749 728.245 106.066 728.613 105.556C729.073 104.963 729.525 104.544 730.061 104.214L730.977 105.202C730.532 105.448 730.17 105.783 729.718 106.203C729.266 106.623 729.07 107.138 728.785 107.737C728.492 108.51 728.471 109.031 728.623 109.558C728.775 110.085 729.109 110.445 729.623 110.636C730.137 110.828 730.748 110.761 731.11 110.426C731.646 110.096 732.022 109.413 732.329 108.293L733.117 106.058L738.07 108.314L736.104 113.814L734.902 113.426L736.47 109.13L733.907 107.999L733.516 109.029C733.112 110.407 732.555 111.258 731.748 111.839Z" fill="#323232"/>
<path d="M724.947 115.331C725.656 115.007 726.359 114.857 727.227 114.886C728.096 114.916 729.041 115.209 729.978 115.676C730.916 116.143 731.673 116.778 732.166 117.49C732.658 118.203 732.977 118.91 733.032 119.694C733.087 120.479 732.884 121.168 732.508 121.851C732.132 122.534 731.59 123.038 730.964 123.451C730.254 123.775 729.552 123.925 728.684 123.895C727.815 123.866 726.87 123.573 725.932 123.106C724.995 122.639 724.238 122.004 723.745 121.291C723.253 120.579 722.934 119.872 722.879 119.087C722.824 118.303 723.027 117.614 723.403 116.931C723.695 116.158 724.238 115.654 724.947 115.331ZM724.505 119.752C724.907 120.548 725.664 121.183 726.768 121.829C727.872 122.476 728.907 122.685 729.693 122.625C730.569 122.481 731.195 122.067 731.571 121.384C731.947 120.701 731.982 119.833 731.663 119.126C731.261 118.329 730.504 117.695 729.4 117.048C728.296 116.402 727.26 116.192 726.475 116.252C725.69 116.313 724.973 116.81 724.597 117.493C724.131 118.26 724.102 118.955 724.505 119.752Z" fill="#323232"/>
<path d="M719.212 124.682C720.004 124.448 720.699 124.471 721.561 124.675C722.423 124.878 723.277 125.255 724.117 125.98C724.958 126.704 725.624 127.423 725.943 128.13C726.345 128.926 726.49 129.627 726.455 130.496C726.336 131.275 726.133 131.964 725.583 132.641C725.124 133.234 724.408 133.732 723.789 133.972C722.996 134.206 722.301 134.182 721.439 133.979C720.578 133.775 719.723 133.398 718.883 132.674C718.043 131.949 717.376 131.23 717.057 130.524C716.655 129.727 716.51 129.026 716.546 128.157C716.581 127.289 716.867 126.69 717.417 126.012C717.793 125.329 718.419 124.916 719.212 124.682ZM717.9 129.073C718.129 129.864 718.705 130.667 719.802 131.487C720.816 132.218 721.754 132.684 722.622 132.714C723.491 132.744 724.201 132.42 724.66 131.827C725.21 131.149 725.329 130.371 725.1 129.58C724.872 128.789 724.296 127.987 723.198 127.166C722.185 126.436 721.247 125.969 720.378 125.939C719.509 125.91 718.8 126.233 718.34 126.827C717.791 127.504 717.672 128.283 717.9 129.073Z" fill="#323232"/>
<path d="M717.795 140.886L710.696 133.417L711.783 132.409L718.047 138.979L719.768 137.383L720.602 138.283L717.795 140.886Z" fill="#323232"/>
<path d="M690.306 150.996C690.563 151.092 690.73 151.272 690.806 151.535C690.882 151.799 690.958 152.062 690.777 152.23C690.68 152.488 690.499 152.655 690.235 152.733C689.971 152.811 689.797 152.805 689.54 152.709C689.283 152.614 689.117 152.434 689.041 152.17C688.964 151.907 688.888 151.643 688.986 151.386C689.083 151.128 689.264 150.961 689.528 150.883C689.792 150.805 690.14 150.817 690.306 150.996Z" fill="#323232"/>
<path d="M661.309 160.793L659.837 160.656L660.696 150.338L662.168 150.475L661.309 160.793Z" fill="#323232"/>
<path d="M655.569 150.048C656.249 150.419 656.665 150.868 657.082 151.317L656.344 152.335C656.011 151.976 655.595 151.527 655.088 151.162C654.582 150.797 653.894 150.6 653.29 150.492C652.429 150.289 651.818 150.355 651.29 150.511C650.762 150.667 650.574 151.008 650.379 151.523C650.364 151.871 650.35 152.218 650.517 152.397C650.766 152.667 650.933 152.846 651.273 153.032C651.613 153.217 652.037 153.493 652.55 153.684C653.231 154.055 653.828 154.336 654.251 154.611C654.674 154.887 655.007 155.246 655.25 155.689C655.493 156.132 655.554 156.742 655.443 157.347C655.331 157.952 655.053 158.377 654.691 158.713C654.329 159.048 653.794 159.378 653.183 159.444C652.481 159.594 651.787 159.57 650.926 159.367C650.322 159.259 649.808 159.068 649.211 158.787C648.614 158.506 648.19 158.23 647.857 157.871L648.595 156.853C648.928 157.212 649.351 157.487 649.775 157.763C650.198 158.038 650.628 158.14 651.142 158.331C652.003 158.534 652.615 158.468 653.059 158.222C653.504 157.977 653.866 157.641 653.97 157.21C653.985 156.863 653.999 156.516 653.832 156.336C653.583 156.067 653.416 155.887 653.076 155.702C652.736 155.516 652.312 155.241 651.799 155.049C651.118 154.678 650.521 154.397 650.098 154.122C649.675 153.847 649.342 153.488 649.099 153.045C648.856 152.602 648.795 151.991 648.906 151.386C649.018 150.781 649.297 150.356 649.658 150.021C650.02 149.685 650.555 149.356 651.166 149.29C651.868 149.14 652.562 149.163 653.423 149.366C654.292 149.396 654.979 149.593 655.569 150.048Z" fill="#323232"/>
<path d="M644.445 147.46C645.021 148.262 645.423 149.058 645.561 149.933C645.699 150.807 645.573 151.759 645.273 152.706C644.89 153.562 644.333 154.413 643.617 154.91C642.81 155.492 642.101 155.815 641.052 155.954C640.093 156.008 639.141 155.888 638.197 155.595C637.169 155.212 636.496 154.668 635.83 153.949C635.163 153.231 634.852 152.351 634.714 151.476C634.576 150.602 634.702 149.65 635.175 148.709C635.649 147.769 636.115 147.002 636.831 146.504C637.547 146.007 638.347 145.6 639.396 145.461C640.355 145.407 641.307 145.526 642.251 145.82C643.105 146.197 643.869 146.657 644.445 147.46ZM639.52 146.683C638.818 146.833 638.199 147.073 637.664 147.402C637.038 147.816 636.753 148.415 636.377 149.098C636.084 149.871 635.972 150.476 636.117 151.176C636.263 151.877 636.498 152.494 636.824 153.027C637.324 153.565 637.831 153.931 638.511 154.302C639.282 154.589 639.886 154.696 640.588 154.546C641.29 154.396 641.909 154.157 642.444 153.827C643.07 153.413 643.355 152.814 643.731 152.131C644.024 151.359 644.136 150.754 643.99 150.053C643.845 149.352 643.61 148.736 643.201 148.113C642.791 147.49 642.194 147.209 641.514 146.838C640.909 146.73 640.222 146.533 639.52 146.683Z" fill="#323232"/>
<path d="M621.651 136.109L623.254 137.294L624.812 135.347L625.909 136.167L624.351 138.114L628.813 141.657L628.173 142.417L619.829 144.481L618.566 143.481L626.563 141.406L623.447 138.952L622.07 140.731L620.973 139.911L622.351 138.133L620.747 136.948L621.651 136.109Z" fill="#323232"/>
<path d="M613.536 131.897C613.398 131.023 613.781 130.167 614.413 129.58C614.865 129.161 615.31 128.915 615.838 128.759C616.365 128.604 616.969 128.711 617.656 128.908C618.253 129.189 618.933 129.56 619.516 130.189C620.015 130.727 620.424 131.35 620.75 131.882C621.068 132.589 621.221 133.115 621.282 133.726L619.963 134.115C619.984 133.595 619.832 133.068 619.59 132.625C619.354 132.009 619.021 131.649 618.605 131.201C618.106 130.662 617.509 130.381 616.995 130.19C616.475 130.172 616.037 130.244 615.586 130.663C615.134 131.082 614.939 131.597 615.091 132.124C615.153 132.735 615.562 133.357 616.394 134.255L617.975 135.96L613.667 139.29L609.665 135.155L610.568 134.317L613.738 137.554L615.983 135.805L615.234 134.997C614.242 133.747 613.674 132.771 613.536 131.897Z" fill="#323232"/>
<path d="M613.644 124.052C613.699 124.836 613.406 125.609 612.94 126.375C612.474 127.142 611.751 127.813 610.945 128.394C610.049 129.059 609.166 129.376 608.291 129.52C607.416 129.664 606.638 129.551 605.951 129.354C605.264 129.156 604.681 128.528 604.272 127.905C603.863 127.283 603.635 126.493 603.58 125.709C603.525 124.924 603.818 124.152 604.284 123.385C604.75 122.619 605.473 121.948 606.279 121.367C607.176 120.702 608.058 120.384 608.933 120.24C609.808 120.096 610.586 120.21 611.273 120.407C612.044 120.694 612.543 121.233 612.952 121.855C613.445 122.567 613.673 123.358 613.644 124.052ZM610.008 121.581C609.14 121.551 608.258 121.869 607.097 122.612C605.937 123.355 605.297 124.115 605.005 124.888C604.712 125.66 604.767 126.444 605.259 127.157C605.751 127.869 606.348 128.15 607.216 128.18C608.084 128.209 608.966 127.892 610.127 127.149C611.288 126.406 611.927 125.645 612.22 124.873C612.512 124.1 612.458 123.316 611.965 122.604C611.383 121.976 610.876 121.611 610.008 121.581Z" fill="#323232"/>
<path d="M607.995 114.539C607.876 115.317 607.5 116 606.951 116.677C606.402 117.354 605.595 117.935 604.623 118.336C603.65 118.738 602.684 118.966 601.816 118.936C600.948 118.907 600.17 118.793 599.58 118.338C598.9 117.967 598.491 117.345 598.172 116.638C597.854 115.932 597.799 115.148 597.827 114.453C597.856 113.759 598.322 112.992 598.872 112.315C599.421 111.638 600.227 111.057 601.2 110.656C602.173 110.254 603.139 110.026 604.007 110.056C604.875 110.086 605.653 110.199 606.242 110.654C606.923 111.025 607.332 111.647 607.65 112.354C608.052 113.15 608.197 113.85 607.995 114.539ZM604.727 111.558C603.866 111.355 602.901 111.583 601.747 112.152C600.594 112.722 599.787 113.303 599.321 114.069C598.855 114.836 598.826 115.531 599.228 116.327C599.547 117.033 600.137 117.488 600.998 117.691C601.859 117.894 602.824 117.666 603.978 117.097C605.132 116.528 605.938 115.947 606.404 115.18C606.87 114.414 606.899 113.719 606.497 112.923C606.095 112.127 605.505 111.672 604.727 111.558Z" fill="#323232"/>
<path d="M594.233 105.882L604.167 103.006L604.63 104.412L595.925 106.982L596.526 109.262L595.298 109.568L594.233 105.882Z" fill="#323232"/>
<path d="M598.172 76.8806C597.991 77.0483 597.727 77.1262 597.379 77.1143C597.032 77.1024 596.866 76.9228 596.699 76.7431C596.532 76.5635 596.456 76.3 596.554 76.0425C596.651 75.7849 596.749 75.5274 596.929 75.3597C597.11 75.192 597.374 75.114 597.631 75.2098C597.979 75.2217 598.145 75.4014 598.312 75.581C598.478 75.7606 598.554 76.0241 598.457 76.2816C598.45 76.4553 598.352 76.7128 598.172 76.8806Z" fill="#323232"/>
<path d="M602.773 46.6266L603.609 45.3491L612.358 50.7842L611.522 52.0617L602.773 46.6266Z" fill="#323232"/>
<path d="M615.017 46.6302C614.391 47.0438 613.772 47.2837 613.16 47.3498L612.598 46.1998C613.127 46.0438 613.655 45.8878 614.191 45.5581C614.726 45.2284 615.179 44.8089 615.721 44.3054C616.271 43.6282 616.557 43.029 616.578 42.5078C616.6 41.9866 616.44 41.6331 616.107 41.2738C615.857 41.0043 615.51 40.9925 615.162 40.9806C614.814 40.9688 614.46 41.1307 614.279 41.2985C614.098 41.4663 613.562 41.796 613.027 42.1258C612.401 42.5394 611.858 43.0428 611.413 43.2886C610.968 43.5344 610.439 43.6904 609.918 43.6727C609.397 43.6549 608.883 43.4634 608.376 43.0981C607.952 42.8227 607.626 42.2896 607.557 41.8523C607.405 41.3252 607.426 40.804 607.628 40.1149C607.74 39.5098 608.116 38.8267 608.666 38.1495C609.035 37.6401 609.487 37.2206 610.023 36.8908C610.559 36.5611 611.004 36.3153 611.532 36.1594L612.094 37.3094C611.739 37.4713 611.211 37.6273 610.849 37.9629C610.404 38.2087 610.042 38.5443 609.763 38.9698C609.214 39.647 608.928 40.2462 608.907 40.7674C608.885 41.2887 609.045 41.6421 609.378 42.0014C609.628 42.2709 609.975 42.2827 610.323 42.2946C610.67 42.3064 611.025 42.1445 611.296 41.8928C611.568 41.6411 612.013 41.3953 612.548 41.0655C613.174 40.6519 613.717 40.1485 614.162 39.9027C614.607 39.6569 615.136 39.5009 615.657 39.5187C616.178 39.5364 616.693 39.7279 617.2 40.0932C617.623 40.3686 617.949 40.9017 618.018 41.339C618.087 41.7763 618.149 42.3873 617.947 43.0764C617.745 43.7654 617.459 44.3646 616.909 45.0418C616.276 45.6292 615.733 46.1326 615.017 46.6302Z" fill="#323232"/>
<path d="M622.47 37.8638C621.504 38.0918 620.636 38.0622 619.781 37.6852C618.837 37.3921 618.164 36.8474 617.498 36.1291C616.831 35.4107 616.52 34.5305 616.299 33.5664C616.161 32.6921 616.287 31.7398 616.586 30.7935C616.97 29.937 617.526 29.0864 618.333 28.5051C619.056 27.8341 620.029 27.4325 620.904 27.2884C621.87 27.0605 622.739 27.0901 623.593 27.467C624.537 27.7601 625.211 28.3048 625.877 29.0232C626.543 29.7416 626.854 30.6218 627.076 31.5859C627.214 32.4602 627.088 33.4124 626.788 34.3587C626.405 35.2153 625.848 36.0659 625.042 36.6471C624.318 37.3181 623.436 37.6359 622.47 37.8638ZM625.503 33.8801C625.705 33.1914 625.817 32.5865 625.672 31.8858C625.527 31.1852 625.291 30.5685 624.792 30.0297C624.292 29.4909 623.702 29.036 623.105 28.7548C622.418 28.5574 621.813 28.4499 621.111 28.5999C620.41 28.7499 619.791 28.9896 619.249 29.4929C618.706 29.9962 618.247 30.5892 617.962 31.1882C617.759 31.877 617.647 32.4819 617.793 33.1825C617.938 33.8831 618.173 34.4999 618.673 35.0387C619.172 35.5774 619.762 36.0324 620.36 36.3136C621.047 36.5109 621.651 36.6185 622.353 36.4685C623.055 36.3185 623.674 36.0787 624.306 35.4916C624.932 35.0781 625.218 34.4791 625.503 33.8801Z" fill="#323232"/>
<path d="M643.138 22.8761L641.365 23.6855L642.397 26.0692L641.069 26.6328L640.037 24.2491L634.808 26.5934L634.413 25.6231L636.41 17.254L637.828 16.6065L635.846 24.6282L639.482 22.9255L638.609 20.8952L639.937 20.3316L640.81 22.3619L642.583 21.5525L643.138 22.8761Z" fill="#323232"/>
<path d="M650.721 17.6847C651.575 18.0617 652.075 18.6005 652.296 19.5647C652.449 20.0917 652.51 20.7026 652.315 21.2178C652.12 21.733 651.835 22.332 651.299 22.6616C650.847 23.0811 650.138 23.4048 649.346 23.6387C648.644 23.7887 647.942 23.9387 647.247 23.915C646.552 23.8913 645.948 23.7837 645.351 23.5025L645.665 22.2087C646.089 22.484 646.61 22.5018 647.214 22.6093C647.818 22.7169 648.347 22.561 648.958 22.4948C649.75 22.261 650.286 21.9313 650.564 21.506C650.842 21.0806 651.038 20.5655 650.885 20.0385C650.733 19.5115 650.317 19.0624 649.803 18.871C649.289 18.6795 648.504 18.7397 647.273 19.0457L644.987 19.6635L644.249 14.3332L649.879 12.7858L650.176 14.0135L645.777 15.255L646.184 18.0519L647.24 17.74C648.818 17.4459 649.95 17.3975 650.721 17.6847Z" fill="#323232"/>
<path d="M657.427 21.5128C656.746 21.1417 656.246 20.6028 655.754 19.8902C655.261 19.1777 655.04 18.2134 654.909 17.1653C654.778 16.1171 654.904 15.1647 655.114 14.3021C655.407 13.5294 655.783 12.8464 656.416 12.2591C657.049 11.6719 657.75 11.5219 658.536 11.4617C659.321 11.4015 660.099 11.515 660.78 11.8861C661.46 12.2572 661.96 12.796 662.453 13.5086C662.945 14.2212 663.166 15.1854 663.297 16.2336C663.428 17.2817 663.302 18.2341 663.093 19.0967C662.8 19.8695 662.424 20.5525 661.791 21.1397C661.248 21.643 660.456 21.877 659.754 22.027C658.802 21.9076 658.107 21.8839 657.427 21.5128ZM661.432 19.301C661.898 18.5342 662.024 17.5817 661.817 16.2701C661.693 15.0482 661.298 14.0781 660.806 13.3655C660.223 12.7368 659.535 12.5394 658.75 12.5996C657.965 12.6598 657.339 13.0734 656.872 13.8402C656.406 14.6071 656.28 15.5595 656.487 16.8712C656.694 18.1828 657.006 19.0632 657.498 19.7758C658.081 20.4044 658.769 20.6018 659.554 20.5416C660.339 20.4814 660.965 20.0679 661.432 19.301Z" fill="#323232"/>
<path d="M668.502 20.7978C667.912 20.3429 667.503 19.7202 667.101 18.9238C666.789 18.0436 666.651 17.1693 666.785 16.0434C666.827 15.0013 667.127 14.055 667.51 13.1984C667.977 12.4317 668.436 11.8386 669.145 11.5149C669.854 11.1913 670.556 11.0413 671.341 10.9811C672.209 11.0107 672.806 11.2919 673.396 11.7468C673.986 12.2017 674.396 12.8244 674.798 13.6207C675.109 14.501 675.247 15.3753 675.114 16.5012C675.071 17.5433 674.771 18.4896 674.388 19.3462C673.922 20.1129 673.463 20.706 672.754 21.0297C672.128 21.4431 671.426 21.5931 670.558 21.5635C669.863 21.5398 669.092 21.2527 668.502 20.7978ZM672.735 19.3768C673.284 18.6998 673.584 17.7535 673.725 16.4539C673.865 15.1542 673.644 14.1901 673.151 13.4777C672.659 12.7652 672.069 12.3103 671.284 12.3705C670.415 12.3409 669.797 12.5807 669.247 13.2576C668.697 13.9346 668.398 14.8809 668.257 16.1805C668.117 17.4801 668.338 18.4443 668.831 19.1567C669.323 19.8692 670.004 20.2402 670.698 20.2639C671.567 20.2935 672.185 20.0537 672.735 19.3768Z" fill="#323232"/>
<path d="M682.664 12.698L680.596 22.802L679.13 22.4911L680.974 13.597L678.731 13.1727L678.864 12.0468L682.664 12.698Z" fill="#323232"/>
<path d="M706.543 29.5935C706.467 29.33 706.565 29.0725 706.745 28.9048C706.926 28.7371 707.107 28.5694 707.371 28.4915C707.635 28.4136 707.892 28.5093 708.058 28.6889C708.225 28.8686 708.392 29.0482 708.468 29.3116C708.544 29.5751 708.446 29.8326 708.266 30.0003C708.085 30.168 707.904 30.3357 707.64 30.4136C707.376 30.4916 707.119 30.3958 706.953 30.2162C706.612 30.0306 706.536 29.7671 706.543 29.5935Z" fill="#323232"/>
<path fill-rule="evenodd" clip-rule="evenodd" d="M727.649 29.3247C696.616 -4.14165 644.134 -5.937 610.427 25.336C576.719 56.6089 574.569 109.091 605.601 142.558C636.634 176.024 689.116 177.819 722.823 146.546C756.531 115.273 758.682 62.7911 727.649 29.3247ZM609.073 23.8761C643.577 -8.1354 697.318 -6.31165 729.108 27.9708C760.898 62.2533 758.68 115.995 724.177 148.006C689.674 180.018 635.932 178.194 604.142 143.911C572.353 109.629 574.57 55.8876 609.073 23.8761Z" fill="#323232"/>
<path d="M430.112 35.6228L431.096 36.7434L423.162 43.5802L422.178 42.4596L430.112 35.6228Z" fill="#323232"/>
<path d="M425.559 46.1978C425.355 45.5169 425.21 44.7274 425.336 44.2315L426.628 43.965C426.612 44.5226 426.596 45.0802 426.8 45.7611C427.004 46.4421 427.267 47.0144 427.699 47.5399C428.181 48.2357 428.672 48.6526 429.222 48.961C429.72 49.0992 430.168 49.0671 430.565 48.8648C430.852 48.6008 430.97 48.3837 431.036 47.9963C431.044 47.7176 431.111 47.3302 431.009 46.9897C430.907 46.6493 430.754 46.1386 430.492 45.5662C430.178 44.8236 429.974 44.1426 429.821 43.6319C429.668 43.1212 429.684 42.5637 429.81 42.0678C429.936 41.5719 430.171 41.1376 430.796 40.7799C431.252 40.469 431.758 40.3284 432.206 40.2963C432.764 40.3259 433.262 40.4641 433.812 40.7725C434.362 41.0808 434.904 41.668 435.496 42.4254C435.818 42.8893 436.191 43.5233 436.344 44.034C436.607 44.6064 436.701 45.2257 436.744 45.6747L435.452 45.9412C435.467 45.3836 435.315 44.8729 435.103 44.4707C434.891 44.0686 434.738 43.5579 434.416 43.0941C433.933 42.3983 433.442 41.9814 432.944 41.8432C432.445 41.7051 431.997 41.7371 431.601 41.9394C431.314 42.2034 431.196 42.4205 431.129 42.8079C431.121 43.0867 431.054 43.474 431.266 43.8762C431.368 44.2166 431.521 44.7273 431.784 45.2997C432.098 46.0423 432.302 46.7233 432.454 47.234C432.607 47.7447 432.592 48.3023 432.466 48.7982C432.34 49.2941 432.104 49.7283 431.479 50.086C431.024 50.3969 430.517 50.5375 430.069 50.5696C429.622 50.6017 429.013 50.4018 428.353 50.0318C427.804 49.7234 427.262 49.1362 426.669 48.3788C426.186 47.683 425.814 47.049 425.559 46.1978Z" fill="#323232"/>
<path d="M431.147 54.5448C431.23 53.6001 431.423 52.7171 432.004 51.9105C432.586 51.1039 433.218 50.4676 434.121 50.1247C435.083 49.6733 435.927 49.439 436.873 49.545C437.82 49.6511 438.648 49.9742 439.468 50.576C440.288 51.1779 440.881 51.9351 441.356 52.9094C441.83 53.8837 442.026 54.8432 441.943 55.7879C441.86 56.7326 441.668 57.6156 441.086 58.4222C440.505 59.2287 439.872 59.8651 438.969 60.208C438.007 60.6594 437.163 60.8937 436.217 60.7876C435.271 60.6816 434.443 60.3585 433.622 59.7566C432.802 59.1548 432.209 58.3976 431.676 57.5318C431.37 56.5107 431.174 55.5512 431.147 54.5448ZM434.439 58.5159C435.04 58.9944 435.648 59.1942 436.375 59.177C437.042 59.2682 437.717 59.0808 438.452 58.7848C439.076 58.4271 439.591 58.0078 440.054 57.4183C440.408 56.7671 440.702 56.2245 440.667 55.4968C440.742 54.8308 440.538 54.1501 440.225 53.4076C439.911 52.6652 439.479 52.1398 438.82 51.7699C438.219 51.2913 437.611 51.0916 436.885 51.1088C436.217 51.0176 435.542 51.205 434.808 51.501C434.073 51.797 433.669 52.278 433.205 52.8675C432.742 53.457 432.667 54.123 432.592 54.789C432.517 55.455 432.721 56.1357 433.035 56.8782C433.407 57.5121 433.839 58.0374 434.439 58.5159Z" fill="#323232"/>
<path d="M446.594 67.6294L436.496 70.3381L436.147 68.8652L445.001 66.5939L444.395 64.2683L445.58 63.9396L446.594 67.6294Z" fill="#323232"/>
<path d="M440.863 80.8857L440.532 78.8651L438.017 79.288L437.779 77.8844L440.294 77.4615L439.291 71.6776L440.351 71.5669L448.013 75.8684L448.302 77.4416L440.968 73.3245L441.631 77.3656L443.809 77.0361L444.047 78.4397L441.869 78.7692L442.201 80.7898L440.863 80.8857Z" fill="#323232"/>
<path d="M438.683 83.9582C439.036 83.3079 439.718 82.8424 440.51 82.4385C441.302 82.0345 442.254 81.8621 443.367 81.9212C444.48 81.9803 445.424 82.0862 446.192 82.5172C446.96 82.9482 447.56 83.426 448.1 84.0122C448.472 84.6452 448.785 85.3865 448.761 86.2215C448.738 87.0564 448.604 87.8298 448.141 88.4184C447.788 89.0687 447.106 89.5342 446.314 89.9381C445.523 90.3421 444.57 90.5145 443.457 90.4554C442.344 90.3963 441.4 90.2904 440.632 89.8594C439.864 89.4284 439.265 88.9506 438.724 88.3644C438.184 87.7782 438.039 86.9901 438.063 86.1551C438.087 85.3202 438.161 84.6552 438.683 83.9582ZM440.402 88.1747C441.111 88.7141 442.106 88.9899 443.387 89.0022C444.669 89.0145 445.68 88.7337 446.362 88.2682C447.044 87.8027 447.397 87.1525 447.311 86.256C447.335 85.421 446.963 84.788 446.254 84.2487C445.545 83.7093 444.55 83.4335 443.268 83.4212C441.987 83.4089 440.976 83.6897 440.294 84.1552C439.611 84.6207 439.258 85.2709 439.344 86.1674C439.43 87.0639 439.802 87.6969 440.402 88.1747Z" fill="#323232"/>
<path d="M438.129 93.8008C438.591 93.2124 439.383 92.8087 440.225 92.5748C441.067 92.3409 442.07 92.3384 443.123 92.5058C444.177 92.6732 445.172 92.9489 445.88 93.488C446.648 93.9188 447.129 94.613 447.501 95.2457C447.873 95.8784 447.959 96.7745 447.825 97.5475C447.692 98.3205 447.449 99.0319 446.877 99.5588C446.414 100.147 445.623 100.551 444.781 100.785C443.938 101.019 442.936 101.021 441.882 100.854C440.829 100.686 439.893 100.302 439.125 99.8716C438.358 99.4408 437.876 98.7465 437.504 98.1139C437.191 97.3729 436.988 96.6934 437.18 95.8121C437.314 95.0391 437.666 94.3892 438.129 93.8008ZM439.341 98.1557C439.991 98.8031 440.927 99.1872 442.259 99.3693C443.59 99.5515 444.593 99.549 445.275 99.0837C446.066 98.6799 446.419 98.03 446.552 97.257C446.686 96.484 446.373 95.743 445.723 95.0955C445.073 94.4481 444.137 94.0641 442.806 93.8819C441.474 93.6998 440.471 93.7023 439.789 94.1676C438.998 94.5713 438.645 95.2212 438.512 95.9942C438.488 96.8288 438.691 97.5082 439.341 98.1557Z" fill="#323232"/>
<path d="M445.613 107.098L435.542 104.4L435.917 102.922L444.721 105.331L445.229 103.083L446.496 103.372L445.613 107.098Z" fill="#323232"/>
<path d="M434.93 106.782C435.155 106.628 435.431 106.643 435.648 106.764C435.865 106.886 436.083 107.008 436.242 107.237C436.401 107.466 436.393 107.742 436.276 107.956C436.16 108.171 436.043 108.386 435.818 108.539C435.593 108.693 435.318 108.678 435.1 108.557C434.883 108.435 434.666 108.313 434.507 108.084C434.348 107.855 434.356 107.579 434.472 107.365C434.589 107.15 434.705 106.935 434.93 106.782ZM440.668 108.74C440.893 108.586 441.168 108.601 441.385 108.723C441.603 108.844 441.82 108.966 441.979 109.195C442.138 109.424 442.13 109.7 442.014 109.915C441.897 110.129 441.781 110.344 441.555 110.497C441.33 110.651 441.055 110.637 440.838 110.515C440.62 110.393 440.403 110.271 440.244 110.042C440.085 109.813 440.093 109.537 440.21 109.323C440.218 109.047 440.443 108.894 440.668 108.74Z" fill="#323232"/>
<path d="M432.064 116.778L430.909 116.272L433.778 109.406L434.713 109.79L436.837 115.361C437.04 116.04 437.361 116.503 437.631 116.796C437.901 117.088 438.171 117.381 438.559 117.458C438.997 117.704 439.553 117.733 440.007 117.423C440.403 117.221 440.806 116.741 441.049 116.03C441.468 114.994 441.441 113.99 441.078 113.08L442.264 112.474C442.526 113.045 442.73 113.724 442.765 114.45C442.799 115.176 442.556 115.887 442.313 116.599C441.894 117.635 441.263 118.27 440.582 118.735C439.791 119.138 439.067 119.156 438.3 118.725C437.861 118.479 437.313 118.171 436.992 117.709C436.672 117.246 436.3 116.614 435.936 115.703L434.329 111.552L432.064 116.778Z" fill="#323232"/>
<path d="M429.719 119.29C430.451 118.994 431.234 118.869 432.068 118.913C433.011 119.019 433.837 119.341 434.823 119.895C435.81 120.449 436.459 121.096 437.05 121.851C437.531 122.545 437.844 123.285 437.82 124.12C437.855 124.845 437.722 125.618 437.201 126.314C436.789 127.072 436.276 127.491 435.544 127.786C434.812 128.081 434.029 128.207 433.196 128.162C432.362 128.118 431.536 127.796 430.55 127.242C429.564 126.689 428.914 126.042 428.323 125.286C427.842 124.592 427.529 123.852 427.553 123.018C427.518 122.292 427.652 121.519 428.172 120.823C428.415 120.112 428.987 119.585 429.719 119.29ZM429.146 123.77C429.459 124.511 430.159 125.328 431.364 126.005C432.46 126.62 433.505 127.065 434.288 126.939C435.181 126.875 435.803 126.519 436.215 125.761C436.626 125.003 436.701 124.339 436.337 123.428C435.973 122.518 435.324 121.871 434.118 121.194C432.913 120.517 431.978 120.134 431.195 120.259C430.302 120.323 429.68 120.68 429.268 121.438C428.857 122.196 428.724 122.968 429.146 123.77Z" fill="#323232"/>
<path d="M431.492 134.49L423.234 128.041L424.15 126.876L431.438 132.501L432.87 130.646L433.84 131.47L431.492 134.49Z" fill="#323232"/>
<path d="M421.558 138.053C420.665 138.117 419.948 137.856 419.189 137.147C418.7 136.732 418.438 136.161 418.285 135.651C418.133 135.142 418.207 134.477 418.392 133.874C418.576 133.271 418.929 132.621 419.559 131.986C420.131 131.459 420.644 131.041 421.267 130.684C421.89 130.327 422.563 130.14 423.119 130.17L423.526 131.528C423.08 131.56 422.575 131.701 422.011 131.949C421.447 132.198 420.992 132.508 420.589 132.988C420.017 133.515 419.723 134.056 419.707 134.612C419.691 135.169 419.844 135.678 420.223 136.032C420.713 136.448 421.21 136.586 421.825 136.507C422.33 136.367 423.011 135.902 423.869 135.112L425.475 133.47L429.088 137.617L425.069 141.861L424.149 140.92L427.251 137.576L425.31 135.356L424.562 136.207C423.469 137.43 422.45 137.989 421.558 138.053Z" fill="#323232"/>
<path d="M404.867 149.302C405.087 149.425 405.306 149.549 405.467 149.78C405.628 150.012 405.62 150.29 405.612 150.569C405.494 150.786 405.376 151.003 405.149 151.158C404.921 151.313 404.643 151.299 404.423 151.175C404.204 151.052 403.984 150.929 403.823 150.697C403.663 150.466 403.671 150.187 403.679 149.909C403.796 149.692 403.914 149.475 404.142 149.32C404.31 149.273 404.589 149.287 404.867 149.302Z" fill="#323232"/>
<path d="M386.048 162.477L384.584 162.791L382.585 152.45L384.049 152.136L386.048 162.477Z" fill="#323232"/>
<path d="M379.149 153.205C379.927 153.358 380.478 153.667 380.97 154.085L380.489 155.233C380.108 154.878 379.498 154.677 378.888 154.477C378.279 154.277 377.61 154.186 376.992 154.265C376.095 154.329 375.418 154.517 375.072 154.89C374.616 155.201 374.549 155.589 374.533 156.147C374.635 156.488 374.737 156.829 374.957 156.953C375.177 157.076 375.508 157.262 375.838 157.447C376.228 157.523 376.727 157.662 377.396 157.753C378.175 157.906 378.844 157.998 379.343 158.136C379.843 158.274 380.283 158.521 380.665 158.877C381.046 159.233 381.31 159.806 381.294 160.364C381.278 160.923 381.262 161.481 381.025 161.916C380.789 162.351 380.384 162.832 379.817 163.082C379.25 163.331 378.515 163.628 377.618 163.692C377 163.771 376.331 163.68 375.832 163.541C375.163 163.45 374.722 163.203 374.282 162.956L374.652 161.745C375.093 161.993 375.592 162.131 376.092 162.269C376.591 162.408 377.15 162.437 377.599 162.405C378.496 162.341 379.062 162.091 379.46 161.889C379.806 161.516 380.042 161.081 379.999 160.631C379.897 160.29 379.795 159.949 379.575 159.826C379.244 159.641 379.024 159.517 378.694 159.332C378.304 159.255 377.805 159.117 377.246 159.087C376.467 158.934 375.798 158.843 375.299 158.704C374.799 158.566 374.359 158.319 373.977 157.963C373.596 157.607 373.442 157.096 373.348 156.476C373.364 155.918 373.38 155.359 373.616 154.925C373.853 154.49 374.258 154.008 374.825 153.759C375.391 153.509 376.127 153.213 377.024 153.148C377.532 153.007 378.37 153.052 379.149 153.205Z" fill="#323232"/>
<path d="M369.164 154.044C369.984 154.646 370.635 155.294 371 156.207C371.423 157.01 371.619 157.97 371.477 159.022C371.394 159.967 371.143 160.958 370.621 161.656C370.039 162.462 369.356 162.928 368.505 163.441C367.653 163.954 366.648 163.956 365.593 163.789C364.537 163.621 363.65 163.407 362.83 162.805C362.01 162.203 361.359 161.555 360.995 160.643C360.571 159.839 360.375 158.88 360.517 157.827C360.6 156.882 360.851 155.891 361.374 155.193C361.955 154.387 362.638 153.921 363.49 153.408C364.392 153.065 365.346 152.893 366.402 153.06C367.457 153.228 368.285 153.551 369.164 154.044ZM364.176 154.784C363.552 155.141 363.037 155.561 362.633 156.041C362.17 156.631 361.985 157.235 361.961 158.071C361.827 158.845 362.031 159.526 362.404 160.159C362.776 160.793 363.208 161.318 363.698 161.735C364.298 162.213 364.906 162.413 365.742 162.457C366.578 162.502 367.194 162.423 367.928 162.127C368.552 161.769 369.067 161.35 369.471 160.869C369.934 160.28 370.119 159.676 370.143 158.84C370.277 158.066 370.073 157.385 369.7 156.752C369.328 156.118 368.896 155.593 368.406 155.176C367.806 154.698 367.198 154.498 366.362 154.453C365.526 154.409 364.8 154.426 364.176 154.784Z" fill="#323232"/>
<path d="M350.182 160.744L352.951 150.612L354.461 151.029L351.954 159.883L354.188 160.563L353.815 161.779L350.182 160.744Z" fill="#323232"/>
<path d="M341.703 149.085L343.582 149.856L344.602 147.45L345.982 148.083L344.962 150.488L350.321 152.785L349.959 153.716L342.403 157.843L340.913 157.149L348.131 153.116L344.372 151.575L343.529 153.654L342.259 153.084L343.102 151.004L341.222 150.234L341.703 149.085Z" fill="#323232"/>
<path d="M340.389 145.979C340.704 146.723 340.85 147.514 340.826 148.352C340.743 149.299 340.439 150.123 339.907 151.102C339.375 152.081 338.74 152.719 337.995 153.295C337.31 153.763 336.573 154.059 335.734 154.015C335.005 154.032 334.225 153.879 333.453 153.446C332.682 153.013 332.248 152.487 331.934 151.743C331.619 150.998 331.473 150.207 331.497 149.369C331.581 148.422 331.884 147.598 332.416 146.619C332.949 145.64 333.583 145.002 334.328 144.426C335.073 143.85 335.75 143.662 336.589 143.706C337.318 143.689 338.098 143.842 338.87 144.275C339.472 144.755 340.075 145.234 340.389 145.979ZM335.872 145.291C335.135 145.588 334.331 146.273 333.681 147.47C333.089 148.558 332.667 149.599 332.813 150.39C332.899 151.29 333.273 151.925 334.045 152.358C334.817 152.791 335.486 152.882 336.392 152.539C337.129 152.242 337.933 151.557 338.583 150.36C339.234 149.163 339.597 148.231 339.451 147.44C339.365 146.54 338.991 145.905 338.219 145.472C337.337 144.977 336.667 144.886 335.872 145.291Z" fill="#323232"/>
<path d="M332.4 140.666C332.605 141.348 332.691 142.248 332.388 143.071C332.194 143.956 331.721 144.827 331.028 145.573C330.275 146.429 329.641 147.066 328.845 147.472C328.05 147.877 327.262 148.003 326.482 147.85C325.702 147.697 324.982 147.435 324.379 146.955C323.777 146.476 323.293 145.778 323.089 145.096C322.884 144.414 322.798 143.514 323.101 142.691C323.295 141.805 323.768 140.935 324.461 140.189C325.214 139.333 325.848 138.695 326.644 138.29C327.439 137.884 328.227 137.758 329.007 137.912C329.787 138.065 330.507 138.327 331.109 138.807C331.712 139.286 332.196 139.983 332.4 140.666ZM328.069 139.373C327.222 139.608 326.478 140.184 325.607 141.257C324.736 142.33 324.373 143.262 324.349 144.1C324.325 144.938 324.64 145.682 325.242 146.162C325.955 146.703 326.735 146.856 327.412 146.668C328.259 146.434 329.003 145.857 329.874 144.785C330.745 143.712 331.108 142.779 331.132 141.941C331.156 141.103 330.841 140.359 330.128 139.818C329.585 139.229 328.916 139.138 328.069 139.373Z" fill="#323232"/>
<path d="M317.296 140.328L324.757 133.06L325.804 134.073L319.276 140.432L320.985 142.1L320.052 143.008L317.296 140.328Z" fill="#323232"/>
<path d="M318.612 135.301C318.604 135.582 318.485 135.8 318.255 135.957C318.025 136.113 317.795 136.27 317.514 136.255C317.232 136.24 317.01 136.116 316.847 135.882C316.685 135.649 316.522 135.416 316.641 135.197C316.649 134.917 316.769 134.698 316.999 134.542C317.229 134.385 317.459 134.229 317.74 134.244C318.022 134.258 318.244 134.383 318.406 134.616C318.569 134.849 318.62 135.021 318.612 135.301ZM323.178 131.44C323.17 131.721 323.051 131.939 322.821 132.096C322.591 132.252 322.361 132.408 322.08 132.394C321.798 132.379 321.576 132.255 321.413 132.021C321.251 131.788 321.088 131.554 321.207 131.336C321.216 131.055 321.335 130.837 321.565 130.68C321.795 130.524 322.025 130.367 322.306 130.382C322.588 130.397 322.81 130.521 322.972 130.755C323.195 130.879 323.186 131.159 323.178 131.44Z" fill="#323232"/>
<path d="M316.144 123.813L317.227 123.143L321.638 129.305L320.784 129.819L314.942 128.67C314.273 128.579 313.605 128.487 313.266 128.581C312.818 128.613 312.589 128.769 312.192 128.971C311.735 129.283 311.499 129.718 311.542 130.167C311.526 130.726 311.679 131.237 312.112 131.763C312.757 132.692 313.638 133.186 314.586 133.292L314.436 134.627C313.767 134.535 313.158 134.335 312.497 133.964C311.836 133.594 311.293 133.006 310.81 132.309C310.165 131.38 309.909 130.528 309.933 129.69C309.957 128.853 310.312 128.201 311.055 127.625C311.512 127.314 312.02 127.173 312.527 127.032C313.035 126.891 313.814 127.044 314.762 127.151L319.156 128.055L316.144 123.813Z" fill="#323232"/>
<path d="M315.501 120.828C315.367 121.603 315.123 122.317 314.6 123.016C314.077 123.715 313.333 124.29 312.311 124.851C311.347 125.303 310.443 125.646 309.546 125.71C308.65 125.774 307.872 125.621 307.211 125.251C306.551 124.88 306.008 124.293 305.584 123.488C305.27 122.744 305.066 122.063 305.09 121.226C305.114 120.389 305.468 119.737 305.991 119.038C306.514 118.339 307.258 117.764 308.28 117.203C309.244 116.751 310.148 116.408 311.045 116.344C311.941 116.28 312.719 116.433 313.38 116.803C314.04 117.173 314.583 117.761 314.956 118.396C315.49 119.262 315.635 120.053 315.501 120.828ZM311.952 117.845C311.174 117.692 310.049 117.912 308.968 118.581C307.776 119.188 306.974 119.872 306.73 120.586C306.316 121.347 306.351 122.075 306.776 122.88C307.2 123.685 307.86 124.056 308.639 124.209C309.417 124.362 310.542 124.142 311.623 123.473C312.815 122.865 313.617 122.181 313.861 121.468C314.275 120.707 314.24 119.979 313.815 119.174C313.501 118.43 312.9 117.951 311.952 117.845Z" fill="#323232"/>
<path d="M301.864 114.381L311.613 110.753L312.133 112.181L303.63 115.37L304.576 117.605L303.329 118.043L301.864 114.381Z" fill="#323232"/>
<path d="M303.958 104.097C304.26 103.276 305.001 102.702 305.844 102.468C306.459 102.39 307.075 102.311 307.573 102.449C308.07 102.587 308.619 102.895 309.05 103.419C309.481 103.944 309.853 104.577 310.108 105.427C310.311 106.107 310.346 106.834 310.381 107.56C310.416 108.287 310.232 108.891 309.937 109.433L308.554 109.08C308.789 108.647 308.915 108.152 308.931 107.595C308.947 107.038 308.853 106.42 308.759 105.801C308.614 105.013 308.183 104.488 307.803 104.134C307.423 103.779 306.866 103.749 306.251 103.828C305.577 104.015 305.232 104.387 305.106 104.883C304.921 105.486 304.956 106.213 305.313 107.403L305.915 109.721L300.486 110.492L298.865 104.774L300.155 104.508L301.419 109.036L304.219 108.627L303.862 107.437C303.733 106.092 303.656 104.917 303.958 104.097Z" fill="#323232"/>
<path d="M303.671 84.0566C303.443 84.2121 303.215 84.3675 302.936 84.3528C302.658 84.338 302.438 84.2147 302.277 83.9829C302.116 83.751 301.955 83.5192 301.963 83.2405C301.971 82.9617 302.089 82.7447 302.317 82.5892C302.545 82.4338 302.773 82.2784 303.051 82.2931C303.33 82.3079 303.55 82.4312 303.711 82.663C303.871 82.8949 304.032 83.1267 304.024 83.4054C304.016 83.6841 303.898 83.9012 303.671 84.0566Z" fill="#323232"/>
<path d="M302.754 61.039L303.234 59.6352L312.862 63.4955L312.382 64.8993L302.754 61.039Z" fill="#323232"/>
<path d="M314.243 59.9351C313.672 60.4612 313.159 60.8791 312.655 61.0192L311.795 59.9721C312.3 59.8319 312.753 59.5222 313.324 58.9961C313.837 58.5782 314.13 58.0374 314.424 57.4966C314.835 56.7395 314.909 56.0757 314.866 55.6283C314.824 55.181 314.503 54.7188 314.065 54.473C313.737 54.2887 313.459 54.2739 313.123 54.3673C312.787 54.4608 312.56 54.6156 312.274 54.8787C311.989 55.1417 311.644 55.5129 311.241 55.9923C310.78 56.5798 310.209 57.1059 309.923 57.3689C309.579 57.7401 309.074 57.8802 308.57 58.0204C308.065 58.1605 307.569 58.0229 306.853 57.7623C306.415 57.5165 305.927 57.1011 305.716 56.7004C305.395 56.2383 305.302 55.6213 305.318 55.0657C305.333 54.5102 305.803 53.6449 306.214 52.8877C306.507 52.3469 306.801 51.8061 307.204 51.3268C307.607 50.8474 308.061 50.5376 308.514 50.2279L309.374 51.2751C308.92 51.5848 308.525 51.7864 308.181 52.1576C307.837 52.5288 307.602 52.9614 307.367 53.3941C306.956 54.1512 306.882 54.8149 306.925 55.2623C306.968 55.7097 307.288 56.1719 307.726 56.4177C308.054 56.602 308.332 56.6168 308.668 56.5233C309.004 56.4299 309.231 56.275 309.517 56.012C309.802 55.749 310.147 55.3778 310.55 54.8984C311.011 54.3109 311.524 53.893 311.868 53.5218C312.212 53.1506 312.717 53.0104 313.221 52.8703C313.726 52.7302 314.222 52.8678 314.828 53.0669C315.266 53.3127 315.645 53.6667 315.966 54.1288C316.286 54.5909 316.38 55.2079 316.305 55.8717C316.231 56.5354 316.097 57.3072 315.687 58.0644C315.276 58.8215 314.814 59.4091 314.243 59.9351Z" fill="#323232"/>
<path d="M319.031 50.8506C318.127 51.1935 317.282 51.4279 316.336 51.3218C315.389 51.2158 314.561 50.8925 313.63 50.2288C312.699 49.5651 312.217 48.8693 311.793 48.0649C311.428 47.1519 311.342 46.2538 311.425 45.3088C311.508 44.3637 311.869 43.4335 312.451 42.6267C313.033 41.8198 313.834 41.1363 314.628 40.7317C315.421 40.327 316.376 40.1543 317.323 40.2604C318.269 40.3664 319.098 40.6897 320.028 41.3534C320.849 41.9555 321.442 42.7129 321.866 43.5173C322.231 44.4303 322.317 45.3284 322.234 46.2734C322.151 47.2185 321.789 48.1487 321.207 48.9555C320.626 49.7624 319.993 50.399 319.031 50.8506ZM321.008 46.1525C321.083 45.4863 320.938 44.6968 320.675 44.1243C320.412 43.5519 319.93 42.8561 319.27 42.486C318.669 42.0073 317.95 41.7457 317.283 41.6545C316.615 41.5632 315.829 41.689 315.264 41.9382C314.639 42.296 314.124 42.7155 313.66 43.3052C313.197 43.8949 312.953 44.608 312.878 45.2742C312.803 45.9404 312.948 46.73 313.211 47.3024C313.584 47.9366 313.957 48.5707 314.616 48.9408C315.217 49.4195 315.936 49.681 316.604 49.7723C317.271 49.8636 318.057 49.7377 318.623 49.4885C319.247 49.1307 319.762 48.7113 320.226 48.1216C320.69 47.5318 320.874 46.9273 321.008 46.1525Z" fill="#323232"/>
<path d="M323.312 30.7974L330.493 38.467L329.417 39.4041L323.148 32.6664L321.447 34.2331L320.535 33.3012L323.312 30.7974Z" fill="#323232"/>
<path d="M337.661 29.5528L336.069 30.6396L337.625 32.786L336.487 33.5623L334.931 31.4159L330.263 34.7379L329.62 33.8113L329.757 25.117L331.013 24.1239L330.884 32.5397L334.128 30.2576L332.732 28.3428L333.87 27.5665L335.265 29.4813L336.858 28.3945L337.661 29.5528Z" fill="#323232"/>
<path d="M341.441 29.6901C340.665 29.5374 339.947 29.2762 339.238 28.7366C338.528 28.1971 337.937 27.4407 337.353 26.4059C336.769 25.3711 336.515 24.521 336.429 23.6242C336.343 22.7274 336.477 21.9537 336.83 21.3033C337.183 20.6528 337.756 20.1255 338.438 19.6598C339.171 19.3642 339.846 19.1769 340.681 19.2213C341.457 19.374 342.174 19.6352 342.884 20.1747C343.593 20.7143 344.185 21.4707 344.769 22.5055C345.243 23.4787 345.607 24.3903 345.693 25.2872C345.779 26.184 345.645 26.9577 345.292 27.6081C344.939 28.2586 344.366 28.7858 343.684 29.2515C342.892 29.6556 342.107 29.7813 341.441 29.6901ZM344.328 26.2185C344.462 25.4449 344.156 24.4248 343.522 23.22C342.887 22.0152 342.127 21.3056 341.468 20.9361C340.7 20.5049 339.975 20.5222 339.182 20.9263C338.39 21.3303 338.037 21.9808 337.903 22.7544C337.77 23.5281 338.075 24.5481 338.71 25.7529C339.344 26.9577 340.105 27.6673 340.763 28.0369C341.532 28.468 342.257 28.4508 343.049 28.0467C343.673 27.6894 344.135 27.1006 344.328 26.2185Z" fill="#323232"/>
<path d="M350.142 25.399C349.365 25.2461 348.764 24.7676 348.113 24.1188C347.462 23.4701 346.928 22.6043 346.622 21.5832C346.316 20.562 346.12 19.6025 346.203 18.6578C346.286 17.713 346.53 17.0002 346.993 16.4106C347.457 15.8211 348.14 15.3549 348.875 15.0589C349.609 14.7629 350.445 14.8073 351.113 14.8986C351.89 15.0515 352.49 15.53 353.142 16.1787C353.793 16.8275 354.327 17.6932 354.633 18.7144C355.048 19.7973 355.134 20.6951 355.052 21.6398C354.969 22.5845 354.725 23.2974 354.262 23.8869C353.798 24.4765 353.225 25.0043 352.38 25.2387C351.646 25.5347 350.861 25.6605 350.142 25.399ZM353.465 22.4489C353.768 21.6275 353.631 20.5595 353.105 19.4149C352.58 18.2704 352.105 17.2961 351.336 16.8645C350.625 16.3243 349.899 16.3416 349.055 16.5759C348.21 16.8102 347.747 17.3998 347.444 18.2211C347.141 19.0425 347.278 20.1106 347.804 21.2551C348.271 22.5081 348.804 23.3739 349.574 23.8056C350.284 24.3458 351.01 24.3285 351.855 24.0941C352.758 23.7513 353.221 23.1618 353.465 22.4489Z" fill="#323232"/>
<path d="M358.06 12.5293L360.557 22.6979L359.208 23.0724L357.068 14.0936L354.767 14.6405L354.47 13.3423L358.06 12.5293Z" fill="#323232"/>
<path d="M361.802 15.9681C361.582 15.8446 361.421 15.6123 361.319 15.2713C361.327 14.992 361.334 14.7128 361.453 14.4953C361.571 14.2779 361.799 14.1222 362.079 14.137C362.358 14.1518 362.637 14.1666 362.858 14.2902C363.078 14.4138 363.239 14.646 363.231 14.9253C363.223 15.2045 363.216 15.4838 363.097 15.7012C362.979 15.9187 362.751 16.0744 362.471 16.0596C362.353 16.277 362.074 16.2622 361.802 15.9681ZM362.862 21.9533C362.642 21.8297 362.481 21.5974 362.379 21.2564C362.387 20.9771 362.395 20.6979 362.513 20.4804C362.631 20.263 362.859 20.1073 363.139 20.1221C363.418 20.1369 363.698 20.1518 363.918 20.2753C364.138 20.3989 364.3 20.6312 364.292 20.9104C364.284 21.1896 364.276 21.4689 364.157 21.6864C364.039 21.9038 363.811 22.0595 363.532 22.0447C363.413 22.2621 363.134 22.2473 362.862 21.9533Z" fill="#323232"/>
<path d="M372.956 19.8319L373.085 21.1788L365.533 21.6155L365.506 20.609L369.427 16.2944C369.891 15.7048 370.236 15.3323 370.303 14.945C370.48 14.6194 370.547 14.2321 370.504 13.7831C370.52 13.2256 370.198 12.7618 369.868 12.5768C369.429 12.3301 368.93 12.192 368.204 12.2092C367.029 12.2586 366.177 12.7717 365.655 13.4699L364.504 12.6829C364.909 12.2019 365.314 11.7208 366.048 11.4248C366.673 11.0671 367.458 10.9413 368.243 10.8155C369.308 10.7044 370.195 10.919 370.905 11.4593C371.616 11.9995 371.989 12.6335 372.075 13.5315C372.059 14.089 372.043 14.6465 371.917 15.1424C371.791 15.6382 371.328 16.2278 370.695 16.8643L367.753 20.1699L372.956 19.8319Z" fill="#323232"/>
<path d="M376.002 20.5136C375.4 20.0343 374.917 19.3377 374.602 18.5941C374.347 17.7419 374.151 16.781 374.182 15.6644C374.214 14.5478 374.467 13.5547 374.88 12.7939C375.293 12.033 375.758 11.4426 376.553 11.0375C377.348 10.6324 377.965 10.5533 378.803 10.5978C379.641 10.6422 380.361 10.9041 380.962 11.3833C381.564 11.8625 382.048 12.5592 382.362 13.3027C382.617 14.155 382.814 15.1159 382.782 16.2325C382.75 17.3491 382.498 18.3421 382.084 19.103C381.671 19.8638 381.206 20.4542 380.412 20.8594C379.786 21.2176 378.999 21.3435 378.161 21.2991C377.323 21.2546 376.603 20.9928 376.002 20.5136ZM380.239 19.061C380.763 18.3619 381.125 17.4306 381.106 16.1436C381.087 14.8565 380.95 13.7869 380.466 13.0903C379.982 12.3937 379.322 12.0231 378.543 11.87C377.705 11.8255 376.969 12.122 376.505 12.7124C375.981 13.4115 375.619 14.3428 375.638 15.6298C375.657 16.9168 375.794 17.9864 376.278 18.6831C376.762 19.3797 377.422 19.7502 378.26 19.7947C378.98 20.0565 379.716 19.7601 380.239 19.061Z" fill="#323232"/>
<path d="M388.422 11.8928L386.723 22.1753L385.27 21.9301L386.767 12.8143L384.421 12.3536L384.682 11.0779L388.422 11.8928Z" fill="#323232"/>
<path d="M396.028 18.9242C396.624 19.6842 396.71 20.5853 396.406 21.4097C396.221 22.0162 395.984 22.4519 395.577 22.9347C395.17 23.4174 394.661 23.5586 393.982 23.7467C393.363 23.826 392.522 23.7814 391.8 23.519C391.078 23.2566 390.356 22.9942 389.863 22.5758C389.37 22.1575 388.766 21.6772 388.443 21.2118L389.367 20.3082C389.58 20.7117 389.962 21.0682 390.455 21.4866C390.948 21.9049 391.56 22.1054 392.061 22.2441C392.783 22.5065 393.513 22.4891 393.912 22.2861C394.311 22.0831 394.768 21.7712 394.954 21.1646C395.14 20.5581 394.986 20.0457 394.663 19.5802C394.339 19.1148 393.507 18.7905 392.394 18.4514L390.058 17.7113L392.002 12.5471L397.735 14.1957L397.364 15.4088L392.913 14.0522L391.882 16.7432L392.995 17.0824C394.549 17.6691 395.543 18.2261 396.028 18.9242Z" fill="#323232"/>
<path d="M413.1 28.5128C413.108 28.2339 413.116 27.955 413.234 27.7378C413.352 27.5206 413.58 27.365 413.918 27.2712C414.197 27.2859 414.476 27.3007 414.696 27.4241C414.916 27.5475 415.077 27.7794 415.069 28.0584C415.061 28.3373 415.053 28.6162 414.935 28.8334C414.817 29.0506 414.589 29.2062 414.251 29.3C413.913 29.3939 413.693 29.2705 413.473 29.1471C413.422 28.9768 413.261 28.7448 413.1 28.5128Z" fill="#323232"/>
<path fill-rule="evenodd" clip-rule="evenodd" d="M413.052 13.7421C372.186 -9.15831 321.165 5.17657 299.082 45.7179C277 86.2593 292.193 137.699 333.059 160.599C373.926 183.499 424.946 169.164 447.029 128.623C469.112 88.0817 453.918 36.6424 413.052 13.7421ZM297.343 44.7434C319.966 3.21041 372.204 -11.435 414.006 11.9901C455.809 35.4152 471.391 88.0645 448.768 129.598C426.145 171.131 373.908 185.776 332.105 162.351C290.302 138.926 274.72 86.2765 297.343 44.7434Z" fill="#323232"/>
<path d="M20.5043 48.5749L21.311 47.2671L30.2758 52.2634L29.4692 53.5711L20.5043 48.5749Z" fill="#323232"/>
<path d="M31.873 49.1072C31.2168 49.5735 30.6436 49.8363 30.0579 49.9395L29.4606 48.8357C29.9784 48.7085 30.5516 48.4456 31.0846 48.091C31.6655 47.7144 32.1584 47.268 32.5433 46.7057C33.0992 46.0099 33.3485 45.3996 33.4067 44.877C33.4171 44.3762 33.2364 43.9631 32.8848 43.6834C32.621 43.4737 32.3019 43.3996 31.9952 43.4851C31.6685 43.5247 31.3341 43.6781 31.0399 43.9232C30.7256 44.1224 30.3559 44.4573 29.8429 44.8578C29.2067 45.37 28.646 45.7925 28.2084 46.1033C27.7508 46.3682 27.2531 46.5414 26.763 46.6008C26.2251 46.6821 25.6824 46.4901 25.175 46.1166C24.7555 45.8129 24.4115 45.4196 24.2384 44.8927C24.0654 44.3659 24.0557 43.8192 24.1894 43.2068C24.323 42.5945 24.6955 41.8726 25.2514 41.1768C25.6087 40.6823 26.0538 40.2578 26.5668 39.8572C27.0798 39.4566 27.5374 39.1917 28.0829 38.9967L28.728 40.0786C28.2303 40.2517 27.7727 40.5167 27.3552 40.8734C26.9177 41.1842 26.5681 41.565 26.2662 41.9239C25.7581 42.5977 25.4611 43.2299 25.4506 43.7307C25.4402 44.2314 25.6209 44.6446 26.0203 44.9023C26.284 45.112 26.6032 45.1861 26.9098 45.1006C27.2165 45.0151 27.5709 44.9077 27.8652 44.6625C28.1795 44.4633 28.5969 44.1066 29.0621 43.7279C29.6983 43.2157 30.2591 42.7933 30.6489 42.5043C31.1065 42.2394 31.6042 42.0663 32.0943 42.0068C32.6322 41.9255 33.1071 42.0935 33.6823 42.4911C34.1018 42.7947 34.4458 43.188 34.6189 43.7149C34.7919 44.2418 34.8016 44.7884 34.6201 45.4227C34.4387 46.057 34.114 46.757 33.5581 47.4528C33.0977 48.1047 32.5293 48.6409 31.873 49.1072Z" fill="#323232"/>
<path d="M37.8234 41.0908C36.8578 41.3688 35.9552 41.3978 35.0477 41.1541C34.1402 40.9103 33.3156 40.4635 32.6215 39.7917C31.9275 39.12 31.4994 38.2712 31.2819 37.3809C31.0644 36.4905 31.1252 35.5824 31.4167 34.6786C31.7082 33.7747 32.2504 32.9209 33.0157 32.1847C33.781 31.4486 34.6464 30.9415 35.5643 30.6855C36.5298 30.4075 37.4325 30.3785 38.3199 30.5764C39.2274 30.8202 40.052 31.267 40.6984 31.9606C41.3925 32.6324 41.8683 33.4592 42.0381 34.3715C42.2556 35.2618 42.1947 36.1699 41.9032 37.0738C41.6117 37.9776 41.0695 38.8315 40.3042 39.5676C39.5866 40.2819 38.7412 40.8348 37.8234 41.0908ZM40.6021 36.8456C40.8307 36.1906 40.8287 35.5314 40.6913 34.8243C40.5539 34.1172 40.1983 33.5653 39.6796 33.0331C39.161 32.5009 38.5595 32.1718 37.9027 31.978C37.1983 31.8061 36.5263 31.8394 35.8467 31.9861C35.1671 32.1329 34.5399 32.5306 33.9729 33.0658C33.4058 33.601 33.0418 34.2081 32.8332 34.9089C32.6246 35.6097 32.579 36.2907 32.744 36.9301C32.929 37.6153 33.237 38.1892 33.7556 38.7213C34.2743 39.2535 34.8758 39.5827 35.5326 39.7764C36.237 39.9483 36.909 39.9151 37.5686 39.7225C38.2758 39.508 38.923 39.1561 39.4424 38.6428C39.9618 38.1295 40.4211 37.4787 40.6021 36.8456Z" fill="#323232"/>
<path d="M49.1301 21.5976C50.2455 21.9143 51.2547 22.7763 52.0898 24.1596C52.6759 25.1052 53.0303 26.0465 53.085 26.9596C53.1398 27.8727 52.9705 28.6677 52.5015 29.4345C52.0804 30.1794 51.4353 30.8062 50.5862 31.3608C50.1277 31.6261 49.717 31.8695 49.2661 32.021C48.8153 32.1724 48.3921 32.2559 47.9967 32.2716L47.8969 30.9928C48.524 30.9814 49.1663 30.7422 49.8919 30.2993C50.8367 29.7008 51.3938 29.004 51.5707 28.0951C51.7476 27.1862 51.5091 26.2469 50.8627 25.1635L50.674 24.8636C50.6157 25.387 50.4416 25.9083 50.1315 26.3816C49.7735 26.8767 49.3275 27.3019 48.7732 27.6111C48.1912 27.9882 47.5968 28.2054 46.9898 28.2628C46.3829 28.3202 45.8314 28.2418 45.3355 28.0276C44.8194 27.7674 44.4268 27.3954 44.0898 26.8877C43.7326 26.3339 43.607 25.7844 43.6251 25.169C43.6633 24.5996 43.8173 24.0324 44.1552 23.4912C44.493 22.9501 44.9869 22.503 45.5689 22.1259C46.8411 21.4877 48.0148 21.281 49.1301 21.5976ZM49.3463 25.6376C49.6009 25.3002 49.7195 24.9147 49.7425 24.5731C49.7654 24.2315 49.6724 23.8877 49.4637 23.5419C49.275 23.2421 49.0108 23.032 48.6986 22.844C48.3587 22.7238 47.9911 22.6715 47.5957 22.6871C47.1525 22.7247 46.7217 22.9221 46.2632 23.1874C45.6812 23.5645 45.3031 24.0137 45.0811 24.557C44.907 25.0783 44.9645 25.6038 45.3016 26.1115C45.6387 26.6193 46.059 26.9234 46.6105 27.0018C47.1619 27.0802 47.7765 26.9089 48.4064 26.5099C48.817 26.2665 49.1396 25.9531 49.3463 25.6376Z" fill="#323232"/>
<path d="M57.2563 26.8641C56.5215 26.7596 55.7818 26.3815 55.1455 25.8458C54.4891 25.264 53.9838 24.5027 53.5416 23.4918C53.1194 22.5268 52.9289 21.5661 53.01 20.7014C53.0233 19.8127 53.2805 19.088 53.7415 18.4354C54.2025 17.7827 54.7918 17.292 55.5571 16.9412C56.3225 16.5904 57.0926 16.5132 57.8274 16.6177C58.5622 16.7222 59.3019 17.1003 59.9382 17.6361C60.5947 18.2178 61.1 18.9791 61.5422 19.99C61.9643 20.955 62.1549 21.9158 62.0737 22.7804C62.0605 23.6691 61.8032 24.3938 61.3422 25.0464C60.8812 25.6991 60.2919 26.1898 59.5266 26.5406C58.7613 26.8914 58.0112 27.0146 57.2563 26.8641ZM60.5354 23.5959C60.7524 22.7792 60.6097 21.7966 60.1349 20.5799C59.6324 19.4312 59.0391 18.5998 58.2994 18.2217C57.5598 17.8436 56.8451 17.7851 56.0118 18.1119C55.2465 18.4627 54.6974 19.0453 54.4804 19.8619C54.2634 20.6785 54.4061 21.6612 54.8809 22.8779C55.3834 24.0266 55.9767 24.8579 56.7164 25.2361C57.456 25.6142 58.2185 25.6508 59.004 25.3459C59.8372 25.0191 60.3184 24.4125 60.5354 23.5959Z" fill="#323232"/>
<path d="M66.1641 23.3629C65.437 23.1446 64.7932 22.7227 64.2124 22.0513C63.6316 21.3798 63.2699 20.5528 62.9712 19.4763C62.6926 18.4457 62.6657 17.4652 62.8147 16.6247C62.9638 15.7842 63.3166 15.0157 63.8656 14.4331C64.4146 13.8506 65.0439 13.4518 65.8493 13.1929C66.6547 12.934 67.4171 12.9707 68.1442 13.189C68.8712 13.4072 69.5151 13.8291 70.0959 14.5006C70.6767 15.172 71.0384 15.999 71.3371 17.0756C71.6156 18.1062 71.6426 19.0866 71.4935 19.9272C71.3445 20.7677 70.9916 21.5361 70.4427 22.1187C69.8937 22.7013 69.2643 23.1001 68.4589 23.359C67.7014 23.5959 66.8911 23.5812 66.1641 23.3629ZM69.8751 20.5587C70.2079 19.7443 70.1809 18.7638 69.8698 17.5275C69.5586 16.2912 69.061 15.4162 68.377 14.9024C67.6929 14.3886 67.0061 14.2622 66.1327 14.4971C65.3273 14.7559 64.7382 15.2466 64.4054 16.061C64.0727 16.8754 64.0997 17.8559 64.4108 19.0922C64.7219 20.3285 65.2195 21.2035 65.9036 21.7173C66.5876 22.2311 67.3223 22.3356 68.1478 22.1227C69.001 21.8419 69.5223 21.3272 69.8751 20.5587Z" fill="#323232"/>
<path d="M75.4241 11.2855L76.8463 21.5245L75.3262 21.7723L74.1019 12.7763L71.7248 13.1921L71.5754 11.9271L75.4241 11.2855Z" fill="#323232"/>
<path d="M79.1457 21.077C78.948 20.8902 78.7985 20.6814 78.7936 20.4066C78.7888 20.1317 78.8524 19.881 79.0529 19.6786C79.2534 19.4762 79.4742 19.3199 79.7558 19.3021C80.0373 19.2843 80.2909 19.3347 80.4886 19.5215C80.6863 19.7082 80.7876 19.939 80.8407 20.1919C80.8937 20.4447 80.7819 20.7174 80.6017 20.966C80.4011 21.1684 80.1803 21.3247 79.8988 21.3425C79.597 21.3141 79.3916 21.2417 79.1457 21.077ZM78.7292 15.1163C78.5315 14.9296 78.382 14.7208 78.3772 14.4459C78.3723 14.1711 78.4359 13.9204 78.6364 13.7179C78.8369 13.5155 79.0577 13.3592 79.3393 13.3415C79.6208 13.3237 79.8744 13.3741 80.0721 13.5608C80.2698 13.7476 80.3711 13.9784 80.4242 14.2312C80.4773 14.484 80.3654 14.7568 80.1852 15.0053C79.9846 15.2078 79.7639 15.364 79.4823 15.3818C79.2287 15.3314 78.9751 15.2811 78.7292 15.1163Z" fill="#323232"/>
<path d="M89.4021 19.5162L89.3861 20.7918L81.8227 20.9508L81.8435 19.9487L86.223 15.7904C86.7441 15.2758 87.1217 14.827 87.3081 14.4658C87.4944 14.1047 87.6129 13.7195 87.588 13.4001C87.5784 12.8531 87.3976 12.4397 87.0456 12.1599C86.6937 11.8801 86.1228 11.7558 85.3808 11.7652C84.2439 11.7901 83.3155 12.1606 82.6836 12.9465L81.6757 12.0853C82.081 11.5686 82.6623 11.1918 83.3315 10.885C84.0008 10.5782 84.7504 10.4551 85.5881 10.4019C86.6772 10.3989 87.5674 10.5973 88.2034 11.1329C88.8193 11.6225 89.1407 12.3574 89.1074 13.1998C89.117 13.7468 88.9431 14.2677 88.7013 14.7645C88.4595 15.2614 87.9585 15.8219 87.2664 16.47L83.9767 19.5773L89.4021 19.5162Z" fill="#323232"/>
<path d="M92.2474 20.7338C91.6802 20.2228 91.2838 19.5783 91.0383 18.7546C90.7928 17.9308 90.7658 16.9517 90.9299 15.885C91.0939 14.8183 91.4336 13.8913 91.949 13.1041C92.4167 12.3388 93.0525 11.8269 93.7485 11.4526C94.4645 11.1243 95.2131 11.0013 96.0418 11.0619C96.8229 11.1443 97.5209 11.4301 98.1358 11.9192C98.7031 12.4302 99.0994 13.0746 99.345 13.8984C99.5905 14.7222 99.6174 15.7013 99.4534 16.768C99.2894 17.8347 98.9497 18.7616 98.4342 19.5488C97.9665 20.3141 97.3307 20.826 96.6348 21.2003C95.9187 21.5287 95.1702 21.6517 94.3414 21.5911C93.5127 21.5305 92.7946 21.1989 92.2474 20.7338ZM96.7013 19.5174C97.297 18.9137 97.7322 17.9429 97.9114 16.6489C98.0907 15.3549 98.016 14.3977 97.6273 13.6396C97.2586 12.9274 96.6159 12.5061 95.7671 12.3996C94.9183 12.2932 94.1822 12.5757 93.5865 13.1794C92.9909 13.7831 92.5556 14.7538 92.3764 16.0478C92.1971 17.3418 92.2718 18.299 92.6605 19.0571C93.0292 19.7693 93.6719 20.1907 94.5207 20.2971C95.3695 20.4035 96.1056 20.121 96.7013 19.5174Z" fill="#323232"/>
<path d="M105.51 13.0834L102.674 23.1629L101.21 22.8397L103.681 14.0314L101.393 13.5336L101.757 12.2624L105.51 13.0834Z" fill="#323232"/>
<path d="M112.549 20.6424C112.985 21.3771 113.067 22.219 112.66 23.1201C112.459 23.7069 112.083 24.1543 111.619 24.532C111.156 24.9097 110.612 25.1042 109.961 25.1833C109.309 25.2623 108.578 25.1581 107.766 24.8708C107.09 24.6314 106.441 24.3244 105.896 23.8602C105.322 23.4637 104.939 22.9798 104.652 22.4522L105.749 21.5636C105.95 22.0215 106.292 22.4138 106.731 22.7625C107.169 23.1111 107.702 23.4161 108.243 23.6076C108.987 23.871 109.631 23.9054 110.127 23.7327C110.671 23.5382 111.039 23.2042 111.26 22.6631C111.508 22.0544 111.451 21.531 111.088 21.0929C110.725 20.6547 110.084 20.2343 109.002 19.8512L106.791 19.1069L109.315 14.1561L114.82 16.0277L114.323 17.2451L109.967 15.7805L108.64 18.3683L109.722 18.7514C111.142 19.2541 112.094 19.862 112.549 20.6424Z" fill="#323232"/>
<path d="M126.007 34.5311C126.002 34.2581 126.065 34.009 126.243 33.7621C126.421 33.5152 126.66 33.4059 126.938 33.3882C127.217 33.3706 127.468 33.4206 127.663 33.6062C127.859 33.7917 128.007 33.9991 128.012 34.2721C128.016 34.5451 127.954 34.7941 127.755 34.9952C127.577 35.2421 127.338 35.3514 127.08 35.4149C126.822 35.4784 126.551 35.3825 126.375 35.2428C126.159 35.0115 126.059 34.7822 126.007 34.5311Z" fill="#323232"/>
<path d="M147.724 42.6163L148.533 43.8179L139.832 49.7476L139.023 48.546L147.724 42.6163Z" fill="#323232"/>
<path d="M142.072 52.7453C141.963 51.9732 141.981 51.362 142.134 50.7985L143.405 50.7084C143.28 51.2044 143.262 51.8157 143.311 52.4508C143.408 53.0641 143.573 53.7013 143.879 54.2732C144.266 55.0277 144.695 55.4885 145.14 55.7231C145.584 55.9577 146.024 55.9204 146.499 55.7025C146.811 55.5044 147.008 55.3041 147.099 54.9886C147.189 54.6732 147.211 54.3338 147.167 53.9706C147.122 53.6074 147.038 53.1528 146.873 52.5156C146.696 51.7197 146.552 51.1281 146.495 50.6061C146.438 50.0841 146.516 49.6099 146.708 49.1377C146.901 48.6656 147.296 48.2651 147.893 47.9362C148.396 47.6509 148.91 47.5243 149.437 47.5566C149.964 47.5888 150.504 47.7799 151.008 48.1514C151.512 48.523 151.981 49.0752 152.368 49.8297C152.655 50.3559 152.847 50.9256 152.991 51.5172C153.136 52.1087 153.145 52.6525 153.087 53.1724L151.788 53.3299C151.846 52.81 151.809 52.3337 151.705 51.8335C151.6 51.3333 151.468 50.9005 151.221 50.4657C150.854 49.7568 150.425 49.296 149.933 49.0832C149.441 48.8704 149.002 48.9077 148.574 49.1038C148.262 49.3019 148.064 49.5022 147.974 49.8176C147.884 50.1331 147.861 50.4724 147.906 50.8357C147.951 51.1989 148.055 51.6991 148.18 52.245C148.356 53.041 148.501 53.6325 148.558 54.1545C148.615 54.6765 148.537 55.1507 148.345 55.6229C148.152 56.095 147.757 56.4956 147.16 56.8244C146.657 57.1098 146.143 57.2363 145.616 57.204C145.089 57.1718 144.549 56.9808 144.025 56.5635C143.521 56.1919 143.032 55.5941 142.645 54.8396C142.433 54.2242 142.181 53.5174 142.072 52.7453Z" fill="#323232"/>
<path d="M146.794 61.5792C146.95 60.6268 147.397 59.8162 148 59.0993C148.651 58.3606 149.449 57.8293 150.375 57.4595C151.321 57.1355 152.3 57.0168 153.216 57.1472C154.152 57.3234 154.957 57.7246 155.679 58.3291C156.401 58.9335 156.925 59.739 157.231 60.6997C157.536 61.6605 157.611 62.617 157.454 63.5694C157.298 64.5218 156.851 65.3324 156.248 66.0492C155.645 66.766 154.799 67.3192 153.853 67.6432C152.859 67.989 151.928 68.0859 151.012 67.9555C150.077 67.7793 149.291 67.4239 148.549 66.7736C147.827 66.1692 147.303 65.3637 146.998 64.403C146.692 63.4422 146.618 62.4857 146.794 61.5792ZM149.453 65.6984C149.98 66.1173 150.582 66.4467 151.294 66.5051C152.007 66.5635 152.68 66.5302 153.435 66.2938C154.17 66.0115 154.75 65.6354 155.25 65.0759C155.702 64.5383 156.019 63.9527 156.16 63.2275C156.321 62.5481 156.251 61.8646 155.998 61.155C155.745 60.4453 155.369 59.8472 154.843 59.4283C154.296 58.9635 153.714 58.68 152.981 58.5757C152.296 58.4496 151.596 58.5506 150.841 58.787C150.105 59.0693 149.526 59.4454 149.026 60.0049C148.574 60.5426 148.277 61.174 148.116 61.8533C147.955 62.5327 148.045 63.2621 148.278 63.9259C148.551 64.6813 148.907 65.2336 149.453 65.6984Z" fill="#323232"/>
<path d="M160.684 75.9265L150.404 77.6456L150.226 76.2057L159.237 74.6877L158.932 72.4372L160.202 72.2361L160.684 75.9265Z" fill="#323232"/>
<path d="M153.477 88.4771L153.471 86.5014L150.901 86.6363L150.905 85.2058L153.475 85.0708L153.441 79.3705L154.506 79.3217L161.398 84.2384L161.406 85.8281L154.73 81.1424L154.742 85.0938L157.034 84.9765L157.058 86.3395L154.766 86.4568L154.772 88.4325L153.477 88.4771Z" fill="#323232"/>
<path d="M151.324 91.2841C151.823 90.7255 152.525 90.2387 153.374 89.9589C154.223 89.6792 155.2 89.5607 156.277 89.6711C157.354 89.7815 158.328 90.049 159.036 90.4933C159.745 90.9376 160.331 91.4932 160.678 92.1581C161.026 92.8229 161.115 93.5512 161.015 94.3668C160.914 95.1825 160.59 95.8805 160.091 96.4391C159.593 96.9978 158.891 97.4846 158.042 97.7643C157.192 98.0441 156.216 98.1626 155.139 98.0522C154.062 97.9418 153.088 97.6743 152.379 97.23C151.623 96.8075 151.085 96.23 150.737 95.5652C150.39 94.9004 150.3 94.1721 150.401 93.3564C150.474 92.6084 150.798 91.9104 151.324 91.2841ZM152.466 95.5966C153.051 96.1522 154.045 96.4655 155.305 96.6019C156.612 96.7165 157.637 96.5762 158.359 96.1352C159.08 95.6941 159.559 95.0897 159.66 94.2741C159.761 93.4584 159.508 92.7499 158.922 92.1943C158.337 91.6387 157.343 91.3254 156.083 91.189C154.776 91.0744 153.751 91.2147 153.03 91.6557C152.308 92.0968 151.829 92.7012 151.728 93.5168C151.58 94.3543 151.812 95.0171 152.466 95.5966Z" fill="#323232"/>
<path d="M149.841 100.769C150.428 100.28 151.17 99.8845 152.032 99.7639C152.922 99.5755 153.865 99.6381 154.955 99.9078C156.045 100.178 156.897 100.557 157.551 101.137C158.233 101.649 158.696 102.316 158.881 103.002C159.066 103.687 159.128 104.483 158.892 105.252C158.656 106.02 158.264 106.695 157.677 107.184C157.09 107.673 156.348 108.069 155.486 108.189C154.623 108.31 153.653 108.315 152.563 108.045C151.472 107.776 150.62 107.397 149.967 106.817C149.285 106.304 148.822 105.637 148.637 104.952C148.452 104.267 148.41 103.516 148.626 102.702C148.862 101.933 149.274 101.304 149.841 100.769ZM150.351 105.21C150.862 105.856 151.754 106.326 153.028 106.622C154.301 106.918 155.319 106.891 156.101 106.587C156.931 106.261 157.43 105.702 157.646 104.888C157.863 104.074 157.725 103.367 157.214 102.721C156.703 102.076 155.811 101.605 154.538 101.309C153.265 101.013 152.247 101.04 151.465 101.344C150.635 101.67 150.135 102.229 149.919 103.043C149.655 103.879 149.793 104.586 150.351 105.21Z" fill="#323232"/>
<path d="M155.648 114.391L145.998 110.858L146.597 109.485L155.031 112.587L155.961 110.404L157.177 110.834L155.648 114.391Z" fill="#323232"/>
<path d="M145.266 113.064C145.504 112.954 145.803 112.982 146.075 113.078C146.346 113.174 146.494 113.382 146.594 113.611C146.695 113.841 146.652 114.136 146.521 114.361C146.41 114.632 146.192 114.788 145.953 114.897C145.714 115.007 145.415 114.979 145.192 114.861C144.92 114.765 144.772 114.557 144.652 114.282C144.552 114.052 144.595 113.757 144.725 113.532C144.828 113.375 145.027 113.173 145.266 113.064ZM150.68 115.484C150.919 115.374 151.218 115.403 151.489 115.499C151.76 115.595 151.908 115.802 152.009 116.032C152.109 116.261 152.066 116.556 151.935 116.781C151.825 117.053 151.606 117.208 151.367 117.317C151.129 117.427 150.83 117.399 150.606 117.281C150.335 117.185 150.187 116.977 150.066 116.702C149.966 116.472 150.009 116.177 150.14 115.952C150.243 115.795 150.442 115.593 150.68 115.484Z" fill="#323232"/>
<path d="M141.263 122.627L140.128 121.992L144.097 115.494L144.942 115.987L146.205 121.625C146.342 122.332 146.542 122.791 146.75 123.135C146.958 123.48 147.241 123.735 147.532 123.877C147.998 124.158 148.46 124.167 148.957 123.994C149.386 123.797 149.85 123.419 150.214 122.812C150.811 121.822 150.968 120.87 150.635 119.978L151.914 119.501C152.107 120.073 152.177 120.756 152.083 121.459C151.99 122.162 151.714 122.839 151.294 123.582C150.724 124.503 150.034 125.15 149.251 125.454C148.469 125.758 147.709 125.722 146.932 125.253C146.465 124.972 146.095 124.647 145.779 124.186C145.463 123.726 145.23 123.062 145.033 122.218L144.093 117.972L141.263 122.627Z" fill="#323232"/>
<path d="M139.032 124.61C139.768 124.327 140.557 124.296 141.447 124.494C142.336 124.692 143.142 125.094 144.001 125.747C144.86 126.4 145.508 127.095 145.849 127.875C146.19 128.656 146.396 129.388 146.322 130.138C146.249 130.888 145.924 131.588 145.416 132.262C144.888 132.89 144.28 133.334 143.543 133.617C142.807 133.899 142.018 133.93 141.128 133.732C140.239 133.534 139.433 133.132 138.574 132.479C137.715 131.826 137.067 131.131 136.726 130.351C136.337 129.592 136.179 128.838 136.252 128.088C136.326 127.338 136.651 126.638 137.159 125.964C137.667 125.291 138.275 124.846 139.032 124.61ZM137.674 128.979C137.9 129.757 138.492 130.588 139.507 131.335C140.521 132.082 141.443 132.486 142.3 132.478C143.157 132.471 143.826 132.165 144.382 131.469C144.937 130.773 145.079 130.047 144.853 129.269C144.627 128.491 144.035 127.66 143.02 126.913C142.006 126.166 141.084 125.763 140.227 125.77C139.37 125.777 138.654 126.105 138.146 126.779C137.617 127.407 137.476 128.133 137.674 128.979Z" fill="#323232"/>
<path d="M138.846 139.512L131.495 132.442L132.587 131.39L139.044 137.599L140.762 135.873L141.677 136.78L138.846 139.512Z" fill="#323232"/>
<path d="M128.69 141.955C127.783 141.984 126.994 141.628 126.392 140.91C126.007 140.423 125.785 139.917 125.728 139.392C125.65 138.82 125.756 138.274 126.054 137.641C126.372 137.053 126.854 136.446 127.54 135.911C128.13 135.419 128.781 135.066 129.451 134.759C130.122 134.452 130.777 134.372 131.405 134.361L131.593 135.71C131.109 135.656 130.59 135.784 129.995 136.001C129.448 136.196 128.893 136.506 128.379 136.907C127.74 137.42 127.382 137.916 127.228 138.483C127.102 138.983 127.207 139.487 127.572 139.927C127.958 140.413 128.434 140.581 129.041 140.524C129.649 140.467 130.375 140.023 131.281 139.333L133.147 137.815L136.123 142.25L131.457 146.044L130.639 145.094L134.323 142.08L132.785 139.748L131.852 140.507C130.631 141.397 129.597 141.926 128.69 141.955Z" fill="#323232"/>
<path d="M110.048 146.556C110.319 146.652 110.467 146.86 110.587 147.135C110.708 147.41 110.645 147.659 110.534 147.93C110.424 148.201 110.205 148.356 109.967 148.465C109.729 148.575 109.45 148.592 109.227 148.474C109.004 148.357 108.808 148.171 108.708 147.942C108.588 147.667 108.603 147.44 108.714 147.169C108.824 146.898 109.042 146.743 109.281 146.633C109.479 146.432 109.777 146.461 110.048 146.556Z" fill="#323232"/>
<path d="M91.9865 161.07L90.481 161.203L89.9863 150.84L91.4919 150.707L91.9865 161.07Z" fill="#323232"/>
<path d="M86.386 151.205C87.1108 151.423 87.665 151.774 88.0561 152.145L87.423 153.316C87.0319 152.945 86.5655 152.663 85.9561 152.448C85.3466 152.232 84.7095 152.084 84.0372 152.117C83.1817 152.124 82.5017 152.271 82.045 152.536C81.5882 152.8 81.3546 153.183 81.3442 153.683C81.3214 154.023 81.3939 154.32 81.6572 154.53C81.8728 154.761 82.1637 154.903 82.5022 155.023C82.8408 155.142 83.3148 155.31 83.9319 155.412C84.7044 155.608 85.3616 155.802 85.7879 155.992C86.2619 156.16 86.6807 156.463 86.9764 156.877C87.3198 157.27 87.4448 157.818 87.3792 158.454C87.3411 159.021 87.1476 159.495 86.8387 159.967C86.5097 160.393 86.0454 160.772 85.4532 160.988C84.8333 161.273 84.0856 161.395 83.2101 161.357C82.5854 161.368 81.9684 161.266 81.379 161.096C80.7895 160.926 80.2955 160.713 79.8768 160.409L80.4421 159.215C80.8608 159.518 81.3348 159.686 81.8088 159.853C82.2829 160.021 82.7645 160.075 83.2738 160.062C84.1292 160.055 84.7615 159.93 85.1983 159.619C85.635 159.309 85.8686 158.927 85.899 158.472C85.9218 158.132 85.8016 157.857 85.586 157.625C85.3705 157.394 85.0595 157.206 84.7209 157.087C84.3823 156.967 83.9083 156.799 83.2913 156.697C82.5187 156.501 81.8616 156.307 81.4353 156.117C80.9612 155.95 80.5902 155.625 80.2468 155.232C79.9034 154.839 79.7984 154.337 79.7963 153.677C79.8344 153.11 80.0279 152.636 80.3568 152.209C80.6858 151.783 81.1502 151.405 81.7901 151.167C82.43 150.928 83.1776 150.805 84.0331 150.798C84.9086 150.837 85.6611 150.987 86.386 151.205Z" fill="#323232"/>
<path d="M76.3806 150.797C77.1023 151.401 77.6335 152.093 77.9187 153.007C78.2315 153.854 78.2584 154.832 78.0345 155.76C77.8307 156.733 77.4038 157.589 76.7337 158.282C76.0837 159.02 75.2659 159.505 74.3679 159.807C73.4223 160.131 72.4719 160.182 71.4213 160.004C70.3708 159.826 69.5185 159.446 68.7967 158.842C68.0749 158.238 67.5438 157.547 67.2586 156.632C66.9934 155.764 66.9389 154.853 67.1428 153.88C67.3466 152.906 67.7735 152.05 68.4436 151.357C69.0936 150.619 69.8637 150.156 70.8093 149.832C71.755 149.508 72.7054 149.457 73.7559 149.635C74.7589 149.836 75.6789 150.239 76.3806 150.797ZM71.3225 151.137C70.6352 151.397 70.0556 151.773 69.6039 152.31C69.1521 152.848 68.8081 153.501 68.6671 154.226C68.5262 154.95 68.5483 155.655 68.7333 156.341C68.966 157.004 69.3217 157.556 69.848 157.975C70.3743 158.394 71.0236 158.701 71.7557 158.805C72.5079 158.955 73.2276 158.9 73.9149 158.64C74.6022 158.379 75.1817 158.004 75.6535 157.512C76.1053 156.975 76.4493 156.322 76.5902 155.597C76.7312 154.872 76.7091 154.167 76.5241 153.482C76.339 152.797 75.9357 152.266 75.4094 151.848C74.863 151.383 74.2338 151.122 73.4816 150.972C72.7295 150.822 72.0097 150.877 71.3225 151.137Z" fill="#323232"/>
<path d="M56.4987 155.458L60.711 145.81L62.0882 146.336L58.4222 154.741L60.6135 155.555L60.0949 156.73L56.4987 155.458Z" fill="#323232"/>
<path d="M49.604 143.096L51.3147 144.011L52.6156 141.769L53.8618 142.403L52.561 144.645L57.5857 147.274L57.0654 148.171L49.0004 151.762L47.5993 151.034L55.312 147.55L51.8431 145.742L50.7198 147.738L49.4736 147.104L50.5969 145.108L48.8862 144.193L49.604 143.096Z" fill="#323232"/>
<path d="M48.4511 139.596C48.7035 140.304 48.6979 141.076 48.502 141.935C48.306 142.794 47.8322 143.671 47.1279 144.544C46.4237 145.416 45.6871 146.084 44.898 146.501C44.109 146.918 43.3352 147.108 42.5489 147.139C41.7903 147.103 41.0668 146.885 40.4337 146.351C39.7731 145.885 39.3503 145.31 39.098 144.602C38.8456 143.894 38.8512 143.122 39.0471 142.263C39.243 141.404 39.7169 140.527 40.4211 139.654C41.1254 138.782 41.862 138.114 42.631 137.651C43.4201 137.234 44.1939 137.044 44.9801 137.013C45.7388 137.049 46.4622 137.267 47.0753 137.755C47.756 138.267 48.1987 138.888 48.4511 139.596ZM44.0476 138.54C43.2461 138.797 42.3943 139.463 41.5873 140.493C40.7803 141.522 40.3464 142.491 40.3133 143.33C40.2801 144.169 40.5801 144.856 41.2407 145.322C41.9014 145.788 42.6525 145.938 43.4539 145.68C44.2553 145.422 45.1071 144.757 45.9141 143.727C46.7211 142.697 47.155 141.729 47.1882 140.89C47.2214 140.05 46.8738 139.386 46.2607 138.898C45.6276 138.364 44.8966 138.26 44.0476 138.54Z" fill="#323232"/>
<path d="M40.979 133.514C41.1361 134.265 41.0154 135.035 40.6845 135.845C40.3535 136.656 39.7924 137.463 39.001 138.265C38.1897 139.022 37.3659 139.62 36.5174 139.899C35.6888 140.225 34.8755 140.323 34.1248 140.174C33.3742 140.024 32.7063 139.671 32.1687 139.094C31.5835 138.539 31.2362 137.875 31.1466 137.147C31.0571 136.419 31.1102 135.626 31.4412 134.815C31.7721 134.004 32.3332 133.198 33.1246 132.395C33.916 131.593 34.7597 131.041 35.6082 130.761C36.4368 130.436 37.2502 130.337 38.0008 130.487C38.7514 130.637 39.4193 130.989 39.9569 131.566C40.4945 132.144 40.8694 132.74 40.979 133.514ZM36.8261 131.85C35.9852 132.016 35.0739 132.544 34.1598 133.458C33.1982 134.393 32.657 135.246 32.5088 136.083C32.3605 136.919 32.5452 137.603 33.1503 138.204C33.7355 138.76 34.4585 138.977 35.2719 138.878C36.1129 138.712 37.0241 138.184 37.9382 137.27C38.8999 136.335 39.441 135.483 39.5893 134.646C39.7375 133.809 39.5529 133.125 38.9477 132.524C38.3901 131.901 37.6671 131.684 36.8261 131.85Z" fill="#323232"/>
<path d="M25.9359 131.756L34.2876 125.248L35.1759 126.37L27.841 132.085L29.2369 133.849L28.2201 134.643L25.9359 131.756Z" fill="#323232"/>
<path d="M27.5809 126.831C27.5187 127.077 27.3896 127.299 27.1266 127.474C26.8636 127.649 26.6553 127.69 26.3602 127.662C26.1123 127.613 25.8917 127.496 25.7257 127.246C25.5796 127.041 25.5277 126.793 25.5899 126.548C25.6521 126.302 25.7812 126.08 26.0442 125.905C26.3071 125.73 26.5626 125.668 26.8105 125.717C27.0585 125.767 27.2791 125.883 27.4252 126.088C27.5714 126.292 27.6232 126.54 27.5809 126.831ZM32.5851 123.399C32.5229 123.645 32.3938 123.867 32.1308 124.042C31.8679 124.217 31.6595 124.258 31.3645 124.23C31.1165 124.18 30.8959 124.064 30.73 123.814C30.5838 123.609 30.532 123.361 30.5941 123.115C30.6563 122.869 30.7854 122.647 31.0484 122.473C31.3114 122.298 31.5669 122.235 31.8148 122.285C32.0627 122.334 32.2833 122.451 32.4295 122.655C32.6426 122.884 32.6944 123.132 32.5851 123.399Z" fill="#323232"/>
<path d="M26.4736 115.268L27.6216 114.631L31.1341 120.974L30.2238 121.502L24.5927 119.971C23.8904 119.8 23.3905 119.7 22.9505 119.737C22.558 119.753 22.1579 119.882 21.8453 120.08C21.3426 120.366 21.0898 120.701 20.9645 121.197C20.8866 121.672 21.0112 122.218 21.3382 122.836C21.8725 123.798 22.6395 124.379 23.6193 124.533L23.3259 125.819C22.711 125.718 22.0837 125.457 21.5591 125.039C20.9869 124.643 20.5173 124.091 20.1504 123.381C19.6361 122.465 19.4867 121.601 19.6349 120.765C19.8029 119.975 20.2609 119.326 21.0487 118.909C21.5514 118.624 22.0465 118.451 22.6015 118.416C23.1565 118.381 23.8864 118.485 24.7236 118.704L28.95 119.892L26.4736 115.268Z" fill="#323232"/>
<path d="M25.8595 112.039C25.6714 112.784 25.2809 113.457 24.6604 114.125C24.0199 114.749 23.1769 115.3 22.159 115.712C21.1411 116.124 20.1584 116.356 19.2858 116.317C18.4133 116.279 17.6434 116.083 17.0512 115.642C16.4115 115.222 15.9894 114.648 15.7174 113.895C15.4454 113.142 15.356 112.415 15.5441 111.67C15.7321 110.925 16.1227 110.252 16.7432 109.583C17.3837 108.96 18.2267 108.409 19.2446 107.996C20.2624 107.584 21.2452 107.353 22.1177 107.391C22.9902 107.43 23.7602 107.625 24.3524 108.067C24.9921 108.486 25.4142 109.061 25.6862 109.814C26.0056 110.545 26.0476 111.294 25.8595 112.039ZM22.8242 108.878C22.0067 108.704 20.984 108.844 19.7761 109.344C18.5681 109.843 17.6976 110.462 17.212 111.179C16.7265 111.895 16.6534 112.642 16.9254 113.395C17.1973 114.148 17.762 114.657 18.5794 114.831C19.3968 115.004 20.4195 114.864 21.6275 114.365C22.8354 113.865 23.7059 113.247 24.1915 112.53C24.6771 111.813 24.7502 111.066 24.4782 110.313C24.1863 109.515 23.6416 109.051 22.8242 108.878Z" fill="#323232"/>
<path d="M12.858 104.634L22.9135 101.769L23.2319 103.143L14.3863 105.671L14.9468 107.857L13.6899 108.215L12.858 104.634Z" fill="#323232"/>
<path d="M16.0691 94.6174C16.5351 93.8544 17.2362 93.3679 18.2399 93.182C18.8707 93.0573 19.4187 93.1353 19.9591 93.3267C20.4995 93.518 20.9372 93.8664 21.2922 94.4174C21.6471 94.9685 21.8794 95.6307 22.0089 96.45C22.0985 97.1777 22.1205 97.8815 21.9598 98.5594C21.8191 99.2829 21.6185 99.8693 21.2628 100.362L19.9793 99.9075C20.2598 99.5042 20.5005 99.0093 20.586 98.4209C20.7391 97.8564 20.757 97.2441 20.6599 96.6297C20.5503 95.8562 20.3105 95.3072 19.9204 94.9371C19.5302 94.5669 19.0298 94.467 18.4942 94.5481C17.8634 94.6727 17.4277 94.9825 17.1871 95.4773C16.9465 95.9722 16.8658 96.833 17.0477 97.9028L17.3763 100.223L11.8603 100.668L11.0687 94.935L12.3501 94.7313L12.995 99.2133L15.8682 98.9932L15.7138 97.8558C15.4596 96.4897 15.603 95.3805 16.0691 94.6174Z" fill="#323232"/>
<path d="M21.4871 76.0166C21.2688 76.1718 21.0105 76.2352 20.7121 76.207C20.4137 76.1789 20.2382 76.0392 20.0704 75.7861C19.9225 75.5787 19.87 75.3277 19.9128 75.0329C19.9556 74.7381 20.1062 74.559 20.3245 74.4038C20.5428 74.2487 20.8011 74.1852 21.0995 74.2134C21.3979 74.2416 21.621 74.3593 21.7889 74.6125C21.9367 74.8198 21.9892 75.0709 21.9264 75.3198C21.8359 75.6365 21.7054 75.8614 21.4871 76.0166Z" fill="#323232"/>
<path fill-rule="evenodd" clip-rule="evenodd" d="M51.8381 10.3343C10.0819 29.1672 -8.50124 78.2844 10.3316 120.041C29.1645 161.797 78.2817 180.38 120.038 161.547C161.794 142.714 180.377 93.5972 161.544 51.8409C142.712 10.0846 93.5944 -8.49851 51.8381 10.3343ZM8.50847 120.863C-10.7785 78.0998 8.25271 27.7982 51.0159 8.5112C93.779 -10.7758 144.081 8.25544 163.368 51.0186C182.655 93.7818 163.623 144.083 120.86 163.37C78.097 182.657 27.7954 163.626 8.50847 120.863Z" fill="#323232"/>
</svg>
