<svg width="171" height="170" viewBox="0 0 171 170" fill="none" xmlns="http://www.w3.org/2000/svg">
<path d="M154.401 54.9571L154.955 56.2791L145.411 60.2971L144.857 58.9752L154.401 54.9571Z" fill="#323232"/>
<path d="M147.501 65.075C147.53 64.3803 147.732 63.6915 147.927 63.1764L149.136 63.3915C148.941 63.9066 148.746 64.4218 148.717 65.1165C148.689 65.8112 148.75 66.422 148.986 67.0388C149.214 67.8292 149.54 68.3621 149.957 68.8111C150.38 69.0864 150.811 69.1881 151.249 69.116C151.603 68.9542 151.867 68.8762 152.055 68.5348C152.153 68.2772 152.341 67.9358 152.355 67.5884C152.369 67.2411 152.391 66.72 152.329 66.1092C152.274 65.3247 152.303 64.63 152.324 64.1089C152.345 63.5879 152.54 63.0727 152.819 62.6474C153.097 62.2221 153.542 61.9764 154.161 61.7366C154.689 61.5807 155.21 61.5984 155.724 61.7899C156.238 61.9813 156.661 62.2566 157.078 62.7056C157.494 63.1546 157.813 63.8612 158.041 64.6516C158.193 65.1786 158.255 65.7894 158.317 66.4003C158.379 67.0111 158.267 67.6161 158.072 68.1312L156.773 67.9999C156.968 67.4848 156.99 66.9638 157.011 66.4427C157.032 65.9217 156.963 65.4845 156.811 64.9576C156.583 64.1671 156.257 63.6342 155.924 63.275C155.591 62.9158 155.07 62.8981 154.632 62.9701C154.277 63.132 154.013 63.2099 153.825 63.5514C153.637 63.8928 153.54 64.1504 153.525 64.4977C153.511 64.8451 153.49 65.3661 153.552 65.977C153.606 66.7615 153.578 67.4562 153.556 67.9772C153.535 68.4983 153.34 69.0134 153.061 69.4387C152.783 69.8641 152.338 70.1098 151.72 70.3496C151.191 70.5055 150.67 70.4877 150.156 70.2963C149.643 70.1048 149.219 69.8295 148.719 69.2907C148.303 68.8417 147.984 68.1351 147.756 67.3447C147.528 66.5543 147.382 65.8536 147.501 65.075Z" fill="#323232"/>
<path d="M150.314 76.2243C150.697 75.3678 151.247 74.6908 152.054 74.1095C152.86 73.5283 153.743 73.2105 154.702 73.1562C155.66 73.102 156.612 73.2214 157.466 73.5983C158.32 73.9753 158.994 74.52 159.479 75.4062C160.055 76.2085 160.366 77.0888 160.407 78.2207C160.538 79.2687 160.412 80.221 160.029 81.0776C159.646 81.9341 159.096 82.6111 158.289 83.1924C157.483 83.7736 156.691 84.0075 155.641 84.1457C154.682 84.1999 153.731 84.0805 152.877 83.7036C152.022 83.3266 151.349 82.7819 150.864 81.8957C150.288 81.0934 149.976 80.2131 149.929 79.2549C149.805 78.0332 149.931 77.0809 150.314 76.2243ZM151.949 80.8891C152.358 81.5118 152.865 81.8769 153.462 82.1582C154.059 82.4394 154.837 82.5529 155.449 82.4868C156.234 82.4266 156.852 82.1868 157.478 81.7733C158.104 81.3598 158.473 80.8506 158.758 80.2516C159.044 79.6526 159.163 78.874 159.017 78.1733C158.963 77.3888 158.727 76.772 158.318 76.1493C157.909 75.5266 157.402 75.1615 156.805 74.8802C156.208 74.599 155.43 74.4855 154.818 74.5516C154.033 74.6118 153.414 74.8516 152.789 75.2651C152.163 75.6786 151.794 76.1878 151.509 76.7868C151.223 77.3858 151.104 78.1644 151.159 78.949C151.304 79.6496 151.449 80.3503 151.949 80.8891Z" fill="#323232"/>
<path d="M150.915 101.636L151.258 99.6464L148.756 99.1261L148.987 97.742L151.489 98.2623L152.503 92.6419L153.539 92.8512L159.281 99.2238L159.043 100.782L153.551 94.6786L152.782 98.5673L155.027 98.9918L154.796 100.376L152.551 99.9514L152.208 101.941L150.915 101.636Z" fill="#323232"/>
<path d="M150.75 110.841C150.034 111.338 149.165 111.308 148.303 111.105C147.789 110.914 147.282 110.548 146.949 110.189C146.533 109.74 146.38 109.213 146.318 108.602C146.257 107.991 146.376 107.212 146.668 106.439C146.871 105.75 147.247 105.067 147.616 104.558C148.075 103.964 148.527 103.545 149.063 103.215L149.979 104.203C149.534 104.449 149.172 104.785 148.72 105.204C148.268 105.624 148.073 106.139 147.787 106.738C147.494 107.511 147.473 108.032 147.625 108.559C147.777 109.086 148.111 109.446 148.625 109.637C149.139 109.829 149.751 109.763 150.112 109.427C150.648 109.097 151.024 108.414 151.331 107.294L152.119 105.059L157.072 107.316L155.106 112.816L153.904 112.427L155.472 108.131L152.909 107L152.519 108.03C152.114 109.408 151.557 110.259 150.75 110.841Z" fill="#323232"/>
<path d="M143.949 114.332C144.659 114.008 145.361 113.858 146.229 113.888C147.098 113.917 148.043 114.21 148.981 114.677C149.918 115.144 150.675 115.779 151.168 116.491C151.66 117.204 151.979 117.911 152.034 118.696C152.089 119.48 151.886 120.169 151.51 120.852C151.134 121.535 150.592 122.039 149.966 122.452C149.257 122.776 148.554 122.926 147.686 122.897C146.817 122.867 145.872 122.574 144.935 122.107C143.997 121.64 143.24 121.005 142.747 120.293C142.255 119.58 141.936 118.873 141.881 118.089C141.826 117.304 142.029 116.615 142.405 115.932C142.698 115.159 143.24 114.656 143.949 114.332ZM143.507 118.753C143.909 119.549 144.666 120.184 145.77 120.831C146.874 121.477 147.91 121.686 148.695 121.626C149.571 121.482 150.197 121.068 150.573 120.385C150.949 119.702 150.984 118.834 150.666 118.127C150.263 117.33 149.507 116.696 148.402 116.049C147.298 115.403 146.263 115.193 145.477 115.254C144.692 115.314 143.976 115.811 143.6 116.494C143.133 117.261 143.104 117.956 143.507 118.753Z" fill="#323232"/>
<path d="M138.214 123.683C139.006 123.449 139.701 123.473 140.563 123.676C141.425 123.879 142.279 124.256 143.119 124.981C143.96 125.706 144.626 126.424 144.945 127.131C145.347 127.928 145.493 128.628 145.457 129.497C145.338 130.276 145.135 130.965 144.586 131.642C144.126 132.235 143.41 132.733 142.791 132.973C141.998 133.207 141.303 133.183 140.442 132.98C139.58 132.776 138.725 132.399 137.885 131.675C137.045 130.95 136.379 130.232 136.06 129.525C135.657 128.728 135.512 128.027 135.548 127.159C135.584 126.29 135.869 125.691 136.419 125.014C136.795 124.331 137.421 123.917 138.214 123.683ZM136.902 128.075C137.131 128.865 137.707 129.668 138.804 130.488C139.818 131.219 140.756 131.686 141.625 131.715C142.493 131.745 143.203 131.421 143.662 130.828C144.212 130.151 144.331 129.372 144.102 128.581C143.874 127.79 143.298 126.988 142.201 126.168C141.187 125.437 140.249 124.97 139.38 124.941C138.511 124.911 137.802 125.235 137.343 125.828C136.793 126.505 136.674 127.284 136.902 128.075Z" fill="#323232"/>
<path d="M136.797 139.887L129.699 132.418L130.786 131.41L137.049 137.98L138.77 136.385L139.605 137.284L136.797 139.887Z" fill="#323232"/>
<path d="M109.308 149.998C109.565 150.093 109.732 150.273 109.808 150.536C109.884 150.8 109.96 151.063 109.78 151.231C109.682 151.489 109.501 151.656 109.237 151.734C108.973 151.812 108.8 151.806 108.543 151.711C108.286 151.615 108.119 151.435 108.043 151.172C107.967 150.908 107.89 150.645 107.988 150.387C108.085 150.13 108.266 149.962 108.53 149.884C108.794 149.806 109.142 149.818 109.308 149.998Z" fill="#323232"/>
<path d="M80.3114 159.794L78.8388 159.657L79.6977 149.339L81.1703 149.476L80.3114 159.794Z" fill="#323232"/>
<path d="M74.571 149.049C75.2513 149.42 75.6675 149.869 76.0838 150.318L75.3464 151.336C75.0134 150.977 74.5972 150.528 74.0905 150.163C73.5839 149.798 72.8965 149.601 72.2923 149.493C71.4313 149.29 70.82 149.356 70.292 149.512C69.7639 149.668 69.576 150.009 69.3809 150.524C69.3667 150.872 69.3524 151.219 69.5189 151.399C69.7686 151.668 69.9351 151.848 70.2753 152.033C70.6154 152.219 71.0388 152.494 71.5526 152.685C72.2328 153.056 72.8298 153.337 73.2532 153.613C73.6766 153.888 74.0096 154.247 74.2522 154.69C74.4948 155.133 74.5567 155.744 74.4449 156.349C74.3331 156.953 74.0548 157.379 73.6932 157.714C73.3317 158.049 72.7965 158.379 72.1852 158.445C71.4835 158.595 70.789 158.571 69.9279 158.368C69.3238 158.261 68.81 158.069 68.213 157.788C67.616 157.507 67.1926 157.232 66.8596 156.872L67.5969 155.854C67.9299 156.213 68.3533 156.489 68.7767 156.764C69.2001 157.039 69.6306 157.141 70.1444 157.332C71.0054 157.535 71.6167 157.469 72.0615 157.224C72.5063 156.978 72.8679 156.643 72.9725 156.211C72.9868 155.864 73.0011 155.517 72.8346 155.337C72.5848 155.068 72.4183 154.888 72.0782 154.703C71.7381 154.517 71.3147 154.242 70.8009 154.051C70.1206 153.68 69.5236 153.399 69.1002 153.123C68.6769 152.848 68.3439 152.489 68.1012 152.046C67.8586 151.603 67.7968 150.992 67.9086 150.387C68.0204 149.783 68.2987 149.357 68.6602 149.022C69.0218 148.686 69.557 148.357 70.1683 148.291C70.87 148.141 71.5645 148.164 72.4255 148.368C73.2937 148.397 73.9811 148.595 74.571 149.049Z" fill="#323232"/>
<path d="M63.4471 146.461C64.0229 147.263 64.4249 148.06 64.5629 148.934C64.7009 149.808 64.5748 150.761 64.275 151.707C63.8919 152.564 63.3352 153.414 62.619 153.912C61.8125 154.493 61.1034 154.817 60.0542 154.955C59.0953 155.009 58.1436 154.89 57.1991 154.597C56.1712 154.214 55.4979 153.669 54.8317 152.951C54.1656 152.232 53.8539 151.352 53.7159 150.477C53.5779 149.603 53.704 148.651 54.1775 147.71C54.651 146.77 55.1173 146.003 55.8335 145.506C56.5497 145.008 57.3491 144.601 58.3983 144.463C59.3572 144.408 60.3089 144.528 61.2534 144.821C62.1076 145.198 62.8713 145.659 63.4471 146.461ZM58.522 145.684C57.8202 145.834 57.2016 146.074 56.6662 146.404C56.0405 146.817 55.7549 147.416 55.379 148.099C55.0864 148.872 54.9745 149.477 55.1197 150.177C55.2648 150.878 55.5003 151.495 55.8263 152.028C56.3259 152.567 56.8327 152.932 57.5132 153.303C58.284 153.59 58.8884 153.698 59.5902 153.548C60.2921 153.398 60.9107 153.158 61.4461 152.828C62.0718 152.415 62.3573 151.816 62.7333 151.133C63.0259 150.36 63.1377 149.755 62.9926 149.054C62.8475 148.354 62.612 147.737 62.2027 147.114C61.7935 146.492 61.1963 146.21 60.5159 145.839C59.9115 145.732 59.2239 145.534 58.522 145.684Z" fill="#323232"/>
<path d="M40.6535 135.11L42.2567 136.295L43.8146 134.349L44.9111 135.168L43.3532 137.115L47.8153 140.658L47.1755 141.419L38.8314 143.482L37.5684 142.482L45.5652 140.407L42.4493 137.954L41.0721 139.733L39.9756 138.913L41.3528 137.134L39.7496 135.949L40.6535 135.11Z" fill="#323232"/>
<path d="M32.5381 130.898C32.4002 130.024 32.783 129.168 33.4155 128.581C33.8673 128.162 34.3119 127.916 34.8397 127.761C35.3676 127.605 35.9715 127.712 36.6587 127.91C37.2555 128.191 37.9355 128.562 38.518 129.19C39.0174 129.728 39.4263 130.351 39.7521 130.883C40.0707 131.59 40.2228 132.116 40.2847 132.727L38.965 133.117C38.9864 132.596 38.8343 132.069 38.5917 131.626C38.3564 131.01 38.0235 130.651 37.6074 130.202C37.1081 129.663 36.5113 129.382 35.9977 129.191C35.477 129.173 35.0395 129.245 34.5877 129.664C34.1359 130.084 33.9409 130.598 34.0931 131.125C34.1549 131.736 34.5639 132.358 35.3961 133.256L36.9772 134.961L32.6688 138.291L28.6671 134.156L29.5707 133.318L32.7401 136.555L34.9847 134.806L34.2357 133.998C33.2442 132.748 32.676 131.772 32.5381 130.898Z" fill="#323232"/>
<path d="M32.6465 123.053C32.7012 123.838 32.4087 124.61 31.9426 125.377C31.4765 126.143 30.7535 126.814 29.9473 127.395C29.0507 128.06 28.1684 128.378 27.2933 128.522C26.4181 128.666 25.6405 128.552 24.9532 128.355C24.2659 128.158 23.6833 127.529 23.2742 126.907C22.8652 126.284 22.6369 125.494 22.5822 124.71C22.5275 123.925 22.82 123.153 23.2862 122.387C23.7523 121.62 24.4753 120.949 25.2814 120.368C26.178 119.703 27.0603 119.386 27.9355 119.242C28.8106 119.098 29.5883 119.211 30.2756 119.408C31.0461 119.695 31.5455 120.234 31.9545 120.856C32.4468 121.569 32.6751 122.359 32.6465 123.053ZM29.0104 120.582C28.1424 120.553 27.2601 120.87 26.0995 121.613C24.939 122.356 24.2993 123.117 24.0067 123.889C23.7142 124.661 23.7689 125.446 24.2612 126.158C24.7534 126.87 25.3503 127.151 26.2184 127.181C27.0864 127.211 27.9687 126.893 29.1292 126.15C30.2898 125.407 30.9295 124.647 31.222 123.874C31.5145 123.102 31.4599 122.317 30.9676 121.605C30.3849 120.977 29.8784 120.612 29.0104 120.582Z" fill="#323232"/>
<path d="M26.9974 113.54C26.8785 114.319 26.5027 115.001 25.9532 115.678C25.4038 116.355 24.5975 116.936 23.6247 117.338C22.652 117.739 21.6863 117.967 20.8182 117.937C19.9501 117.908 19.1723 117.794 18.5825 117.34C17.9023 116.969 17.4932 116.346 17.1745 115.64C16.8558 114.933 16.8011 114.149 16.8296 113.454C16.8582 112.76 17.3243 111.993 17.8738 111.316C18.4232 110.64 19.2295 110.059 20.2023 109.657C21.1751 109.255 22.1407 109.028 23.0088 109.057C23.8769 109.087 24.6547 109.2 25.2445 109.655C25.9248 110.026 26.3338 110.648 26.6525 111.355C27.0545 112.151 27.1996 112.852 26.9974 113.54ZM23.7295 110.56C22.8685 110.356 21.9028 110.584 20.7493 111.154C19.5957 111.723 18.7895 112.304 18.3233 113.071C17.8571 113.837 17.8285 114.532 18.2305 115.328C18.5492 116.034 19.139 116.489 20 116.692C20.861 116.896 21.8267 116.668 22.9802 116.098C24.1337 115.529 24.94 114.948 25.4062 114.181C25.8724 113.415 25.9009 112.72 25.499 111.924C25.0971 111.128 24.5072 110.673 23.7295 110.56Z" fill="#323232"/>
<path d="M13.2353 104.883L23.1688 102.007L23.6322 103.413L14.9273 105.984L15.5285 108.263L14.2999 108.569L13.2353 104.883Z" fill="#323232"/>
<path d="M17.1738 75.8818C16.993 76.0495 16.7289 76.1274 16.3816 76.1155C16.0343 76.1036 15.8677 75.924 15.7011 75.7444C15.5346 75.5647 15.4584 75.3012 15.5559 75.0437C15.6534 74.7862 15.7509 74.5286 15.9317 74.3609C16.1124 74.1932 16.3765 74.1153 16.6334 74.211C16.9808 74.2229 17.1473 74.4026 17.3139 74.5822C17.4805 74.7618 17.5566 75.0253 17.4591 75.2828C17.452 75.4565 17.3545 75.7141 17.1738 75.8818Z" fill="#323232"/>
<path d="M21.775 45.6278L22.6116 44.3503L31.3607 49.7854L30.5241 51.063L21.775 45.6278Z" fill="#323232"/>
<path d="M34.0189 45.6314C33.3929 46.045 32.774 46.2849 32.1623 46.351L31.6005 45.201C32.129 45.045 32.6574 44.8891 33.193 44.5593C33.7285 44.2296 34.1808 43.8101 34.7235 43.3066C35.2733 42.6294 35.559 42.0302 35.5804 41.509C35.6018 40.9878 35.4424 40.6344 35.1091 40.275C34.8592 40.0055 34.5117 39.9937 34.1642 39.9819C33.8166 39.97 33.462 40.1319 33.2811 40.2997C33.1002 40.4676 32.5646 40.7973 32.029 41.127C31.403 41.5406 30.8603 42.0441 30.4152 42.2899C29.9701 42.5357 29.4416 42.6916 28.9204 42.6739C28.3991 42.6561 27.8849 42.4646 27.3779 42.0994C26.9543 41.8239 26.6282 41.2909 26.5591 40.8536C26.4068 40.3264 26.4282 39.8052 26.6306 39.1161C26.7425 38.511 27.1185 37.8279 27.6684 37.1507C28.0373 36.6413 28.4896 36.2218 29.0252 35.8921C29.5607 35.5624 30.0059 35.3165 30.5343 35.1606L31.096 36.3106C30.7413 36.4725 30.2129 36.6285 29.8511 36.9641C29.406 37.2099 29.0442 37.5456 28.7657 37.971C28.2158 38.6482 27.9302 39.2474 27.9088 39.7687C27.8873 40.2899 28.0468 40.6433 28.3801 41.0026C28.63 41.2721 28.9775 41.2839 29.325 41.2958C29.6725 41.3076 30.0272 41.1457 30.2986 40.894C30.5699 40.6423 31.015 40.3965 31.5506 40.0668C32.1766 39.6531 32.7193 39.1497 33.1645 38.9039C33.6096 38.6581 34.138 38.5021 34.6593 38.5199C35.1806 38.5376 35.6947 38.7292 36.2017 39.0944C36.6254 39.3698 36.9515 39.9029 37.0205 40.3402C37.0895 40.7775 37.1514 41.3886 36.9491 42.0776C36.7467 42.7666 36.4611 43.3659 35.9112 44.043C35.2781 44.6304 34.7354 45.1339 34.0189 45.6314Z" fill="#323232"/>
<path d="M41.472 36.865C40.5061 37.093 39.6377 37.0634 38.7836 36.6864C37.8392 36.3934 37.1659 35.8487 36.4998 35.1303C35.8336 34.4119 35.522 33.5317 35.3008 32.5676C35.1628 31.6933 35.2889 30.7411 35.5886 29.7947C35.9717 28.9382 36.5284 28.0876 37.3349 27.5064C38.0581 26.8353 39.0312 26.4337 39.9067 26.2896C40.8726 26.0617 41.7409 26.0913 42.595 26.4682C43.5395 26.7613 44.2127 27.306 44.8788 28.0244C45.545 28.7428 45.8566 29.623 46.0779 30.5871C46.2158 31.4614 46.0897 32.4136 45.79 33.36C45.4069 34.2165 44.8502 35.0671 44.0437 35.6483C43.3205 36.3193 42.4378 36.6371 41.472 36.865ZM44.5053 32.8814C44.7075 32.1926 44.8193 31.5877 44.6742 30.8871C44.5291 30.1864 44.2936 29.5697 43.794 29.0309C43.2944 28.4921 42.7044 28.0372 42.1073 27.756C41.4197 27.5586 40.8154 27.4511 40.1136 27.6011C39.4118 27.7511 38.7932 27.9909 38.2508 28.4941C37.7084 28.9974 37.2492 29.5905 36.9637 30.1894C36.7615 30.8782 36.6497 31.4831 36.7948 32.1837C36.9399 32.8844 37.1754 33.5011 37.675 34.0399C38.1746 34.5787 38.7646 35.0336 39.3618 35.3148C40.0493 35.5122 40.6536 35.6197 41.3554 35.4697C42.0572 35.3197 42.6758 35.0799 43.3086 34.4928C43.9343 34.0793 44.2198 33.4803 44.5053 32.8814Z" fill="#323232"/>
<path d="M62.1398 21.8774L60.3668 22.6867L61.3997 25.0705L60.0717 25.6341L59.0388 23.2504L53.8101 25.5946L53.4151 24.6243L55.4119 16.2552L56.8304 15.6077L54.8478 23.6294L58.4843 21.9267L57.6109 19.8964L58.9389 19.3328L59.8123 21.3631L61.5853 20.5537L62.1398 21.8774Z" fill="#323232"/>
<path d="M69.7233 16.6859C70.5775 17.0629 71.0772 17.6018 71.2985 18.566C71.4507 19.093 71.5126 19.7038 71.3175 20.219C71.1224 20.7342 70.8368 21.3332 70.3015 21.6628C69.8494 22.0823 69.1403 22.406 68.348 22.6399C67.6461 22.7899 66.9442 22.9399 66.2494 22.9162C65.5546 22.8925 64.9503 22.785 64.3531 22.5037L64.6672 21.2099C65.0907 21.4852 65.6118 21.503 66.2161 21.6105C66.8205 21.7181 67.3487 21.5622 67.9602 21.4961C68.7525 21.2622 69.2879 20.9325 69.5663 20.5072C69.8447 20.0818 70.0398 19.5667 69.8875 19.0397C69.7352 18.5127 69.3188 18.0636 68.8049 17.8722C68.291 17.6807 67.5058 17.7409 66.2756 18.0469L63.9891 18.6647L63.2515 13.3345L68.8811 11.787L69.1785 13.0147L64.7791 14.2562L65.1859 17.0531L66.2423 16.7412C67.8199 16.4471 68.9524 16.3987 69.7233 16.6859Z" fill="#323232"/>
<path d="M76.4289 20.514C75.7484 20.1429 75.2486 19.604 74.7561 18.8915C74.2635 18.1789 74.0422 17.2146 73.9114 16.1665C73.7805 15.1184 73.9066 14.166 74.116 13.3034C74.4087 12.5306 74.7847 11.8476 75.4177 11.2604C76.0507 10.6731 76.7526 10.5231 77.5379 10.4629C78.3232 10.4027 79.1013 10.5162 79.7819 10.8873C80.4624 11.2584 80.9621 11.7972 81.4547 12.5098C81.9472 13.2224 82.1685 14.1866 82.2994 15.2348C82.4303 16.2829 82.3041 17.2353 82.0947 18.0979C81.802 18.8707 81.4261 19.5537 80.7931 20.1409C80.2505 20.6443 79.4581 20.8782 78.7561 21.0282C77.8043 20.9088 77.1095 20.8851 76.4289 20.514ZM80.4338 18.3022C80.9002 17.5354 81.0263 16.583 80.8193 15.2713C80.6956 14.0495 80.3006 13.0793 79.808 12.3667C79.225 11.738 78.5373 11.5406 77.7521 11.6009C76.9668 11.6611 76.341 12.0746 75.8745 12.8415C75.4081 13.6083 75.282 14.5607 75.489 15.8724C75.696 17.184 76.0078 18.0644 76.5003 18.777C77.0833 19.4057 77.771 19.603 78.5563 19.5428C79.3415 19.4826 79.9674 19.0691 80.4338 18.3022Z" fill="#323232"/>
<path d="M87.5045 19.799C86.9145 19.3441 86.5053 18.7214 86.1032 17.9251C85.7916 17.0448 85.6536 16.1705 85.7868 15.0446C85.8297 14.0025 86.1294 13.0562 86.5125 12.1996C86.9788 11.4329 87.438 10.8398 88.147 10.5161C88.856 10.1925 89.5578 10.0425 90.3429 9.98228C91.2113 10.0119 91.8085 10.2931 92.3985 10.748C92.9885 11.2029 93.3977 11.8256 93.7998 12.622C94.1115 13.5022 94.2494 14.3765 94.1162 15.5024C94.0734 16.5445 93.7736 17.4908 93.3905 18.3474C92.9242 19.1141 92.465 19.7072 91.756 20.0309C91.1303 20.4443 90.4285 20.5943 89.5601 20.5647C88.8654 20.5411 88.0945 20.2539 87.5045 19.799ZM91.737 18.378C92.2866 17.701 92.5864 16.7547 92.7268 15.4551C92.8672 14.1555 92.6459 13.1914 92.1534 12.4789C91.661 11.7664 91.0709 11.3115 90.2858 11.3717C89.4174 11.3421 88.7988 11.5819 88.2493 12.2588C87.6997 12.9358 87.3999 13.8821 87.2595 15.1818C87.1191 16.4814 87.3404 17.4455 87.8328 18.1579C88.3253 18.8704 89.0058 19.2414 89.7005 19.2651C90.5688 19.2947 91.1874 19.0549 91.737 18.378Z" fill="#323232"/>
<path d="M101.666 11.6993L99.5981 21.8032L98.1326 21.4923L99.9765 12.5982L97.733 12.1739L97.8662 11.048L101.666 11.6993Z" fill="#323232"/>
<path d="M125.545 28.5947C125.469 28.3312 125.567 28.0737 125.748 27.906C125.928 27.7383 126.109 27.5706 126.373 27.4927C126.637 27.4148 126.894 27.5105 127.061 27.6902C127.227 27.8698 127.394 28.0494 127.47 28.3129C127.546 28.5763 127.449 28.8338 127.268 29.0015C127.087 29.1693 126.906 29.337 126.642 29.4149C126.378 29.4928 126.121 29.397 125.955 29.2174C125.615 29.0318 125.538 28.7684 125.545 28.5947Z" fill="#323232"/>
<path fill-rule="evenodd" clip-rule="evenodd" d="M146.651 28.3259C115.618 -5.14043 63.1364 -6.93579 29.429 24.3372C-4.27835 55.6101 -6.42921 108.092 24.6037 141.559C55.6366 175.025 108.118 176.82 141.826 145.547C175.533 114.275 177.684 61.7923 146.651 28.3259ZM28.0753 22.8773C62.5787 -9.13418 116.321 -7.31043 148.11 26.972C179.9 61.2545 177.683 114.996 143.179 147.007C108.676 179.019 54.9341 177.195 23.1444 142.913C-8.64526 108.63 -6.42809 54.8889 28.0753 22.8773Z" fill="#323232"/>
</svg>
