<svg width="76" height="39" viewBox="0 0 76 39" fill="none" xmlns="http://www.w3.org/2000/svg">
<rect x="0.5" y="0.5" width="75" height="38" rx="4.5" fill="white" stroke="#E5E5E5"/>
<path d="M38.0319 15.9395C35.8064 15.9395 34.002 17.7439 34.002 19.9694C34.002 22.1949 35.8064 23.9994 38.0319 23.9994C40.2574 23.9994 42.0619 22.1949 42.0619 19.9694C42.0619 17.7439 40.2574 15.9395 38.0319 15.9395Z" fill="#3700FF"/>
<path d="M42.2401 8H33.8193C29.5488 8 26 11.5488 26 15.8193V24.1799C26 28.5106 29.5488 31.9992 33.8193 31.9992H42.1799C46.5106 31.9992 49.9992 28.4505 49.9992 24.1799V15.8193C50.0594 11.5488 46.5106 8 42.2401 8ZM38.0297 26.2851C34.6012 26.2851 31.7743 23.5183 31.7743 20.0297C31.7743 16.5411 34.6012 13.7743 38.0297 13.7743C41.4582 13.7743 44.2851 16.5411 44.2851 20.0297C44.2851 23.4582 41.5183 26.2851 38.0297 26.2851ZM44.1648 15.278C43.3228 15.278 42.6611 14.5562 42.6611 13.7743C42.6611 12.9923 43.3829 12.2104 44.1648 12.2104C45.0069 12.2104 45.6686 12.9322 45.6686 13.7141C45.6686 14.6163 45.0069 15.278 44.1648 15.278Z" fill="#3700FF"/>
</svg>
