<svg width="73" height="67" viewBox="0 0 73 67" fill="none" xmlns="http://www.w3.org/2000/svg">
<path d="M58.3512 66.4615V38.8036C58.3512 38.8036 56.667 33.0244 51.1933 33.2308C45.5091 33.4372 43.6144 34.2628 41.088 37.3588V66.4615H26.7723V22.7043H41.088V29.1027C41.088 29.1027 45.9302 20.021 55.4038 20.8466C64.2459 21.4658 70.9828 26.8323 72.4565 38.1844H72.667V66.4615H58.3512ZM9.29857 16.925C4.45647 16.925 0.666992 13.2097 0.666992 8.46249C0.666992 3.71524 4.45647 0 9.29857 0C14.1407 0 17.9302 3.71524 17.9302 8.46249C17.9302 13.2097 14.1407 16.925 9.29857 16.925ZM16.4565 66.4615H2.14068V22.7043H16.4565V66.4615Z" fill="#E5E5E5"/>
</svg>
