<svg width="37" height="19" viewBox="0 0 37 19" fill="none" xmlns="http://www.w3.org/2000/svg">
<path d="M0 5C0 2.23858 2.23858 0 5 0H32C34.7614 0 37 2.23858 37 5V14C37 16.7614 34.7614 19 32 19H5C2.23858 19 0 16.7614 0 14V5Z" fill="white"/>
<path fill-rule="evenodd" clip-rule="evenodd" d="M32 1H5C2.79086 1 1 2.79086 1 5V14C1 16.2091 2.79086 18 5 18H32C34.2091 18 36 16.2091 36 14V5C36 2.79086 34.2091 1 32 1ZM5 0C2.23858 0 0 2.23858 0 5V14C0 16.7614 2.23858 19 5 19H32C34.7614 19 37 16.7614 37 14V5C37 2.23858 34.7614 0 32 0H5Z" fill="#E5E5E5"/>
<path d="M24.7658 4.95223C23.5696 4.04434 20.9114 4 18.5 4C16.0886 4 13.4304 4.04434 12.2342 4.95223C11.038 5.86012 11 7.82723 11 8.99992C11 10.1726 11.038 12.1397 12.2342 13.0476C13.4304 13.9555 16.0886 14 18.5 14V13.9998C20.9114 13.9998 23.5696 13.9555 24.7658 13.0476C25.962 12.1397 26 10.1726 26 8.99992C26 7.82723 25.962 5.86012 24.7658 4.95223ZM20.8766 9.26442L20.8771 9.26503L16.8022 11.4282C16.7804 11.444 16.7565 11.4565 16.7308 11.4662L16.7258 11.4689L16.7255 11.4679C16.6926 11.4797 16.6575 11.4873 16.6204 11.4873C16.4474 11.4873 16.3072 11.3474 16.3072 11.1752V6.81523C16.3072 6.64288 16.4475 6.50322 16.6204 6.50322C16.6692 6.50322 16.7149 6.51532 16.7561 6.53514L16.7562 6.53499L20.8771 8.73542L20.8769 8.73573C20.9658 8.79081 21.0255 8.88825 21.0255 9.00008C21.0253 9.1119 20.9655 9.20935 20.8766 9.26442Z" fill="#3700FF"/>
</svg>
