<svg width="174" height="174" viewBox="0 0 174 174" fill="none" xmlns="http://www.w3.org/2000/svg">
<path d="M144.115 35.6227L145.1 36.7433L137.166 43.5801L136.181 42.4595L144.115 35.6227Z" fill="#323232"/>
<path d="M139.562 46.1976C139.358 45.5167 139.213 44.7272 139.339 44.2313L140.631 43.9648C140.615 44.5224 140.6 45.08 140.803 45.7609C141.007 46.4419 141.27 47.0143 141.702 47.5398C142.185 48.2355 142.676 48.6524 143.225 48.9608C143.724 49.099 144.172 49.0669 144.568 48.8646C144.855 48.6006 144.973 48.3835 145.04 47.9962C145.048 47.7174 145.115 47.33 145.013 46.9896C144.911 46.6491 144.758 46.1384 144.495 45.566C144.181 44.8234 143.977 44.1425 143.824 43.6318C143.671 43.1211 143.687 42.5635 143.813 42.0676C143.939 41.5717 144.175 41.1374 144.8 40.7797C145.255 40.4688 145.762 40.3282 146.21 40.2961C146.767 40.3257 147.266 40.4639 147.816 40.7723C148.365 41.0807 148.907 41.6679 149.5 42.4253C149.822 42.8891 150.194 43.5231 150.347 44.0339C150.61 44.6062 150.704 45.2255 150.747 45.6745L149.455 45.941C149.471 45.3834 149.318 44.8727 149.106 44.4706C148.894 44.0684 148.741 43.5577 148.419 43.0939C147.937 42.3981 147.446 41.9812 146.947 41.843C146.449 41.7049 146.001 41.737 145.604 41.9393C145.317 42.2033 145.199 42.4204 145.133 42.8077C145.125 43.0865 145.058 43.4738 145.27 43.876C145.371 44.2165 145.524 44.7272 145.787 45.2995C146.101 46.0422 146.305 46.7231 146.458 47.2338C146.611 47.7445 146.595 48.3021 146.469 48.798C146.343 49.2939 146.107 49.7281 145.483 50.0858C145.027 50.3967 144.521 50.5373 144.073 50.5694C143.625 50.6015 143.016 50.4017 142.357 50.0316C141.807 49.7232 141.265 49.136 140.673 48.3786C140.19 47.6829 139.817 47.0488 139.562 46.1976Z" fill="#323232"/>
<path d="M145.151 54.5446C145.234 53.5999 145.426 52.7169 146.008 51.9103C146.589 51.1038 147.221 50.4674 148.125 50.1245C149.087 49.6731 149.931 49.4388 150.877 49.5449C151.823 49.6509 152.651 49.974 153.472 50.5759C154.292 51.1777 154.884 51.9349 155.359 52.9092C155.834 53.8835 156.03 54.843 155.947 55.7877C155.864 56.7324 155.671 57.6154 155.09 58.422C154.508 59.2285 153.876 59.8649 152.973 60.2078C152.011 60.6592 151.167 60.8935 150.22 60.7875C149.274 60.6814 148.446 60.3583 147.626 59.7565C146.805 59.1546 146.213 58.3974 145.679 57.5316C145.374 56.5105 145.178 55.551 145.151 54.5446ZM148.443 58.5158C149.043 58.9943 149.652 59.1941 150.378 59.1768C151.046 59.268 151.721 59.0806 152.455 58.7846C153.08 58.4269 153.594 58.0076 154.058 57.4181C154.411 56.7669 154.706 56.2243 154.671 55.4966C154.746 54.8307 154.542 54.1499 154.228 53.4075C153.914 52.665 153.483 52.1397 152.823 51.7697C152.223 51.2912 151.614 51.0914 150.888 51.1087C150.221 51.0174 149.545 51.2049 148.811 51.5009C148.077 51.7968 147.672 52.2778 147.209 52.8673C146.745 53.4569 146.67 54.1228 146.595 54.7888C146.52 55.4548 146.724 56.1355 147.038 56.878C147.411 57.5119 147.842 58.0373 148.443 58.5158Z" fill="#323232"/>
<path d="M160.598 67.6292L150.5 70.338L150.15 68.865L159.004 66.5937L158.399 64.2681L159.584 63.9394L160.598 67.6292Z" fill="#323232"/>
<path d="M154.867 80.8855L154.535 78.8649L152.021 79.2878L151.783 77.8842L154.297 77.4613L153.295 71.6774L154.354 71.5668L162.017 75.8682L162.305 77.4414L154.972 73.3243L155.635 77.3654L157.813 77.036L158.051 78.4396L155.873 78.769L156.204 80.7896L154.867 80.8855Z" fill="#323232"/>
<path d="M152.686 83.958C153.039 83.3077 153.721 82.8422 154.513 82.4383C155.305 82.0344 156.257 81.8619 157.37 81.921C158.483 81.9801 159.428 82.086 160.196 82.517C160.964 82.948 161.563 83.4258 162.104 84.012C162.476 84.645 162.789 85.3863 162.765 86.2213C162.741 87.0562 162.608 87.8296 162.145 88.4183C161.792 89.0685 161.11 89.534 160.318 89.9379C159.526 90.3419 158.574 90.5143 157.461 90.4552C156.348 90.3961 155.403 90.2902 154.636 89.8592C153.868 89.4282 153.268 88.9504 152.728 88.3642C152.187 87.778 152.042 86.9899 152.066 86.155C152.09 85.32 152.165 84.655 152.686 83.958ZM154.405 88.1745C155.114 88.7139 156.109 88.9898 157.391 89.0021C158.672 89.0144 159.684 88.7336 160.366 88.2681C161.048 87.8025 161.401 87.1523 161.315 86.2558C161.339 85.4208 160.967 84.7879 160.258 84.2485C159.549 83.7091 158.553 83.4333 157.272 83.421C155.99 83.4087 154.979 83.6895 154.297 84.155C153.615 84.6205 153.262 85.2707 153.348 86.1672C153.434 87.0638 153.806 87.6967 154.405 88.1745Z" fill="#323232"/>
<path d="M152.132 93.8006C152.595 93.2122 153.386 92.8085 154.228 92.5746C155.071 92.3407 156.073 92.3382 157.127 92.5056C158.18 92.673 159.175 92.9487 159.884 93.4878C160.651 93.9186 161.133 94.6128 161.505 95.2455C161.877 95.8782 161.962 96.7743 161.829 97.5473C161.695 98.3203 161.452 99.0318 160.88 99.5586C160.418 100.147 159.626 100.551 158.784 100.785C157.942 101.018 156.939 101.021 155.886 100.854C154.832 100.686 153.896 100.302 153.129 99.8714C152.361 99.4406 151.88 98.7464 151.508 98.1137C151.195 97.3727 150.991 96.6932 151.184 95.8119C151.317 95.0389 151.67 94.389 152.132 93.8006ZM153.345 98.1555C153.995 98.803 154.931 99.187 156.262 99.3691C157.594 99.5513 158.597 99.5488 159.278 99.0835C160.07 98.6797 160.422 98.0298 160.556 97.2568C160.689 96.4838 160.376 95.7428 159.727 95.0954C159.077 94.4479 158.141 94.0639 156.809 93.8818C155.477 93.6996 154.475 93.7021 153.793 94.1674C153.002 94.5711 152.649 95.221 152.515 95.9941C152.491 96.8286 152.695 97.5081 153.345 98.1555Z" fill="#323232"/>
<path d="M159.617 107.098L149.546 104.4L149.92 102.922L158.724 105.331L159.232 103.083L160.499 103.372L159.617 107.098Z" fill="#323232"/>
<path d="M148.934 106.782C149.159 106.628 149.434 106.642 149.652 106.764C149.869 106.886 150.086 107.008 150.245 107.237C150.404 107.466 150.396 107.742 150.28 107.956C150.163 108.171 150.047 108.385 149.822 108.539C149.597 108.693 149.321 108.678 149.104 108.556C148.887 108.435 148.669 108.313 148.51 108.084C148.351 107.855 148.359 107.579 148.476 107.364C148.592 107.15 148.709 106.935 148.934 106.782ZM154.671 108.74C154.896 108.586 155.172 108.601 155.389 108.722C155.606 108.844 155.823 108.966 155.982 109.195C156.141 109.424 156.134 109.7 156.017 109.914C155.901 110.129 155.784 110.344 155.559 110.497C155.334 110.651 155.058 110.636 154.841 110.515C154.624 110.393 154.407 110.271 154.248 110.042C154.089 109.813 154.097 109.537 154.213 109.323C154.221 109.047 154.446 108.893 154.671 108.74Z" fill="#323232"/>
<path d="M146.067 116.778L144.913 116.271L147.781 109.406L148.717 109.789L150.84 115.361C151.044 116.04 151.364 116.503 151.634 116.795C151.904 117.088 152.175 117.381 152.562 117.457C153 117.703 153.556 117.733 154.011 117.423C154.406 117.221 154.81 116.741 155.053 116.03C155.472 114.994 155.445 113.99 155.081 113.079L156.268 112.474C156.53 113.045 156.733 113.724 156.768 114.45C156.803 115.176 156.56 115.887 156.317 116.598C155.898 117.634 155.267 118.269 154.586 118.734C153.795 119.138 153.07 119.155 152.303 118.725C151.865 118.479 151.317 118.171 150.996 117.708C150.675 117.246 150.303 116.613 149.94 115.703L148.332 111.551L146.067 116.778Z" fill="#323232"/>
<path d="M143.723 119.29C144.455 118.994 145.238 118.869 146.072 118.913C147.015 119.019 147.841 119.341 148.827 119.895C149.813 120.448 150.463 121.095 151.054 121.851C151.535 122.545 151.848 123.285 151.824 124.119C151.859 124.845 151.725 125.618 151.204 126.314C150.793 127.072 150.28 127.49 149.548 127.786C148.816 128.081 148.033 128.207 147.199 128.162C146.365 128.118 145.539 127.796 144.553 127.242C143.567 126.688 142.918 126.041 142.327 125.286C141.846 124.592 141.533 123.851 141.557 123.017C141.522 122.291 141.655 121.519 142.176 120.823C142.419 120.111 142.991 119.585 143.723 119.29ZM143.149 123.77C143.462 124.511 144.163 125.328 145.368 126.004C146.464 126.619 147.509 127.065 148.292 126.939C149.184 126.875 149.807 126.519 150.218 125.761C150.629 125.003 150.704 124.338 150.34 123.428C149.977 122.518 149.327 121.871 148.122 121.194C146.916 120.517 145.981 120.133 145.198 120.259C144.306 120.323 143.683 120.68 143.272 121.438C142.86 122.195 142.727 122.968 143.149 123.77Z" fill="#323232"/>
<path d="M145.495 134.49L137.238 128.041L138.154 126.875L145.441 132.501L146.873 130.646L147.843 131.47L145.495 134.49Z" fill="#323232"/>
<path d="M135.561 138.053C134.668 138.117 133.952 137.856 133.193 137.147C132.703 136.731 132.441 136.16 132.289 135.651C132.136 135.141 132.211 134.477 132.395 133.874C132.579 133.271 132.932 132.621 133.563 131.986C134.135 131.459 134.648 131.041 135.271 130.684C135.893 130.327 136.567 130.14 137.123 130.169L137.53 131.528C137.083 131.56 136.578 131.7 136.014 131.949C135.45 132.198 134.996 132.508 134.592 132.988C134.02 133.514 133.726 134.056 133.71 134.612C133.695 135.168 133.847 135.678 134.227 136.032C134.716 136.448 135.213 136.586 135.828 136.507C136.333 136.367 137.015 135.902 137.873 135.112L139.479 133.47L143.091 137.617L139.072 141.861L138.152 140.92L141.255 137.575L139.314 135.355L138.565 136.207C137.472 137.43 136.454 137.989 135.561 138.053Z" fill="#323232"/>
<path d="M118.871 149.302C119.09 149.425 119.31 149.548 119.471 149.78C119.631 150.012 119.623 150.29 119.615 150.569C119.497 150.786 119.38 151.003 119.152 151.158C118.925 151.313 118.646 151.298 118.427 151.175C118.207 151.052 117.988 150.929 117.827 150.697C117.666 150.466 117.674 150.187 117.682 149.908C117.8 149.692 117.918 149.475 118.145 149.319C118.314 149.272 118.592 149.287 118.871 149.302Z" fill="#323232"/>
<path d="M100.051 162.477L98.587 162.791L96.5882 152.45L98.0524 152.136L100.051 162.477Z" fill="#323232"/>
<path d="M93.1521 153.205C93.931 153.358 94.4817 153.667 94.9733 154.084L94.4928 155.233C94.1113 154.877 93.5016 154.677 92.8919 154.477C92.2822 154.277 91.6134 154.186 90.9957 154.265C90.0987 154.329 89.422 154.517 89.0756 154.89C88.6191 155.201 88.5521 155.589 88.5361 156.147C88.6382 156.488 88.7404 156.829 88.9606 156.953C89.1809 157.076 89.5113 157.261 89.8417 157.447C90.2311 157.523 90.7307 157.662 91.3995 157.753C92.1784 157.906 92.8471 157.998 93.3467 158.136C93.8463 158.274 94.2868 158.521 94.6683 158.877C95.0497 159.233 95.3131 159.806 95.2971 160.364C95.2811 160.923 95.2652 161.481 95.0289 161.916C94.7927 162.35 94.3873 162.832 93.8206 163.082C93.254 163.331 92.5182 163.628 91.6212 163.692C91.0035 163.771 90.3347 163.68 89.8351 163.541C89.1664 163.45 88.7258 163.203 88.2853 162.956L88.6557 161.745C89.0962 161.992 89.5958 162.131 90.0953 162.269C90.5949 162.407 91.1535 162.437 91.6021 162.405C92.4991 162.341 93.0657 162.091 93.4631 161.889C93.8095 161.515 94.0457 161.081 94.0026 160.631C93.9005 160.29 93.7984 159.949 93.5781 159.826C93.2477 159.64 93.0275 159.517 92.6971 159.332C92.3076 159.255 91.808 159.117 91.2494 159.087C90.4705 158.934 89.8017 158.842 89.3022 158.704C88.8026 158.566 88.3621 158.319 87.9806 157.963C87.5991 157.607 87.4459 157.096 87.3518 156.476C87.3678 155.918 87.3837 155.359 87.62 154.924C87.8562 154.49 88.2616 154.008 88.8282 153.758C89.3949 153.509 90.1307 153.212 91.0277 153.148C91.5353 153.007 92.3732 153.052 93.1521 153.205Z" fill="#323232"/>
<path d="M83.1675 154.044C83.9874 154.646 84.6386 155.294 85.0032 156.206C85.4267 157.01 85.6225 157.969 85.4808 159.022C85.3979 159.967 85.1464 160.958 84.6241 161.656C84.043 162.462 83.3599 162.928 82.5081 163.441C81.6563 163.954 80.6517 163.956 79.5961 163.789C78.5405 163.621 77.6537 163.406 76.8337 162.805C76.0138 162.203 75.3626 161.555 74.9981 160.642C74.5746 159.839 74.3788 158.879 74.5205 157.826C74.6033 156.882 74.8549 155.891 75.3771 155.193C75.9583 154.387 76.6413 153.921 77.4931 153.408C78.3959 153.065 79.3496 152.892 80.4051 153.06C81.4607 153.228 82.2886 153.551 83.1675 154.044ZM78.1793 154.784C77.5552 155.141 77.0409 155.56 76.6365 156.041C76.1731 156.631 75.9885 157.235 75.9645 158.071C75.8308 158.845 76.0346 159.525 76.4071 160.159C76.7797 160.793 77.2111 161.318 77.7015 161.735C78.3017 162.213 78.9099 162.413 79.7458 162.457C80.5817 162.501 81.1978 162.423 81.9318 162.127C82.5559 161.769 83.0702 161.35 83.4746 160.869C83.9379 160.28 84.1226 159.676 84.1465 158.84C84.2803 158.066 84.0765 157.385 83.704 156.751C83.3314 156.118 82.9 155.592 82.4096 155.176C81.8094 154.697 81.2012 154.498 80.3653 154.453C79.5294 154.409 78.8034 154.426 78.1793 154.784Z" fill="#323232"/>
<path d="M64.186 160.744L66.955 150.612L68.4642 151.029L65.9571 159.883L68.1911 160.563L67.8182 161.778L64.186 160.744Z" fill="#323232"/>
<path d="M55.706 149.085L57.5855 149.856L58.605 147.45L59.9851 148.083L58.9655 150.488L64.3247 152.785L63.9625 153.716L56.4062 157.843L54.9161 157.149L62.1341 153.116L58.3752 151.575L57.5327 153.654L56.2628 153.084L57.1052 151.004L55.2258 150.234L55.706 149.085Z" fill="#323232"/>
<path d="M54.393 145.979C54.7078 146.723 54.8532 147.514 54.8292 148.352C54.7461 149.299 54.4424 150.123 53.9102 151.102C53.378 152.081 52.7436 152.719 51.9988 153.295C51.3132 153.762 50.5765 154.059 49.7375 154.015C49.0087 154.032 48.2289 153.879 47.457 153.446C46.6851 153.013 46.252 152.487 45.9372 151.742C45.6224 150.998 45.477 150.207 45.501 149.369C45.5841 148.422 45.8878 147.598 46.42 146.619C46.9522 145.64 47.5866 145.002 48.3314 144.426C49.0761 143.85 49.7537 143.662 50.5927 143.706C51.3214 143.689 52.1013 143.842 52.8732 144.275C53.4757 144.755 54.0782 145.234 54.393 145.979ZM49.8751 145.291C49.1384 145.588 48.3345 146.273 47.684 147.47C47.0927 148.558 46.6708 149.599 46.8162 150.39C46.9025 151.29 47.2764 151.925 48.0483 152.358C48.8202 152.791 49.4898 152.882 50.3959 152.538C51.1327 152.242 51.9365 151.557 52.587 150.36C53.2375 149.163 53.6003 148.231 53.4548 147.44C53.3686 146.54 52.9946 145.904 52.2227 145.472C51.3406 144.977 50.671 144.886 49.8751 145.291Z" fill="#323232"/>
<path d="M46.4039 140.665C46.6084 141.348 46.6947 142.248 46.3911 143.071C46.1977 143.956 45.7248 144.826 45.0313 145.573C44.2788 146.428 43.6444 147.066 42.8487 147.472C42.0531 147.877 41.2654 148.003 40.4856 147.85C39.7059 147.697 38.9854 147.435 38.383 146.955C37.7807 146.475 37.2966 145.778 37.0921 145.096C36.8876 144.414 36.8013 143.514 37.1049 142.69C37.2982 141.805 37.7712 140.935 38.4647 140.188C39.2172 139.333 39.8515 138.695 40.6472 138.29C41.4429 137.884 42.2306 137.758 43.0103 137.911C43.79 138.065 44.5106 138.327 45.113 138.806C45.7153 139.286 46.1994 139.983 46.4039 140.665ZM42.0724 139.373C41.2256 139.607 40.481 140.183 39.6102 141.256C38.7394 142.329 38.3767 143.261 38.3527 144.1C38.3287 144.938 38.6435 145.682 39.2458 146.161C39.9584 146.703 40.7381 146.856 41.4156 146.668C42.2624 146.433 43.007 145.857 43.8778 144.784C44.7486 143.711 45.1113 142.779 45.1353 141.941C45.1593 141.103 44.8445 140.359 44.1319 139.818C43.5887 139.229 42.9192 139.138 42.0724 139.373Z" fill="#323232"/>
<path d="M31.2996 140.328L38.7602 133.06L39.8077 134.072L33.2797 140.432L34.9883 142.099L34.0557 143.008L31.2996 140.328Z" fill="#323232"/>
<path d="M32.6159 135.301C32.6079 135.582 32.4888 135.8 32.2587 135.957C32.0287 136.113 31.7986 136.269 31.517 136.255C31.2355 136.24 31.0134 136.116 30.8509 135.882C30.6884 135.649 30.5259 135.415 30.645 135.197C30.653 134.916 30.7721 134.698 31.0021 134.541C31.2322 134.385 31.4623 134.229 31.7438 134.243C32.0254 134.258 32.2474 134.382 32.41 134.616C32.5725 134.849 32.624 135.021 32.6159 135.301ZM37.182 131.44C37.1739 131.72 37.0549 131.939 36.8248 132.095C36.5947 132.252 36.3646 132.408 36.0831 132.393C35.8015 132.378 35.5795 132.254 35.417 132.021C35.2545 131.788 35.092 131.554 35.211 131.336C35.2191 131.055 35.3381 130.837 35.5682 130.68C35.7983 130.524 36.0283 130.367 36.3099 130.382C36.5915 130.397 36.8135 130.521 36.976 130.755C37.198 130.879 37.19 131.159 37.182 131.44Z" fill="#323232"/>
<path d="M30.1478 123.813L31.2301 123.143L35.6419 129.305L34.7879 129.819L28.9458 128.67C28.2769 128.578 27.6081 128.487 27.2697 128.581C26.8212 128.613 26.5929 128.769 26.1955 128.971C25.7389 129.283 25.5027 129.717 25.5458 130.167C25.5298 130.725 25.683 131.237 26.1156 131.763C26.7604 132.692 27.6415 133.186 28.5897 133.292L28.4396 134.626C27.7708 134.535 27.161 134.335 26.5002 133.964C25.8394 133.594 25.2967 133.006 24.813 132.309C24.1682 131.38 23.9128 130.528 23.9368 129.69C23.9607 128.853 24.3151 128.2 25.059 127.625C25.5155 127.313 26.0231 127.173 26.5307 127.032C27.0383 126.891 27.8173 127.044 28.7654 127.15L33.1598 128.055L30.1478 123.813Z" fill="#323232"/>
<path d="M29.5048 120.828C29.3708 121.603 29.1267 122.317 28.6035 123.016C28.0803 123.715 27.3369 124.29 26.3144 124.85C25.3509 125.302 24.4465 125.646 23.55 125.71C22.6535 125.774 21.8751 125.621 21.2147 125.251C20.5543 124.88 20.012 124.292 19.5877 123.487C19.2735 122.744 19.0693 122.063 19.0933 121.226C19.1172 120.388 19.4713 119.736 19.9946 119.038C20.5178 118.339 21.2612 117.763 22.2837 117.203C23.2471 116.751 24.1516 116.408 25.0481 116.344C25.9446 116.279 26.723 116.432 27.3834 116.803C28.0438 117.173 28.5861 117.761 28.9593 118.396C29.4937 119.262 29.6388 120.052 29.5048 120.828ZM25.9557 117.845C25.1773 117.692 24.0527 117.912 22.9711 118.581C21.7795 119.188 20.9772 119.872 20.7331 120.586C20.3199 121.346 20.355 122.075 20.7793 122.88C21.2036 123.685 21.864 124.055 22.6424 124.208C23.4208 124.362 24.5454 124.142 25.6269 123.473C26.8185 122.865 27.6209 122.181 27.865 121.467C28.2782 120.707 28.2431 119.978 27.8188 119.173C27.5046 118.43 26.9032 117.951 25.9557 117.845Z" fill="#323232"/>
<path d="M15.8676 114.381L25.617 110.753L26.1369 112.181L17.6338 115.37L18.5792 117.605L17.333 118.043L15.8676 114.381Z" fill="#323232"/>
<path d="M17.9613 104.097C18.2635 103.276 19.0046 102.702 19.8475 102.468C20.4629 102.389 21.0784 102.311 21.5762 102.448C22.0739 102.586 22.6226 102.894 23.0536 103.419C23.4845 103.944 23.8567 104.577 24.1111 105.427C24.3147 106.107 24.3496 106.833 24.3846 107.56C24.4196 108.287 24.2351 108.891 23.9409 109.432L22.5573 109.08C22.7926 108.647 22.9183 108.151 22.9342 107.595C22.9501 107.038 22.8563 106.42 22.7625 105.801C22.6178 105.013 22.1868 104.488 21.8067 104.133C21.4266 103.779 20.87 103.749 20.2546 103.828C19.5803 104.015 19.2351 104.387 19.1095 104.882C18.925 105.486 18.96 106.213 19.3162 107.403L19.9189 109.721L14.4894 110.492L12.869 104.774L14.1588 104.508L15.423 109.036L18.222 108.627L17.8658 107.437C17.737 106.092 17.6591 104.917 17.9613 104.097Z" fill="#323232"/>
<path d="M17.674 84.0565C17.4463 84.2119 17.2185 84.3673 16.9398 84.3526C16.6611 84.3378 16.4414 84.2145 16.2806 83.9827C16.1197 83.7509 15.9589 83.519 15.9669 83.2403C15.975 82.9616 16.0928 82.7445 16.3206 82.5891C16.5484 82.4336 16.7761 82.2782 17.0548 82.293C17.3335 82.3077 17.5533 82.431 17.7141 82.6628C17.8749 82.8947 18.0357 83.1265 18.0277 83.4052C18.0197 83.684 17.9018 83.901 17.674 84.0565Z" fill="#323232"/>
<path d="M16.757 61.0388L17.237 59.635L26.866 63.4954L26.386 64.8992L16.757 61.0388Z" fill="#323232"/>
<path d="M28.2464 59.935C27.6753 60.461 27.1629 60.8789 26.6584 61.0191L25.7985 59.9719C26.303 59.8318 26.7567 59.522 27.3279 58.996C27.8403 58.578 28.1338 58.0372 28.4273 57.4964C28.8382 56.7393 28.9127 56.0756 28.8699 55.6282C28.8271 55.1808 28.5066 54.7186 28.0688 54.4728C27.7404 54.2885 27.4627 54.2737 27.1264 54.3672C26.7901 54.4606 26.5632 54.6155 26.2777 54.8785C25.9921 55.1415 25.6478 55.5127 25.2449 55.9921C24.7832 56.5796 24.2121 57.1057 23.9265 57.3687C23.5823 57.7399 23.0778 57.8801 22.5733 58.0202C22.0688 58.1603 21.5723 58.0227 20.8568 57.7621C20.4189 57.5163 19.9303 57.1009 19.7193 56.7002C19.3989 56.2381 19.3053 55.6211 19.3211 55.0656C19.337 54.51 19.8066 53.6447 20.2175 52.8876C20.511 52.3468 20.8045 51.8059 21.2074 51.3266C21.6104 50.8472 22.0641 50.5375 22.5178 50.2277L23.3777 51.2749C22.924 51.5846 22.5289 51.7862 22.1847 52.1574C21.8404 52.5286 21.6056 52.9613 21.3708 53.3939C20.9599 54.151 20.8854 54.8148 20.9282 55.2622C20.971 55.7095 21.2915 56.1717 21.7293 56.4175C22.0577 56.6018 22.3353 56.6166 22.6717 56.5232C23.008 56.4297 23.2349 56.2749 23.5204 56.0118C23.806 55.7488 24.1502 55.3776 24.5532 54.8982C25.0149 54.3107 25.5273 53.8928 25.8716 53.5216C26.2158 53.1504 26.7203 53.0103 27.2248 52.8701C27.7293 52.73 28.2258 52.8676 28.8319 53.0667C29.2697 53.3125 29.6489 53.6665 29.9693 54.1286C30.2898 54.5908 30.3834 55.2078 30.3088 55.8715C30.2342 56.5352 30.101 57.3071 29.6901 58.0642C29.2792 58.8213 28.8175 59.4089 28.2464 59.935Z" fill="#323232"/>
<path d="M33.0341 50.8504C32.1305 51.1934 31.2859 51.4278 30.3393 51.3217C29.3928 51.2156 28.5641 50.8924 27.6335 50.2286C26.7029 49.5649 26.22 48.8691 25.7962 48.0647C25.4313 47.1518 25.3452 46.2536 25.4281 45.3086C25.511 44.3636 25.8728 43.4333 26.4544 42.6265C27.0361 41.8196 27.8377 41.1361 28.6313 40.7315C29.4249 40.3268 30.3795 40.1541 31.326 40.2602C32.2726 40.3663 33.1012 40.6895 34.0319 41.3532C34.8525 41.9553 35.4453 42.7128 35.8692 43.5172C36.2341 44.4301 36.3201 45.3282 36.2372 46.2733C36.1543 47.2183 35.7926 48.1485 35.2109 48.9554C34.6292 49.7622 33.9966 50.3988 33.0341 50.8504ZM35.0118 46.1524C35.0867 45.4862 34.9417 44.6966 34.6788 44.1241C34.4159 43.5517 33.933 42.8559 33.2733 42.4858C32.6725 42.0071 31.9539 41.7456 31.2862 41.6543C30.6185 41.563 29.8328 41.6888 29.2671 41.938C28.6424 42.2958 28.1277 42.7153 27.6639 43.305C27.2002 43.8947 26.9564 44.6078 26.8815 45.274C26.8065 45.9402 26.9515 46.7298 27.2145 47.3023C27.5873 47.9364 27.9602 48.5705 28.6199 48.9406C29.2207 49.4193 29.9394 49.6808 30.6071 49.7721C31.2748 49.8634 32.0604 49.7376 32.6261 49.4884C33.2508 49.1306 33.7656 48.7111 34.2293 48.1214C34.693 47.5317 34.8779 46.9271 35.0118 46.1524Z" fill="#323232"/>
<path d="M37.3155 30.7972L44.4964 38.4668L43.4206 39.404L37.1519 32.6662L35.4508 34.2329L34.5386 33.301L37.3155 30.7972Z" fill="#323232"/>
<path d="M51.6648 29.5526L50.0722 30.6394L51.6282 32.7859L50.4906 33.5622L48.9346 31.4157L44.2665 34.7377L43.6237 33.8111L43.7608 25.1168L45.0161 24.1237L44.887 32.5395L48.1312 30.2575L46.7359 28.3427L47.8735 27.5664L49.2688 29.4812L50.8614 28.3944L51.6648 29.5526Z" fill="#323232"/>
<path d="M55.4444 29.6899C54.6681 29.5372 53.9508 29.276 53.2414 28.7365C52.532 28.1969 51.9403 27.4405 51.3565 26.4057C50.7728 25.3709 50.5183 24.5209 50.4324 23.624C50.3466 22.7272 50.4802 21.9535 50.8333 21.3031C51.1865 20.6526 51.7591 20.1253 52.4415 19.6597C53.1748 19.364 53.8492 19.1767 54.6843 19.2211C55.4605 19.3738 56.1779 19.635 56.8873 20.1746C57.5967 20.7141 58.1884 21.4705 58.7721 22.5053C59.2461 23.4785 59.6103 24.3902 59.6962 25.287C59.7821 26.1838 59.6485 26.9575 59.2953 27.6079C58.9422 28.2584 58.3695 28.7857 57.6872 29.2513C56.895 29.6554 56.1108 29.7811 55.4444 29.6899ZM58.3314 26.2183C58.4651 25.4447 58.1597 24.4247 57.525 23.2199C56.8904 22.0151 56.1301 21.3055 55.4716 20.9359C54.7033 20.5047 53.978 20.522 53.1859 20.9261C52.3937 21.3302 52.0406 21.9806 51.907 22.7543C51.7733 23.5279 52.0787 24.5479 52.7133 25.7528C53.348 26.9576 54.1083 27.6671 54.7668 28.0367C55.5351 28.4679 56.2604 28.4506 57.0525 28.0465C57.6761 27.6893 58.1389 27.1004 58.3314 26.2183Z" fill="#323232"/>
<path d="M64.1458 25.3988C63.3685 25.2459 62.768 24.7674 62.1165 24.1187C61.465 23.4699 60.9315 22.6042 60.6257 21.583C60.3198 20.5618 60.124 19.6023 60.2068 18.6576C60.2897 17.7129 60.5334 17 60.9969 16.4105C61.4605 15.8209 62.1438 15.3547 62.8781 15.0587C63.6125 14.7627 64.4487 14.8071 65.1161 14.8984C65.8935 15.0513 66.494 15.5298 67.1454 16.1786C67.7969 16.8273 68.3305 17.6931 68.6363 18.7142C69.052 19.7971 69.138 20.6949 69.0551 21.6397C68.9723 22.5844 68.7286 23.2972 68.265 23.8868C67.8015 24.4763 67.228 25.0041 66.3838 25.2385C65.6495 25.5345 64.8642 25.6603 64.1458 25.3988ZM67.4686 22.4487C67.7713 21.6273 67.6343 20.5593 67.1087 19.4148C66.5831 18.2703 66.1084 17.296 65.3391 16.8643C64.6287 16.3241 63.9023 16.3414 63.0581 16.5757C62.2139 16.8101 61.7503 17.3996 61.4477 18.221C61.145 19.0424 61.282 20.1104 61.8076 21.2549C62.2743 22.508 62.8078 23.3737 63.5772 23.8054C64.2876 24.3456 65.0139 24.3283 65.8582 24.094C66.7613 23.7511 67.2249 23.1616 67.4686 22.4487Z" fill="#323232"/>
<path d="M72.0638 12.5292L74.5602 22.6978L73.2117 23.0722L71.0715 14.0934L68.7704 14.6403L68.473 13.3421L72.0638 12.5292Z" fill="#323232"/>
<path d="M75.8058 15.9679C75.5855 15.8444 75.4242 15.6121 75.322 15.2711C75.33 14.9918 75.338 14.7126 75.4562 14.4951C75.5743 14.2777 75.8027 14.122 76.0821 14.1368C76.3616 14.1516 76.641 14.1665 76.8614 14.29C77.0817 14.4136 77.243 14.6459 77.235 14.9251C77.227 15.2043 77.219 15.4836 77.1009 15.7011C76.9827 15.9185 76.7543 16.0742 76.4749 16.0594C76.3567 16.2768 76.0773 16.262 75.8058 15.9679ZM76.866 21.9531C76.6456 21.8295 76.4843 21.5972 76.3821 21.2562C76.3901 20.977 76.3981 20.6977 76.5163 20.4803C76.6345 20.2628 76.8628 20.1071 77.1423 20.1219C77.4217 20.1368 77.7011 20.1516 77.9215 20.2751C78.1418 20.3987 78.3031 20.631 78.2951 20.9102C78.2871 21.1895 78.2791 21.4687 78.161 21.6862C78.0428 21.9036 77.8145 22.0593 77.535 22.0445C77.4169 22.262 77.1374 22.2471 76.866 21.9531Z" fill="#323232"/>
<path d="M86.959 19.8317L87.088 21.1787L79.5369 21.6154L79.5098 20.6089L83.4305 16.2942C83.8941 15.7046 84.2398 15.3321 84.3067 14.9448C84.4835 14.6192 84.5505 14.2319 84.5075 13.7829C84.5234 13.2254 84.2016 12.7616 83.8718 12.5766C83.4322 12.3299 82.9335 12.1918 82.2071 12.2091C81.033 12.2584 80.1807 12.7715 79.6582 13.4697L78.508 12.6827C78.9126 12.2017 79.3173 11.7206 80.0517 11.4246C80.6762 11.0669 81.4616 10.9411 82.247 10.8153C83.3111 10.7043 84.1985 10.9189 84.909 11.4591C85.6195 11.9994 85.9922 12.6333 86.0782 13.5313C86.0623 14.0888 86.0463 14.6463 85.9205 15.1422C85.7946 15.638 85.331 16.2276 84.6985 16.8641L81.7561 20.1697L86.959 19.8317Z" fill="#323232"/>
<path d="M90.0053 20.5134C89.4036 20.0341 88.9201 19.3375 88.6057 18.594C88.3503 17.7417 88.154 16.7808 88.186 15.6642C88.2179 14.5476 88.4701 13.5546 88.8835 12.7937C89.2969 12.0329 89.7614 11.4425 90.5562 11.0373C91.351 10.6322 91.9687 10.5531 92.8066 10.5976C93.6445 10.6421 94.3643 10.9039 94.966 11.3831C95.5677 11.8624 96.0512 12.559 96.3656 13.3025C96.621 14.1548 96.8173 15.1157 96.7853 16.2323C96.7534 17.3489 96.5012 18.3419 96.0878 19.1028C95.6744 19.8636 95.2099 20.454 94.4151 20.8592C93.7895 21.2174 93.0026 21.3434 92.1647 21.2989C91.3268 21.2545 90.607 20.9926 90.0053 20.5134ZM94.2428 19.0608C94.7663 18.3617 95.1286 17.4304 95.1095 16.1434C95.0904 14.8564 94.9531 13.7867 94.4696 13.0901C93.986 12.3935 93.3252 12.0229 92.5464 11.8698C91.7085 11.8253 90.9727 12.1218 90.5083 12.7122C89.9848 13.4113 89.6224 14.3426 89.6415 15.6296C89.6607 16.9166 89.7979 17.9863 90.2815 18.6829C90.765 19.3795 91.4258 19.75 92.2637 19.7945C92.9835 20.0563 93.7193 19.7599 94.2428 19.0608Z" fill="#323232"/>
<path d="M102.426 11.8926L100.727 22.1751L99.2735 21.9299L100.77 12.8141L98.4242 12.3534L98.6855 11.0777L102.426 11.8926Z" fill="#323232"/>
<path d="M110.032 18.924C110.628 19.684 110.714 20.5851 110.41 21.4095C110.224 22.016 109.987 22.4518 109.58 22.9345C109.174 23.4173 108.665 23.5584 107.986 23.7465C107.366 23.8258 106.526 23.7812 105.804 23.5188C105.082 23.2564 104.36 22.994 103.866 22.5757C103.373 22.1573 102.77 21.677 102.446 21.2116L103.37 20.308C103.583 20.7115 103.966 21.068 104.459 21.4864C104.952 21.9048 105.564 22.1053 106.065 22.2439C106.787 22.5063 107.517 22.4889 107.915 22.2859C108.314 22.0829 108.772 21.771 108.958 21.1645C109.143 20.5579 108.99 20.0455 108.666 19.5801C108.343 19.1147 107.51 18.7904 106.398 18.4512L104.062 17.7111L106.006 12.5469L111.739 14.1955L111.367 15.4086L106.916 14.0521L105.885 16.7431L106.998 17.0822C108.553 17.6689 109.547 18.2259 110.032 18.924Z" fill="#323232"/>
<path d="M127.104 28.5126C127.112 28.2337 127.12 27.9548 127.238 27.7376C127.356 27.5204 127.584 27.3648 127.922 27.271C128.201 27.2858 128.48 27.3005 128.699 27.4239C128.919 27.5473 129.08 27.7793 129.072 28.0582C129.064 28.3371 129.056 28.616 128.938 28.8332C128.82 29.0505 128.592 29.206 128.254 29.2998C127.916 29.3937 127.697 29.2703 127.477 29.1469C127.426 28.9766 127.265 28.7446 127.104 28.5126Z" fill="#323232"/>
<path fill-rule="evenodd" clip-rule="evenodd" d="M127.056 13.7419C86.1892 -9.15849 35.1687 5.1764 13.0859 45.7178C-8.99688 86.2591 6.19654 137.698 47.0629 160.599C87.9293 183.499 138.95 169.164 161.033 128.623C183.115 88.0815 167.922 36.6422 127.056 13.7419ZM11.3469 44.7433C33.9699 3.21023 86.2071 -11.4351 128.01 11.9899C169.813 35.415 185.395 88.0643 162.772 129.597C140.149 171.13 87.9114 185.776 46.1086 162.351C4.30591 138.926 -11.2761 86.2763 11.3469 44.7433Z" fill="#323232"/>
</svg>
