<svg width="98" height="48" viewBox="0 0 98 48" fill="none" xmlns="http://www.w3.org/2000/svg">
<g opacity="1">
<path d="M11.5758 15.056H7.37576L6.54776 17H4.93976L8.71976 8.6H10.2558L14.0478 17H12.4158L11.5758 15.056ZM11.0598 13.832L9.47576 10.16L7.90376 13.832H11.0598ZM15.116 8.6H16.676V15.68H21.068V17H15.116V8.6ZM23.8596 9.908V12.464H27.9156V13.784H23.8596V17H22.2996V8.6H28.4316V9.908H23.8596ZM35.025 15.056H30.825L29.997 17H28.389L32.169 8.6H33.705L37.497 17H35.865L35.025 15.056ZM34.509 13.832L32.925 10.16L31.353 13.832H34.509Z" fill="white"/>
<path d="M21.9754 31.6H25.6474C26.5434 31.6 27.3394 31.776 28.0354 32.128C28.7314 32.472 29.2714 32.964 29.6554 33.604C30.0394 34.236 30.2314 34.968 30.2314 35.8C30.2314 36.632 30.0394 37.368 29.6554 38.008C29.2714 38.64 28.7314 39.132 28.0354 39.484C27.3394 39.828 26.5434 40 25.6474 40H21.9754V31.6ZM25.5754 38.68C26.1914 38.68 26.7314 38.564 27.1954 38.332C27.6674 38.092 28.0274 37.756 28.2754 37.324C28.5314 36.884 28.6594 36.376 28.6594 35.8C28.6594 35.224 28.5314 34.72 28.2754 34.288C28.0274 33.848 27.6674 33.512 27.1954 33.28C26.7314 33.04 26.1914 32.92 25.5754 32.92H23.5354V38.68H25.5754ZM31.8895 31.6H33.4495V40H31.8895V31.6ZM41.2175 40L39.5015 37.54C39.4295 37.548 39.3215 37.552 39.1775 37.552H37.2815V40H35.7215V31.6H39.1775C39.9055 31.6 40.5375 31.72 41.0735 31.96C41.6175 32.2 42.0335 32.544 42.3215 32.992C42.6095 33.44 42.7535 33.972 42.7535 34.588C42.7535 35.22 42.5975 35.764 42.2855 36.22C41.9815 36.676 41.5415 37.016 40.9655 37.24L42.8975 40H41.2175ZM41.1815 34.588C41.1815 34.052 41.0055 33.64 40.6535 33.352C40.3015 33.064 39.7855 32.92 39.1055 32.92H37.2815V36.268H39.1055C39.7855 36.268 40.3015 36.124 40.6535 35.836C41.0055 35.54 41.1815 35.124 41.1815 34.588ZM50.7988 38.692V40H44.4988V31.6H50.6308V32.908H46.0588V35.092H50.1149V36.376H46.0588V38.692H50.7988ZM56.3908 40.12C55.5428 40.12 54.7748 39.936 54.0868 39.568C53.4068 39.192 52.8708 38.676 52.4788 38.02C52.0948 37.364 51.9028 36.624 51.9028 35.8C51.9028 34.976 52.0988 34.236 52.4908 33.58C52.8828 32.924 53.4188 32.412 54.0988 32.044C54.7868 31.668 55.5548 31.48 56.4028 31.48C57.0908 31.48 57.7188 31.6 58.2868 31.84C58.8548 32.08 59.3348 32.428 59.7268 32.884L58.7188 33.832C58.1108 33.176 57.3628 32.848 56.4748 32.848C55.8988 32.848 55.3828 32.976 54.9268 33.232C54.4708 33.48 54.1148 33.828 53.8588 34.276C53.6028 34.724 53.4748 35.232 53.4748 35.8C53.4748 36.368 53.6028 36.876 53.8588 37.324C54.1148 37.772 54.4708 38.124 54.9268 38.38C55.3828 38.628 55.8988 38.752 56.4748 38.752C57.3628 38.752 58.1108 38.42 58.7188 37.756L59.7268 38.716C59.3348 39.172 58.8508 39.52 58.2748 39.76C57.7068 40 57.0788 40.12 56.3908 40.12ZM62.8318 32.92H60.0478V31.6H67.1758V32.92H64.3918V40H62.8318V32.92ZM71.6629 31.6H73.2229V40H71.6629V31.6ZM79.3829 40.12C78.5349 40.12 77.7669 39.936 77.0789 39.568C76.3989 39.192 75.8629 38.676 75.4709 38.02C75.0869 37.364 74.8949 36.624 74.8949 35.8C74.8949 34.976 75.0909 34.236 75.4829 33.58C75.8749 32.924 76.4109 32.412 77.0909 32.044C77.7789 31.668 78.5469 31.48 79.3949 31.48C80.0829 31.48 80.7109 31.6 81.2789 31.84C81.8469 32.08 82.3269 32.428 82.7189 32.884L81.7109 33.832C81.1029 33.176 80.3549 32.848 79.4669 32.848C78.8909 32.848 78.3749 32.976 77.9189 33.232C77.4629 33.48 77.1069 33.828 76.8509 34.276C76.5949 34.724 76.4669 35.232 76.4669 35.8C76.4669 36.368 76.5949 36.876 76.8509 37.324C77.1069 37.772 77.4629 38.124 77.9189 38.38C78.3749 38.628 78.8909 38.752 79.4669 38.752C80.3549 38.752 81.1029 38.42 81.7109 37.756L82.7189 38.716C82.3269 39.172 81.8429 39.52 81.2669 39.76C80.6989 40 80.0709 40.12 79.3829 40.12ZM84.2137 31.6H87.8857C88.7817 31.6 89.5777 31.776 90.2737 32.128C90.9697 32.472 91.5097 32.964 91.8937 33.604C92.2777 34.236 92.4697 34.968 92.4697 35.8C92.4697 36.632 92.2777 37.368 91.8937 38.008C91.5097 38.64 90.9697 39.132 90.2737 39.484C89.5777 39.828 88.7817 40 87.8857 40H84.2137V31.6ZM87.8137 38.68C88.4297 38.68 88.9697 38.564 89.4337 38.332C89.9057 38.092 90.2657 37.756 90.5137 37.324C90.7697 36.884 90.8977 36.376 90.8977 35.8C90.8977 35.224 90.7697 34.72 90.5137 34.288C90.2657 33.848 89.9057 33.512 89.4337 33.28C88.9697 33.04 88.4297 32.92 87.8137 32.92H85.7737V38.68H87.8137Z" fill="white"/>
<rect x="0.999756" y="1" width="96" height="46" stroke="white" stroke-width="2"/>
</g>
</svg>
