<svg width="98" height="48" viewBox="0 0 98 48" fill="none" xmlns="http://www.w3.org/2000/svg">
<g opacity="1">
<path d="M11.576 15.056H7.376L6.548 17H4.94L8.72 8.6H10.256L14.048 17H12.416L11.576 15.056ZM11.06 13.832L9.476 10.16L7.904 13.832H11.06ZM15.1163 8.6H16.6763V15.68H21.0683V17H15.1163V8.6ZM23.8599 9.908V12.464H27.9159V13.784H23.8599V17H22.2999V8.6H28.4319V9.908H23.8599ZM35.0252 15.056H30.8252L29.9972 17H28.3892L32.1692 8.6H33.7052L37.4972 17H35.8652L35.0252 15.056ZM34.5092 13.832L32.9252 10.16L31.3532 13.832H34.5092Z" fill="white"/>
<path d="M47.7569 31.6H51.4289C52.3249 31.6 53.1209 31.776 53.8169 32.128C54.5129 32.472 55.0529 32.964 55.4369 33.604C55.8209 34.236 56.0129 34.968 56.0129 35.8C56.0129 36.632 55.8209 37.368 55.4369 38.008C55.0529 38.64 54.5129 39.132 53.8169 39.484C53.1209 39.828 52.3249 40 51.4289 40H47.7569V31.6ZM51.3569 38.68C51.9729 38.68 52.5129 38.564 52.9769 38.332C53.4489 38.092 53.8089 37.756 54.0569 37.324C54.3129 36.884 54.4409 36.376 54.4409 35.8C54.4409 35.224 54.3129 34.72 54.0569 34.288C53.8089 33.848 53.4489 33.512 52.9769 33.28C52.5129 33.04 51.9729 32.92 51.3569 32.92H49.3169V38.68H51.3569ZM57.671 31.6H59.231V40H57.671V31.6ZM66.999 40L65.283 37.54C65.211 37.548 65.103 37.552 64.959 37.552H63.063V40H61.503V31.6H64.959C65.687 31.6 66.319 31.72 66.855 31.96C67.399 32.2 67.815 32.544 68.103 32.992C68.391 33.44 68.535 33.972 68.535 34.588C68.535 35.22 68.379 35.764 68.067 36.22C67.763 36.676 67.323 37.016 66.747 37.24L68.679 40H66.999ZM66.963 34.588C66.963 34.052 66.787 33.64 66.435 33.352C66.083 33.064 65.567 32.92 64.887 32.92H63.063V36.268H64.887C65.567 36.268 66.083 36.124 66.435 35.836C66.787 35.54 66.963 35.124 66.963 34.588ZM76.5803 38.692V40H70.2803V31.6H76.4123V32.908H71.8403V35.092H75.8963V36.376H71.8403V38.692H76.5803ZM82.1723 40.12C81.3243 40.12 80.5563 39.936 79.8683 39.568C79.1883 39.192 78.6523 38.676 78.2603 38.02C77.8763 37.364 77.6843 36.624 77.6843 35.8C77.6843 34.976 77.8803 34.236 78.2723 33.58C78.6643 32.924 79.2003 32.412 79.8803 32.044C80.5683 31.668 81.3363 31.48 82.1843 31.48C82.8723 31.48 83.5003 31.6 84.0683 31.84C84.6363 32.08 85.1163 32.428 85.5083 32.884L84.5003 33.832C83.8923 33.176 83.1443 32.848 82.2563 32.848C81.6803 32.848 81.1643 32.976 80.7083 33.232C80.2523 33.48 79.8963 33.828 79.6403 34.276C79.3843 34.724 79.2563 35.232 79.2563 35.8C79.2563 36.368 79.3843 36.876 79.6403 37.324C79.8963 37.772 80.2523 38.124 80.7083 38.38C81.1643 38.628 81.6803 38.752 82.2563 38.752C83.1443 38.752 83.8923 38.42 84.5003 37.756L85.5083 38.716C85.1163 39.172 84.6323 39.52 84.0563 39.76C83.4883 40 82.8603 40.12 82.1723 40.12ZM88.6133 32.92H85.8293V31.6H92.9573V32.92H90.1733V40H88.6133V32.92Z" fill="white"/>
<rect x="1" y="1" width="96" height="46" stroke="white" stroke-width="2"/>
</g>
</svg>
