<svg width="141" height="49" viewBox="0 0 141 49" fill="none" xmlns="http://www.w3.org/2000/svg">
<path d="M13.616 8.71169V17.1117H12.08V10.0317H7.724V17.1117H6.188V8.71169H13.616ZM21.5526 15.1677H17.3526L16.5246 17.1117H14.9166L18.6966 8.71169H20.2326L24.0246 17.1117H22.3926L21.5526 15.1677ZM21.0366 13.9437L19.4526 10.2717L17.8806 13.9437H21.0366ZM28.7687 8.71169C29.4967 8.71169 30.1287 8.83169 30.6647 9.07169C31.2087 9.31169 31.6247 9.65569 31.9127 10.1037C32.2007 10.5517 32.3447 11.0837 32.3447 11.6997C32.3447 12.3077 32.2007 12.8397 31.9127 13.2957C31.6247 13.7437 31.2087 14.0877 30.6647 14.3277C30.1287 14.5677 29.4967 14.6877 28.7687 14.6877H26.8727V17.1117H25.3127V8.71169H28.7687ZM28.6967 13.3677C29.3767 13.3677 29.8927 13.2237 30.2447 12.9357C30.5967 12.6477 30.7727 12.2357 30.7727 11.6997C30.7727 11.1637 30.5967 10.7517 30.2447 10.4637C29.8927 10.1757 29.3767 10.0317 28.6967 10.0317H26.8727V13.3677H28.6967ZM39.6704 10.0317H36.8864V17.1117H35.3384V10.0317H32.5664V8.71169H39.6704V10.0317ZM48.4798 8.71169V17.1117H46.9198V13.5117H42.5758V17.1117H41.0158V8.71169H42.5758V12.1797H46.9198V8.71169H48.4798ZM57.1362 15.8037V17.1117H50.8362V8.71169H56.9682V10.0197H52.3962V12.2037H56.4522V13.4877H52.3962V15.8037H57.1362ZM62.3312 8.71169C63.0592 8.71169 63.6912 8.83169 64.2272 9.07169C64.7712 9.31169 65.1872 9.65569 65.4752 10.1037C65.7632 10.5517 65.9072 11.0837 65.9072 11.6997C65.9072 12.3077 65.7632 12.8397 65.4752 13.2957C65.1872 13.7437 64.7712 14.0877 64.2272 14.3277C63.6912 14.5677 63.0592 14.6877 62.3312 14.6877H60.4352V17.1117H58.8752V8.71169H62.3312ZM62.2592 13.3677C62.9392 13.3677 63.4552 13.2237 63.8072 12.9357C64.1592 12.6477 64.3352 12.2357 64.3352 11.6997C64.3352 11.1637 64.1592 10.7517 63.8072 10.4637C63.4552 10.1757 62.9392 10.0317 62.2592 10.0317H60.4352V13.3677H62.2592ZM71.3642 17.2317C70.5162 17.2317 69.7482 17.0477 69.0602 16.6797C68.3802 16.3037 67.8442 15.7877 67.4522 15.1317C67.0682 14.4757 66.8762 13.7357 66.8762 12.9117C66.8762 12.0877 67.0722 11.3477 67.4642 10.6917C67.8562 10.0357 68.3922 9.52369 69.0722 9.15569C69.7602 8.77969 70.5282 8.59169 71.3762 8.59169C72.0642 8.59169 72.6922 8.71169 73.2602 8.95169C73.8282 9.19169 74.3082 9.53969 74.7002 9.99569L73.6922 10.9437C73.0842 10.2877 72.3362 9.95969 71.4482 9.95969C70.8722 9.95969 70.3562 10.0877 69.9002 10.3437C69.4442 10.5917 69.0882 10.9397 68.8322 11.3877C68.5762 11.8357 68.4482 12.3437 68.4482 12.9117C68.4482 13.4797 68.5762 13.9877 68.8322 14.4357C69.0882 14.8837 69.4442 15.2357 69.9002 15.4917C70.3562 15.7397 70.8722 15.8637 71.4482 15.8637C72.3362 15.8637 73.0842 15.5317 73.6922 14.8677L74.7002 15.8277C74.3082 16.2837 73.8242 16.6317 73.2482 16.8717C72.6802 17.1117 72.0522 17.2317 71.3642 17.2317ZM79.2447 13.5717H77.6847V17.1117H76.1487V8.71169H77.6847V12.2277H79.2927L81.7047 8.71169H83.3607L80.4927 12.7797L83.4687 17.1117H81.7047L79.2447 13.5717ZM89.9549 15.1677H85.7549L84.9269 17.1117H83.3189L87.0989 8.71169H88.6349L92.4269 17.1117H90.7949L89.9549 15.1677ZM89.4389 13.9437L87.8549 10.2717L86.2829 13.9437H89.4389ZM99.7132 8.71169V17.1117H98.1772V14.7717H96.1012H95.9332L94.3732 17.1117H92.7292L94.5292 14.5197C93.9452 14.3037 93.4932 13.9637 93.1732 13.4997C92.8612 13.0277 92.7052 12.4597 92.7052 11.7957C92.7052 11.1557 92.8492 10.6037 93.1372 10.1397C93.4252 9.67569 93.8332 9.32369 94.3612 9.08369C94.8892 8.83569 95.5092 8.71169 96.2212 8.71169H99.7132ZM96.2692 10.0317C95.6292 10.0317 95.1372 10.1797 94.7932 10.4757C94.4572 10.7717 94.2892 11.2037 94.2892 11.7717C94.2892 12.3237 94.4532 12.7517 94.7812 13.0557C95.1092 13.3517 95.5852 13.4997 96.2092 13.4997H98.1772V10.0317H96.2692Z" fill="white"/>
<path d="M59.1746 31.7117V40.1117H57.6386V33.0317H53.2826V40.1117H51.7466V31.7117H59.1746ZM64.9992 31.7117C65.7272 31.7117 66.3592 31.8317 66.8952 32.0717C67.4392 32.3117 67.8552 32.6557 68.1432 33.1037C68.4312 33.5517 68.5752 34.0837 68.5752 34.6997C68.5752 35.3077 68.4312 35.8397 68.1432 36.2957C67.8552 36.7437 67.4392 37.0877 66.8952 37.3277C66.3592 37.5677 65.7272 37.6877 64.9992 37.6877H63.1032V40.1117H61.5432V31.7117H64.9992ZM64.9272 36.3677C65.6072 36.3677 66.1232 36.2237 66.4752 35.9357C66.8272 35.6477 67.0032 35.2357 67.0032 34.6997C67.0032 34.1637 66.8272 33.7517 66.4752 33.4637C66.1232 33.1757 65.6072 33.0317 64.9272 33.0317H63.1032V36.3677H64.9272ZM74.0562 40.2317C73.2002 40.2317 72.4282 40.0477 71.7402 39.6797C71.0522 39.3037 70.5122 38.7877 70.1202 38.1317C69.7282 37.4677 69.5322 36.7277 69.5322 35.9117C69.5322 35.0957 69.7282 34.3597 70.1202 33.7037C70.5122 33.0397 71.0522 32.5237 71.7402 32.1557C72.4282 31.7797 73.2002 31.5917 74.0562 31.5917C74.9122 31.5917 75.6842 31.7797 76.3722 32.1557C77.0602 32.5237 77.6002 33.0357 77.9922 33.6917C78.3842 34.3477 78.5802 35.0877 78.5802 35.9117C78.5802 36.7357 78.3842 37.4757 77.9922 38.1317C77.6002 38.7877 77.0602 39.3037 76.3722 39.6797C75.6842 40.0477 74.9122 40.2317 74.0562 40.2317ZM74.0562 38.8637C74.6162 38.8637 75.1202 38.7397 75.5682 38.4917C76.0162 38.2357 76.3682 37.8837 76.6242 37.4357C76.8802 36.9797 77.0082 36.4717 77.0082 35.9117C77.0082 35.3517 76.8802 34.8477 76.6242 34.3997C76.3682 33.9437 76.0162 33.5917 75.5682 33.3437C75.1202 33.0877 74.6162 32.9597 74.0562 32.9597C73.4962 32.9597 72.9922 33.0877 72.5442 33.3437C72.0962 33.5917 71.7442 33.9437 71.4882 34.3997C71.2322 34.8477 71.1042 35.3517 71.1042 35.9117C71.1042 36.4717 71.2322 36.9797 71.4882 37.4357C71.7442 37.8837 72.0962 38.2357 72.5442 38.4917C72.9922 38.7397 73.4962 38.8637 74.0562 38.8637ZM86.0049 33.0317H81.8409L81.8529 40.1117H80.3169V31.7117H86.0169L86.0049 33.0317ZM90.7804 31.7117C91.5084 31.7117 92.1404 31.8317 92.6764 32.0717C93.2204 32.3117 93.6364 32.6557 93.9244 33.1037C94.2124 33.5517 94.3564 34.0837 94.3564 34.6997C94.3564 35.3077 94.2124 35.8397 93.9244 36.2957C93.6364 36.7437 93.2204 37.0877 92.6764 37.3277C92.1404 37.5677 91.5084 37.6877 90.7804 37.6877H88.8844V40.1117H87.3244V31.7117H90.7804ZM90.7084 36.3677C91.3884 36.3677 91.9044 36.2237 92.2564 35.9357C92.6084 35.6477 92.7844 35.2357 92.7844 34.6997C92.7844 34.1637 92.6084 33.7517 92.2564 33.4637C91.9044 33.1757 91.3884 33.0317 90.7084 33.0317H88.8844V36.3677H90.7084ZM100.978 38.1677H96.7784L95.9504 40.1117H94.3424L98.1224 31.7117H99.6584L103.45 40.1117H101.818L100.978 38.1677ZM100.462 36.9437L98.8784 33.2717L97.3064 36.9437H100.462ZM112.455 40.1117L112.443 34.5437L109.683 39.1517H108.987L106.227 34.6157V40.1117H104.751V31.7117H106.035L109.359 37.2677L112.647 31.7117H113.919L113.943 40.1117H112.455ZM124.009 40.1117L123.997 34.5437L121.237 39.1517H120.541L117.781 34.6157V40.1117H116.305V31.7117H117.589L120.913 37.2677L124.201 31.7117H125.473L125.497 40.1117H124.009ZM133.416 38.1677H129.216L128.388 40.1117H126.78L130.56 31.7117H132.096L135.888 40.1117H134.256L133.416 38.1677ZM132.9 36.9437L131.316 33.2717L129.744 36.9437H132.9Z" fill="white"/>
<rect x="1" y="1.11169" width="139" height="46" stroke="white" stroke-width="2"/>
</svg>
