<svg width="135" height="67" viewBox="0 0 135 67" fill="none" xmlns="http://www.w3.org/2000/svg">
<path d="M20.918 20.8688H14.222L12.836 24.0188H10.982L16.688 11.4188H18.47L24.194 24.0188H22.304L20.918 20.8688ZM20.288 19.4288L17.57 13.2548L14.852 19.4288H20.288ZM26.0736 11.4188H27.8736V22.4528H34.6956V24.0188H26.0736V11.4188ZM38.5611 12.9848V17.3768H44.8791V18.9248H38.5611V24.0188H36.7611V11.4188H45.6531V12.9848H38.5611ZM55.6348 20.8688H48.9388L47.5528 24.0188H45.6988L51.4048 11.4188H53.1868L58.9108 24.0188H57.0208L55.6348 20.8688ZM55.0048 19.4288L52.2868 13.2548L49.5688 19.4288H55.0048Z" fill="#323232"/>
<path d="M56.931 41.346H62.241C63.573 41.346 64.755 41.61 65.787 42.138C66.819 42.666 67.617 43.41 68.181 44.37C68.757 45.318 69.045 46.41 69.045 47.646C69.045 48.882 68.757 49.98 68.181 50.94C67.617 51.888 66.819 52.626 65.787 53.154C64.755 53.682 63.573 53.946 62.241 53.946H56.931V41.346ZM62.133 52.38C63.153 52.38 64.047 52.182 64.815 51.786C65.595 51.39 66.195 50.838 66.615 50.13C67.035 49.41 67.245 48.582 67.245 47.646C67.245 46.71 67.035 45.888 66.615 45.18C66.195 44.46 65.595 43.902 64.815 43.506C64.047 43.11 63.153 42.912 62.133 42.912H58.731V52.38H62.133ZM71.8021 41.346H73.6021V53.946H71.8021V41.346ZM85.7984 53.946L83.0804 50.076C82.7444 50.1 82.4804 50.112 82.2884 50.112H79.1744V53.946H77.3744V41.346H82.2884C83.9204 41.346 85.2044 41.736 86.1404 42.516C87.0764 43.296 87.5444 44.37 87.5444 45.738C87.5444 46.71 87.3044 47.538 86.8244 48.222C86.3444 48.906 85.6604 49.404 84.7724 49.716L87.7604 53.946H85.7984ZM82.2344 48.582C83.3744 48.582 84.2444 48.336 84.8444 47.844C85.4444 47.352 85.7444 46.65 85.7444 45.738C85.7444 44.826 85.4444 44.13 84.8444 43.65C84.2444 43.158 83.3744 42.912 82.2344 42.912H79.1744V48.582H82.2344ZM99.5965 52.38V53.946H90.4525V41.346H99.3445V42.912H92.2525V46.782H98.5705V48.312H92.2525V52.38H99.5965ZM108.092 54.09C106.832 54.09 105.692 53.814 104.672 53.262C103.664 52.698 102.872 51.93 102.296 50.958C101.72 49.974 101.432 48.87 101.432 47.646C101.432 46.422 101.72 45.324 102.296 44.352C102.872 43.368 103.67 42.6 104.69 42.048C105.71 41.484 106.85 41.202 108.11 41.202C109.094 41.202 109.994 41.37 110.81 41.706C111.626 42.03 112.322 42.516 112.898 43.164L111.728 44.298C110.78 43.302 109.598 42.804 108.182 42.804C107.246 42.804 106.4 43.014 105.644 43.434C104.888 43.854 104.294 44.436 103.862 45.18C103.442 45.912 103.232 46.734 103.232 47.646C103.232 48.558 103.442 49.386 103.862 50.13C104.294 50.862 104.888 51.438 105.644 51.858C106.4 52.278 107.246 52.488 108.182 52.488C109.586 52.488 110.768 51.984 111.728 50.976L112.898 52.11C112.322 52.758 111.62 53.25 110.792 53.586C109.976 53.922 109.076 54.09 108.092 54.09ZM117.828 42.912H113.508V41.346H123.93V42.912H119.61V53.946H117.828V42.912Z" fill="#323232"/>
<rect x="1" y="1" width="133" height="64.1779" stroke="#323232" stroke-width="2"/>
</svg>
