<svg width="135" height="67" viewBox="0 0 135 67" fill="none" xmlns="http://www.w3.org/2000/svg">
<path d="M20.918 20.8689H14.222L12.836 24.0189H10.982L16.688 11.4189H18.47L24.194 24.0189H22.304L20.918 20.8689ZM20.288 19.4289L17.57 13.2549L14.852 19.4289H20.288ZM26.0736 11.4189H27.8736V22.4529H34.6956V24.0189H26.0736V11.4189ZM38.5611 12.9849V17.3769H44.8791V18.9249H38.5611V24.0189H36.7611V11.4189H45.6531V12.9849H38.5611ZM55.6348 20.8689H48.9388L47.5528 24.0189H45.6988L51.4048 11.4189H53.1868L58.9108 24.0189H57.0208L55.6348 20.8689ZM55.0048 19.4289L52.2868 13.2549L49.5688 19.4289H55.0048Z" fill="#323232"/>
<path d="M60.1987 54.09C59.2507 54.09 58.3327 53.946 57.4447 53.658C56.5687 53.358 55.8787 52.974 55.3747 52.506L56.0407 51.102C56.5207 51.534 57.1327 51.888 57.8767 52.164C58.6327 52.428 59.4067 52.56 60.1987 52.56C61.2427 52.56 62.0227 52.386 62.5387 52.038C63.0547 51.678 63.3127 51.204 63.3127 50.616C63.3127 50.184 63.1687 49.836 62.8807 49.572C62.6047 49.296 62.2567 49.086 61.8367 48.942C61.4287 48.798 60.8467 48.636 60.0907 48.456C59.1427 48.228 58.3747 48 57.7867 47.772C57.2107 47.544 56.7127 47.196 56.2927 46.728C55.8847 46.248 55.6807 45.606 55.6807 44.802C55.6807 44.13 55.8547 43.524 56.2027 42.984C56.5627 42.444 57.1027 42.012 57.8227 41.688C58.5427 41.364 59.4367 41.202 60.5047 41.202C61.2487 41.202 61.9807 41.298 62.7007 41.49C63.4207 41.682 64.0387 41.958 64.5547 42.318L63.9607 43.758C63.4327 43.422 62.8687 43.17 62.2687 43.002C61.6687 42.822 61.0807 42.732 60.5047 42.732C59.4847 42.732 58.7167 42.918 58.2007 43.29C57.6967 43.662 57.4447 44.142 57.4447 44.73C57.4447 45.162 57.5887 45.516 57.8767 45.792C58.1647 46.056 58.5187 46.266 58.9387 46.422C59.3707 46.566 59.9527 46.722 60.6847 46.89C61.6327 47.118 62.3947 47.346 62.9707 47.574C63.5467 47.802 64.0387 48.15 64.4467 48.618C64.8667 49.086 65.0767 49.716 65.0767 50.508C65.0767 51.168 64.8967 51.774 64.5367 52.326C64.1767 52.866 63.6307 53.298 62.8987 53.622C62.1667 53.934 61.2667 54.09 60.1987 54.09ZM76.8504 52.38V53.946H67.7064V41.346H76.5984V42.912H69.5064V46.782H75.8244V48.312H69.5064V52.38H76.8504ZM79.765 41.346H81.565V52.38H88.387V53.946H79.765V41.346ZM99.5965 52.38V53.946H90.4525V41.346H99.3445V42.912H92.2525V46.782H98.5705V48.312H92.2525V52.38H99.5965ZM108.092 54.09C106.832 54.09 105.692 53.814 104.672 53.262C103.664 52.698 102.872 51.93 102.296 50.958C101.72 49.974 101.432 48.87 101.432 47.646C101.432 46.422 101.72 45.324 102.296 44.352C102.872 43.368 103.67 42.6 104.69 42.048C105.71 41.484 106.85 41.202 108.11 41.202C109.094 41.202 109.994 41.37 110.81 41.706C111.626 42.03 112.322 42.516 112.898 43.164L111.728 44.298C110.78 43.302 109.598 42.804 108.182 42.804C107.246 42.804 106.4 43.014 105.644 43.434C104.888 43.854 104.294 44.436 103.862 45.18C103.442 45.912 103.232 46.734 103.232 47.646C103.232 48.558 103.442 49.386 103.862 50.13C104.294 50.862 104.888 51.438 105.644 51.858C106.4 52.278 107.246 52.488 108.182 52.488C109.586 52.488 110.768 51.984 111.728 50.976L112.898 52.11C112.322 52.758 111.62 53.25 110.792 53.586C109.976 53.922 109.076 54.09 108.092 54.09ZM117.828 42.912H113.508V41.346H123.93V42.912H119.61V53.946H117.828V42.912Z" fill="#323232"/>
<rect x="1" y="1" width="133" height="64.1779" stroke="#323232" stroke-width="2"/>
</svg>
