<svg width="135" height="67" viewBox="0 0 135 67" fill="none" xmlns="http://www.w3.org/2000/svg">
<path d="M20.918 20.8689H14.222L12.836 24.0189H10.982L16.688 11.4189H18.47L24.194 24.0189H22.304L20.918 20.8689ZM20.288 19.4289L17.57 13.2549L14.852 19.4289H20.288ZM26.0736 11.4189H27.8736V22.4529H34.6956V24.0189H26.0736V11.4189ZM38.5611 12.9849V17.3769H44.8791V18.9249H38.5611V24.0189H36.7611V11.4189H45.6531V12.9849H38.5611ZM55.6348 20.8689H48.9388L47.5528 24.0189H45.6988L51.4048 11.4189H53.1868L58.9108 24.0189H57.0208L55.6348 20.8689ZM55.0048 19.4289L52.2868 13.2549L49.5688 19.4289H55.0048Z" fill="#323232"/>
<path d="M89.4629 50.7961H82.7669L81.3809 53.9461H79.5269L85.2329 41.3461H87.0149L92.7389 53.9461H90.8489L89.4629 50.7961ZM88.8329 49.3561L86.1149 43.1821L83.3969 49.3561H88.8329ZM94.6185 41.3461H96.4185V53.9461H94.6185V41.3461ZM105.825 54.0901C104.565 54.0901 103.425 53.8141 102.405 53.2621C101.397 52.6981 100.605 51.9301 100.029 50.9581C99.4528 49.9741 99.1648 48.8701 99.1648 47.6461C99.1648 46.4221 99.4528 45.3241 100.029 44.3521C100.605 43.3681 101.403 42.6001 102.423 42.0481C103.443 41.4841 104.583 41.2021 105.843 41.2021C106.827 41.2021 107.727 41.3701 108.543 41.7061C109.359 42.0301 110.055 42.5161 110.631 43.1641L109.461 44.2981C108.513 43.3021 107.331 42.8041 105.915 42.8041C104.979 42.8041 104.133 43.0141 103.377 43.4341C102.621 43.8541 102.027 44.4361 101.595 45.1801C101.175 45.9121 100.965 46.7341 100.965 47.6461C100.965 48.5581 101.175 49.3861 101.595 50.1301C102.027 50.8621 102.621 51.4381 103.377 51.8581C104.133 52.2781 104.979 52.4881 105.915 52.4881C107.319 52.4881 108.501 51.9841 109.461 50.9761L110.631 52.1101C110.055 52.7581 109.353 53.2501 108.525 53.5861C107.709 53.9221 106.809 54.0901 105.825 54.0901ZM124.02 41.3461L118.494 53.9461H116.712L111.168 41.3461H113.112L117.648 51.6961L122.22 41.3461H124.02Z" fill="#323232"/>
<rect x="1" y="1" width="133" height="64.1779" stroke="#323232" stroke-width="2"/>
</svg>
