<svg width="135" height="67" viewBox="0 0 135 67" fill="none" xmlns="http://www.w3.org/2000/svg">
<path d="M20.918 20.8689H14.222L12.836 24.0189H10.982L16.688 11.4189H18.47L24.194 24.0189H22.304L20.918 20.8689ZM20.288 19.4289L17.57 13.2549L14.852 19.4289H20.288ZM26.0736 11.4189H27.8736V22.4529H34.6956V24.0189H26.0736V11.4189ZM38.5611 12.9849V17.3769H44.8791V18.9249H38.5611V24.0189H36.7611V11.4189H45.6531V12.9849H38.5611ZM55.6348 20.8689H48.9388L47.5528 24.0189H45.6988L51.4048 11.4189H53.1868L58.9108 24.0189H57.0208L55.6348 20.8689ZM55.0048 19.4289L52.2868 13.2549L49.5688 19.4289H55.0048Z" fill="#323232"/>
<path d="M64.233 42.9121V47.3041H70.551V48.8521H64.233V53.9461H62.433V41.3461H71.325V42.9121H64.233ZM82.2828 53.9461L79.5648 50.0761C79.2288 50.1001 78.9648 50.1121 78.7728 50.1121H75.6588V53.9461H73.8588V41.3461H78.7728C80.4048 41.3461 81.6888 41.7361 82.6248 42.5161C83.5608 43.2961 84.0288 44.3701 84.0288 45.7381C84.0288 46.7101 83.7888 47.5381 83.3088 48.2221C82.8288 48.9061 82.1448 49.4041 81.2568 49.7161L84.2448 53.9461H82.2828ZM78.7188 48.5821C79.8588 48.5821 80.7288 48.3361 81.3288 47.8441C81.9288 47.3521 82.2288 46.6501 82.2288 45.7381C82.2288 44.8261 81.9288 44.1301 81.3288 43.6501C80.7288 43.1581 79.8588 42.9121 78.7188 42.9121H75.6588V48.5821H78.7188ZM94.9649 50.7961H88.2689L86.8829 53.9461H85.0289L90.7349 41.3461H92.5169L98.2409 53.9461H96.3509L94.9649 50.7961ZM94.3349 49.3561L91.6169 43.1821L88.8989 49.3561H94.3349ZM105.579 54.0901C104.319 54.0901 103.179 53.8141 102.159 53.2621C101.151 52.6981 100.359 51.9301 99.7827 50.9581C99.2067 49.9741 98.9187 48.8701 98.9187 47.6461C98.9187 46.4221 99.2067 45.3241 99.7827 44.3521C100.359 43.3681 101.157 42.6001 102.177 42.0481C103.197 41.4841 104.337 41.2021 105.597 41.2021C106.581 41.2021 107.481 41.3701 108.297 41.7061C109.113 42.0301 109.809 42.5161 110.385 43.1641L109.215 44.2981C108.267 43.3021 107.085 42.8041 105.669 42.8041C104.733 42.8041 103.887 43.0141 103.131 43.4341C102.375 43.8541 101.781 44.4361 101.349 45.1801C100.929 45.9121 100.719 46.7341 100.719 47.6461C100.719 48.5581 100.929 49.3861 101.349 50.1301C101.781 50.8621 102.375 51.4381 103.131 51.8581C103.887 52.2781 104.733 52.4881 105.669 52.4881C107.073 52.4881 108.255 51.9841 109.215 50.9761L110.385 52.1101C109.809 52.7581 109.107 53.2501 108.279 53.5861C107.463 53.9221 106.563 54.0901 105.579 54.0901ZM117.057 48.3481L114.753 50.6881V53.9461H112.953V41.3461H114.753V48.3841L121.593 41.3461H123.645L118.263 47.0161L123.987 53.9461H121.881L117.057 48.3481Z" fill="#323232"/>
<rect x="1" y="1" width="133" height="64.1779" stroke="#323232" stroke-width="2"/>
</svg>
