<svg width="98" height="48" viewBox="0 0 98 48" fill="none" xmlns="http://www.w3.org/2000/svg">
<g opacity="0.6">
<path d="M11.576 15.056H7.376L6.548 17H4.94L8.72 8.6H10.256L14.048 17H12.416L11.576 15.056ZM11.06 13.832L9.476 10.16L7.904 13.832H11.06ZM15.1163 8.6H16.6763V15.68H21.0683V17H15.1163V8.6ZM23.8599 9.908V12.464H27.9159V13.784H23.8599V17H22.2999V8.6H28.4319V9.908H23.8599ZM35.0252 15.056H30.8252L29.9972 17H28.3892L32.1692 8.6H33.7052L37.4972 17H35.8652L35.0252 15.056ZM34.5092 13.832L32.9252 10.16L31.3532 13.832H34.5092Z" fill="white"/>
<path d="M39.4824 31.6C40.2104 31.6 40.8424 31.72 41.3784 31.96C41.9224 32.2 42.3384 32.544 42.6264 32.992C42.9144 33.44 43.0584 33.972 43.0584 34.588C43.0584 35.196 42.9144 35.728 42.6264 36.184C42.3384 36.632 41.9224 36.976 41.3784 37.216C40.8424 37.456 40.2104 37.576 39.4824 37.576H37.5864V40H36.0264V31.6H39.4824ZM39.4104 36.256C40.0904 36.256 40.6064 36.112 40.9584 35.824C41.3104 35.536 41.4864 35.124 41.4864 34.588C41.4864 34.052 41.3104 33.64 40.9584 33.352C40.6064 33.064 40.0904 32.92 39.4104 32.92H37.5864V36.256H39.4104ZM48.6575 40.12C47.8015 40.12 47.0295 39.936 46.3415 39.568C45.6535 39.192 45.1135 38.676 44.7215 38.02C44.3295 37.356 44.1335 36.616 44.1335 35.8C44.1335 34.984 44.3295 34.248 44.7215 33.592C45.1135 32.928 45.6535 32.412 46.3415 32.044C47.0295 31.668 47.8015 31.48 48.6575 31.48C49.5135 31.48 50.2855 31.668 50.9735 32.044C51.6615 32.412 52.2015 32.924 52.5935 33.58C52.9855 34.236 53.1815 34.976 53.1815 35.8C53.1815 36.624 52.9855 37.364 52.5935 38.02C52.2015 38.676 51.6615 39.192 50.9735 39.568C50.2855 39.936 49.5135 40.12 48.6575 40.12ZM48.6575 38.752C49.2175 38.752 49.7215 38.628 50.1695 38.38C50.6175 38.124 50.9695 37.772 51.2255 37.324C51.4815 36.868 51.6095 36.36 51.6095 35.8C51.6095 35.24 51.4815 34.736 51.2255 34.288C50.9695 33.832 50.6175 33.48 50.1695 33.232C49.7215 32.976 49.2175 32.848 48.6575 32.848C48.0975 32.848 47.5935 32.976 47.1455 33.232C46.6975 33.48 46.3455 33.832 46.0895 34.288C45.8335 34.736 45.7055 35.24 45.7055 35.8C45.7055 36.36 45.8335 36.868 46.0895 37.324C46.3455 37.772 46.6975 38.124 47.1455 38.38C47.5935 38.628 48.0975 38.752 48.6575 38.752ZM54.835 31.6H56.395V38.68H60.787V40H54.835V31.6ZM62.0186 31.6H63.5786V40H62.0186V31.6ZM73.5667 40L73.5547 34.432L70.7947 39.04H70.0987L67.3387 34.504V40H65.8507V31.6H67.1347L70.4707 37.168L73.7467 31.6H75.0307L75.0427 40H73.5667ZM83.6116 38.692V40H77.3116V31.6H83.4436V32.908H78.8716V35.092H82.9276V36.376H78.8716V38.692H83.6116ZM90.8467 40L89.1307 37.54C89.0587 37.548 88.9507 37.552 88.8067 37.552H86.9107V40H85.3507V31.6H88.8067C89.5347 31.6 90.1667 31.72 90.7027 31.96C91.2467 32.2 91.6627 32.544 91.9507 32.992C92.2387 33.44 92.3827 33.972 92.3827 34.588C92.3827 35.22 92.2267 35.764 91.9147 36.22C91.6107 36.676 91.1707 37.016 90.5947 37.24L92.5267 40H90.8467ZM90.8107 34.588C90.8107 34.052 90.6347 33.64 90.2827 33.352C89.9307 33.064 89.4147 32.92 88.7347 32.92H86.9107V36.268H88.7347C89.4147 36.268 89.9307 36.124 90.2827 35.836C90.6347 35.54 90.8107 35.124 90.8107 34.588Z" fill="white"/>
<rect x="1" y="1" width="96" height="46" stroke="white" stroke-width="2"/>
</g>
</svg>
