<svg width="98" height="48" viewBox="0 0 98 48" fill="none" xmlns="http://www.w3.org/2000/svg">
<g opacity="1">
<path d="M11.5758 15.056H7.37576L6.54776 17H4.93976L8.71976 8.6H10.2558L14.0478 17H12.4158L11.5758 15.056ZM11.0598 13.832L9.47576 10.16L7.90376 13.832H11.0598ZM15.116 8.6H16.676V15.68H21.068V17H15.116V8.6ZM23.8596 9.908V12.464H27.9156V13.784H23.8596V17H22.2996V8.6H28.4316V9.908H23.8596ZM35.025 15.056H30.825L29.997 17H28.389L32.169 8.6H33.705L37.497 17H35.865L35.025 15.056ZM34.509 13.832L32.925 10.16L31.353 13.832H34.509Z" fill="white"/>
<path d="M62.8963 31.6C63.6243 31.6 64.2563 31.72 64.7923 31.96C65.3363 32.2 65.7523 32.544 66.0403 32.992C66.3283 33.44 66.4723 33.972 66.4723 34.588C66.4723 35.196 66.3283 35.728 66.0403 36.184C65.7523 36.632 65.3363 36.976 64.7923 37.216C64.2563 37.456 63.6243 37.576 62.8963 37.576H61.0003V40H59.4403V31.6H62.8963ZM62.8243 36.256C63.5043 36.256 64.0203 36.112 64.3723 35.824C64.7243 35.536 64.9003 35.124 64.9003 34.588C64.9003 34.052 64.7243 33.64 64.3723 33.352C64.0203 33.064 63.5043 32.92 62.8243 32.92H61.0003V36.256H62.8243ZM72.0713 40.12C71.2153 40.12 70.4433 39.936 69.7553 39.568C69.0673 39.192 68.5273 38.676 68.1353 38.02C67.7433 37.356 67.5473 36.616 67.5473 35.8C67.5473 34.984 67.7433 34.248 68.1353 33.592C68.5273 32.928 69.0673 32.412 69.7553 32.044C70.4433 31.668 71.2153 31.48 72.0713 31.48C72.9273 31.48 73.6993 31.668 74.3873 32.044C75.0753 32.412 75.6153 32.924 76.0073 33.58C76.3993 34.236 76.5953 34.976 76.5953 35.8C76.5953 36.624 76.3993 37.364 76.0073 38.02C75.6153 38.676 75.0753 39.192 74.3873 39.568C73.6993 39.936 72.9273 40.12 72.0713 40.12ZM72.0713 38.752C72.6313 38.752 73.1353 38.628 73.5833 38.38C74.0313 38.124 74.3833 37.772 74.6393 37.324C74.8953 36.868 75.0233 36.36 75.0233 35.8C75.0233 35.24 74.8953 34.736 74.6393 34.288C74.3833 33.832 74.0313 33.48 73.5833 33.232C73.1353 32.976 72.6313 32.848 72.0713 32.848C71.5113 32.848 71.0073 32.976 70.5593 33.232C70.1113 33.48 69.7593 33.832 69.5033 34.288C69.2473 34.736 69.1193 35.24 69.1193 35.8C69.1193 36.36 69.2473 36.868 69.5033 37.324C69.7593 37.772 70.1113 38.124 70.5593 38.38C71.0073 38.628 71.5113 38.752 72.0713 38.752ZM83.7449 40L82.0288 37.54C81.9568 37.548 81.8488 37.552 81.7048 37.552H79.8088V40H78.2488V31.6H81.7048C82.4328 31.6 83.0648 31.72 83.6008 31.96C84.1449 32.2 84.5609 32.544 84.8489 32.992C85.1368 33.44 85.2808 33.972 85.2808 34.588C85.2808 35.22 85.1248 35.764 84.8128 36.22C84.5089 36.676 84.0689 37.016 83.4928 37.24L85.4248 40H83.7449ZM83.7088 34.588C83.7088 34.052 83.5328 33.64 83.1808 33.352C82.8288 33.064 82.3128 32.92 81.6328 32.92H79.8088V36.268H81.6328C82.3128 36.268 82.8288 36.124 83.1808 35.836C83.5328 35.54 83.7088 35.124 83.7088 34.588ZM88.613 32.92H85.829V31.6H92.957V32.92H90.173V40H88.613V32.92Z" fill="white"/>
<rect x="0.999756" y="1" width="96" height="46" stroke="white" stroke-width="2"/>
</g>
</svg>
