<svg width="98" height="48" viewBox="0 0 98 48" fill="none" xmlns="http://www.w3.org/2000/svg">
<g opacity="0.6">
<path d="M11.5758 15.056H7.37576L6.54776 17H4.93976L8.71976 8.6H10.2558L14.0478 17H12.4158L11.5758 15.056ZM11.0598 13.832L9.47576 10.16L7.90376 13.832H11.0598ZM15.116 8.6H16.676V15.68H21.068V17H15.116V8.6ZM23.8596 9.908V12.464H27.9156V13.784H23.8596V17H22.2996V8.6H28.4316V9.908H23.8596ZM35.025 15.056H30.825L29.997 17H28.389L32.169 8.6H33.705L37.497 17H35.865L35.025 15.056ZM34.509 13.832L32.925 10.16L31.353 13.832H34.509Z" fill="white"/>
<path d="M69.3531 38.056H65.1531L64.3251 40H62.7171L66.4971 31.6H68.0331L71.8251 40H70.1931L69.3531 38.056ZM68.8371 36.832L67.2531 33.16L65.6811 36.832H68.8371ZM72.8934 31.6H74.4534V40H72.8934V31.6ZM80.6134 40.12C79.7654 40.12 78.9974 39.936 78.3094 39.568C77.6294 39.192 77.0934 38.676 76.7014 38.02C76.3174 37.364 76.1254 36.624 76.1254 35.8C76.1254 34.976 76.3214 34.236 76.7134 33.58C77.1054 32.924 77.6414 32.412 78.3214 32.044C79.0094 31.668 79.7774 31.48 80.6254 31.48C81.3134 31.48 81.9414 31.6 82.5094 31.84C83.0774 32.08 83.5574 32.428 83.9494 32.884L82.9414 33.832C82.3334 33.176 81.5854 32.848 80.6974 32.848C80.1214 32.848 79.6054 32.976 79.1494 33.232C78.6934 33.48 78.3374 33.828 78.0814 34.276C77.8254 34.724 77.6974 35.232 77.6974 35.8C77.6974 36.368 77.8254 36.876 78.0814 37.324C78.3374 37.772 78.6934 38.124 79.1494 38.38C79.6054 38.628 80.1214 38.752 80.6974 38.752C81.5854 38.752 82.3334 38.42 82.9414 37.756L83.9494 38.716C83.5574 39.172 83.0734 39.52 82.4974 39.76C81.9294 40 81.3014 40.12 80.6134 40.12ZM93.0656 31.6L89.4056 40H87.8696L84.1976 31.6H85.8896L88.6856 38.08L91.5056 31.6H93.0656Z" fill="white"/>
<rect x="0.999756" y="1" width="96" height="46" stroke="white" stroke-width="2"/>
</g>
</svg>
