<svg width="98" height="48" viewBox="0 0 98 48" fill="none" xmlns="http://www.w3.org/2000/svg">
<g opacity="0.6">
<path d="M11.576 15.056H7.376L6.548 17H4.94L8.72 8.6H10.256L14.048 17H12.416L11.576 15.056ZM11.06 13.832L9.476 10.16L7.904 13.832H11.06ZM15.1163 8.6H16.6763V15.68H21.0683V17H15.1163V8.6ZM23.8599 9.908V12.464H27.9159V13.784H23.8599V17H22.2999V8.6H28.4319V9.908H23.8599ZM35.0252 15.056H30.8252L29.9972 17H28.3892L32.1692 8.6H33.7052L37.4972 17H35.8652L35.0252 15.056ZM34.5092 13.832L32.9252 10.16L31.3532 13.832H34.5092Z" fill="white"/>
<path d="M64.9508 40.12C64.3028 40.12 63.6748 40.028 63.0668 39.844C62.4668 39.66 61.9908 39.416 61.6388 39.112L62.1788 37.9C62.5228 38.172 62.9428 38.396 63.4388 38.572C63.9428 38.74 64.4468 38.824 64.9508 38.824C65.5748 38.824 66.0388 38.724 66.3428 38.524C66.6548 38.324 66.8108 38.06 66.8108 37.732C66.8108 37.492 66.7228 37.296 66.5468 37.144C66.3788 36.984 66.1628 36.86 65.8988 36.772C65.6348 36.684 65.2748 36.584 64.8188 36.472C64.1788 36.32 63.6588 36.168 63.2588 36.016C62.8668 35.864 62.5268 35.628 62.2388 35.308C61.9588 34.98 61.8188 34.54 61.8188 33.988C61.8188 33.524 61.9428 33.104 62.1908 32.728C62.4468 32.344 62.8268 32.04 63.3308 31.816C63.8428 31.592 64.4668 31.48 65.2028 31.48C65.7148 31.48 66.2188 31.544 66.7148 31.672C67.2108 31.8 67.6388 31.984 67.9987 32.224L67.5068 33.436C67.1388 33.22 66.7548 33.056 66.3548 32.944C65.9548 32.832 65.5668 32.776 65.1908 32.776C64.5748 32.776 64.1148 32.88 63.8108 33.088C63.5148 33.296 63.3668 33.572 63.3668 33.916C63.3668 34.156 63.4508 34.352 63.6188 34.504C63.7948 34.656 64.0148 34.776 64.2788 34.864C64.5428 34.952 64.9028 35.052 65.3588 35.164C65.9828 35.308 66.4948 35.46 66.8948 35.62C67.2948 35.772 67.6348 36.008 67.9148 36.328C68.2028 36.648 68.3468 37.08 68.3468 37.624C68.3468 38.088 68.2188 38.508 67.9628 38.884C67.7148 39.26 67.3348 39.56 66.8228 39.784C66.3108 40.008 65.6868 40.12 64.9508 40.12ZM69.8936 31.6H71.4536V38.68H75.8456V40H69.8936V31.6ZM80.8489 40.12C79.9929 40.12 79.2209 39.936 78.5329 39.568C77.8449 39.192 77.3049 38.676 76.9129 38.02C76.5209 37.356 76.3249 36.616 76.3249 35.8C76.3249 34.984 76.5209 34.248 76.9129 33.592C77.3049 32.928 77.8449 32.412 78.5329 32.044C79.2209 31.668 79.9929 31.48 80.8489 31.48C81.7049 31.48 82.4769 31.668 83.1649 32.044C83.8529 32.412 84.3929 32.924 84.7849 33.58C85.1769 34.236 85.3729 34.976 85.3729 35.8C85.3729 36.624 85.1769 37.364 84.7849 38.02C84.3929 38.676 83.8529 39.192 83.1649 39.568C82.4769 39.936 81.7049 40.12 80.8489 40.12ZM80.8489 38.752C81.4089 38.752 81.9129 38.628 82.3609 38.38C82.8089 38.124 83.1609 37.772 83.4169 37.324C83.6729 36.868 83.8009 36.36 83.8009 35.8C83.8009 35.24 83.6729 34.736 83.4169 34.288C83.1609 33.832 82.8089 33.48 82.3609 33.232C81.9129 32.976 81.4089 32.848 80.8489 32.848C80.2889 32.848 79.7849 32.976 79.3369 33.232C78.8889 33.48 78.5369 33.832 78.2809 34.288C78.0249 34.736 77.8969 35.24 77.8969 35.8C77.8969 36.36 78.0249 36.868 78.2809 37.324C78.5369 37.772 78.8889 38.124 79.3369 38.38C79.7849 38.628 80.2889 38.752 80.8489 38.752ZM88.6133 32.92H85.8293V31.6H92.9573V32.92H90.1733V40H88.6133V32.92Z" fill="white"/>
<rect x="1" y="1" width="96" height="46" stroke="white" stroke-width="2"/>
</g>
</svg>
