<svg width="98" height="48" viewBox="0 0 98 48" fill="none" xmlns="http://www.w3.org/2000/svg">
<g opacity="0.6">
<path d="M11.576 15.056H7.376L6.548 17H4.94L8.72 8.6H10.256L14.048 17H12.416L11.576 15.056ZM11.06 13.832L9.476 10.16L7.904 13.832H11.06ZM15.1163 8.6H16.6763V15.68H21.0683V17H15.1163V8.6ZM23.8599 9.908V12.464H27.9159V13.784H23.8599V17H22.2999V8.6H28.4319V9.908H23.8599ZM35.0252 15.056H30.8252L29.9972 17H28.3892L32.1692 8.6H33.7052L37.4972 17H35.8652L35.0252 15.056ZM34.5092 13.832L32.9252 10.16L31.3532 13.832H34.5092Z" fill="white"/>
<path d="M35.0277 40.12C34.1797 40.12 33.4117 39.936 32.7237 39.568C32.0437 39.192 31.5077 38.676 31.1157 38.02C30.7317 37.364 30.5397 36.624 30.5397 35.8C30.5397 34.976 30.7357 34.236 31.1277 33.58C31.5197 32.924 32.0557 32.412 32.7357 32.044C33.4237 31.668 34.1917 31.48 35.0397 31.48C35.7277 31.48 36.3557 31.6 36.9237 31.84C37.4917 32.08 37.9717 32.428 38.3637 32.884L37.3557 33.832C36.7477 33.176 35.9997 32.848 35.1117 32.848C34.5357 32.848 34.0197 32.976 33.5637 33.232C33.1077 33.48 32.7517 33.828 32.4957 34.276C32.2397 34.724 32.1117 35.232 32.1117 35.8C32.1117 36.368 32.2397 36.876 32.4957 37.324C32.7517 37.772 33.1077 38.124 33.5637 38.38C34.0197 38.628 34.5357 38.752 35.1117 38.752C35.9997 38.752 36.7477 38.42 37.3557 37.756L38.3637 38.716C37.9717 39.172 37.4877 39.52 36.9117 39.76C36.3437 40 35.7157 40.12 35.0277 40.12ZM43.6067 40.12C42.7507 40.12 41.9787 39.936 41.2907 39.568C40.6027 39.192 40.0627 38.676 39.6707 38.02C39.2787 37.356 39.0827 36.616 39.0827 35.8C39.0827 34.984 39.2787 34.248 39.6707 33.592C40.0627 32.928 40.6027 32.412 41.2907 32.044C41.9787 31.668 42.7507 31.48 43.6067 31.48C44.4627 31.48 45.2347 31.668 45.9227 32.044C46.6107 32.412 47.1507 32.924 47.5427 33.58C47.9347 34.236 48.1307 34.976 48.1307 35.8C48.1307 36.624 47.9347 37.364 47.5427 38.02C47.1507 38.676 46.6107 39.192 45.9227 39.568C45.2347 39.936 44.4627 40.12 43.6067 40.12ZM43.6067 38.752C44.1667 38.752 44.6707 38.628 45.1187 38.38C45.5667 38.124 45.9187 37.772 46.1747 37.324C46.4307 36.868 46.5587 36.36 46.5587 35.8C46.5587 35.24 46.4307 34.736 46.1747 34.288C45.9187 33.832 45.5667 33.48 45.1187 33.232C44.6707 32.976 44.1667 32.848 43.6067 32.848C43.0467 32.848 42.5427 32.976 42.0947 33.232C41.6467 33.48 41.2947 33.832 41.0387 34.288C40.7827 34.736 40.6547 35.24 40.6547 35.8C40.6547 36.36 40.7827 36.868 41.0387 37.324C41.2947 37.772 41.6467 38.124 42.0947 38.38C42.5427 38.628 43.0467 38.752 43.6067 38.752ZM57.5003 40L57.4883 34.432L54.7283 39.04H54.0323L51.2723 34.504V40H49.7843V31.6H51.0683L54.4043 37.168L57.6803 31.6H58.9643L58.9763 40H57.5003ZM64.7012 31.6C65.4292 31.6 66.0612 31.72 66.5972 31.96C67.1412 32.2 67.5572 32.544 67.8452 32.992C68.1332 33.44 68.2772 33.972 68.2772 34.588C68.2772 35.196 68.1332 35.728 67.8452 36.184C67.5572 36.632 67.1412 36.976 66.5972 37.216C66.0612 37.456 65.4292 37.576 64.7012 37.576H62.8052V40H61.2452V31.6H64.7012ZM64.6292 36.256C65.3092 36.256 65.8252 36.112 66.1772 35.824C66.5292 35.536 66.7052 35.124 66.7052 34.588C66.7052 34.052 66.5292 33.64 66.1772 33.352C65.8252 33.064 65.3092 32.92 64.6292 32.92H62.8052V36.256H64.6292ZM74.8612 38.056H70.6612L69.8332 40H68.2252L72.0052 31.6H73.5412L77.3332 40H75.7012L74.8612 38.056ZM74.3452 36.832L72.7612 33.16L71.1892 36.832H74.3452ZM82.1723 40.12C81.3243 40.12 80.5563 39.936 79.8683 39.568C79.1883 39.192 78.6523 38.676 78.2603 38.02C77.8763 37.364 77.6843 36.624 77.6843 35.8C77.6843 34.976 77.8803 34.236 78.2723 33.58C78.6643 32.924 79.2003 32.412 79.8803 32.044C80.5683 31.668 81.3363 31.48 82.1843 31.48C82.8723 31.48 83.5003 31.6 84.0683 31.84C84.6363 32.08 85.1163 32.428 85.5083 32.884L84.5003 33.832C83.8923 33.176 83.1443 32.848 82.2563 32.848C81.6803 32.848 81.1643 32.976 80.7083 33.232C80.2523 33.48 79.8963 33.828 79.6403 34.276C79.3843 34.724 79.2563 35.232 79.2563 35.8C79.2563 36.368 79.3843 36.876 79.6403 37.324C79.8963 37.772 80.2523 38.124 80.7083 38.38C81.1643 38.628 81.6803 38.752 82.2563 38.752C83.1443 38.752 83.8923 38.42 84.5003 37.756L85.5083 38.716C85.1163 39.172 84.6323 39.52 84.0563 39.76C83.4883 40 82.8603 40.12 82.1723 40.12ZM88.6133 32.92H85.8293V31.6H92.9573V32.92H90.1733V40H88.6133V32.92Z" fill="white"/>
<rect x="1" y="1" width="96" height="46" stroke="white" stroke-width="2"/>
</g>
</svg>
