<svg width="98" height="48" viewBox="0 0 98 48" fill="none" xmlns="http://www.w3.org/2000/svg">
<g opacity="0.6">
<path d="M11.576 15.056H7.376L6.548 17H4.94L8.72 8.6H10.256L14.048 17H12.416L11.576 15.056ZM11.06 13.832L9.476 10.16L7.904 13.832H11.06ZM15.1163 8.6H16.6763V15.68H21.0683V17H15.1163V8.6ZM23.8599 9.908V12.464H27.9159V13.784H23.8599V17H22.2999V8.6H28.4319V9.908H23.8599ZM35.0252 15.056H30.8252L29.9972 17H28.3892L32.1692 8.6H33.7052L37.4972 17H35.8652L35.0252 15.056ZM34.5092 13.832L32.9252 10.16L31.3532 13.832H34.5092Z" fill="white"/>
<path d="M57.064 40.12C56.416 40.12 55.788 40.028 55.18 39.844C54.58 39.66 54.104 39.416 53.752 39.112L54.292 37.9C54.636 38.172 55.056 38.396 55.552 38.572C56.056 38.74 56.56 38.824 57.064 38.824C57.688 38.824 58.152 38.724 58.456 38.524C58.768 38.324 58.924 38.06 58.924 37.732C58.924 37.492 58.836 37.296 58.66 37.144C58.492 36.984 58.276 36.86 58.012 36.772C57.748 36.684 57.388 36.584 56.932 36.472C56.292 36.32 55.772 36.168 55.372 36.016C54.98 35.864 54.64 35.628 54.352 35.308C54.072 34.98 53.932 34.54 53.932 33.988C53.932 33.524 54.056 33.104 54.304 32.728C54.56 32.344 54.94 32.04 55.444 31.816C55.956 31.592 56.58 31.48 57.316 31.48C57.828 31.48 58.332 31.544 58.828 31.672C59.324 31.8 59.752 31.984 60.112 32.224L59.62 33.436C59.252 33.22 58.868 33.056 58.468 32.944C58.068 32.832 57.68 32.776 57.304 32.776C56.688 32.776 56.228 32.88 55.924 33.088C55.628 33.296 55.48 33.572 55.48 33.916C55.48 34.156 55.564 34.352 55.732 34.504C55.908 34.656 56.128 34.776 56.392 34.864C56.656 34.952 57.016 35.052 57.472 35.164C58.096 35.308 58.608 35.46 59.008 35.62C59.408 35.772 59.748 36.008 60.028 36.328C60.316 36.648 60.46 37.08 60.46 37.624C60.46 38.088 60.332 38.508 60.076 38.884C59.828 39.26 59.448 39.56 58.936 39.784C58.424 40.008 57.8 40.12 57.064 40.12ZM69.4709 31.6V40H67.9109V36.4H63.5669V40H62.0069V31.6H63.5669V35.068H67.9109V31.6H69.4709ZM78.0218 38.692V40H71.7218V31.6H77.8538V32.908H73.2818V35.092H77.3378V36.376H73.2818V38.692H78.0218ZM79.7608 31.6H81.3208V38.68H85.7128V40H79.7608V31.6ZM86.9444 31.6H88.5044V38.68H92.8964V40H86.9444V31.6Z" fill="white"/>
<rect x="1" y="1" width="96" height="46" stroke="white" stroke-width="2"/>
</g>
</svg>
