<svg width="137" height="137" viewBox="0 0 137 137" fill="none" xmlns="http://www.w3.org/2000/svg">
<g opacity="1">
<path d="M32.939 19.3979L33.9268 18.6982L38.7835 25.4894L37.7957 26.1891L32.939 19.3979Z" fill="white"/>
<path d="M41.0885 23.7196C40.4711 23.8431 39.9772 23.8431 39.5245 23.7196L39.4421 22.6907C39.8537 22.773 40.3476 22.773 40.8415 22.6907C41.3766 22.6083 41.8705 22.4437 42.3232 22.1556C42.9406 21.8263 43.311 21.4559 43.5168 21.0855C43.6815 20.715 43.6815 20.3446 43.5168 20.0154C43.3934 19.7684 43.1876 19.6038 42.9406 19.5626C42.6937 19.4803 42.4056 19.4803 42.1174 19.5626C41.8293 19.6038 41.4589 19.7272 40.965 19.8507C40.3476 20.0154 39.8126 20.1388 39.401 20.2211C38.9894 20.2623 38.5778 20.2211 38.2074 20.0977C37.7958 19.9742 37.4665 19.6449 37.2196 19.1922C37.0138 18.8218 36.8903 18.4102 36.9315 17.9574C36.9726 17.5047 37.1373 17.0931 37.4254 16.6815C37.7135 16.2699 38.2074 15.8583 38.8248 15.5291C39.2363 15.2821 39.6891 15.1175 40.183 14.994C40.6769 14.8705 41.0885 14.8294 41.5412 14.8705L41.6647 15.8995C41.2531 15.8583 40.8415 15.8995 40.4299 16.023C40.0184 16.1053 39.6479 16.2699 39.3187 16.4346C38.7424 16.7638 38.3309 17.1343 38.1662 17.5047C38.0016 17.8751 38.0016 18.2455 38.2074 18.5748C38.3309 18.8218 38.5367 18.9864 38.7836 19.0275C39.0306 19.0687 39.3187 19.1099 39.6068 19.0275C39.8949 18.9864 40.3065 18.8629 40.7592 18.7394C41.3766 18.5748 41.9117 18.4513 42.2821 18.369C42.6937 18.3279 43.1052 18.369 43.4757 18.4925C43.8873 18.616 44.1754 18.9041 44.4635 19.398C44.6693 19.7684 44.7927 20.18 44.7516 20.6327C44.7104 21.0855 44.5458 21.4971 44.2165 21.9086C43.8873 22.3202 43.4345 22.7318 42.8171 23.0611C42.2821 23.3904 41.7059 23.5961 41.0885 23.7196Z" fill="white"/>
<path d="M48.1265 19.8095C47.3445 19.6861 46.686 19.3979 46.1097 18.904C45.5335 18.4101 45.0808 17.7928 44.7927 17.0519C44.5046 16.3111 44.4634 15.529 44.5869 14.7882C44.7103 14.0473 45.0396 13.3888 45.5335 12.8126C46.0274 12.2364 46.686 11.7836 47.468 11.4955C48.25 11.2074 49.032 11.1251 49.7728 11.2486C50.5549 11.372 51.2134 11.6601 51.7896 12.1129C52.3658 12.6068 52.8186 13.2242 53.0655 13.965C53.3536 14.7059 53.436 15.4879 53.2713 16.2287C53.1478 16.9696 52.8186 17.6281 52.3247 18.2044C51.8308 18.7806 51.1722 19.2333 50.3902 19.5214C49.6494 19.8095 48.8674 19.933 48.1265 19.8095ZM51.4603 17.587C51.8308 17.1754 52.0366 16.6815 52.16 16.1053C52.2835 15.529 52.2012 14.994 51.9954 14.4178C51.7896 13.8415 51.4603 13.3888 51.0488 13.0184C50.596 12.6479 50.1021 12.4422 49.5671 12.3187C49.032 12.1952 48.4558 12.2775 47.8796 12.4833C47.3033 12.6891 46.8506 13.0184 46.4802 13.4711C46.1097 13.9239 45.8628 14.4178 45.7805 14.9528C45.6982 15.529 45.7393 16.0641 45.9451 16.6403C46.1509 17.2165 46.4802 17.6693 46.8917 18.0397C47.3445 18.4101 47.8384 18.6159 48.3735 18.6983C48.9497 18.7806 49.5259 18.7394 50.061 18.5336C50.596 18.3278 51.1311 17.9986 51.4603 17.587Z" fill="white"/>
<path d="M62.6966 9.10831C63.3963 9.72569 63.849 10.7135 64.0136 12.0306C64.1371 12.9361 64.096 13.7592 63.849 14.4589C63.6021 15.1586 63.2316 15.6937 62.6554 16.1053C62.1203 16.5168 61.4618 16.7638 60.6798 16.8873C60.2682 16.9284 59.8978 16.9696 59.5274 16.9284C59.1569 16.8873 58.8277 16.805 58.5396 16.6815L58.8688 15.6937C59.3216 15.8995 59.8566 15.9406 60.5152 15.8583C61.3795 15.7348 61.9969 15.4056 62.4085 14.7882C62.82 14.1708 62.9435 13.3888 62.82 12.3598L62.7789 12.0717C62.5731 12.4422 62.285 12.7714 61.9146 13.0184C61.503 13.2653 61.0502 13.43 60.5563 13.4711C60.0213 13.5534 59.5274 13.5123 59.0746 13.3476C58.6219 13.183 58.2514 12.9361 57.9633 12.6068C57.6752 12.2364 57.5106 11.8248 57.4283 11.3309C57.346 10.7958 57.4283 10.3431 57.6341 9.89032C57.8399 9.47874 58.128 9.10831 58.5396 8.8202C58.9511 8.53209 59.445 8.36746 59.9801 8.28514C61.0914 8.24398 61.9969 8.49093 62.6966 9.10831ZM61.5853 12.1952C61.8734 12.0306 62.0792 11.7836 62.2027 11.5367C62.3261 11.2897 62.3673 11.0016 62.3261 10.6723C62.285 10.3842 62.1615 10.1373 61.9969 9.89032C61.7911 9.68453 61.5441 9.5199 61.256 9.39642C60.9267 9.27295 60.5563 9.27295 60.1447 9.31411C59.6097 9.39642 59.1981 9.60222 58.8688 9.93148C58.5807 10.2608 58.4572 10.6723 58.5396 11.1662C58.6219 11.6601 58.8277 12.0306 59.1981 12.2775C59.5685 12.5245 60.0624 12.6068 60.6386 12.5245C61.0091 12.4833 61.3383 12.3598 61.5853 12.1952Z" fill="white"/>
<path d="M67.1007 15.776C66.6068 15.4467 66.1952 14.9117 65.9071 14.2943C65.619 13.6358 65.4955 12.8949 65.4955 11.9894C65.4955 11.1251 65.6601 10.3431 65.9894 9.72571C66.2775 9.06717 66.6891 8.61443 67.2241 8.28516C67.7592 7.95589 68.3354 7.79126 68.994 7.79126C69.6525 7.79126 70.2287 7.99705 70.7226 8.32632C71.2165 8.65559 71.6281 9.19065 71.9162 9.80803C72.2043 10.4666 72.3278 11.2074 72.3278 12.1129C72.3278 12.9772 72.1632 13.7592 71.8339 14.3766C71.5458 15.0352 71.1342 15.4879 70.5992 15.8172C70.0641 16.1464 69.4879 16.3111 68.8293 16.3111C68.1708 16.3111 67.5946 16.1464 67.1007 15.776ZM70.4757 14.4589C70.8873 13.9239 71.093 13.1419 71.1342 12.0717C71.1342 11.0428 70.9696 10.2196 70.558 9.68455C70.1464 9.14949 69.6525 8.86138 68.9528 8.82022C68.2943 8.82022 67.7181 9.06717 67.3065 9.60224C66.8949 10.1373 66.6891 10.9193 66.6479 11.9894C66.6479 13.0184 66.8126 13.8416 67.2241 14.3766C67.6357 14.9117 68.1708 15.1998 68.8293 15.241C69.529 15.2821 70.0641 14.994 70.4757 14.4589Z" fill="white"/>
<path d="M74.7972 16.1465C74.3445 15.7349 74.0152 15.1998 73.8094 14.5001C73.6036 13.8004 73.6036 13.0596 73.7271 12.1541C73.8506 11.2898 74.1387 10.5489 74.5091 9.97268C74.8795 9.39646 75.3734 8.94372 75.9497 8.69677C76.5259 8.44981 77.1021 8.3675 77.7606 8.44981C78.4192 8.53213 78.9542 8.82024 79.407 9.23183C79.8597 9.64341 80.189 10.1785 80.3948 10.8782C80.6006 11.5779 80.6006 12.3187 80.4771 13.2242C80.3536 14.0885 80.0655 14.8294 79.6951 15.4056C79.3246 15.9818 78.8307 16.4346 78.2545 16.6815C77.6783 16.9285 77.1021 17.0108 76.4436 16.9285C75.8262 16.8462 75.25 16.558 74.7972 16.1465ZM78.3368 15.3233C78.8307 14.8294 79.1188 14.0885 79.2835 13.0596C79.4481 12.0306 79.3658 11.2074 79.0365 10.5901C78.7073 9.97268 78.2545 9.64341 77.5548 9.51994C76.8963 9.43762 76.3201 9.60225 75.8262 10.0962C75.3323 10.5901 75.0442 11.3309 74.8795 12.3599C74.7149 13.3888 74.7972 14.212 75.1265 14.8294C75.4557 15.4468 75.9496 15.776 76.6082 15.8995C77.3079 15.9818 77.8429 15.776 78.3368 15.3233Z" fill="white"/>
<path d="M85.3749 10.2608L83.1935 18.3279L82.041 17.9986L83.9755 10.9193L82.1645 10.4254L82.4526 9.43762L85.3749 10.2608Z" fill="white"/>
<path d="M85.0456 18.7394C84.9633 18.5336 84.9221 18.3278 85.0045 18.122C85.0868 17.9162 85.2103 17.7516 85.416 17.6693C85.6218 17.587 85.8276 17.5458 86.0334 17.6281C86.2392 17.7104 86.4038 17.8339 86.4862 18.0397C86.5685 18.2455 86.5685 18.4513 86.5273 18.6571C86.4862 18.8629 86.3215 19.0275 86.1157 19.151C85.9099 19.2333 85.7042 19.2745 85.4984 19.1921C85.2926 19.0687 85.1691 18.9452 85.0456 18.7394ZM86.6096 14.1708C86.5273 13.965 86.4862 13.7592 86.5685 13.5534C86.6508 13.3476 86.7743 13.183 86.9801 13.1007C87.1859 13.0184 87.3916 12.9772 87.5974 13.0595C87.8032 13.1418 87.9679 13.2653 88.0502 13.4711C88.1325 13.6769 88.1325 13.8827 88.0913 14.0885C88.0502 14.2943 87.8856 14.4589 87.6798 14.5824C87.474 14.6647 87.2682 14.7059 87.0624 14.6235C86.8978 14.5001 86.7331 14.3766 86.6096 14.1708Z" fill="white"/>
<path d="M92.9893 21.0442L92.5777 21.9909L87.1036 19.5214L87.4329 18.7805L91.878 17.1753C92.4131 16.9695 92.8247 16.7637 93.0716 16.558C93.3186 16.3522 93.5244 16.1052 93.6067 15.8583C93.7713 15.4467 93.7713 15.0762 93.6067 14.747C93.442 14.4177 93.0716 14.1296 92.5366 13.8826C91.7134 13.5122 90.9314 13.4711 90.2317 13.8415L89.7789 12.8537C90.2317 12.6067 90.7667 12.5244 91.343 12.5244C91.9192 12.5244 92.4954 12.689 93.1128 12.936C93.8948 13.3064 94.471 13.7592 94.7591 14.3765C95.0472 14.9528 95.0472 15.6113 94.7591 16.2287C94.5945 16.6403 94.3064 16.9695 93.9771 17.2576C93.6478 17.5458 93.1128 17.7927 92.4131 18.0397L89.0792 19.2333L92.9893 21.0442Z" fill="white"/>
<path d="M94.8004 22.8142C94.5534 22.2379 94.4711 21.6206 94.5535 20.9209C94.6358 20.2212 94.9239 19.4803 95.3766 18.7395C95.8294 17.9986 96.3644 17.4224 96.9818 17.0108C97.558 16.5992 98.1754 16.4346 98.7928 16.3934C99.4102 16.3934 99.9864 16.5581 100.563 16.8873C101.098 17.2166 101.509 17.6693 101.797 18.2456C102.044 18.8218 102.127 19.4392 102.044 20.1389C101.962 20.8386 101.674 21.5794 101.221 22.3203C100.768 23.0611 100.233 23.6373 99.616 24.0489C99.0397 24.4605 98.4224 24.6251 97.805 24.6663C97.1876 24.6663 96.6114 24.5017 96.0352 24.1724C95.4589 23.8431 95.0474 23.3492 94.8004 22.8142ZM98.3812 23.4315C98.9986 23.1846 99.616 22.6084 100.151 21.7029C100.686 20.7974 100.933 20.0565 100.892 19.3568C100.851 18.6983 100.521 18.1632 99.9452 17.7928C99.369 17.4224 98.7516 17.3812 98.1342 17.6282C97.5169 17.8751 96.8995 18.4514 96.3644 19.3568C95.8294 20.2623 95.5824 21.0032 95.6236 21.7029C95.6647 22.3614 95.994 22.8965 96.5702 23.2669C97.1464 23.6373 97.7638 23.6785 98.3812 23.4315Z" fill="white"/>
<path d="M106.819 21.5381L101.633 28.0823L100.686 27.3414L105.213 21.6204L103.732 20.4679L104.39 19.6448L106.819 21.5381Z" fill="white"/>
<path d="M109.576 29.4818C109.658 30.1815 109.453 30.84 108.876 31.3751C108.547 31.7455 108.136 31.9513 107.683 32.0748C107.23 32.1982 106.777 32.1571 106.283 31.9925C105.79 31.8278 105.296 31.4985 104.802 31.0046C104.39 30.5931 104.02 30.1403 103.773 29.6053C103.485 29.1114 103.361 28.6175 103.32 28.1235L104.39 27.8354C104.39 28.247 104.514 28.6586 104.719 29.0702C104.925 29.4818 105.213 29.8934 105.543 30.2226C105.995 30.6754 106.448 30.9223 106.86 30.9635C107.312 31.0046 107.683 30.8812 108.012 30.5519C108.383 30.1815 108.506 29.7699 108.383 29.3171C108.259 28.8644 107.93 28.3293 107.271 27.6708L105.913 26.3537L109.288 23.5138L112.663 26.8065L111.922 27.5473L109.247 24.9543L107.477 26.436L108.136 27.0946C109 27.9589 109.494 28.7409 109.576 29.4818Z" fill="white"/>
<path d="M114.886 44.0519C114.968 43.8461 115.091 43.6815 115.297 43.558C115.503 43.4345 115.709 43.4345 115.915 43.5168C116.12 43.5992 116.285 43.7226 116.367 43.9284C116.45 44.1342 116.491 44.34 116.409 44.5458C116.326 44.7516 116.203 44.9162 115.997 44.9986C115.791 45.122 115.585 45.122 115.38 45.0809C115.174 45.0397 115.009 44.8751 114.927 44.7104C114.845 44.4635 114.845 44.2577 114.886 44.0519Z" fill="white"/>
<path d="M128.056 57.1403L128.262 58.3339L120.03 59.8156L119.825 58.622L128.056 57.1403Z" fill="white"/>
<path d="M120.689 62.6556C120.854 62.0383 121.06 61.5855 121.348 61.2151L122.294 61.5855C122.047 61.9148 121.842 62.3675 121.677 62.8614C121.553 63.3553 121.471 63.8904 121.512 64.4255C121.553 65.1251 121.718 65.619 121.965 65.9483C122.212 66.2776 122.541 66.4011 122.953 66.4011C123.241 66.3599 123.447 66.2776 123.611 66.0718C123.776 65.866 123.899 65.619 123.982 65.3309C124.064 65.0428 124.146 64.6724 124.229 64.1373C124.352 63.4788 124.435 62.9849 124.558 62.5733C124.681 62.1617 124.887 61.8325 125.175 61.5444C125.463 61.2562 125.875 61.0916 126.41 61.0505C126.863 61.0093 127.274 61.0916 127.645 61.2974C128.015 61.5032 128.345 61.8325 128.592 62.2852C128.838 62.7379 129.003 63.3142 129.044 64.0139C129.085 64.5078 129.044 65.0017 128.962 65.4956C128.88 65.9895 128.715 66.4011 128.509 66.7715L127.521 66.4422C127.727 66.0718 127.851 65.7014 127.933 65.2898C128.015 64.8782 128.056 64.5078 128.015 64.0962C127.974 63.4376 127.81 62.9437 127.521 62.6145C127.233 62.2852 126.904 62.1617 126.534 62.1617C126.245 62.2029 126.04 62.2852 125.875 62.491C125.71 62.6968 125.587 62.9437 125.505 63.2319C125.422 63.52 125.34 63.9315 125.258 64.3843C125.134 65.0428 125.052 65.5367 124.928 65.9483C124.805 66.3599 124.599 66.6892 124.311 66.9773C124.023 67.2654 123.611 67.43 123.076 67.4712C122.624 67.5123 122.212 67.43 121.842 67.2242C121.471 67.0184 121.142 66.6892 120.895 66.1953C120.648 65.7425 120.483 65.1251 120.442 64.4255C120.483 63.8904 120.524 63.273 120.689 62.6556Z" fill="white"/>
<path d="M121.224 70.6814C121.636 70.0229 122.212 69.5701 122.87 69.2409C123.57 68.9116 124.311 68.7881 125.093 68.8293C125.875 68.9116 126.616 69.1586 127.233 69.5701C127.851 70.0229 128.303 70.5991 128.633 71.2988C128.962 71.9985 129.085 72.7805 129.003 73.6037C128.921 74.4268 128.674 75.1677 128.262 75.8262C127.851 76.4848 127.274 76.9375 126.616 77.2668C125.957 77.5961 125.175 77.7195 124.393 77.6372C123.57 77.5549 122.87 77.3079 122.253 76.8964C121.636 76.4436 121.183 75.9086 120.854 75.1677C120.524 74.468 120.401 73.686 120.483 72.8628C120.566 72.0397 120.812 71.2988 121.224 70.6814ZM121.841 74.6738C122.088 75.1677 122.418 75.6204 122.912 75.9086C123.405 76.1967 123.899 76.4025 124.517 76.4848C125.134 76.5259 125.669 76.4436 126.204 76.1967C126.698 75.9497 127.11 75.6205 127.439 75.1265C127.768 74.6738 127.933 74.1387 127.974 73.5214C128.015 72.904 127.933 72.3278 127.686 71.8339C127.439 71.2988 127.11 70.8872 126.616 70.558C126.163 70.2287 125.628 70.0641 125.011 69.9817C124.393 69.9406 123.858 70.0229 123.323 70.2698C122.829 70.5168 122.418 70.8872 122.088 71.34C121.759 71.7927 121.594 72.3689 121.553 72.9451C121.512 73.6037 121.594 74.1387 121.841 74.6738Z" fill="white"/>
<path d="M126.575 85.9513L118.549 83.6876L118.878 82.5352L125.916 84.5108L126.41 82.6998L127.398 82.9879L126.575 85.9513Z" fill="white"/>
<path d="M117.273 92.7425L117.89 91.2608L115.997 90.4787L116.45 89.4086L118.343 90.1906L120.113 85.9102L120.895 86.2394L124.311 92.2897L123.817 93.4833L120.483 87.68L119.248 90.6434L120.936 91.3431L120.524 92.372L118.837 91.6723L118.219 93.1541L117.273 92.7425Z" fill="white"/>
<path d="M114.68 93.9361C115.215 93.6891 115.873 93.5656 116.573 93.648C117.273 93.7303 118.014 93.9772 118.755 94.43C119.495 94.8827 120.113 95.4178 120.483 95.994C120.854 96.5702 121.101 97.1876 121.142 97.805C121.183 98.4223 121.018 98.9986 120.689 99.5748C120.36 100.151 119.907 100.563 119.372 100.81C118.837 101.056 118.178 101.18 117.479 101.098C116.779 101.015 116.038 100.768 115.297 100.316C114.556 99.8629 113.939 99.3278 113.569 98.7516C113.157 98.1754 112.951 97.558 112.91 96.9406C112.869 96.3233 113.034 95.747 113.363 95.1708C113.651 94.6358 114.104 94.2242 114.68 93.9361ZM114.145 97.558C114.392 98.1754 115.009 98.7516 115.873 99.2867C116.779 99.8217 117.561 100.069 118.219 99.9864C118.878 99.9041 119.413 99.6159 119.742 99.0397C120.072 98.4635 120.113 97.8461 119.866 97.2287C119.619 96.6114 119.001 96.0352 118.137 95.5001C117.232 94.965 116.45 94.7181 115.791 94.8004C115.133 94.8827 114.598 95.1708 114.268 95.747C113.898 96.3233 113.857 96.8995 114.145 97.558Z" fill="white"/>
<path d="M110.44 100.398C111.017 100.233 111.675 100.192 112.334 100.398C113.033 100.563 113.692 100.933 114.392 101.509C115.091 102.085 115.585 102.662 115.873 103.32C116.203 103.938 116.326 104.596 116.244 105.172C116.162 105.749 115.956 106.366 115.544 106.86C115.133 107.354 114.639 107.724 114.062 107.889C113.486 108.053 112.828 108.095 112.169 107.889C111.511 107.683 110.811 107.354 110.111 106.777C109.412 106.201 108.918 105.625 108.629 104.966C108.3 104.349 108.177 103.691 108.259 103.114C108.341 102.538 108.547 101.962 108.959 101.427C109.37 100.933 109.864 100.604 110.44 100.398ZM109.412 103.896C109.576 104.555 110.07 105.213 110.893 105.872C111.716 106.531 112.457 106.86 113.116 106.901C113.815 106.942 114.351 106.695 114.762 106.16C115.174 105.625 115.297 105.049 115.133 104.39C114.968 103.732 114.474 103.073 113.651 102.415C112.828 101.756 112.087 101.427 111.428 101.386C110.729 101.345 110.194 101.591 109.782 102.127C109.329 102.662 109.206 103.238 109.412 103.896Z" fill="white"/>
<path d="M110.194 112.499L104.349 106.531L105.213 105.707L110.317 110.935L111.675 109.617L112.416 110.358L110.194 112.499Z" fill="white"/>
<path d="M103.032 107.93C103.238 107.93 103.444 108.053 103.608 108.218C103.773 108.383 103.814 108.588 103.814 108.794C103.814 109 103.69 109.206 103.526 109.329C103.361 109.494 103.155 109.535 102.95 109.535C102.744 109.535 102.538 109.412 102.415 109.247C102.25 109.082 102.209 108.877 102.209 108.63C102.209 108.424 102.332 108.218 102.497 108.095C102.62 108.012 102.826 107.93 103.032 107.93ZM106.16 111.593C106.366 111.593 106.572 111.717 106.736 111.881C106.901 112.046 106.942 112.252 106.942 112.457C106.942 112.663 106.819 112.869 106.654 112.992C106.489 113.157 106.283 113.198 106.078 113.198C105.872 113.198 105.666 113.075 105.543 112.91C105.378 112.745 105.337 112.54 105.337 112.293C105.337 112.087 105.46 111.881 105.625 111.758C105.748 111.675 105.954 111.593 106.16 111.593Z" fill="white"/>
<path d="M97.0229 113.651L96.4055 112.787L101.303 109.288L101.756 109.947L100.892 114.598C100.768 115.174 100.768 115.585 100.809 115.915C100.851 116.244 100.974 116.532 101.139 116.738C101.386 117.108 101.715 117.273 102.127 117.314C102.497 117.314 102.95 117.191 103.402 116.861C104.143 116.326 104.555 115.668 104.596 114.886L105.666 114.968C105.625 115.462 105.46 115.997 105.172 116.491C104.884 116.985 104.473 117.396 103.938 117.808C103.238 118.302 102.538 118.549 101.88 118.508C101.221 118.467 100.686 118.178 100.274 117.561C100.027 117.191 99.8628 116.82 99.7805 116.367C99.6982 115.915 99.7394 115.339 99.8628 114.639L100.521 111.14L97.0229 113.651Z" fill="white"/>
<path d="M94.5944 114.309C95.2118 114.351 95.788 114.598 96.3642 115.05C96.9405 115.503 97.3932 116.079 97.8048 116.861C98.2164 117.643 98.4633 118.384 98.4633 119.084C98.4633 119.784 98.381 120.401 98.0929 120.936C97.8048 121.471 97.352 121.883 96.7758 122.212C96.1996 122.5 95.6234 122.624 95.006 122.582C94.3886 122.541 93.8124 122.294 93.2362 121.842C92.66 121.389 92.2072 120.813 91.7957 120.031C91.3841 119.249 91.1371 118.508 91.1371 117.808C91.096 117.108 91.2194 116.491 91.5075 115.956C91.7956 115.421 92.2484 115.009 92.8246 114.68C93.4008 114.351 93.977 114.227 94.5944 114.309ZM92.2484 117.108C92.1661 117.767 92.3307 118.59 92.8246 119.495C93.3185 120.401 93.8536 121.018 94.471 121.306C95.0883 121.595 95.6645 121.595 96.2819 121.265C96.8993 120.936 97.2286 120.442 97.3109 119.784C97.3932 119.125 97.2286 118.302 96.7347 117.396C96.2408 116.491 95.7057 115.874 95.0883 115.585C94.471 115.297 93.8536 115.297 93.2774 115.627C92.7011 115.915 92.3719 116.409 92.2484 117.108Z" fill="white"/>
<path d="M89.6143 125.34L86.5686 117.561L87.6799 117.15L90.3552 123.982L92.125 123.282L92.4954 124.27L89.6143 125.34Z" fill="white"/>
<path d="M81.3827 123.694C80.7242 123.406 80.2714 122.871 80.0656 122.13C79.9422 121.636 79.9422 121.183 80.0656 120.771C80.1891 120.319 80.4361 119.948 80.8476 119.578C81.2592 119.249 81.7943 118.961 82.4528 118.796C83.029 118.631 83.6053 118.59 84.1815 118.59C84.7577 118.59 85.2516 118.755 85.7044 118.961L85.4162 120.031C85.087 119.825 84.6754 119.743 84.1815 119.701C83.7287 119.66 83.2348 119.701 82.7409 119.825C82.1236 119.989 81.712 120.236 81.4239 120.607C81.1769 120.936 81.0946 121.348 81.2181 121.8C81.3415 122.294 81.6297 122.582 82.0824 122.747C82.5351 122.912 83.1937 122.829 84.058 122.624L85.869 122.13L86.6098 126.451L82.0824 127.686L81.7943 126.698L85.3751 125.711L85.0047 123.447L84.0992 123.694C82.9467 123.941 82.0412 123.982 81.3827 123.694Z" fill="white"/>
<path d="M66.1128 120.895C66.2774 121.06 66.3186 121.265 66.3186 121.512C66.3186 121.759 66.1951 121.924 66.0305 122.089C65.8658 122.253 65.66 122.294 65.4542 122.294C65.2484 122.294 65.0426 122.212 64.9192 122.047C64.7957 121.883 64.7134 121.677 64.7134 121.471C64.7134 121.224 64.7957 121.06 64.9603 120.895C65.125 120.73 65.3308 120.689 65.5366 120.689C65.7423 120.607 65.9481 120.73 66.1128 120.895Z" fill="white"/>
<path d="M48.1678 125.628L47.0565 125.217L49.9376 117.355L51.0489 117.767L48.1678 125.628Z" fill="white"/>
<path d="M47.1387 116.45C47.5915 116.861 47.8796 117.314 48.0442 117.726L47.221 118.384C47.0564 117.973 46.8095 117.602 46.439 117.232C46.0686 116.861 45.657 116.532 45.1631 116.326C44.5457 116.038 44.0107 115.915 43.5991 115.956C43.1875 115.997 42.8994 116.203 42.7348 116.573C42.6113 116.82 42.5701 117.067 42.6936 117.314C42.7759 117.561 42.9406 117.767 43.1463 117.973C43.3521 118.178 43.6402 118.467 44.0518 118.755C44.5457 119.166 44.9573 119.537 45.2043 119.825C45.4924 120.113 45.6982 120.483 45.7805 120.895C45.904 121.306 45.8217 121.759 45.5747 122.212C45.3689 122.624 45.0808 122.912 44.7104 123.159C44.3399 123.364 43.8872 123.488 43.3933 123.447C42.8582 123.447 42.282 123.282 41.6646 122.953C41.2119 122.747 40.8003 122.459 40.4299 122.13C40.0595 121.8 39.7713 121.471 39.5656 121.101L40.3476 120.401C40.5534 120.771 40.8415 121.059 41.1296 121.348C41.4177 121.636 41.747 121.842 42.1174 122.006C42.7348 122.294 43.2287 122.418 43.6402 122.335C44.0518 122.253 44.3399 122.047 44.5046 121.718C44.6281 121.471 44.6281 121.224 44.5457 120.977C44.4634 120.73 44.2988 120.483 44.093 120.277C43.8872 120.072 43.5991 119.784 43.1875 119.495C42.6936 119.084 42.282 118.713 42.0351 118.425C41.747 118.137 41.5823 117.767 41.4588 117.355C41.3354 116.944 41.4177 116.532 41.6235 116.038C41.8293 115.627 42.1174 115.338 42.4878 115.133C42.8582 114.927 43.311 114.803 43.846 114.845C44.3811 114.886 44.9573 115.05 45.5747 115.338C46.1921 115.668 46.686 116.038 47.1387 116.45Z" fill="white"/>
<path d="M39.9361 112.869C40.2654 113.569 40.43 114.268 40.3477 115.05C40.3065 115.791 40.0184 116.532 39.5657 117.149C39.1129 117.808 38.5367 118.302 37.837 118.59C37.1373 118.919 36.3965 119.002 35.6556 118.919C34.8736 118.837 34.1739 118.549 33.4742 118.055C32.7745 117.561 32.2806 116.985 31.9514 116.285C31.6221 115.585 31.4575 114.886 31.5398 114.104C31.6221 113.363 31.869 112.663 32.3218 112.005C32.7745 111.346 33.3508 110.852 34.0504 110.564C34.7501 110.235 35.4498 110.152 36.2318 110.235C37.0139 110.317 37.7136 110.605 38.4132 111.099C39.0718 111.593 39.6068 112.21 39.9361 112.869ZM36.1907 111.387C35.6145 111.346 35.0794 111.428 34.5855 111.675C34.0916 111.922 33.6389 112.293 33.3096 112.787C32.9803 113.281 32.7745 113.816 32.6922 114.392C32.6511 114.968 32.7334 115.503 32.9803 115.997C33.2273 116.491 33.5977 116.944 34.0916 117.273C34.5855 117.643 35.1206 117.849 35.6968 117.89C36.273 117.931 36.8081 117.849 37.302 117.643C37.7959 117.396 38.2486 117.026 38.5779 116.532C38.9072 116.038 39.1129 115.503 39.1953 114.927C39.2776 114.351 39.1541 113.816 38.9072 113.322C38.6602 112.787 38.2898 112.375 37.7959 112.005C37.302 111.634 36.7669 111.428 36.1907 111.387Z" fill="white"/>
<path d="M24.0487 109.741L30.099 103.979L30.9222 104.843L25.6539 109.864L26.971 111.223L26.2301 111.922L24.0487 109.741Z" fill="white"/>
<path d="M22.9375 98.2988L23.8842 99.5747L25.5305 98.34L26.2302 99.2455L24.5839 100.48L27.3827 104.184L26.7241 104.678L19.7683 104.596L18.9863 103.567L25.654 103.608L23.7196 101.056L22.279 102.168L21.5793 101.262L23.0199 100.151L22.0732 98.8751L22.9375 98.2988Z" fill="white"/>
<path d="M23.1845 95.4589C23.1433 96.0763 22.8963 96.6525 22.4848 97.2287C22.0732 97.8049 21.4558 98.2988 20.6738 98.7104C19.8918 99.122 19.1509 99.369 18.4512 99.4101C17.7515 99.4513 17.1341 99.3278 16.5579 99.0809C16.0229 98.7927 15.5701 98.3812 15.282 97.7638C14.9527 97.1876 14.8293 96.6113 14.8704 95.994C14.9116 95.3766 15.1585 94.8004 15.5701 94.2241C15.9817 93.6479 16.5991 93.154 17.3811 92.7424C18.1631 92.3308 18.904 92.0839 19.6037 92.0016C20.3034 91.9604 20.9207 92.0839 21.497 92.3308C22.032 92.6189 22.4848 93.0305 22.7729 93.6068C23.1021 94.2241 23.2256 94.8415 23.1845 95.4589ZM20.3445 93.154C19.686 93.0717 18.8628 93.2775 17.9573 93.7714C17.0518 94.2653 16.4345 94.8415 16.1463 95.4589C15.8582 96.0763 15.8582 96.6937 16.1875 97.2699C16.5168 97.8461 17.0107 98.2165 17.6692 98.2988C18.3277 98.3812 19.1509 98.1754 20.0564 97.6815C20.9619 97.1876 21.5793 96.6113 21.8674 95.994C22.1555 95.3766 22.1143 94.7592 21.8262 94.183C21.5381 93.5656 21.0442 93.2363 20.3445 93.154Z" fill="white"/>
<path d="M19.7271 88.5443C19.6036 89.1616 19.2744 89.6967 18.7805 90.1906C18.2865 90.6845 17.628 91.0961 16.8048 91.4253C15.9817 91.7135 15.1997 91.8781 14.5 91.7958C13.8003 91.7546 13.1829 91.5488 12.689 91.1784C12.1951 90.808 11.8247 90.3141 11.6189 89.6967C11.3719 89.0793 11.3308 88.4619 11.4954 87.8857C11.66 87.3095 11.9481 86.7333 12.442 86.2394C12.9359 85.7455 13.5945 85.3339 14.4176 85.0046C15.2408 84.6754 16.0228 84.5519 16.7225 84.6342C17.4222 84.6754 18.0396 84.8811 18.5335 85.2516C19.0274 85.622 19.3978 86.1159 19.6036 86.7333C19.8094 87.3507 19.8917 87.9269 19.7271 88.5443ZM17.2576 85.8689C16.599 85.7043 15.7759 85.7866 14.8292 86.1571C13.8414 86.5275 13.1829 86.9802 12.8125 87.5564C12.442 88.1327 12.3597 88.7089 12.6067 89.3674C12.8536 89.9848 13.3064 90.3964 13.9237 90.6022C14.5823 90.7668 15.4054 90.6845 16.3521 90.3141C17.3399 89.9436 17.9984 89.4909 18.3689 88.9147C18.7393 88.3385 18.8216 87.7622 18.5747 87.1037C18.3689 86.4452 17.9161 86.0336 17.2576 85.8689Z" fill="white"/>
<path d="M9.4375 82.2059L17.5457 80.1891L17.8338 81.3415L10.7134 83.1113L11.1662 84.9223L10.1784 85.1693L9.4375 82.2059Z" fill="white"/>
<path d="M12.2363 79.2012C12.1128 79.3658 11.9482 79.4893 11.7012 79.5305C11.4543 79.5716 11.2896 79.5305 11.0838 79.407C10.9192 79.2835 10.7957 79.1189 10.7546 78.8719C10.7134 78.6661 10.7546 78.4603 10.878 78.2957C11.0015 78.1311 11.1662 78.0076 11.4131 77.9664C11.6601 77.9253 11.8658 77.9664 12.0305 78.0899C12.1951 78.2134 12.3186 78.378 12.3598 78.5838C12.4009 78.7896 12.3598 78.9954 12.2363 79.2012ZM16.9695 78.3369C16.846 78.5015 16.6814 78.625 16.4344 78.6661C16.1875 78.7073 16.0229 78.6661 15.8171 78.5427C15.6524 78.4192 15.529 78.2545 15.4878 78.0076C15.4466 77.8018 15.4878 77.596 15.6113 77.4314C15.7348 77.2667 15.8994 77.1433 16.1463 77.1021C16.3933 77.0609 16.5991 77.1021 16.7637 77.2256C16.9283 77.3491 17.0518 77.5137 17.093 77.7195C17.1753 77.9664 17.1341 78.1722 16.9695 78.3369Z" fill="white"/>
<path d="M15.1173 70.2699L16.1462 70.1876L16.6813 76.1556L15.8581 76.2379L12.2773 73.151C11.8246 72.7806 11.4953 72.5337 11.1661 72.4102C10.8779 72.2867 10.5487 72.2455 10.2606 72.2867C9.80782 72.3279 9.51971 72.4925 9.27276 72.8218C9.06697 73.151 8.98465 73.6038 9.02581 74.18C9.10813 75.0855 9.47856 75.7852 10.1371 76.2379L9.51971 77.1023C9.10813 76.8141 8.7377 76.4026 8.49075 75.9087C8.20264 75.4148 8.03801 74.8385 7.99685 74.18C7.91453 73.3157 8.07917 72.616 8.44959 72.0398C8.82002 71.5047 9.35508 71.1754 10.0548 71.1343C10.5075 71.0931 10.9191 71.1343 11.3307 71.2989C11.7423 71.4635 12.2362 71.7928 12.7712 72.2456L15.4465 74.5916L15.1173 70.2699Z" fill="white"/>
<path d="M15.7759 67.8415C15.4055 68.3354 14.9116 68.7059 14.2531 68.994C13.5945 69.2409 12.8125 69.3644 11.9482 69.3232C11.0838 69.2821 10.3018 69.1174 9.68446 68.7882C9.06708 68.4589 8.57318 68.0473 8.28507 67.5123C7.9558 66.9772 7.83232 66.401 7.87348 65.7425C7.91464 65.0839 8.07928 64.5077 8.4497 64.0138C8.82013 63.5199 9.31403 63.1495 9.97257 62.8614C10.6311 62.6144 11.4131 62.4909 12.2774 62.5321C13.1418 62.5732 13.9238 62.7379 14.5412 63.0672C15.1585 63.3964 15.6524 63.808 15.9406 64.3431C16.2698 64.8781 16.3933 65.4543 16.3521 66.1129C16.3521 66.7714 16.1464 67.3476 15.7759 67.8415ZM14.5823 64.4254C14.0473 64.0138 13.2653 63.7668 12.2363 63.7257C11.2073 63.6845 10.3842 63.8492 9.80793 64.2196C9.23171 64.59 8.94361 65.1251 8.90245 65.7836C8.86129 66.4421 9.10824 67.0184 9.6433 67.4299C10.1784 67.8415 10.9604 68.0885 11.9893 68.1296C13.0183 68.1708 13.8415 68.0062 14.4177 67.6357C14.9939 67.2653 15.282 66.7303 15.3232 66.0717C15.3643 65.372 15.1174 64.837 14.5823 64.4254Z" fill="white"/>
<path d="M8.77896 57.9634L17.0107 59.2805L16.8049 60.4329L9.56097 59.2805L9.27286 61.1326L8.2439 60.968L8.77896 57.9634Z" fill="white"/>
<path d="M14.3765 51.7073C14.9527 51.2957 15.6113 51.1722 16.3933 51.378C16.8872 51.5015 17.2576 51.7485 17.5869 52.0777C17.9162 52.407 18.122 52.8186 18.2043 53.3536C18.2866 53.8887 18.2454 54.4649 18.0808 55.1234C17.9162 55.6997 17.7104 56.2347 17.3811 56.6875C17.0518 57.1814 16.7226 57.5518 16.311 57.7988L15.529 57.0167C15.8582 56.8109 16.1875 56.5228 16.4345 56.1112C16.7226 55.7408 16.9284 55.2881 17.0518 54.7942C17.2165 54.1768 17.2165 53.6829 17.0518 53.2713C16.8872 52.8597 16.5579 52.6128 16.1463 52.4893C15.6524 52.3658 15.2409 52.4481 14.9116 52.7363C14.5823 53.0244 14.253 53.6417 14.0473 54.5061L13.5534 56.3582L9.4375 54.7942L10.6723 50.2256L11.6601 50.5137L10.7134 54.0945L12.8537 54.9177L13.1006 54.0122C13.3476 52.9009 13.8003 52.1189 14.3765 51.7073Z" fill="white"/>
<path d="M24.5426 39.936C24.3369 39.9772 24.1311 39.936 23.9253 39.8126C23.7195 39.6891 23.6372 39.5245 23.596 39.2775C23.5548 39.0717 23.596 38.8659 23.7195 38.6601C23.843 38.4543 24.0076 38.372 24.2134 38.3309C24.4192 38.2897 24.625 38.3309 24.8308 38.4543C25.0366 38.5778 25.16 38.7425 25.2012 38.9894C25.2423 39.1952 25.2012 39.401 25.0777 39.5656C24.9131 39.7714 24.7484 39.8949 24.5426 39.936Z" fill="white"/>
<path d="M68.5 136C105.779 136 136 105.779 136 68.5C136 31.2208 105.779 1 68.5 1C31.2208 1 1 31.2208 1 68.5C1 105.779 31.2208 136 68.5 136Z" stroke="white" stroke-width="2" stroke-miterlimit="10"/>
</g>
</svg>
