<svg width="135" height="67" viewBox="0 0 135 67" fill="none" xmlns="http://www.w3.org/2000/svg">
<path d="M20.918 20.8689H14.222L12.836 24.0189H10.982L16.688 11.4189H18.47L24.194 24.0189H22.304L20.918 20.8689ZM20.288 19.4289L17.57 13.2549L14.852 19.4289H20.288ZM26.0736 11.4189H27.8736V22.4529H34.6956V24.0189H26.0736V11.4189ZM38.5611 12.9849V17.3769H44.8791V18.9249H38.5611V24.0189H36.7611V11.4189H45.6531V12.9849H38.5611ZM55.6348 20.8689H48.9388L47.5528 24.0189H45.6988L51.4048 11.4189H53.1868L58.9108 24.0189H57.0208L55.6348 20.8689ZM55.0048 19.4289L52.2868 13.2549L49.5688 19.4289H55.0048Z" fill="#323232"/>
<path d="M44.1087 41.346C45.7407 41.346 47.0247 41.736 47.9607 42.516C48.8967 43.296 49.3647 44.37 49.3647 45.738C49.3647 47.106 48.8967 48.18 47.9607 48.96C47.0247 49.74 45.7407 50.13 44.1087 50.13H40.9947V53.946H39.1947V41.346H44.1087ZM44.0547 48.564C45.1947 48.564 46.0647 48.324 46.6647 47.844C47.2647 47.352 47.5647 46.65 47.5647 45.738C47.5647 44.826 47.2647 44.13 46.6647 43.65C46.0647 43.158 45.1947 42.912 44.0547 42.912H40.9947V48.564H44.0547ZM57.8729 54.09C56.6009 54.09 55.4549 53.814 54.4349 53.262C53.4149 52.698 52.6109 51.924 52.0229 50.94C51.4469 49.956 51.1589 48.858 51.1589 47.646C51.1589 46.434 51.4469 45.336 52.0229 44.352C52.6109 43.368 53.4149 42.6 54.4349 42.048C55.4549 41.484 56.6009 41.202 57.8729 41.202C59.1329 41.202 60.2729 41.484 61.2929 42.048C62.3129 42.6 63.1109 43.368 63.6869 44.352C64.2629 45.324 64.5509 46.422 64.5509 47.646C64.5509 48.87 64.2629 49.974 63.6869 50.958C63.1109 51.93 62.3129 52.698 61.2929 53.262C60.2729 53.814 59.1329 54.09 57.8729 54.09ZM57.8729 52.488C58.7969 52.488 59.6249 52.278 60.3569 51.858C61.1009 51.438 61.6829 50.862 62.1029 50.13C62.5349 49.386 62.7509 48.558 62.7509 47.646C62.7509 46.734 62.5349 45.912 62.1029 45.18C61.6829 44.436 61.1009 43.854 60.3569 43.434C59.6249 43.014 58.7969 42.804 57.8729 42.804C56.9489 42.804 56.1089 43.014 55.3529 43.434C54.6089 43.854 54.0209 44.436 53.5889 45.18C53.1689 45.912 52.9589 46.734 52.9589 47.646C52.9589 48.558 53.1689 49.386 53.5889 50.13C54.0209 50.862 54.6089 51.438 55.3529 51.858C56.1089 52.278 56.9489 52.488 57.8729 52.488ZM67.3021 41.346H69.1021V52.38H75.9241V53.946H67.3021V41.346ZM77.9896 41.346H79.7896V53.946H77.9896V41.346ZM95.2439 53.946L95.2259 44.766L90.6719 52.416H89.8439L85.2899 44.82V53.946H83.5619V41.346H85.0379L90.2939 50.202L95.4779 41.346H96.9539L96.9719 53.946H95.2439ZM109.897 52.38V53.946H100.753V41.346H109.645V42.912H102.553V46.782H108.871V48.312H102.553V52.38H109.897ZM121.236 53.946L118.518 50.076C118.182 50.1 117.918 50.112 117.726 50.112H114.612V53.946H112.812V41.346H117.726C119.358 41.346 120.642 41.736 121.578 42.516C122.514 43.296 122.982 44.37 122.982 45.738C122.982 46.71 122.742 47.538 122.262 48.222C121.782 48.906 121.098 49.404 120.21 49.716L123.198 53.946H121.236ZM117.672 48.582C118.812 48.582 119.682 48.336 120.282 47.844C120.882 47.352 121.182 46.65 121.182 45.738C121.182 44.826 120.882 44.13 120.282 43.65C119.682 43.158 118.812 42.912 117.672 42.912H114.612V48.582H117.672Z" fill="#323232"/>
<rect x="1" y="1" width="133" height="64.1779" stroke="#323232" stroke-width="2"/>
</svg>
